<?xml version="1.0" encoding="iso-8859-1"?>
<!-- Generator: Adobe Illustrator 19.0.0, SVG Export Plug-In . SVG Version: 6.00 Build 0)  -->
<svg version="1.1" id="Capa_1" xmlns="http://www.w3.org/2000/svg" xmlns:xlink="http://www.w3.org/1999/xlink" x="0px" y="0px"
	 viewBox="0 0 512 512" style="enable-background:new 0 0 512 512;" xml:space="preserve">
<g>
	<g>
		<path d="M121.03,40.001H51.282c-5.522,0-10,4.477-10,10c0,5.523,4.478,10,10,10h69.749c5.522,0,10-4.477,10-10
			C131.03,44.478,126.553,40.001,121.03,40.001z"/>
	</g>
</g>
<g>
	<g>
		<path d="M191.789,42.931c-1.86-1.86-4.44-2.93-7.07-2.93c-2.64,0-5.21,1.07-7.08,2.93c-1.859,1.86-2.92,4.44-2.92,7.07
			c0,2.63,1.061,5.21,2.92,7.07c1.87,1.86,4.44,2.93,7.08,2.93c2.63,0,5.21-1.07,7.07-2.93c1.859-1.86,2.93-4.44,2.93-7.07
			C194.719,47.371,193.649,44.791,191.789,42.931z"/>
	</g>
</g>
<g>
	<g>
		<path d="M160.348,42.931c-1.859-1.86-4.439-2.93-7.069-2.93c-2.631,0-5.211,1.07-7.07,2.93c-1.86,1.86-2.93,4.44-2.93,7.07
			c0,2.63,1.069,5.21,2.93,7.07c1.859,1.86,4.439,2.93,7.07,2.93c2.63,0,5.21-1.07,7.069-2.93c1.86-1.86,2.931-4.44,2.931-7.07
			C163.279,47.371,162.209,44.791,160.348,42.931z"/>
	</g>
</g>
<g>
	<g>
		<path d="M121.03,120.001H51.282c-5.522,0-10,4.477-10,10c0,5.523,4.478,10,10,10h69.749c5.522,0,10-4.477,10-10
			S126.553,120.001,121.03,120.001z"/>
	</g>
</g>
<g>
	<g>
		<path d="M191.789,122.931c-1.86-1.86-4.44-2.93-7.07-2.93c-2.64,0-5.21,1.07-7.08,2.93c-1.859,1.86-2.92,4.44-2.92,7.07
			s1.061,5.21,2.92,7.07c1.87,1.86,4.44,2.93,7.08,2.93c2.63,0,5.21-1.07,7.07-2.93c1.859-1.86,2.93-4.44,2.93-7.07
			S193.649,124.791,191.789,122.931z"/>
	</g>
</g>
<g>
	<g>
		<path d="M160.348,122.931c-1.859-1.86-4.439-2.93-7.069-2.93c-2.641,0-5.211,1.07-7.07,2.93c-1.86,1.86-2.93,4.44-2.93,7.07
			s1.069,5.21,2.93,7.07c1.859,1.86,4.439,2.93,7.07,2.93c2.63,0,5.21-1.07,7.069-2.93c1.86-1.86,2.931-4.44,2.931-7.07
			S162.209,124.791,160.348,122.931z"/>
	</g>
</g>
<g>
	<g>
		<path d="M121.03,200H51.282c-5.522,0-10,4.477-10,10c0,5.523,4.478,10,10,10h69.749c5.522,0,10-4.477,10-10
			C131.03,204.477,126.553,200,121.03,200z"/>
	</g>
</g>
<g>
	<g>
		<path d="M191.789,202.93c-1.86-1.86-4.44-2.93-7.07-2.93c-2.64,0-5.21,1.07-7.08,2.93c-1.859,1.86-2.92,4.44-2.92,7.07
			c0,2.63,1.061,5.21,2.92,7.07c1.87,1.86,4.44,2.93,7.08,2.93c2.63,0,5.21-1.07,7.07-2.93c1.859-1.86,2.93-4.44,2.93-7.07
			C194.719,207.37,193.649,204.79,191.789,202.93z"/>
	</g>
</g>
<g>
	<g>
		<path d="M160.348,202.93c-1.859-1.86-4.439-2.93-7.069-2.93c-2.631,0-5.211,1.07-7.07,2.93c-1.86,1.86-2.93,4.44-2.93,7.07
			c0,2.63,1.069,5.21,2.93,7.07c1.859,1.86,4.439,2.93,7.07,2.93c2.63,0,5.21-1.07,7.069-2.93c1.86-1.86,2.931-4.44,2.931-7.07
			C163.279,207.37,162.209,204.79,160.348,202.93z"/>
	</g>
</g>
<g>
	<g>
		<path d="M235.999,130.001c0-16.339-7.878-30.87-20.035-40c12.156-9.13,20.035-23.661,20.035-40c0-27.57-22.43-50-50-50H50
			c-27.57,0-50,22.43-50,50c0,16.339,7.878,30.87,20.035,40C7.878,99.131,0,113.663,0,130.001s7.878,30.87,20.035,40
			C7.878,179.13,0,193.662,0,210c0,27.57,22.43,50,50,50h135.999c27.57,0,50-22.429,50-50c0-16.339-7.878-30.87-20.035-40
			C228.12,160.871,235.999,146.34,235.999,130.001z M20,50.001c0-16.542,13.458-30,30-30h135.999c16.542,0,30,13.458,30,30
			c0,16.542-13.458,30-30,30H50C33.458,80.001,20,66.543,20,50.001z M215.999,210c0,16.542-13.458,30-30,30H50
			c-16.542,0-30-13.458-30-30c0-16.542,13.458-30,30-30h135.999C202.541,180,215.999,193.458,215.999,210z M185.999,160.001H50
			c-16.542,0-30-13.458-30-30s13.458-30,30-30h135.999c16.542,0,30,13.458,30,30S202.541,160.001,185.999,160.001z"/>
	</g>
</g>
<g>
	<g>
		<path d="M397.032,292h-69.748c-5.522,0-10,4.477-10,10c0,5.523,4.478,10,10,10h69.748c5.522,0,10-4.477,10-10
			C407.032,296.477,402.555,292,397.032,292z"/>
	</g>
</g>
<g>
	<g>
		<path d="M467.787,294.93c-1.86-1.86-4.44-2.93-7.07-2.93c-2.63,0-5.21,1.07-7.07,2.93c-1.859,1.86-2.93,4.44-2.93,7.07
			c0,2.63,1.07,5.21,2.93,7.07s4.44,2.93,7.07,2.93c2.63,0,5.21-1.07,7.07-2.93c1.859-1.86,2.93-4.44,2.93-7.07
			C470.717,299.37,469.647,296.79,467.787,294.93z"/>
	</g>
</g>
<g>
	<g>
		<path d="M436.346,294.93c-1.859-1.86-4.439-2.93-7.07-2.93c-2.63,0-5.21,1.07-7.069,2.93c-1.86,1.86-2.931,4.44-2.931,7.07
			c0,2.63,1.07,5.21,2.931,7.07c1.859,1.86,4.439,2.93,7.069,2.93c2.631,0,5.211-1.07,7.07-2.93c1.86-1.86,2.93-4.44,2.93-7.07
			C439.276,299.37,438.207,296.79,436.346,294.93z"/>
	</g>
</g>
<g>
	<g>
		<path d="M397.032,371.999h-69.748c-5.522,0-10,4.477-10,10c0,5.523,4.478,10,10,10h69.748c5.522,0,10-4.477,10-10
			C407.032,376.476,402.555,371.999,397.032,371.999z"/>
	</g>
</g>
<g>
	<g>
		<path d="M467.787,374.929c-1.86-1.86-4.44-2.93-7.07-2.93c-2.63,0-5.21,1.07-7.07,2.93c-1.859,1.86-2.93,4.44-2.93,7.07
			s1.07,5.21,2.93,7.07s4.44,2.93,7.07,2.93c2.63,0,5.21-1.07,7.07-2.93c1.859-1.86,2.93-4.44,2.93-7.07
			S469.647,376.789,467.787,374.929z"/>
	</g>
</g>
<g>
	<g>
		<path d="M436.346,374.929c-1.859-1.86-4.439-2.93-7.07-2.93c-2.63,0-5.21,1.07-7.069,2.93c-1.86,1.86-2.931,4.44-2.931,7.07
			s1.07,5.21,2.931,7.07c1.859,1.86,4.439,2.93,7.069,2.93c2.631,0,5.211-1.07,7.07-2.93c1.86-1.86,2.93-4.44,2.93-7.07
			S438.207,376.789,436.346,374.929z"/>
	</g>
</g>
<g>
	<g>
		<path d="M397.032,451.999h-69.748c-5.522,0-10,4.478-10,10c0,5.523,4.478,10,10,10h69.748c5.522,0,10-4.477,10-10
			C407.032,456.476,402.554,451.999,397.032,451.999z"/>
	</g>
</g>
<g>
	<g>
		<path d="M467.787,454.929c-1.86-1.86-4.44-2.93-7.07-2.93c-2.63,0-5.21,1.07-7.07,2.93c-1.859,1.86-2.93,4.44-2.93,7.07
			c0,2.63,1.07,5.21,2.93,7.07c1.86,1.86,4.44,2.93,7.07,2.93c2.63,0,5.21-1.07,7.07-2.93c1.859-1.86,2.93-4.44,2.93-7.07
			C470.717,459.369,469.647,456.789,467.787,454.929z"/>
	</g>
</g>
<g>
	<g>
		<path d="M436.346,454.929c-1.859-1.86-4.439-2.93-7.07-2.93c-2.63,0-5.21,1.07-7.069,2.93c-1.86,1.86-2.931,4.44-2.931,7.07
			c0,2.63,1.07,5.21,2.931,7.07c1.859,1.86,4.439,2.93,7.069,2.93c2.631,0,5.211-1.07,7.07-2.93c1.86-1.86,2.93-4.44,2.93-7.07
			C439.276,459.369,438.207,456.789,436.346,454.929z"/>
	</g>
</g>
<g>
	<g>
		<path d="M512,381.999c0-16.339-7.878-30.87-20.035-40C504.121,332.87,512,318.339,512,302c0-27.57-22.43-50-50-50H326.001
			c-27.57,0-50,22.43-50,50c0,16.339,7.878,30.87,20.035,40c-12.156,9.13-20.035,23.661-20.035,40s7.878,30.87,20.035,40
			c-12.156,9.13-20.035,23.661-20.035,40c0,27.57,22.43,50,50,50H462c27.57,0,50-22.43,50-50c0-16.339-7.878-30.87-20.035-40
			C504.122,412.87,512,398.338,512,381.999z M296.001,302c0-16.542,13.458-30,30-30H462c16.542,0,30,13.458,30,30
			c0,16.542-13.458,30-30,30H326.001C309.459,332,296.001,318.542,296.001,302z M492,461.999c0,16.542-13.458,30-30,30H326.001
			c-16.542,0-30-13.458-30-30c0-16.542,13.458-30,30-30H462C478.542,431.999,492,445.457,492,461.999z M462,411.999H326.001
			c-16.542,0-30-13.458-30-30s13.458-30,30-30H462c16.542,0,30,13.458,30,30S478.542,411.999,462,411.999z"/>
	</g>
</g>
<g>
	<g>
		<path d="M332.998,80.001h-70c-5.522,0-10,4.477-10,10c0,5.523,4.478,10,10,10h70c5.522,0,10-4.477,10-10
			C342.998,84.478,338.52,80.001,332.998,80.001z"/>
	</g>
</g>
<g>
	<g>
		<path d="M397.032,60.001c-16.542,0-30,13.458-30,30c0,13.037,8.361,24.152,20,28.28v64.054c0,5.523,4.478,10,10,10s10-4.477,10-10
			v-64.054c11.639-4.128,20-15.243,20-28.28C427.031,73.459,413.574,60.001,397.032,60.001z M397.032,100.001
			c-5.514,0-10-4.486-10-10s4.487-10,10-10c5.514,0,10,4.486,10,10S402.546,100.001,397.032,100.001z"/>
	</g>
</g>
<g>
	<g>
		<path d="M248.999,411.999h-75c-5.522,0-10,4.477-10,10c0,5.523,4.478,10,10,10h75c5.522,0,10-4.477,10-10
			C258.998,416.476,254.521,411.999,248.999,411.999z"/>
	</g>
</g>
<g>
	<g>
		<path d="M124.965,393.72v-64.054c0-5.523-4.478-10-10-10s-10,4.477-10,10v64.054c-11.639,4.128-20,15.243-20,28.28
			c0,16.542,13.458,30,30,30c16.542,0,30-13.458,30-30C144.965,408.963,136.604,397.848,124.965,393.72z M114.965,431.999
			c-5.514,0-10-4.486-10-10s4.486-10,10-10s10,4.486,10,10S120.478,431.999,114.965,431.999z"/>
	</g>
</g>
<g>
</g>
<g>
</g>
<g>
</g>
<g>
</g>
<g>
</g>
<g>
</g>
<g>
</g>
<g>
</g>
<g>
</g>
<g>
</g>
<g>
</g>
<g>
</g>
<g>
</g>
<g>
</g>
<g>
</g>
</svg>
