<?xml version="1.0" encoding="iso-8859-1"?>
<!-- Generator: Adobe Illustrator 19.0.0, SVG Export Plug-In . SVG Version: 6.00 Build 0)  -->
<svg version="1.1" id="Capa_1" xmlns="http://www.w3.org/2000/svg" xmlns:xlink="http://www.w3.org/1999/xlink" x="0px" y="0px"
	 viewBox="0 0 512 512" style="enable-background:new 0 0 512 512;" xml:space="preserve">
<g>
	<g>
		<path d="M334,412H181c-5.522,0-10,4.477-10,10s4.478,10,10,10h153c5.522,0,10-4.477,10-10S339.522,412,334,412z"/>
	</g>
</g>
<g>
	<g>
		<path d="M502,412h-79.72c-3.018-8.509-9.771-15.262-18.28-18.28v-51.681c0-5.523-4.478-10-10-10c-5.522,0-10,4.477-10,10v51.681
			c-11.639,4.128-20,15.243-20,28.28c0,16.542,13.458,30,30,30c13.036,0,24.152-8.361,28.28-20H502c5.522,0,10-4.477,10-10
			S507.522,412,502,412z M394,432c-5.514,0-10-4.486-10-10c0-5.514,4.486-10,10-10c5.514,0,10,4.486,10,10
			C404,427.514,399.514,432,394,432z"/>
	</g>
</g>
<g>
	<g>
		<path d="M128,393.72v-51.681c0-5.523-4.478-10-10-10c-5.522,0-10,4.477-10,10v51.681c-8.509,3.018-15.262,9.771-18.28,18.28H10
			c-5.522,0-10,4.477-10,10s4.478,10,10,10h79.72c4.128,11.639,15.243,20,28.28,20c16.542,0,30-13.458,30-30
			C148,408.964,139.639,397.848,128,393.72z M118,432c-5.514,0-10-4.486-10-10c0-5.514,4.486-10,10-10s10,4.486,10,10
			C128,427.514,123.514,432,118,432z"/>
	</g>
</g>
<g>
	<g>
		<path d="M121.031,100H51.282c-5.522,0-10,4.477-10,10s4.478,10,10,10h69.749c5.522,0,10-4.477,10-10S126.554,100,121.031,100z"/>
	</g>
</g>
<g>
	<g>
		<path d="M191.79,102.93c-1.86-1.86-4.44-2.93-7.07-2.93s-5.21,1.07-7.08,2.93c-1.859,1.86-2.92,4.44-2.92,7.07
			s1.061,5.21,2.92,7.07c1.87,1.86,4.44,2.93,7.08,2.93c2.63,0,5.21-1.07,7.07-2.93c1.859-1.86,2.93-4.44,2.93-7.07
			S193.65,104.79,191.79,102.93z"/>
	</g>
</g>
<g>
	<g>
		<path d="M160.349,102.93c-1.859-1.86-4.439-2.93-7.069-2.93c-2.641,0-5.211,1.07-7.07,2.93c-1.86,1.86-2.93,4.44-2.93,7.07
			s1.069,5.21,2.93,7.07c1.859,1.86,4.439,2.93,7.07,2.93c2.63,0,5.21-1.07,7.069-2.93c1.86-1.86,2.931-4.44,2.931-7.07
			S162.21,104.79,160.349,102.93z"/>
	</g>
</g>
<g>
	<g>
		<path d="M121.031,180H51.282c-5.522,0-10,4.477-10,10s4.478,10,10,10h69.749c5.522,0,10-4.477,10-10S126.554,180,121.031,180z"/>
	</g>
</g>
<g>
	<g>
		<path d="M191.79,182.93c-1.86-1.86-4.44-2.93-7.07-2.93s-5.21,1.07-7.08,2.93c-1.859,1.86-2.92,4.44-2.92,7.07
			s1.061,5.21,2.92,7.07c1.87,1.86,4.45,2.93,7.08,2.93s5.21-1.07,7.07-2.93c1.859-1.86,2.93-4.44,2.93-7.07
			S193.65,184.79,191.79,182.93z"/>
	</g>
</g>
<g>
	<g>
		<path d="M160.349,182.93c-1.859-1.86-4.439-2.93-7.069-2.93c-2.631,0-5.211,1.07-7.07,2.93c-1.86,1.86-2.93,4.44-2.93,7.07
			s1.069,5.21,2.93,7.07c1.859,1.86,4.439,2.93,7.07,2.93c2.63,0,5.21-1.07,7.069-2.93c1.86-1.86,2.931-4.44,2.931-7.07
			S162.21,184.79,160.349,182.93z"/>
	</g>
</g>
<g>
	<g>
		<path d="M121.031,260H51.282c-5.522,0-10,4.477-10,10s4.478,10,10,10h69.749c5.522,0,10-4.477,10-10S126.553,260,121.031,260z"/>
	</g>
</g>
<g>
	<g>
		<path d="M191.79,262.93c-1.86-1.86-4.44-2.93-7.07-2.93c-2.64,0-5.21,1.07-7.08,2.93c-1.859,1.86-2.92,4.44-2.92,7.07
			s1.061,5.21,2.92,7.07c1.87,1.86,4.45,2.93,7.08,2.93s5.2-1.07,7.07-2.93c1.859-1.86,2.93-4.44,2.93-7.07
			S193.65,264.79,191.79,262.93z"/>
	</g>
</g>
<g>
	<g>
		<path d="M160.349,262.93c-1.859-1.86-4.439-2.93-7.069-2.93c-2.641,0-5.211,1.07-7.07,2.93c-1.86,1.86-2.93,4.44-2.93,7.07
			s1.069,5.21,2.93,7.07c1.859,1.86,4.439,2.93,7.07,2.93c2.63,0,5.21-1.07,7.069-2.93c1.86-1.86,2.931-4.44,2.931-7.07
			S162.21,264.79,160.349,262.93z"/>
	</g>
</g>
<g>
	<g>
		<path d="M236,190c0-16.339-7.878-30.87-20.035-40C228.122,140.87,236,126.339,236,110c0-27.57-22.43-50-50-50H50
			C22.43,60,0,82.43,0,110c0,16.339,7.878,30.87,20.035,40C7.878,159.13,0,173.661,0,190s7.878,30.87,20.035,40
			C7.878,239.13,0,253.661,0,270c0,27.57,22.43,50,50,50h136c27.57,0,50-22.43,50-50c0-16.339-7.878-30.87-20.035-40
			C228.122,220.87,236,206.339,236,190z M20,110c0-16.542,13.458-30,30-30h136c16.542,0,30,13.458,30,30s-13.458,30-30,30H50
			C33.458,140,20,126.542,20,110z M216,270c0,16.542-13.458,30-30,30H50c-16.542,0-30-13.458-30-30s13.458-30,30-30h136
			C202.542,240,216,253.458,216,270z M186,220H50c-16.542,0-30-13.458-30-30s13.458-30,30-30h136c16.542,0,30,13.458,30,30
			S202.542,220,186,220z"/>
	</g>
</g>
<g>
	<g>
		<path d="M397.031,100h-69.748c-5.522,0-10,4.477-10,10s4.478,10,10,10h69.748c5.522,0,10-4.477,10-10S402.554,100,397.031,100z"/>
	</g>
</g>
<g>
	<g>
		<path d="M467.79,102.93c-1.86-1.86-4.44-2.93-7.07-2.93c-2.64,0-5.21,1.07-7.07,2.93c-1.869,1.86-2.93,4.44-2.93,7.07
			s1.061,5.21,2.93,7.07c1.86,1.86,4.431,2.93,7.07,2.93c2.63,0,5.21-1.07,7.07-2.93c1.859-1.86,2.93-4.44,2.93-7.07
			S469.65,104.79,467.79,102.93z"/>
	</g>
</g>
<g>
	<g>
		<path d="M436.349,102.93c-1.859-1.86-4.439-2.93-7.069-2.93c-2.631,0-5.211,1.07-7.07,2.93c-1.86,1.86-2.93,4.44-2.93,7.07
			s1.069,5.21,2.93,7.07c1.859,1.86,4.439,2.93,7.07,2.93c2.63,0,5.21-1.07,7.069-2.93c1.86-1.86,2.931-4.44,2.931-7.07
			S438.21,104.79,436.349,102.93z"/>
	</g>
</g>
<g>
	<g>
		<path d="M397.031,180h-69.748c-5.522,0-10,4.477-10,10s4.478,10,10,10h69.748c5.522,0,10-4.477,10-10S402.554,180,397.031,180z"/>
	</g>
</g>
<g>
	<g>
		<path d="M467.79,182.93c-1.86-1.86-4.44-2.93-7.07-2.93c-2.64,0-5.21,1.07-7.07,2.93c-1.869,1.86-2.93,4.44-2.93,7.07
			s1.061,5.21,2.93,7.07c1.86,1.86,4.431,2.93,7.07,2.93c2.63,0,5.21-1.07,7.07-2.93c1.859-1.86,2.93-4.44,2.93-7.07
			S469.65,184.79,467.79,182.93z"/>
	</g>
</g>
<g>
	<g>
		<path d="M436.349,182.93c-1.859-1.86-4.439-2.93-7.069-2.93c-2.631,0-5.211,1.07-7.07,2.93c-1.86,1.86-2.93,4.44-2.93,7.07
			s1.069,5.21,2.93,7.07c1.859,1.86,4.439,2.93,7.07,2.93c2.63,0,5.21-1.07,7.069-2.93c1.86-1.86,2.931-4.44,2.931-7.07
			S438.21,184.79,436.349,182.93z"/>
	</g>
</g>
<g>
	<g>
		<path d="M397.031,260h-69.748c-5.522,0-10,4.477-10,10s4.478,10,10,10h69.748c5.522,0,10-4.477,10-10S402.553,260,397.031,260z"/>
	</g>
</g>
<g>
	<g>
		<path d="M467.79,262.93c-1.86-1.86-4.44-2.93-7.07-2.93c-2.64,0-5.21,1.07-7.07,2.93c-1.869,1.86-2.93,4.44-2.93,7.07
			s1.061,5.21,2.93,7.07c1.86,1.86,4.43,2.93,7.07,2.93c2.63,0,5.21-1.07,7.07-2.93c1.859-1.86,2.93-4.44,2.93-7.07
			S469.65,264.79,467.79,262.93z"/>
	</g>
</g>
<g>
	<g>
		<path d="M436.349,262.93c-1.859-1.86-4.439-2.93-7.069-2.93c-2.631,0-5.211,1.07-7.07,2.93c-1.86,1.86-2.93,4.44-2.93,7.07
			s1.069,5.21,2.93,7.07c1.859,1.86,4.439,2.93,7.07,2.93c2.63,0,5.21-1.07,7.069-2.93c1.86-1.86,2.931-4.44,2.931-7.07
			S438.21,264.79,436.349,262.93z"/>
	</g>
</g>
<g>
	<g>
		<path d="M512,190c0-16.339-7.878-30.87-20.035-40C504.122,140.87,512,126.339,512,110c0-27.57-22.43-50-50-50H326
			c-27.57,0-50,22.43-50,50c0,16.339,7.878,30.87,20.035,40C283.878,159.13,276,173.661,276,190s7.878,30.87,20.035,40
			C283.878,239.13,276,253.661,276,270c0,27.57,22.43,50,50,50h136c27.57,0,50-22.43,50-50c0-16.339-7.878-30.87-20.035-40
			C504.122,220.87,512,206.339,512,190z M296,110c0-16.542,13.458-30,30-30h136c16.542,0,30,13.458,30,30s-13.458,30-30,30H326
			C309.458,140,296,126.542,296,110z M492,270c0,16.542-13.458,30-30,30H326c-16.542,0-30-13.458-30-30s13.458-30,30-30h136
			C478.542,240,492,253.458,492,270z M462,220H326c-16.542,0-30-13.458-30-30s13.458-30,30-30h136c16.542,0,30,13.458,30,30
			S478.542,220,462,220z"/>
	</g>
</g>
<g>
</g>
<g>
</g>
<g>
</g>
<g>
</g>
<g>
</g>
<g>
</g>
<g>
</g>
<g>
</g>
<g>
</g>
<g>
</g>
<g>
</g>
<g>
</g>
<g>
</g>
<g>
</g>
<g>
</g>
</svg>
