<?xml version="1.0" encoding="iso-8859-1"?>
<!-- Generator: Adobe Illustrator 19.0.0, SVG Export Plug-In . SVG Version: 6.00 Build 0)  -->
<svg version="1.1" id="Capa_1" xmlns="http://www.w3.org/2000/svg" xmlns:xlink="http://www.w3.org/1999/xlink" x="0px" y="0px"
	 viewBox="0 0 512 512" style="enable-background:new 0 0 512 512;" xml:space="preserve">
<g>
	<g>
		<path d="M294.469,463.517h-48.08c-3.652-12.696-13.751-22.682-26.516-26.169v-42.722c0-5.523-4.478-10-10-10s-10,4.477-10,10
			v42.722c-16.115,4.402-27.999,19.162-27.999,36.653c0,20.952,17.046,37.998,37.998,37.998c17.668,0,32.557-12.121,36.791-28.484
			h47.803c5.522,0,10-4.477,10-10C304.468,467.994,299.992,463.517,294.469,463.517z M209.875,492.001
			c-9.924,0-17.999-8.075-17.999-17.999s8.075-17.999,17.999-17.999s17.999,8.075,17.999,17.999S219.799,492.001,209.875,492.001z"
			/>
	</g>
</g>
<g>
	<g>
		<path d="M133.006,463.517H10.012c-5.522,0-10,4.477-10,10c0,5.523,4.478,10,10,10h122.994c5.522,0,10-4.477,10-10
			C143.006,467.994,138.528,463.517,133.006,463.517z"/>
	</g>
</g>
<g>
	<g>
		<path d="M337.869,33.998c-16.541,0-29.999,13.457-29.999,29.999s13.457,29.999,29.999,29.999
			c16.541,0,29.999-13.457,29.999-29.999S354.41,33.998,337.869,33.998z M337.869,73.996c-5.514,0-10-4.486-10-10s4.486-10,10-10
			c5.514,0,10,4.486,10,10S343.382,73.996,337.869,73.996z"/>
	</g>
</g>
<g>
	<g>
		<path d="M190.209,53.997H64.203c-5.522,0-10,4.477-10,10c0,5.523,4.478,10,10,10h126.007c5.522,0,10-4.477,10-10
			C200.209,58.474,195.731,53.997,190.209,53.997z"/>
	</g>
</g>
<g>
	<g>
		<path d="M281.438,56.929c-1.859-1.859-4.43-2.93-7.069-2.93c-2.63,0-5.21,1.07-7.07,2.93c-1.86,1.86-2.93,4.43-2.93,7.07
			c0,2.63,1.069,5.21,2.93,7.07c1.86,1.86,4.44,2.93,7.07,2.93s5.21-1.07,7.069-2.93c1.87-1.86,2.931-4.44,2.931-7.07
			C284.369,61.359,283.308,58.789,281.438,56.929z"/>
	</g>
</g>
<g>
	<g>
		<path d="M239.281,56.929c-1.861-1.859-4.441-2.93-7.07-2.93c-2.641,0-5.22,1.07-7.08,2.93c-1.86,1.86-2.92,4.43-2.92,7.07
			c0,2.63,1.06,5.21,2.92,7.07c1.87,1.86,4.439,2.93,7.08,2.93c2.63,0,5.2-1.07,7.07-2.93c1.859-1.86,2.93-4.44,2.93-7.07
			C242.211,61.369,241.141,58.789,239.281,56.929z"/>
	</g>
</g>
<g>
	<g>
		<path d="M337.869,145.993c-16.541,0-29.999,13.457-29.999,29.999s13.457,29.999,29.999,29.999
			c16.541,0,29.999-13.457,29.999-29.999S354.41,145.993,337.869,145.993z M337.869,185.991c-5.514,0-10-4.486-10-10s4.486-10,10-10
			c5.514,0,10,4.486,10,10S343.382,185.991,337.869,185.991z"/>
	</g>
</g>
<g>
	<g>
		<path d="M190.209,165.992H64.203c-5.522,0-10,4.477-10,10s4.478,10,10,10h126.007c5.522,0,10-4.477,10-10
			S195.731,165.992,190.209,165.992z"/>
	</g>
</g>
<g>
	<g>
		<path d="M281.438,168.924c-1.859-1.859-4.43-2.93-7.069-2.93c-2.63,0-5.21,1.07-7.07,2.93c-1.86,1.86-2.93,4.43-2.93,7.07
			c0,2.63,1.069,5.21,2.93,7.07c1.87,1.86,4.44,2.93,7.07,2.93s5.21-1.07,7.069-2.93c1.87-1.86,2.931-4.44,2.931-7.07
			C284.369,173.354,283.308,170.784,281.438,168.924z"/>
	</g>
</g>
<g>
	<g>
		<path d="M281.437,280.919c-1.859-1.86-4.43-2.93-7.069-2.93c-2.629-0.001-5.209,1.07-7.07,2.93c-1.86,1.86-2.93,4.43-2.93,7.07
			c0,2.63,1.069,5.21,2.93,7.07c1.86,1.86,4.44,2.93,7.07,2.93s5.21-1.07,7.069-2.93c1.87-1.86,2.931-4.44,2.931-7.07
			C284.368,285.349,283.307,282.779,281.437,280.919z"/>
	</g>
</g>
<g>
	<g>
		<path d="M239.281,168.924c-1.861-1.859-4.441-2.93-7.07-2.93c-2.641,0-5.21,1.07-7.08,2.93c-1.86,1.85-2.92,4.43-2.92,7.07
			c0,2.63,1.06,5.21,2.92,7.07c1.87,1.86,4.439,2.93,7.08,2.93c2.63,0,5.21-1.07,7.07-2.93c1.859-1.87,2.93-4.44,2.93-7.07
			S241.141,170.784,239.281,168.924z"/>
	</g>
</g>
<g>
	<g>
		<path d="M419.993,177.991c0-23.596-12.455-44.328-31.128-55.997c18.673-11.669,31.128-32.401,31.128-55.997
			C419.993,29.606,390.388,0,353.996,0H66.01C29.619,0,0.014,29.606,0.014,65.997c0,23.596,12.455,44.328,31.128,55.997
			c-18.673,11.669-31.128,32.401-31.128,55.997c0,23.596,12.455,44.328,31.128,55.997c-18.674,11.669-31.13,32.401-31.13,55.997
			c0,36.391,29.606,65.997,65.997,65.997h171.865c5.522,0,10-4.477,10-10s-4.478-10-10-10H66.009
			c-25.363,0-45.998-20.635-45.998-45.998c0-25.363,20.635-45.998,45.998-45.998h287.986c11.466,0,22.449,4.243,30.926,11.947
			c4.086,3.715,10.411,3.412,14.125-0.674c3.715-4.087,3.412-10.411-0.675-14.125c-2.96-2.69-6.136-5.081-9.479-7.167
			C407.55,222.296,419.993,201.575,419.993,177.991z M20.012,65.997c0-25.363,20.635-45.998,45.998-45.998h287.986
			c25.363,0,45.998,20.635,45.998,45.998c0,25.363-20.635,45.998-45.998,45.998H66.009C40.646,111.995,20.012,91.36,20.012,65.997z
			 M353.995,223.989H66.009c-25.364,0-45.998-20.635-45.998-45.998c0-25.363,20.635-45.998,45.998-45.998h287.986
			c25.363,0,45.998,20.635,45.998,45.998C399.993,203.354,379.358,223.989,353.995,223.989z"/>
	</g>
</g>
<g>
	<g>
		<path d="M190.209,277.986H64.203c-5.522,0-10,4.477-10,10c0,5.523,4.478,10,10,10h126.007c5.522,0,10-4.477,10-10
			C200.209,282.463,195.731,277.986,190.209,277.986z"/>
	</g>
</g>
<g>
	<g>
		<path d="M239.28,280.919c-1.86-1.86-4.44-2.93-7.07-2.93c-2.64-0.001-5.219,1.07-7.08,2.93c-1.86,1.86-2.92,4.43-2.92,7.07
			c0,2.63,1.06,5.21,2.92,7.07c1.87,1.86,4.439,2.93,7.08,2.93c2.63,0,5.2-1.07,7.07-2.93c1.859-1.86,2.93-4.44,2.93-7.07
			S241.14,282.779,239.28,280.919z"/>
	</g>
</g>
<g>
	<g>
		<path d="M367.994,309.997c-31.979,0-57.997,26.018-57.997,57.997s26.018,57.997,57.997,57.997s57.997-26.018,57.997-57.997
			S399.973,309.997,367.994,309.997z M367.994,405.992c-20.952,0-37.998-17.046-37.998-37.998s17.046-37.998,37.998-37.998
			s37.998,17.046,37.998,37.998S388.946,405.992,367.994,405.992z"/>
	</g>
</g>
<g>
	<g>
		<path d="M509.059,494.917l-64.922-64.922c-0.059-0.059-0.123-0.108-0.182-0.165c13.765-16.878,22.034-38.409,22.034-61.837
			c0-54.035-43.961-97.995-97.995-97.995s-97.995,43.96-97.995,97.995c0,54.035,43.961,97.995,97.995,97.995
			c23.428,0,44.959-8.268,61.837-22.034c0.057,0.06,0.106,0.124,0.165,0.182l64.922,64.922c1.953,1.952,4.512,2.929,7.071,2.929
			c2.559,0,5.118-0.977,7.071-2.929C512.964,505.154,512.964,498.823,509.059,494.917z M367.994,445.99
			c-43.008,0-77.996-34.989-77.996-77.996s34.988-77.996,77.996-77.996c43.008,0,77.996,34.989,77.996,77.996
			S411.001,445.99,367.994,445.99z"/>
	</g>
</g>
<g>
</g>
<g>
</g>
<g>
</g>
<g>
</g>
<g>
</g>
<g>
</g>
<g>
</g>
<g>
</g>
<g>
</g>
<g>
</g>
<g>
</g>
<g>
</g>
<g>
</g>
<g>
</g>
<g>
</g>
</svg>
