<?xml version="1.0" encoding="iso-8859-1"?>
<!-- Generator: Adobe Illustrator 19.0.0, SVG Export Plug-In . SVG Version: 6.00 Build 0)  -->
<svg version="1.1" id="Capa_1" xmlns="http://www.w3.org/2000/svg" xmlns:xlink="http://www.w3.org/1999/xlink" x="0px" y="0px"
	 viewBox="0 0 512.001 512.001" style="enable-background:new 0 0 512.001 512.001;" xml:space="preserve">
<g>
	<g>
		<path d="M226,460.001h-8v-74c0-16.542-13.458-30-30-30H48c-16.542,0-30,13.458-30,30v74h-8c-5.523,0-10,4.477-10,10v12
			c0,16.542,13.458,30,30,30h176c16.542,0,30-13.458,30-30v-12C236,464.478,231.523,460.001,226,460.001z M38,386.001
			c0-5.514,4.486-10,10-10h140c5.514,0,10,4.486,10,10v74H38V386.001z M216,482.001c0,5.514-4.486,10-10,10H30
			c-5.514,0-10-4.486-10-10v-2h8h180h8V482.001z"/>
	</g>
</g>
<g>
	<g>
		<path d="M502,460.001h-8v-74c0-16.542-13.458-30-30-30H324c-16.542,0-30,13.458-30,30v74h-8c-5.523,0-10,4.477-10,10v12
			c0,16.542,13.458,30,30,30h176c16.542,0,30-13.458,30-30v-12C512,464.478,507.523,460.001,502,460.001z M314,386.001
			c0-5.514,4.486-10,10-10h140c5.514,0,10,4.486,10,10v74H314V386.001z M492,482.001c0,5.514-4.486,10-10,10H306
			c-5.514,0-10-4.486-10-10v-2h8h180h8V482.001z"/>
	</g>
</g>
<g>
	<g>
		<path d="M336.146,132.119c-4.828-2.681-10.915-0.942-13.598,3.885c-0.022,0.04-0.045,0.083-0.068,0.125
			c-2.595,4.81-0.845,10.826,3.946,13.487c1.539,0.854,3.204,1.26,4.847,1.26c3.514,0,6.923-1.856,8.751-5.146
			c0.022-0.04,0.045-0.083,0.068-0.125C342.688,140.796,340.938,134.78,336.146,132.119z"/>
	</g>
</g>
<g>
	<g>
		<path d="M399.32,90.735c-5.346,0-10.651,0.48-15.861,1.432c-7.355-24.533-22.033-46.62-42.032-62.985
			C318.43,10.364,289.367,0,259.594,0c-26.653,0-52.247,8.044-74.012,23.263c-18.51,12.942-33.138,30.232-42.735,50.403
			c-6.053-1.809-12.34-2.721-18.79-2.721c-36.208,0-65.667,29.442-65.667,65.631c0,2.146,0.107,4.299,0.321,6.448
			C37.998,154.508,25,176.237,25,200.37c0,36.189,29.458,65.631,65.667,65.631H246v11c0,5.523,4.477,10,10,10s10-4.477,10-10v-11
			H399.32c48.348,0,87.682-39.312,87.682-87.633S447.667,90.735,399.32,90.735z M399.32,246.001H90.667
			C65.487,246.001,45,225.531,45,200.37c0-18.668,11.192-35.268,28.514-42.292c4.534-1.838,7.072-6.686,6-11.459
			c-0.746-3.318-1.124-6.697-1.124-10.042c0-25.161,20.486-45.631,45.667-45.631c6.951,0,13.623,1.519,19.829,4.514
			c2.519,1.215,5.43,1.321,8.028,0.291c2.599-1.029,4.649-3.099,5.652-5.708C173.675,48.147,214.677,20,259.594,20
			c48.369,0,91.103,32.34,104.724,78.018c-5.144,2.24-10.078,4.96-14.74,8.175c-4.546,3.135-5.691,9.362-2.556,13.909
			c1.94,2.813,5.064,4.324,8.241,4.324c1.957,0,3.935-0.573,5.668-1.769c6.347-4.376,13.324-7.606,20.738-9.601
			c5.726-1.541,11.651-2.321,17.649-2.321c37.32,0,67.682,30.34,67.682,67.633C467,215.661,436.64,246.001,399.32,246.001z"/>
	</g>
</g>
<g>
	<g>
		<path d="M218,300.001H118c-5.523,0-10,4.477-10,10v18c0,5.523,4.477,10,10,10s10-4.477,10-10v-8h90c5.523,0,10-4.477,10-10
			S223.523,300.001,218,300.001z"/>
	</g>
</g>
<g>
	<g>
		<path d="M256.583,300.001H256c-5.523,0-10,4.477-10,10s4.477,10,10,10h0.584c5.523,0,9.999-4.477,9.999-10
			S262.107,300.001,256.583,300.001z"/>
	</g>
</g>
<g>
	<g>
		<path d="M394,300.001h-99.667c-5.523,0-10,4.477-10,10s4.477,10,10,10H384v8c0,5.523,4.477,10,10,10s10-4.477,10-10v-18
			C404,304.478,399.523,300.001,394,300.001z"/>
	</g>
</g>
<g>
</g>
<g>
</g>
<g>
</g>
<g>
</g>
<g>
</g>
<g>
</g>
<g>
</g>
<g>
</g>
<g>
</g>
<g>
</g>
<g>
</g>
<g>
</g>
<g>
</g>
<g>
</g>
<g>
</g>
</svg>
