<?xml version="1.0" encoding="iso-8859-1"?>
<!-- Generator: Adobe Illustrator 19.0.0, SVG Export Plug-In . SVG Version: 6.00 Build 0)  -->
<svg version="1.1" id="Capa_1" xmlns="http://www.w3.org/2000/svg" xmlns:xlink="http://www.w3.org/1999/xlink" x="0px" y="0px"
	 viewBox="0 0 512 512" style="enable-background:new 0 0 512 512;" xml:space="preserve">
<g>
	<g>
		<path d="M137.006,463.517H17.885c-5.522,0-10,4.478-10,10s4.478,10,10,10h119.121c5.522,0,10-4.478,10-10
			S142.528,463.517,137.006,463.517z"/>
	</g>
</g>
<g>
	<g>
		<path d="M337.869,33.998c-16.541,0-29.999,13.457-29.999,29.999s13.457,29.999,29.999,29.999
			c16.541,0,29.999-13.457,29.999-29.999S354.411,33.998,337.869,33.998z M337.869,73.996c-5.514,0-10-4.486-10-10s4.486-10,10-10
			c5.514,0,10,4.486,10,10S343.382,73.996,337.869,73.996z"/>
	</g>
</g>
<g>
	<g>
		<path d="M190.21,53.997H64.203c-5.522,0-10,4.478-10,10s4.478,10,10,10H190.21c5.522,0,10-4.478,10-10
			S195.731,53.997,190.21,53.997z"/>
	</g>
</g>
<g>
	<g>
		<path d="M281.438,56.93c-1.859-1.87-4.439-2.93-7.069-2.93s-5.21,1.06-7.07,2.93c-1.86,1.86-2.93,4.439-2.93,7.07
			c0,2.63,1.069,5.21,2.93,7.069c1.86,1.86,4.44,2.931,7.07,2.931s5.21-1.07,7.069-2.931c1.86-1.859,2.931-4.439,2.931-7.069
			C284.369,61.359,283.299,58.779,281.438,56.93z"/>
	</g>
</g>
<g>
	<g>
		<path d="M239.28,56.93c-1.869-1.87-4.439-2.93-7.069-2.93c-2.641,0-5.21,1.06-7.07,2.93c-1.87,1.86-2.93,4.43-2.93,7.07
			c0,2.63,1.06,5.21,2.93,7.069c1.86,1.86,4.44,2.931,7.07,2.931c2.62,0,5.2-1.07,7.069-2.931c1.86-1.859,2.921-4.439,2.921-7.069
			C242.201,61.369,241.14,58.79,239.28,56.93z"/>
	</g>
</g>
<g>
	<g>
		<path d="M419.993,177.991c0-23.596-12.455-44.328-31.128-55.997c18.673-11.669,31.128-32.401,31.128-55.997
			C419.993,29.606,390.387,0,353.996,0H66.01C29.619,0,0.013,29.606,0.013,65.997c0,23.596,12.455,44.328,31.128,55.997
			c-18.673,11.669-31.128,32.401-31.128,55.997c0,23.596,12.455,44.328,31.128,55.997C12.468,245.658,0.013,266.39,0.013,289.986
			c0,36.391,29.606,65.997,65.997,65.997h176.324c5.522,0,10-4.478,10-10s-4.478-10-10-10H66.01
			c-25.363,0-45.998-20.635-45.998-45.998c0-25.363,20.635-45.998,45.998-45.998h287.986c25.363,0,45.998,20.635,45.998,45.998
			c0,5.522,4.478,10,10,10s10-4.478,10-10c0-23.596-12.455-44.328-31.128-55.997C407.537,222.319,419.993,201.587,419.993,177.991z
			 M20.012,65.997c0-25.363,20.635-45.998,45.998-45.998h287.986c25.363,0,45.998,20.635,45.998,45.998
			c0,25.363-20.635,45.998-45.998,45.998H66.01C40.646,111.995,20.012,91.36,20.012,65.997z M353.996,223.989H66.01
			c-25.364,0-45.998-20.635-45.998-45.998c0-25.363,20.635-45.998,45.998-45.998h287.986c25.363,0,45.998,20.635,45.998,45.998
			C399.993,203.354,379.358,223.989,353.996,223.989z"/>
	</g>
</g>
<g>
	<g>
		<path d="M337.869,145.993c-16.541,0-29.999,13.457-29.999,29.999s13.457,29.999,29.999,29.999
			c16.541,0,29.999-13.457,29.999-29.999S354.411,145.993,337.869,145.993z M337.869,185.991c-5.514,0-10-4.486-10-10
			s4.486-10,10-10c5.514,0,10,4.486,10,10S343.382,185.991,337.869,185.991z"/>
	</g>
</g>
<g>
	<g>
		<path d="M337.869,259.987c-16.541,0-29.999,13.457-29.999,29.999c0,5.522,4.478,10,10,10c5.522,0,10-4.478,10-10
			c0-5.514,4.486-10,10-10c5.514,0,10,4.486,10,10c0,5.522,4.478,10,10,10s10-4.478,10-10
			C367.868,273.445,354.411,259.987,337.869,259.987z"/>
	</g>
</g>
<g>
	<g>
		<path d="M190.21,165.992H64.203c-5.522,0-10,4.478-10,10s4.478,10,10,10H190.21c5.522,0,10-4.478,10-10
			S195.731,165.992,190.21,165.992z"/>
	</g>
</g>
<g>
	<g>
		<path d="M281.438,168.925c-1.859-1.861-4.439-2.93-7.069-2.93s-5.21,1.069-7.07,2.93s-2.93,4.439-2.93,7.07
			c0,2.63,1.069,5.21,2.93,7.069c1.86,1.86,4.44,2.931,7.07,2.931s5.21-1.07,7.069-2.931c1.86-1.859,2.931-4.439,2.931-7.069
			C284.369,173.354,283.299,170.774,281.438,168.925z"/>
	</g>
</g>
<g>
	<g>
		<path d="M239.28,168.925c-1.869-1.87-4.439-2.93-7.069-2.93c-2.641,0-5.21,1.069-7.07,2.93c-1.87,1.86-2.93,4.43-2.93,7.07
			c0,2.63,1.06,5.21,2.93,7.069c1.86,1.86,4.44,2.931,7.07,2.931c2.62,0,5.2-1.07,7.069-2.931c1.86-1.859,2.921-4.439,2.921-7.069
			C242.201,173.364,241.14,170.785,239.28,168.925z"/>
	</g>
</g>
<g>
	<g>
		<path d="M190.21,277.986H64.203c-5.522,0-10,4.478-10,10s4.478,10,10,10H190.21c5.522,0,10-4.478,10-10
			S195.731,277.986,190.21,277.986z"/>
	</g>
</g>
<g>
	<g>
		<path d="M281.438,280.919c-1.859-1.86-4.43-2.93-7.069-2.93c-2.63,0-5.21,1.069-7.07,2.93c-1.86,1.86-2.93,4.439-2.93,7.07
			c0,2.63,1.069,5.21,2.93,7.069c1.86,1.86,4.44,2.931,7.07,2.931s5.21-1.07,7.069-2.931c1.86-1.859,2.931-4.439,2.931-7.069
			C284.369,285.348,283.299,282.779,281.438,280.919z"/>
	</g>
</g>
<g>
	<g>
		<path d="M239.279,280.919c-1.869-1.87-4.439-2.93-7.069-2.93c-2.64,0-5.209,1.06-7.07,2.93c-1.87,1.86-2.93,4.43-2.93,7.07
			c0,2.63,1.06,5.21,2.93,7.069c1.86,1.86,4.44,2.931,7.07,2.931c2.62,0,5.2-1.07,7.069-2.931c1.86-1.859,2.921-4.439,2.921-7.069
			C242.2,285.358,241.139,282.779,239.279,280.919z"/>
	</g>
</g>
<g>
	<g>
		<path d="M501.988,323.997H285.999c-5.522,0-10,4.478-10,10v129.521h-29.609c-3.652-12.696-13.751-22.682-26.516-26.169v-46.356
			c0-5.522-4.478-10-10-10s-10,4.478-10,10v46.356c-16.115,4.402-27.999,19.162-27.999,36.653c0,20.952,17.046,37.998,37.998,37.998
			c17.667,0,32.557-12.121,36.791-28.484h29.332v18.472c0,5.522,4.478,10,10,10h215.989c5.522,0,10-4.478,10-10V333.997
			C511.988,328.474,507.51,323.997,501.988,323.997z M209.876,492.001c-9.924,0-17.999-8.075-17.999-17.999
			s8.075-17.999,17.999-17.999s17.999,8.075,17.999,17.999S219.8,492.001,209.876,492.001z M478.847,343.996l-67.593,67.593
			c-9.518,9.52-25.005,9.52-34.521,0l-67.593-67.593H478.847z M491.988,475.948l-32.31-32.31c-3.906-3.904-10.235-3.904-14.142,0
			c-3.905,3.905-3.905,10.237,0,14.142l34.209,34.209H309.063l35.877-35.877c3.905-3.905,3.905-10.237,0-14.142
			c-3.906-3.904-10.235-3.904-14.142,0l-34.8,34.8V359.137l66.593,66.593c8.389,8.388,19.54,13.007,31.402,13.007
			s23.015-4.62,31.402-13.007l66.593-66.593V475.948z"/>
	</g>
</g>
<g>
</g>
<g>
</g>
<g>
</g>
<g>
</g>
<g>
</g>
<g>
</g>
<g>
</g>
<g>
</g>
<g>
</g>
<g>
</g>
<g>
</g>
<g>
</g>
<g>
</g>
<g>
</g>
<g>
</g>
</svg>
