<?xml version="1.0" encoding="iso-8859-1"?>
<!-- Generator: Adobe Illustrator 19.0.0, SVG Export Plug-In . SVG Version: 6.00 Build 0)  -->
<svg version="1.1" id="Capa_1" xmlns="http://www.w3.org/2000/svg" xmlns:xlink="http://www.w3.org/1999/xlink" x="0px" y="0px"
	 viewBox="0 0 512 512" style="enable-background:new 0 0 512 512;" xml:space="preserve">
<g>
	<g>
		<path d="M266.999,463.517H246.39c-3.652-12.696-13.751-22.682-26.516-26.169V391.66c0-5.523-4.477-10-10-10
			c-5.523,0-10,4.477-10,10v45.689c-16.115,4.402-27.999,19.162-27.999,36.653c0,20.952,17.046,37.998,37.998,37.998
			c17.668,0,32.557-12.121,36.791-28.484h20.333c5.523,0,10-4.477,10-10C276.999,467.994,272.522,463.517,266.999,463.517z
			 M209.875,492.001c-9.924,0-17.999-8.075-17.999-17.999s8.075-17.999,17.999-17.999s17.999,8.075,17.999,17.999
			S219.8,492.001,209.875,492.001z"/>
	</g>
</g>
<g>
	<g>
		<path d="M132.006,463.517H10.012c-5.523,0-10,4.477-10,10c0,5.523,4.477,10,10,10h121.994c5.523,0,10-4.477,10-10
			C142.006,467.994,137.529,463.517,132.006,463.517z"/>
	</g>
</g>
<g>
	<g>
		<path d="M337.869,33.998c-16.541,0-29.999,13.457-29.999,29.999s13.457,29.999,29.999,29.999
			c16.541,0,29.999-13.457,29.999-29.999S354.41,33.998,337.869,33.998z M337.869,73.996c-5.514,0-10-4.486-10-10s4.486-10,10-10
			c5.514,0,10,4.486,10,10S343.383,73.996,337.869,73.996z"/>
	</g>
</g>
<g>
	<g>
		<path d="M190.209,53.997H64.202c-5.523,0-10,4.477-10,10c0,5.523,4.477,10,10,10h126.007c5.523,0,10-4.477,10-10
			C200.209,58.474,195.732,53.997,190.209,53.997z"/>
	</g>
</g>
<g>
	<g>
		<path d="M281.438,56.929c-1.859-1.859-4.43-2.93-7.07-2.93c-2.63,0-5.21,1.07-7.07,2.93c-1.86,1.86-2.93,4.44-2.93,7.07
			c0,2.63,1.07,5.21,2.93,7.07c1.86,1.86,4.44,2.93,7.07,2.93s5.21-1.07,7.07-2.93c1.87-1.86,2.93-4.44,2.93-7.07
			C284.368,61.359,283.308,58.789,281.438,56.929z"/>
	</g>
</g>
<g>
	<g>
		<path d="M239.281,56.929c-1.86-1.86-4.44-2.93-7.07-2.93c-2.64,0-5.22,1.07-7.07,2.93c-1.87,1.86-2.93,4.43-2.93,7.07
			c0,2.63,1.06,5.21,2.93,7.07c1.86,1.86,4.43,2.93,7.07,2.93c2.63,0,5.21-1.07,7.07-2.93c1.86-1.86,2.93-4.44,2.93-7.07
			C242.211,61.369,241.141,58.789,239.281,56.929z"/>
	</g>
</g>
<g>
	<g>
		<path d="M337.869,145.993c-16.541,0-29.999,13.457-29.999,29.999s13.457,29.999,29.999,29.999
			c16.541,0,29.999-13.457,29.999-29.999S354.41,145.993,337.869,145.993z M337.869,185.991c-5.514,0-10-4.486-10-10s4.486-10,10-10
			c5.514,0,10,4.486,10,10S343.383,185.991,337.869,185.991z"/>
	</g>
</g>
<g>
	<g>
		<path d="M190.209,165.992H64.202c-5.523,0-10,4.477-10,10s4.477,10,10,10h126.007c5.523,0,10-4.477,10-10
			S195.732,165.992,190.209,165.992z"/>
	</g>
</g>
<g>
	<g>
		<path d="M281.438,168.924c-1.859-1.869-4.439-2.93-7.07-2.93c-2.63,0-5.21,1.06-7.07,2.93c-1.86,1.86-2.93,4.44-2.93,7.07
			s1.07,5.2,2.93,7.07c1.86,1.86,4.44,2.93,7.07,2.93s5.21-1.07,7.07-2.93c1.87-1.86,2.93-4.44,2.93-7.07
			C284.368,173.354,283.308,170.784,281.438,168.924z"/>
	</g>
</g>
<g>
	<g>
		<path d="M239.281,168.924c-1.86-1.86-4.44-2.93-7.07-2.93c-2.64,0-5.21,1.07-7.07,2.93c-1.87,1.86-2.93,4.43-2.93,7.07
			c0,2.63,1.06,5.21,2.93,7.07c1.86,1.86,4.43,2.93,7.07,2.93c2.63,0,5.21-1.07,7.07-2.93s2.93-4.44,2.93-7.07
			C242.211,173.354,241.141,170.784,239.281,168.924z"/>
	</g>
</g>
<g>
	<g>
		<path d="M419.992,177.991c0-23.596-12.455-44.328-31.128-55.997c18.673-11.669,31.128-32.401,31.128-55.997
			C419.992,29.606,390.386,0,353.995,0H66.009C29.619,0,0.013,29.606,0.013,65.997c0,23.596,12.455,44.328,31.128,55.997
			c-18.673,11.669-31.128,32.401-31.128,55.997c0,23.596,12.455,44.328,31.128,55.997C12.468,245.658,0.013,266.39,0.013,289.986
			c0,36.391,29.606,65.997,65.997,65.997H256c5.523,0,10-4.477,10-10s-4.477-10-10-10H66.009c-25.363,0-45.998-20.635-45.998-45.998
			c0-25.363,20.634-45.998,45.998-45.998h287.986c11.429,0,22.386,4.219,30.851,11.88c4.095,3.706,10.417,3.391,14.124-0.705
			c3.706-4.095,3.391-10.417-0.705-14.124c-2.93-2.651-6.071-5.008-9.376-7.069C407.549,222.298,419.992,201.575,419.992,177.991z
			 M20.012,65.997c0-25.363,20.634-45.998,45.998-45.998h287.986c25.363,0,45.998,20.635,45.998,45.998
			c0,25.363-20.635,45.998-45.998,45.998H66.009C40.646,111.995,20.012,91.36,20.012,65.997z M353.995,223.989H66.009
			c-25.364,0-45.998-20.635-45.998-45.998c0-25.363,20.634-45.998,45.998-45.998h287.986c25.363,0,45.998,20.635,45.998,45.998
			C399.993,203.354,379.358,223.989,353.995,223.989z"/>
	</g>
</g>
<g>
	<g>
		<path d="M190.209,277.986H64.202c-5.523,0-10,4.477-10,10c0,5.523,4.477,10,10,10h126.007c5.523,0,10-4.477,10-10
			C200.209,282.463,195.732,277.986,190.209,277.986z"/>
	</g>
</g>
<g>
	<g>
		<path d="M281.439,280.919c-1.86-1.87-4.44-2.93-7.07-2.93c-2.631-0.001-5.211,1.06-7.07,2.93c-1.86,1.86-2.93,4.43-2.93,7.07
			c0,2.63,1.07,5.21,2.93,7.07c1.86,1.86,4.44,2.93,7.07,2.93c2.64,0,5.21-1.07,7.07-2.93c1.87-1.86,2.93-4.44,2.93-7.07
			S283.309,282.779,281.439,280.919z"/>
	</g>
</g>
<g>
	<g>
		<path d="M239.281,280.919c-1.87-1.87-4.44-2.93-7.07-2.93c-2.64-0.001-5.21,1.06-7.08,2.93c-1.86,1.86-2.92,4.43-2.92,7.07
			c0,2.63,1.06,5.21,2.92,7.07c1.87,1.86,4.44,2.93,7.08,2.93c2.63,0,5.21-1.07,7.07-2.93c1.86-1.86,2.93-4.44,2.93-7.07
			S241.141,282.779,239.281,280.919z"/>
	</g>
</g>
<g>
	<g>
		<path d="M444.933,343.206c-3.905-3.906-10.238-3.904-14.142,0.001l-26.8,26.8c-3.08-1.288-6.457-2.002-9.997-2.002
			c-14.335,0-25.999,11.663-25.999,25.999c0,3.52,0.707,6.878,1.98,9.943l-2.763,2.763c-3.905,3.905-3.905,10.237,0,14.142
			c1.953,1.953,4.512,2.929,7.071,2.929s5.119-0.976,7.071-2.929l2.792-2.792c3.04,1.249,6.364,1.943,9.849,1.943
			c14.335,0,25.999-11.663,25.999-25.999c0-3.464-0.686-6.769-1.921-9.794l26.862-26.862
			C448.838,353.444,448.838,347.112,444.933,343.206z M393.993,400.003c-3.309,0-6-2.691-6-6c0-3.309,2.691-6,6-6
			c3.309,0,6,2.691,6,6C399.993,397.313,397.301,400.003,393.993,400.003z"/>
	</g>
</g>
<g>
	<g>
		<path d="M393.993,276.01c-65.062,0-117.994,52.932-117.994,117.994s52.932,117.994,117.994,117.994
			s117.994-52.932,117.994-117.994S459.055,276.01,393.993,276.01z M393.993,491.999c-50.638,0-92.426-38.606-97.481-87.931h10.104
			c5.523,0,10-4.477,10-10c0-5.523-4.477-10-10-10h-10.118c4.665-46.122,41.444-82.9,87.567-87.561v10.112c0,5.523,4.477,10,10,10
			c5.523,0,10-4.477,10-10v-10.097c46.056,4.723,82.764,41.473,87.424,87.547h-9.976c-5.523,0-10,4.477-10,10
			c0,5.523,4.477,10,10,10h9.961C486.42,453.394,444.63,491.999,393.993,491.999z"/>
	</g>
</g>
<g>
</g>
<g>
</g>
<g>
</g>
<g>
</g>
<g>
</g>
<g>
</g>
<g>
</g>
<g>
</g>
<g>
</g>
<g>
</g>
<g>
</g>
<g>
</g>
<g>
</g>
<g>
</g>
<g>
</g>
</svg>
