<?xml version="1.0" encoding="iso-8859-1"?>
<!-- Generator: Adobe Illustrator 19.0.0, SVG Export Plug-In . SVG Version: 6.00 Build 0)  -->
<svg version="1.1" id="Capa_1" xmlns="http://www.w3.org/2000/svg" xmlns:xlink="http://www.w3.org/1999/xlink" x="0px" y="0px"
	 viewBox="0 0 512 512" style="enable-background:new 0 0 512 512;" xml:space="preserve">
<g>
	<g>
		<path d="M502,455H319c-5.522,0-10,4.478-10,10c0,5.522,4.478,10,10,10h183c5.522,0,10-4.478,10-10
			C512,459.478,507.522,455,502,455z"/>
	</g>
</g>
<g>
	<g>
		<path d="M188,455H10c-5.522,0-10,4.478-10,10c0,5.522,4.478,10,10,10h178c5.522,0,10-4.478,10-10C198,459.478,193.522,455,188,455
			z"/>
	</g>
</g>
<g>
	<g>
		<path d="M266,436.72V419c0-5.522-4.478-10-10-10c-5.522,0-10,4.478-10,10v17.72c-11.639,4.128-20,15.243-20,28.28
			c0,16.542,13.458,30,30,30s30-13.458,30-30C286,451.964,277.639,440.848,266,436.72z M256,475c-5.514,0-10-4.486-10-10
			c0-5.514,4.486-10,10-10c5.514,0,10,4.486,10,10C266,470.514,261.514,475,256,475z"/>
	</g>
</g>
<g>
	<g>
		<path d="M260.337,115h-85.248c-5.522,0-10,4.478-10,10c0,5.522,4.478,10,10,10h85.248c5.522,0,10-4.478,10-10
			C270.337,119.478,265.859,115,260.337,115z"/>
	</g>
</g>
<g>
	<g>
		<path d="M345.25,116.36c-1.86-1.859-4.44-2.93-7.08-2.93c-2.63,0-5.21,1.07-7.07,2.93c-1.859,1.86-2.92,4.44-2.92,7.07
			s1.061,5.21,2.92,7.07c1.87,1.859,4.44,2.93,7.07,2.93c2.64,0,5.21-1.07,7.08-2.93c1.859-1.86,2.93-4.44,2.93-7.07
			S347.11,118.22,345.25,116.36z"/>
	</g>
</g>
<g>
	<g>
		<path d="M306.819,117.93c-1.859-1.861-4.439-2.93-7.069-2.93s-5.21,1.069-7.07,2.93c-1.86,1.861-2.93,4.44-2.93,7.07
			s1.069,5.21,2.93,7.069c1.86,1.86,4.44,2.931,7.07,2.931s5.21-1.07,7.069-2.931c1.86-1.859,2.931-4.439,2.931-7.069
			S308.68,119.79,306.819,117.93z"/>
	</g>
</g>
<g>
	<g>
		<path d="M260.337,203h-85.248c-5.522,0-10,4.478-10,10c0,5.522,4.478,10,10,10h85.248c5.522,0,10-4.478,10-10
			C270.337,207.478,265.859,203,260.337,203z"/>
	</g>
</g>
<g>
	<g>
		<path d="M345.25,204.36c-1.87-1.859-4.44-2.93-7.08-2.93c-2.63,0-5.2,1.07-7.07,2.93c-1.859,1.86-2.92,4.44-2.92,7.07
			s1.061,5.21,2.92,7.07c1.87,1.859,4.44,2.93,7.07,2.93c2.64,0,5.21-1.07,7.08-2.93c1.859-1.86,2.93-4.44,2.93-7.07
			S347.11,206.22,345.25,204.36z"/>
	</g>
</g>
<g>
	<g>
		<path d="M306.819,205.93c-1.859-1.861-4.439-2.93-7.069-2.93s-5.21,1.069-7.07,2.93c-1.86,1.861-2.93,4.44-2.93,7.07
			s1.069,5.21,2.93,7.069c1.86,1.86,4.44,2.931,7.07,2.931s5.21-1.07,7.069-2.931c1.86-1.859,2.931-4.439,2.931-7.069
			S308.68,207.79,306.819,205.93z"/>
	</g>
</g>
<g>
	<g>
		<path d="M260.337,291h-85.248c-5.522,0-10,4.478-10,10c0,5.522,4.477,10,10,10h85.248c5.522,0,10-4.478,10-10
			C270.337,295.478,265.859,291,260.337,291z"/>
	</g>
</g>
<g>
	<g>
		<path d="M345.25,292.36c-1.87-1.859-4.44-2.93-7.08-2.93c-2.63,0-5.21,1.07-7.07,2.93c-1.859,1.86-2.92,4.431-2.92,7.07
			c0,2.63,1.061,5.21,2.92,7.07c1.87,1.859,4.44,2.93,7.07,2.93c2.64,0,5.21-1.07,7.08-2.93c1.859-1.86,2.93-4.44,2.93-7.07
			S347.11,294.22,345.25,292.36z"/>
	</g>
</g>
<g>
	<g>
		<path d="M306.819,293.93c-1.859-1.86-4.439-2.93-7.069-2.93s-5.21,1.069-7.07,2.93c-1.86,1.861-2.93,4.44-2.93,7.07
			s1.069,5.21,2.93,7.069c1.86,1.861,4.44,2.931,7.07,2.931s5.21-1.07,7.069-2.931c1.86-1.859,2.931-4.439,2.931-7.069
			S308.68,295.79,306.819,293.93z"/>
	</g>
</g>
<g>
	<g>
		<path d="M398.127,213c0-18.137-8.998-34.203-22.754-44c13.756-9.797,22.754-25.863,22.754-44c0-29.775-24.225-54-54-54h-176
			c-29.775,0-54,24.225-54,54c0,18.137,8.998,34.203,22.754,44c-13.756,9.797-22.754,25.863-22.754,44
			c0,18.137,8.998,34.203,22.754,44c-13.756,9.797-22.754,25.863-22.754,44c0,29.775,24.225,54,54,54h176c29.775,0,54-24.225,54-54
			c0-18.137-8.998-34.203-22.754-44C389.129,247.203,398.127,231.137,398.127,213z M134.127,125c0-18.748,15.252-34,34-34h176
			c18.748,0,34,15.252,34,34s-15.252,34-34,34h-176C149.379,159,134.127,143.748,134.127,125z M378.127,301
			c0,18.748-15.252,34-34,34h-176c-18.748,0-34-15.252-34-34s15.252-34,34-34h176C362.875,267,378.127,282.252,378.127,301z
			 M344.127,247h-176c-18.748,0-34-15.252-34-34s15.252-34,34-34h176c18.748,0,34,15.252,34,34S362.875,247,344.127,247z"/>
	</g>
</g>
<g>
	<g>
		<path d="M475,17c-20.402,0-37,16.598-37,37s16.598,37,37,37c20.402,0,37-16.598,37-37S495.402,17,475,17z M475,71
			c-9.374,0-17-7.626-17-17s7.626-17,17-17c9.374,0,17,7.626,17,17S484.374,71,475,71z"/>
	</g>
</g>
<g>
	<g>
		<path d="M37,17C16.598,17,0,33.598,0,54s16.598,37,37,37s37-16.598,37-37S57.402,17,37,17z M37,71c-9.374,0-17-7.626-17-17
			s7.626-17,17-17s17,7.626,17,17S46.374,71,37,71z"/>
	</g>
</g>
<g>
	<g>
		<path d="M475,103c-5.522,0-10,4.478-10,10v2h-42c-5.522,0-10,4.478-10,10c0,5.522,4.478,10,10,10h52c5.522,0,10-4.478,10-10v-12
			C485,107.478,480.522,103,475,103z"/>
	</g>
</g>
<g>
	<g>
		<path d="M93,115H47v-2c0-5.522-4.478-10-10-10s-10,4.478-10,10v12c0,5.522,4.478,10,10,10h56c5.522,0,10-4.478,10-10
			C103,119.478,98.522,115,93,115z"/>
	</g>
</g>
<g>
	<g>
		<path d="M37,335.125c-20.402,0-37,16.598-37,37c0,20.402,16.598,37,37,37s37-16.598,37-37C74,351.723,57.402,335.125,37,335.125z
			 M37,389.125c-9.374,0-17-7.626-17-17c0-9.374,7.626-17,17-17s17,7.626,17,17C54,381.499,46.374,389.125,37,389.125z"/>
	</g>
</g>
<g>
	<g>
		<path d="M475,335.125c-20.402,0-37,16.598-37,37c0,20.402,16.598,37,37,37c20.402,0,37-16.598,37-37
			C512,351.723,495.402,335.125,475,335.125z M475,389.125c-9.374,0-17-7.626-17-17c0-9.374,7.626-17,17-17c9.374,0,17,7.626,17,17
			C492,381.499,484.374,389.125,475,389.125z"/>
	</g>
</g>
<g>
	<g>
		<path d="M89,291.125H37c-5.522,0-10,4.478-10,10v12c0,5.522,4.478,10,10,10s10-4.478,10-10v-2h42c5.522,0,10-4.478,10-10
			C99,295.603,94.522,291.125,89,291.125z"/>
	</g>
</g>
<g>
	<g>
		<path d="M475,291.125h-56c-5.522,0-10,4.478-10,10c0,5.522,4.478,10,10,10h46v2c0,5.522,4.478,10,10,10c5.522,0,10-4.478,10-10
			v-12C485,295.603,480.522,291.125,475,291.125z"/>
	</g>
</g>
<g>
	<g>
		<path d="M256,368.432c-5.522,0-10,4.477-10,10v4.068c0,5.522,4.478,10,10,10c5.522,0,10-4.478,10-10v-4.068
			C266,372.91,261.522,368.432,256,368.432z"/>
	</g>
</g>
<g>
	<g>
		<path d="M502,176h-54c-5.522,0-10,4.478-10,10v17h-19c-5.522,0-10,4.478-10,10c0,5.522,4.478,10,10,10h19v17
			c0,5.522,4.478,10,10,10h54c5.522,0,10-4.478,10-10v-54C512,180.478,507.522,176,502,176z M492,230h-34v-34h34V230z"/>
	</g>
</g>
<g>
	<g>
		<path d="M93,202.969H74V186c0-5.522-4.478-10-10-10H10c-5.522,0-10,4.478-10,10v54c0,5.522,4.478,10,10,10h54
			c5.522,0,10-4.478,10-10v-17.031h19c5.522,0,10-4.478,10-10C103,207.447,98.522,202.969,93,202.969z M54,230H20v-34h34V230z"/>
	</g>
</g>
<g>
</g>
<g>
</g>
<g>
</g>
<g>
</g>
<g>
</g>
<g>
</g>
<g>
</g>
<g>
</g>
<g>
</g>
<g>
</g>
<g>
</g>
<g>
</g>
<g>
</g>
<g>
</g>
<g>
</g>
</svg>
