<?xml version="1.0" encoding="iso-8859-1"?>
<!-- Generator: Adobe Illustrator 19.0.0, SVG Export Plug-In . SVG Version: 6.00 Build 0)  -->
<svg version="1.1" id="Capa_1" xmlns="http://www.w3.org/2000/svg" xmlns:xlink="http://www.w3.org/1999/xlink" x="0px" y="0px"
	 viewBox="0 0 512 512" style="enable-background:new 0 0 512 512;" xml:space="preserve">
<g>
	<g>
		<path d="M191,246h-78.72c-3.018-8.509-9.771-15.262-18.28-18.28V204h64c5.522,0,10-4.478,10-10V10c0-5.522-4.478-10-10-10H10
			C4.478,0,0,4.478,0,10v184c0,5.522,4.478,10,10,10h64v23.72c-11.639,4.128-20,15.243-20,28.28c0,16.542,13.458,30,30,30
			c13.036,0,24.152-8.361,28.28-20H191c5.522,0,10-4.478,10-10C201,250.478,196.522,246,191,246z M20,184V20h128v164H20z M84,266
			c-5.514,0-10-4.486-10-10c0-5.514,4.486-10,10-10s10,4.486,10,10C94,261.514,89.514,266,84,266z"/>
	</g>
</g>
<g>
	<g>
		<path d="M359,246h-74.72c-4.128-11.639-15.243-20-28.28-20c-16.542,0-30,13.458-30,30c0,13.036,8.361,24.152,20,28.28V308h-64
			c-5.522,0-10,4.478-10,10v184c0,5.522,4.478,10,10,10h148c5.522,0,10-4.478,10-10V318c0-5.522-4.478-10-10-10h-64v-23.72
			c8.509-3.018,15.262-9.771,18.28-18.28H359c5.522,0,10-4.478,10-10C369,250.478,364.522,246,359,246z M320,328v164H192V328H320z
			 M256,266c-5.514,0-10-4.486-10-10c0-5.514,4.486-10,10-10c5.514,0,10,4.486,10,10C266,261.514,261.514,266,256,266z"/>
	</g>
</g>
<g>
	<g>
		<path d="M502,0H354c-5.522,0-10,4.478-10,10v184c0,5.522,4.478,10,10,10h64v23.72c-11.639,4.128-20,15.243-20,28.28
			c0,16.542,13.458,30,30,30s30-13.458,30-30c0-13.036-8.361-24.152-20-28.28V204h64c5.522,0,10-4.478,10-10V10
			C512,4.478,507.522,0,502,0z M428,266c-5.514,0-10-4.486-10-10c0-5.514,4.486-10,10-10c5.514,0,10,4.486,10,10
			C438,261.514,433.514,266,428,266z M492,184H364V20h128V184z"/>
	</g>
</g>
<g>
	<g>
		<path d="M120,108H48c-5.522,0-10,4.478-10,10c0,5.522,4.478,10,10,10h72c5.522,0,10-4.478,10-10C130,112.478,125.522,108,120,108z
			"/>
	</g>
</g>
<g>
	<g>
		<path d="M120,76H97.667c-5.522,0-10,4.478-10,10c0,5.522,4.478,10,10,10H120c5.522,0,10-4.478,10-10C130,80.478,125.522,76,120,76
			z"/>
	</g>
</g>
<g>
	<g>
		<path d="M61.667,76H47.652c-5.522,0-10,4.478-10,10c0,5.522,4.478,10,10,10h14.015c5.522,0,10-4.478,10-10
			C71.667,80.478,67.189,76,61.667,76z"/>
	</g>
</g>
<g>
	<g>
		<path d="M120,44H48c-5.522,0-10,4.478-10,10s4.478,10,10,10h72c5.522,0,10-4.478,10-10S125.522,44,120,44z"/>
	</g>
</g>
<g>
	<g>
		<path d="M84.73,140H48c-5.522,0-10,4.478-10,10c0,5.522,4.478,10,10,10h36.73c5.522,0,10-4.478,10-10
			C94.73,144.478,90.253,140,84.73,140z"/>
	</g>
</g>
<g>
	<g>
		<path d="M123.27,140H120c-5.522,0-10,4.478-10,10c0,5.522,4.478,10,10,10h3.27c5.522,0,10-4.478,10-10
			C133.27,144.478,128.792,140,123.27,140z"/>
	</g>
</g>
<g>
	<g>
		<path d="M462.539,108h-72c-5.522,0-10,4.478-10,10c0,5.522,4.478,10,10,10h72c5.522,0,10-4.478,10-10
			C472.539,112.478,468.061,108,462.539,108z"/>
	</g>
</g>
<g>
	<g>
		<path d="M462.539,76h-22.334c-5.522,0-10,4.478-10,10c0,5.522,4.478,10,10,10h22.334c5.522,0,10-4.478,10-10
			C472.539,80.478,468.061,76,462.539,76z"/>
	</g>
</g>
<g>
	<g>
		<path d="M404.205,76h-14.014c-5.522,0-10,4.478-10,10c0,5.522,4.478,10,10,10h14.014c5.522,0,10-4.478,10-10
			C414.205,80.478,409.727,76,404.205,76z"/>
	</g>
</g>
<g>
	<g>
		<path d="M462.539,44h-72c-5.522,0-10,4.478-10,10s4.478,10,10,10h72c5.522,0,10-4.478,10-10S468.061,44,462.539,44z"/>
	</g>
</g>
<g>
	<g>
		<path d="M427.269,140H390.54c-5.522,0-10,4.478-10,10c0,5.522,4.478,10,10,10h36.729c5.522,0,10-4.478,10-10
			C437.269,144.478,432.791,140,427.269,140z"/>
	</g>
</g>
<g>
	<g>
		<path d="M465.809,140h-3.27c-5.522,0-10,4.478-10,10c0,5.522,4.478,10,10,10h3.27c5.522,0,10-4.478,10-10
			C475.809,144.478,471.331,140,465.809,140z"/>
	</g>
</g>
<g>
	<g>
		<path d="M290.539,416h-72c-5.522,0-10,4.478-10,10c0,5.522,4.478,10,10,10h72c5.522,0,10-4.478,10-10
			C300.539,420.478,296.061,416,290.539,416z"/>
	</g>
</g>
<g>
	<g>
		<path d="M290.539,384h-22.334c-5.522,0-10,4.478-10,10c0,5.522,4.478,10,10,10h22.334c5.522,0,10-4.478,10-10
			C300.539,388.478,296.061,384,290.539,384z"/>
	</g>
</g>
<g>
	<g>
		<path d="M232.205,384h-14.014c-5.522,0-10,4.478-10,10c0,5.522,4.478,10,10,10h14.014c5.522,0,10-4.478,10-10
			C242.205,388.478,237.727,384,232.205,384z"/>
	</g>
</g>
<g>
	<g>
		<path d="M290.539,352h-72c-5.522,0-10,4.478-10,10c0,5.522,4.478,10,10,10h72c5.522,0,10-4.478,10-10
			C300.539,356.478,296.061,352,290.539,352z"/>
	</g>
</g>
<g>
	<g>
		<path d="M255.269,448H218.54c-5.522,0-10,4.478-10,10c0,5.522,4.478,10,10,10h36.729c5.522,0,10-4.478,10-10
			C265.269,452.478,260.791,448,255.269,448z"/>
	</g>
</g>
<g>
	<g>
		<path d="M293.809,448h-3.27c-5.522,0-10,4.478-10,10c0,5.522,4.478,10,10,10h3.27c5.522,0,10-4.478,10-10
			C303.809,452.478,299.331,448,293.809,448z"/>
	</g>
</g>
<g>
</g>
<g>
</g>
<g>
</g>
<g>
</g>
<g>
</g>
<g>
</g>
<g>
</g>
<g>
</g>
<g>
</g>
<g>
</g>
<g>
</g>
<g>
</g>
<g>
</g>
<g>
</g>
<g>
</g>
</svg>
