<?xml version="1.0" encoding="iso-8859-1"?>
<!-- Generator: Adobe Illustrator 19.0.0, SVG Export Plug-In . SVG Version: 6.00 Build 0)  -->
<svg version="1.1" id="Capa_1" xmlns="http://www.w3.org/2000/svg" xmlns:xlink="http://www.w3.org/1999/xlink" x="0px" y="0px"
	 viewBox="0 0 512.002 512.002" style="enable-background:new 0 0 512.002 512.002;" xml:space="preserve">
<g>
	<g>
		<path d="M145,27.001H10c-5.522,0-10,4.478-10,10v384c0,5.522,4.478,10,10,10h114c5.522,0,10-4.478,10-10c0-5.522-4.478-10-10-10
			H20v-364h125c5.522,0,10-4.478,10-10C155,31.479,150.522,27.001,145,27.001z"/>
	</g>
</g>
<g>
	<g>
		<path d="M192.216,27.001h-0.4c-5.522,0-10,4.478-10,10c0,5.522,4.478,10,10,10h0.4c5.522,0,10-4.478,10-10
			C202.216,31.479,197.738,27.001,192.216,27.001z"/>
	</g>
</g>
<g>
	<g>
		<path d="M332.057,77.126h-280c-5.522,0-10,4.478-10,10v59.875c0,5.522,4.478,10,10,10h280c5.522,0,10-4.478,10-10V87.126
			C342.057,81.604,337.579,77.126,332.057,77.126z M322.057,137.001h-260V97.126h260V137.001z"/>
	</g>
</g>
<g>
	<g>
		<path d="M292.227,183.001h-77.498c-5.522,0-10,4.478-10,10c0,5.522,4.478,10,10,10h77.498c5.522,0,10-4.478,10-10
			C302.227,187.479,297.749,183.001,292.227,183.001z"/>
	</g>
</g>
<g>
	<g>
		<path d="M339.13,185.931c-1.87-1.86-4.44-2.93-7.07-2.93c-2.64,0-5.21,1.069-7.08,2.93c-1.859,1.86-2.92,4.44-2.92,7.07
			s1.061,5.21,2.92,7.069c1.87,1.86,4.44,2.931,7.08,2.931c2.63,0,5.2-1.07,7.07-2.931c1.86-1.859,2.93-4.439,2.93-7.069
			S340.99,187.791,339.13,185.931z"/>
	</g>
</g>
<g>
	<g>
		<path d="M292.227,223.251h-77.498c-5.522,0-10,4.478-10,10c0,5.522,4.478,10,10,10h77.498c5.522,0,10-4.478,10-10
			C302.227,227.729,297.749,223.251,292.227,223.251z"/>
	</g>
</g>
<g>
	<g>
		<path d="M256,263.501h-41.271c-5.522,0-10,4.478-10,10c0,5.522,4.478,10,10,10H256c5.522,0,10-4.478,10-10
			C266,267.979,261.522,263.501,256,263.501z"/>
	</g>
</g>
<g>
	<g>
		<path d="M339.13,226.181c-1.87-1.861-4.441-2.93-7.07-2.93c-2.63,0-5.21,1.069-7.08,2.93c-1.859,1.86-2.92,4.44-2.92,7.07
			s1.061,5.21,2.92,7.069c1.87,1.86,4.44,2.931,7.08,2.931c2.63,0,5.2-1.07,7.07-2.931c1.86-1.859,2.93-4.439,2.93-7.069
			S340.991,228.041,339.13,226.181z"/>
	</g>
</g>
<g>
	<g>
		<path d="M168.958,183.001H52.057c-5.522,0-10,4.478-10,10v150c0,5.522,4.478,10,10,10H139c5.522,0,10-4.478,10-10
			c0-5.522-4.478-10-10-10H62.057v-130h96.901v112.308c0,5.522,4.478,10,10,10c5.522,0,10-4.478,10-10V193.001
			C178.958,187.479,174.48,183.001,168.958,183.001z"/>
	</g>
</g>
<g>
	<g>
		<path d="M509.07,278.514c-3.906-3.904-10.236-3.904-14.143,0l-3.922,3.922V172.429c0-5.522-4.478-10-10-10
			c-5.522,0-10,4.478-10,10v110.007l-3.921-3.921c-3.905-3.902-10.235-3.904-14.143,0c-3.903,3.905-3.903,10.237,0.002,14.142
			l20.992,20.993c1.875,1.875,4.419,2.929,7.071,2.929c2.652,0,5.195-1.054,7.071-2.929l20.993-20.993
			C512.975,288.752,512.975,282.42,509.07,278.514z"/>
	</g>
</g>
<g>
	<g>
		<path d="M453.008,165.302l-20.951-20.951c-3.906-3.904-10.236-3.904-14.143,0l-20.951,20.951c-3.905,3.905-3.905,10.237,0,14.143
			c3.907,3.905,10.237,3.905,14.143,0l3.88-3.88v109.742c0,5.522,4.478,10,10,10c5.522,0,10-4.478,10-10V175.565l3.88,3.88
			c1.953,1.952,4.512,2.929,7.071,2.929s5.118-0.977,7.071-2.929C456.913,175.54,456.913,169.208,453.008,165.302z"/>
	</g>
</g>
<g>
	<g>
		<path d="M441.378,343.83c-3.648,0-7.274,0.278-10.85,0.83c-6.037-18.82-17.5-35.735-32.939-48.37
			c-4.247-3.475-8.763-6.572-13.476-9.305V37.001c0-5.522-4.478-10-10-10H235.364c-5.522,0-10,4.478-10,10c0,5.522,4.478,10,10,10
			h128.749v231.07c-10.205-3.306-20.929-5.051-31.778-5.051c-21.253,0-41.661,6.415-59.019,18.551
			c-14.247,9.962-25.61,23.155-33.265,38.527c-4.369-1.138-8.879-1.711-13.491-1.711c-29.468,0-53.442,23.962-53.442,53.415
			c0,1.272,0.046,2.547,0.139,3.821c-16.135,9.515-26.197,26.809-26.197,45.963c0,29.453,23.975,53.415,53.443,53.415h240.875
			c38.942,0,70.624-31.664,70.624-70.585C512.002,375.495,480.32,343.83,441.378,343.83z M441.378,465.001H200.503
			c-18.44,0-33.443-14.99-33.443-33.415c0-13.669,8.197-25.826,20.883-30.971c4.533-1.838,7.071-6.686,5.999-11.459
			c-0.546-2.431-0.823-4.905-0.823-7.354c0-18.425,15.002-33.415,33.442-33.415c5.092,0,9.978,1.111,14.521,3.304
			c2.519,1.216,5.431,1.319,8.028,0.291c2.599-1.029,4.647-3.1,5.651-5.709c12.248-31.853,43.423-53.253,77.574-53.253
			c36.131,0,68.122,23.735,79.053,57.499c-5.885,2.768-11.408,6.338-16.321,10.604c-6.289,5.464-11.518,11.922-15.538,19.193
			c-2.672,4.834-0.92,10.918,3.913,13.591c1.534,0.848,3.193,1.25,4.83,1.25c3.521,0,6.937-1.864,8.761-5.163
			c2.883-5.216,6.635-9.85,11.15-13.772c5.759-5.002,12.672-8.685,19.995-10.656c4.283-1.152,8.714-1.736,13.199-1.736
			c27.914,0,50.624,22.692,50.624,50.586C492.002,442.309,469.292,465.001,441.378,465.001z"/>
	</g>
</g>
<g>
</g>
<g>
</g>
<g>
</g>
<g>
</g>
<g>
</g>
<g>
</g>
<g>
</g>
<g>
</g>
<g>
</g>
<g>
</g>
<g>
</g>
<g>
</g>
<g>
</g>
<g>
</g>
<g>
</g>
</svg>
