<?xml version="1.0" encoding="iso-8859-1"?>
<!-- Generator: Adobe Illustrator 19.0.0, SVG Export Plug-In . SVG Version: 6.00 Build 0)  -->
<svg version="1.1" id="Capa_1" xmlns="http://www.w3.org/2000/svg" xmlns:xlink="http://www.w3.org/1999/xlink" x="0px" y="0px"
	 viewBox="0 0 512 512" style="enable-background:new 0 0 512 512;" xml:space="preserve">
<g>
	<g>
		<path d="M256.127,437.99h-13.063v-98c0-16.542-13.458-30-30-30h-160c-16.542,0-30,13.458-30,30v98H10c-5.522,0-10,4.478-10,10
			v13.674c0,18.376,14.709,33.326,32.789,33.326h200.549c18.08,0,32.789-14.95,32.789-33.326V447.99
			C266.127,442.468,261.649,437.99,256.127,437.99z M43.063,339.99c0-5.514,4.486-10,10-10h160c5.514,0,10,4.486,10,10v98h-180
			V339.99z M233.338,474.99H32.789c-6.933,0-12.789-6.103-12.789-13.326v-3.674h13.063h200h13.063v3.674h0.001
			C246.127,468.888,240.271,474.99,233.338,474.99z"/>
	</g>
</g>
<g>
	<g>
		<path d="M142.103,348.888c-3.906-3.904-10.236-3.904-14.143,0l-33.698,33.698c-3.905,3.905-3.905,10.237,0,14.143
			c1.953,1.952,4.512,2.929,7.071,2.929c2.559,0,5.118-0.977,7.071-2.929l33.698-33.698
			C146.008,359.125,146.008,352.793,142.103,348.888z"/>
	</g>
</g>
<g>
	<g>
		<path d="M190.238,347.919c-3.906-3.904-10.236-3.904-14.142,0l-55.01,55.01c-3.905,3.905-3.905,10.237,0,14.143
			c1.953,1.952,4.512,2.929,7.071,2.929c2.559,0,5.118-0.977,7.071-2.929l55.01-55.01
			C194.143,358.157,194.143,351.825,190.238,347.919z"/>
	</g>
</g>
<g>
	<g>
		<path d="M367.848,70.82c-3.649,0-7.274,0.277-10.85,0.829c-6.037-18.821-17.5-35.734-32.94-48.369
			C305.719,8.274,282.545,0.01,258.804,0.01c-21.253,0-41.661,6.415-59.018,18.551c-14.246,9.961-25.61,23.155-33.265,38.526
			c-4.369-1.138-8.879-1.711-13.492-1.711c-29.468,0-53.442,23.962-53.442,53.415c0,1.271,0.047,2.547,0.139,3.822
			c-16.133,9.514-26.196,26.808-26.196,45.962c-0.001,29.453,23.974,53.415,53.442,53.415h240.876
			c38.941,0,70.623-31.664,70.623-70.585C438.471,102.484,406.789,70.82,367.848,70.82z M367.847,191.99H126.972
			c-18.44,0-33.442-14.99-33.442-33.415c-0.001-13.67,8.196-25.826,20.881-30.969c4.534-1.838,7.072-6.687,6-11.459
			c-0.547-2.436-0.824-4.91-0.824-7.356c0-18.425,15.002-33.415,33.442-33.415c5.093,0,9.979,1.111,14.521,3.304
			c2.517,1.215,5.429,1.319,8.028,0.292c2.599-1.029,4.648-3.1,5.652-5.709c12.248-31.853,43.422-53.253,77.573-53.253
			c36.13,0,68.121,23.734,79.054,57.498c-5.885,2.767-11.407,6.338-16.32,10.604c-6.289,5.462-11.517,11.92-15.539,19.192
			c-2.673,4.833-0.922,10.918,3.911,13.591c1.534,0.849,3.193,1.251,4.831,1.251c3.521,0,6.936-1.863,8.76-5.162
			c2.885-5.218,6.638-9.851,11.152-13.772c5.758-5.002,12.669-8.686,19.991-10.656c4.281-1.152,8.714-1.736,13.204-1.736
			c27.914,0,50.623,22.692,50.623,50.585C418.47,169.298,395.761,191.99,367.847,191.99z"/>
	</g>
</g>
<g>
	<g>
		<path d="M512,405.99c0-12.809-5.771-24.29-14.841-32c9.07-7.71,14.841-19.191,14.841-32c0-23.159-18.841-42-42-42H336.979
			c-23.159,0-42,18.841-42,42c0,12.809,5.771,24.29,14.841,32c-9.07,7.71-14.841,19.191-14.841,32c0,12.809,5.771,24.29,14.841,32
			c-9.07,7.71-14.841,19.191-14.841,32c0,23.159,18.841,42,42,42H470c23.159,0,42-18.841,42-42c0-12.809-5.771-24.29-14.841-32
			C506.229,430.28,512,418.8,512,405.99z M470,491.99H336.979c-12.131,0-22-9.869-22-22c0-12.131,9.869-22,22-22H470
			c12.131,0,22,9.869,22,22S482.131,491.99,470,491.99z M470,427.99H336.979c-12.131,0-22-9.869-22-22c0-12.131,9.869-22,22-22H470
			c12.131,0,22,9.869,22,22C492,418.121,482.131,427.99,470,427.99z M470,363.99H336.979c-12.13,0-22-9.869-22-22
			c0-12.131,9.869-22,22-22H470c12.131,0,22,9.869,22,22C492,354.121,482.131,363.99,470,363.99z"/>
	</g>
</g>
<g>
	<g>
		<path d="M404.262,330.848h-62.22c-5.522,0-10,4.478-10,10c0,5.522,4.478,10,10,10h62.22c5.522,0,10-4.478,10-10
			C414.262,335.326,409.784,330.848,404.262,330.848z"/>
	</g>
</g>
<g>
	<g>
		<path d="M472.74,333.77c-1.86-1.859-4.431-2.92-7.07-2.92c-2.63,0-5.21,1.061-7.07,2.92c-1.859,1.87-2.93,4.45-2.93,7.08
			c0,2.63,1.07,5.21,2.93,7.07s4.44,2.93,7.07,2.93s5.21-1.069,7.07-2.93c1.86-1.86,2.93-4.441,2.93-7.07
			C475.67,338.22,474.6,335.64,472.74,333.77z"/>
	</g>
</g>
<g>
	<g>
		<path d="M443.19,333.77c-1.86-1.86-4.43-2.92-7.06-2.92c-2.64,0-5.21,1.061-7.08,2.92c-1.86,1.87-2.92,4.45-2.92,7.08
			c0,2.63,1.06,5.21,2.92,7.07c1.87,1.86,4.45,2.93,7.08,2.93c2.63,0,5.2-1.069,7.06-2.93c1.87-1.86,2.931-4.44,2.931-7.07
			C446.121,338.21,445.06,335.64,443.19,333.77z"/>
	</g>
</g>
<g>
	<g>
		<path d="M404.262,394.848h-62.22c-5.522,0-10,4.478-10,10c0,5.522,4.478,10,10,10h62.22c5.522,0,10-4.478,10-10
			C414.262,399.326,409.784,394.848,404.262,394.848z"/>
	</g>
</g>
<g>
	<g>
		<path d="M472.74,397.781c-1.86-1.861-4.44-2.931-7.07-2.931c-2.63,0-5.21,1.07-7.07,2.931c-1.859,1.859-2.93,4.439-2.93,7.069
			s1.07,5.21,2.93,7.07s4.44,2.93,7.07,2.93s5.21-1.069,7.07-2.93c1.859-1.87,2.93-4.44,2.93-7.07S474.6,399.64,472.74,397.781z"/>
	</g>
</g>
<g>
	<g>
		<path d="M443.2,397.781c-1.87-1.861-4.44-2.931-7.07-2.931s-5.21,1.07-7.07,2.931c-1.87,1.859-2.93,4.43-2.93,7.069
			c0,2.63,1.06,5.21,2.93,7.07c1.86,1.86,4.44,2.93,7.07,2.93s5.2-1.069,7.07-2.93c1.859-1.87,2.93-4.44,2.93-7.07
			S445.06,399.64,443.2,397.781z"/>
	</g>
</g>
<g>
	<g>
		<path d="M404.262,458.848h-62.22c-5.522,0-10,4.477-10,10c0,5.522,4.478,10,10,10h62.22c5.522,0,10-4.478,10-10
			C414.262,463.326,409.784,458.848,404.262,458.848z"/>
	</g>
</g>
<g>
	<g>
		<path d="M472.74,461.781c-1.86-1.86-4.431-2.931-7.07-2.931c-2.63,0-5.21,1.07-7.07,2.931c-1.859,1.859-2.93,4.439-2.93,7.069
			s1.07,5.21,2.93,7.07s4.44,2.93,7.07,2.93s5.21-1.069,7.07-2.93c1.859-1.86,2.93-4.44,2.93-7.07S474.6,463.64,472.74,461.781z"/>
	</g>
</g>
<g>
	<g>
		<path d="M443.2,461.781c-1.86-1.86-4.44-2.931-7.07-2.931c-2.64,0-5.22,1.07-7.07,2.931c-1.87,1.859-2.93,4.43-2.93,7.069
			c0,2.63,1.06,5.21,2.93,7.07c1.86,1.86,4.43,2.93,7.07,2.93c2.63,0,5.2-1.069,7.07-2.93c1.859-1.86,2.93-4.44,2.93-7.07
			S445.06,463.64,443.2,461.781z"/>
	</g>
</g>
<g>
	<g>
		<path d="M394,245.99H266v-9.012c0-5.522-4.478-10-10-10c-5.522,0-10,4.478-10,10v9.012H118c-5.522,0-10,4.478-10,10v18
			c0,5.522,4.478,10,10,10c5.522,0,10-4.478,10-10v-8h256v8c0,5.523,4.478,10,10,10c5.522,0,10-4.478,10-10v-18
			C404,250.468,399.522,245.99,394,245.99z"/>
	</g>
</g>
<g>
</g>
<g>
</g>
<g>
</g>
<g>
</g>
<g>
</g>
<g>
</g>
<g>
</g>
<g>
</g>
<g>
</g>
<g>
</g>
<g>
</g>
<g>
</g>
<g>
</g>
<g>
</g>
<g>
</g>
</svg>
