<?xml version="1.0" encoding="iso-8859-1"?>
<!-- Generator: Adobe Illustrator 19.0.0, SVG Export Plug-In . SVG Version: 6.00 Build 0)  -->
<svg version="1.1" id="Capa_1" xmlns="http://www.w3.org/2000/svg" xmlns:xlink="http://www.w3.org/1999/xlink" x="0px" y="0px"
	 viewBox="0 0 512 512" style="enable-background:new 0 0 512 512;" xml:space="preserve">
<g>
	<g>
		<path d="M330,428H196c-5.523,0-10,4.478-10,10c0,5.522,4.477,10,10,10h134c5.523,0,10-4.478,10-10
			C340,432.478,335.523,428,330,428z"/>
	</g>
</g>
<g>
	<g>
		<path d="M502,428h-79.72c-3.018-8.509-9.771-15.262-18.28-18.28v-71.053c0-5.522-4.477-10-10-10s-10,4.478-10,10v71.053
			c-11.639,4.128-20,15.243-20,28.28c0,16.542,13.458,30,30,30c13.036,0,24.152-8.361,28.28-20H502c5.523,0,10-4.478,10-10
			C512,432.478,507.523,428,502,428z M394,448c-5.514,0-10-4.486-10-10c0-5.514,4.486-10,10-10c5.514,0,10,4.486,10,10
			C404,443.514,399.514,448,394,448z"/>
	</g>
</g>
<g>
	<g>
		<path d="M143.827,409.72v-71.053c0-5.522-4.477-10-10-10c-5.523,0-10,4.478-10,10v71.053c-8.509,3.018-15.262,9.771-18.28,18.28
			H10c-5.523,0-10,4.478-10,10c0,5.522,4.477,10,10,10h95.547c4.128,11.639,15.243,20,28.28,20c16.542,0,30-13.458,30-30
			C163.827,424.964,155.466,413.848,143.827,409.72z M133.827,448c-5.514,0-10-4.486-10-10c0-5.514,4.486-10,10-10
			c5.514,0,10,4.486,10,10C143.827,443.514,139.341,448,133.827,448z"/>
	</g>
</g>
<g>
	<g>
		<path d="M422,84h-56c-5.523,0-10,4.478-10,10c0,5.522,4.477,10,10,10h56c5.523,0,10-4.478,10-10C432,88.478,427.523,84,422,84z"/>
	</g>
</g>
<g>
	<g>
		<path d="M422,164h-56c-5.523,0-10,4.478-10,10c0,5.522,4.477,10,10,10h56c5.523,0,10-4.478,10-10C432,168.478,427.523,164,422,164
			z"/>
	</g>
</g>
<g>
	<g>
		<path d="M422,124h-56c-5.523,0-10,4.478-10,10c0,5.522,4.477,10,10,10h56c5.523,0,10-4.478,10-10C432,128.478,427.523,124,422,124
			z"/>
	</g>
</g>
<g>
	<g>
		<path d="M422,204h-56c-5.523,0-10,4.478-10,10c0,5.522,4.477,10,10,10h56c5.523,0,10-4.478,10-10C432,208.478,427.523,204,422,204
			z"/>
	</g>
</g>
<g>
	<g>
		<path d="M266,174c0-16.339-7.878-30.87-20.035-40C258.122,124.87,266,110.339,266,94c0-27.57-22.43-50-50-50H50
			C22.43,44,0,66.43,0,94c0,16.339,7.878,30.87,20.035,40C7.878,143.13,0,157.661,0,174s7.878,30.87,20.035,40
			C7.878,223.13,0,237.661,0,254c0,27.57,22.43,50,50,50h166c27.57,0,50-22.43,50-50c0-16.339-7.878-30.87-20.035-40
			C258.122,204.87,266,190.339,266,174z M20,94c0-16.542,13.458-30,30-30h166c16.542,0,30,13.458,30,30s-13.458,30-30,30H50
			C33.458,124,20,110.542,20,94z M246,254c0,16.542-13.458,30-30,30H50c-16.542,0-30-13.458-30-30s13.458-30,30-30h166
			C232.542,224,246,237.458,246,254z M216,204H50c-16.542,0-30-13.458-30-30s13.458-30,30-30h166c16.542,0,30,13.458,30,30
			S232.542,204,216,204z"/>
	</g>
</g>
<g>
	<g>
		<path d="M133.827,82.571H56.329c-5.523,0-10,4.478-10,10c0,5.522,4.477,10,10,10h77.499c5.523,0,10-4.478,10-10
			C143.828,87.049,139.35,82.571,133.827,82.571z"/>
	</g>
</g>
<g>
	<g>
		<path d="M217.66,85.5c-1.86-1.86-4.44-2.931-7.07-2.931s-5.21,1.07-7.07,2.931c-1.86,1.859-2.93,4.439-2.93,7.069
			c0,2.631,1.07,5.211,2.93,7.07c1.86,1.86,4.44,2.93,7.07,2.93s5.21-1.069,7.07-2.93c1.86-1.859,2.93-4.439,2.93-7.07
			C220.59,89.939,219.52,87.359,217.66,85.5z"/>
	</g>
</g>
<g>
	<g>
		<path d="M180.73,85.5c-1.86-1.86-4.44-2.931-7.07-2.931c-2.64,0-5.21,1.07-7.07,2.931c-1.87,1.859-2.93,4.439-2.93,7.069
			c0,2.631,1.06,5.211,2.93,7.07c1.86,1.86,4.44,2.93,7.07,2.93s5.21-1.069,7.07-2.93c1.86-1.859,2.93-4.439,2.93-7.07
			C183.66,89.939,182.59,87.359,180.73,85.5z"/>
	</g>
</g>
<g>
	<g>
		<path d="M133.827,162.571H56.329c-5.523,0-10,4.478-10,10c0,5.522,4.477,10,10,10h77.499c5.523,0,10-4.478,10-10
			C143.828,167.049,139.35,162.571,133.827,162.571z"/>
	</g>
</g>
<g>
	<g>
		<path d="M217.66,165.5c-1.86-1.86-4.44-2.931-7.07-2.931s-5.21,1.07-7.07,2.931c-1.86,1.859-2.93,4.439-2.93,7.069
			c0,2.631,1.07,5.211,2.93,7.07c1.86,1.86,4.44,2.93,7.07,2.93s5.21-1.069,7.07-2.93c1.86-1.859,2.93-4.439,2.93-7.07
			C220.59,169.939,219.52,167.359,217.66,165.5z"/>
	</g>
</g>
<g>
	<g>
		<path d="M180.73,165.5c-1.86-1.86-4.44-2.931-7.07-2.931c-2.64,0-5.22,1.07-7.07,2.931c-1.87,1.859-2.93,4.439-2.93,7.069
			c0,2.631,1.06,5.211,2.93,7.07c1.86,1.86,4.44,2.93,7.07,2.93s5.2-1.069,7.07-2.93c1.86-1.859,2.93-4.439,2.93-7.07
			C183.66,169.939,182.59,167.359,180.73,165.5z"/>
	</g>
</g>
<g>
	<g>
		<path d="M133.828,242.571H56.329c-5.523,0-10,4.478-10,10c0,5.522,4.477,10,10,10h77.499c5.523,0,10-4.478,10-10
			C143.828,247.049,139.351,242.571,133.828,242.571z"/>
	</g>
</g>
<g>
	<g>
		<path d="M217.66,245.5c-1.86-1.86-4.44-2.931-7.07-2.931s-5.21,1.07-7.07,2.931c-1.86,1.859-2.93,4.439-2.93,7.069
			c0,2.631,1.07,5.211,2.93,7.07c1.86,1.861,4.44,2.93,7.07,2.93s5.21-1.069,7.07-2.93c1.86-1.859,2.93-4.439,2.93-7.07
			C220.59,249.939,219.52,247.359,217.66,245.5z"/>
	</g>
</g>
<g>
	<g>
		<path d="M180.73,245.5c-1.86-1.86-4.44-2.931-7.07-2.931c-2.64,0-5.21,1.07-7.07,2.931c-1.87,1.859-2.93,4.439-2.93,7.069
			c0,2.631,1.06,5.211,2.93,7.07c1.86,1.861,4.43,2.93,7.07,2.93c2.63,0,5.21-1.069,7.07-2.93c1.86-1.859,2.93-4.439,2.93-7.07
			C183.66,249.939,182.59,247.359,180.73,245.5z"/>
	</g>
</g>
<g>
	<g>
		<path d="M433.667,44h-79.333C333.196,44,316,61.196,316,82.333v183.334C316,286.804,333.196,304,354.333,304h79.333
			C454.804,304,472,286.804,472,265.667V82.333C472,61.196,454.804,44,433.667,44z M452,265.667
			c0,10.108-8.225,18.333-18.333,18.333h-79.333C344.225,284,336,275.775,336,265.667V82.333C336,72.225,344.225,64,354.333,64
			h79.333C443.775,64,452,72.225,452,82.333V265.667z"/>
	</g>
</g>
<g>
	<g>
		<path d="M401.07,245.5c-1.86-1.86-4.44-2.931-7.07-2.931s-5.21,1.07-7.07,2.931c-1.86,1.859-2.93,4.439-2.93,7.069
			c0,2.631,1.07,5.211,2.93,7.07c1.86,1.86,4.44,2.93,7.07,2.93s5.21-1.069,7.07-2.93c1.86-1.859,2.93-4.439,2.93-7.07
			C404,249.939,402.93,247.359,401.07,245.5z"/>
	</g>
</g>
<g>
</g>
<g>
</g>
<g>
</g>
<g>
</g>
<g>
</g>
<g>
</g>
<g>
</g>
<g>
</g>
<g>
</g>
<g>
</g>
<g>
</g>
<g>
</g>
<g>
</g>
<g>
</g>
<g>
</g>
</svg>
