<?xml version="1.0" encoding="iso-8859-1"?>
<!-- Generator: Adobe Illustrator 19.0.0, SVG Export Plug-In . SVG Version: 6.00 Build 0)  -->
<svg version="1.1" id="Capa_1" xmlns="http://www.w3.org/2000/svg" xmlns:xlink="http://www.w3.org/1999/xlink" x="0px" y="0px"
	 viewBox="0 0 512 512" style="enable-background:new 0 0 512 512;" xml:space="preserve">
<g>
	<g>
		<path d="M502,14H10C4.477,14,0,18.478,0,24v410c0,5.522,4.477,10,10,10h34c5.523,0,10-4.478,10-10c0-5.522-4.477-10-10-10H20
			V105.949c0.33,0.033,0.665,0.051,1.004,0.051H492v318h-26c-5.523,0-10,4.478-10,10c0,5.522,4.477,10,10,10h36
			c5.523,0,10-4.478,10-10V24C512,18.478,507.523,14,502,14z M492,86H21.004c-0.339,0-0.674,0.018-1.004,0.051V34h472V86z"/>
	</g>
</g>
<g>
	<g>
		<path d="M448,50H222.065c-5.523,0-10,4.478-10,10s4.477,10,10,10H448c5.523,0,10-4.478,10-10C458,54.478,453.523,50,448,50z"/>
	</g>
</g>
<g>
	<g>
		<path d="M111.07,52.93C109.21,51.07,106.63,50,104,50s-5.21,1.069-7.07,2.93C95.07,54.79,94,57.37,94,60s1.07,5.21,2.93,7.069
			C98.79,68.93,101.37,70,104,70s5.21-1.07,7.07-2.931C112.93,65.21,114,62.63,114,60S112.93,54.79,111.07,52.93z"/>
	</g>
</g>
<g>
	<g>
		<path d="M71.07,52.93C69.21,51.07,66.63,50,64,50s-5.21,1.069-7.07,2.93C55.07,54.79,54,57.37,54,60s1.07,5.21,2.93,7.069
			C58.79,68.93,61.37,70,64,70s5.21-1.07,7.07-2.931C72.93,65.21,74,62.63,74,60S72.93,54.79,71.07,52.93z"/>
	</g>
</g>
<g>
	<g>
		<path d="M151.07,52.93C149.21,51.07,146.63,50,144,50s-5.21,1.069-7.07,2.93C135.07,54.79,134,57.37,134,60s1.07,5.21,2.93,7.069
			C138.79,68.93,141.37,70,144,70s5.21-1.07,7.07-2.931C152.93,65.21,154,62.63,154,60S152.93,54.79,151.07,52.93z"/>
	</g>
</g>
<g>
	<g>
		<path d="M448,132H64c-5.523,0-10,4.478-10,10v100c0,5.522,4.477,10,10,10h384c5.523,0,10-4.478,10-10V142
			C458,136.478,453.523,132,448,132z M438,232H74v-80h364V232z"/>
	</g>
</g>
<g>
	<g>
		<path d="M302.972,374.906c-5.101-2.108-10.952,0.31-13.065,5.412l-28.999,70.009C259.3,450.119,257.664,450,256,450
			c-20.953,0-38,17.047-38,38c0,5.522,4.477,10,10,10s10-4.478,10-10c0-9.925,8.075-18,18-18s18,8.075,18,18c0,5.522,4.477,10,10,10
			s10-4.478,10-10c0-12.152-5.741-22.983-14.646-29.943l29.03-70.084C310.498,382.87,308.074,377.021,302.972,374.906z"/>
	</g>
</g>
<g>
	<g>
		<path d="M256.127,302c-102.561,0-186,83.439-186,186c0,5.522,4.477,10,10,10H119c5.523,0,10-4.478,10-10c0-5.522-4.477-10-10-10
			H90.425c0.918-15.377,3.948-30.193,8.788-44.172l12.899,5.343c1.251,0.518,2.547,0.764,3.823,0.764
			c3.924,0,7.647-2.325,9.243-6.176c2.114-5.103-0.31-10.952-5.412-13.066l-12.873-5.332c6.651-13.608,15.104-26.18,25.055-37.398
			l12.068,12.068c1.953,1.952,4.512,2.929,7.071,2.929c2.559,0,5.119-0.977,7.071-2.929c3.905-3.905,3.906-10.237,0-14.143
			l-12.065-12.065c11.218-9.951,23.783-18.414,37.392-25.065l5.335,12.881c1.595,3.851,5.318,6.176,9.243,6.176
			c1.275,0,2.572-0.246,3.823-0.764c5.103-2.114,7.526-7.964,5.412-13.066l-5.344-12.9c13.978-4.839,28.797-7.856,44.173-8.774
			v38.273c0,5.522,4.477,10,10,10s10-4.478,10-10V322.31c15.376,0.918,30.195,3.935,44.173,8.774l-5.344,12.9
			c-2.114,5.103,0.31,10.952,5.412,13.066c1.251,0.518,2.547,0.764,3.823,0.764c3.924,0,7.647-2.325,9.243-6.176l5.335-12.881
			c13.609,6.651,26.174,15.114,37.392,25.065l-9.832,9.832c-3.905,3.905-3.905,10.237,0,14.143c1.953,1.952,4.512,2.929,7.071,2.929
			s5.119-0.977,7.071-2.929l9.834-9.834c9.951,11.218,18.405,23.79,25.056,37.398l-12.871,5.332
			c-5.102,2.113-7.525,7.963-5.412,13.065c1.595,3.851,5.318,6.176,9.243,6.176c1.275,0,2.572-0.246,3.823-0.765l12.896-5.342
			c4.84,13.979,7.87,28.795,8.788,44.173H388.5c-5.523,0-10,4.478-10,10c0,5.522,4.477,10,10,10h43.627c5.523,0,10-4.478,10-10
			C442.127,385.439,358.688,302,256.127,302z"/>
	</g>
</g>
<g>
	<g>
		<path d="M251.342,390.114c-52.271,2.517-93.216,45.514-93.216,97.886c0,5.522,4.477,10,10,10c5.523,0,10-4.478,10-10
			c0-41.685,32.583-75.906,74.178-77.909c5.516-0.266,9.773-4.953,9.507-10.47C261.545,394.105,256.874,389.843,251.342,390.114z"/>
	</g>
</g>
<g>
	<g>
		<path d="M328.082,421.465c-3.751-4.053-10.077-4.301-14.132-0.55c-4.054,3.751-4.3,10.077-0.55,14.132
			c13.367,14.449,20.729,33.255,20.729,52.953c0,5.522,4.477,10,10,10s10-4.478,10-10
			C354.129,463.251,344.879,439.622,328.082,421.465z"/>
	</g>
</g>
<g>
	<g>
		<path d="M181.328,270H103.83c-5.523,0-10,4.478-10,10c0,5.522,4.477,10,10,10h77.498c5.523,0,10-4.478,10-10
			C191.328,274.478,186.851,270,181.328,270z"/>
	</g>
</g>
<g>
	<g>
		<path d="M71.07,272.93C69.21,271.07,66.63,270,64,270s-5.21,1.069-7.07,2.93C55.07,274.79,54,277.37,54,280s1.07,5.21,2.93,7.069
			C58.79,288.93,61.37,290,64,290s5.21-1.07,7.07-2.931C72.93,285.21,74,282.63,74,280S72.93,274.79,71.07,272.93z"/>
	</g>
</g>
<g>
	<g>
		<path d="M128,310h-24.17c-5.523,0-10,4.478-10,10c0,5.522,4.477,10,10,10H128c5.523,0,10-4.478,10-10
			C138,314.478,133.523,310,128,310z"/>
	</g>
</g>
<g>
	<g>
		<path d="M71.07,312.93C69.21,311.07,66.63,310,64,310s-5.21,1.069-7.07,2.93C55.07,314.79,54,317.37,54,320
			c0,2.64,1.07,5.21,2.93,7.069C58.79,328.93,61.37,330,64,330s5.21-1.07,7.07-2.931C72.93,325.21,74,322.63,74,320
			S72.93,314.79,71.07,312.93z"/>
	</g>
</g>
<g>
	<g>
		<path d="M448,270h-79.225c-5.523,0-10,4.478-10,10c0,5.522,4.477,10,10,10H448c5.523,0,10-4.478,10-10
			C458,274.478,453.523,270,448,270z"/>
	</g>
</g>
<g>
	<g>
		<path d="M448,310h-39.612c-5.523,0-10,4.478-10,10c0,5.522,4.477,10,10,10H448c5.523,0,10-4.478,10-10
			C458,314.478,453.523,310,448,310z"/>
	</g>
</g>
<g>
</g>
<g>
</g>
<g>
</g>
<g>
</g>
<g>
</g>
<g>
</g>
<g>
</g>
<g>
</g>
<g>
</g>
<g>
</g>
<g>
</g>
<g>
</g>
<g>
</g>
<g>
</g>
<g>
</g>
</svg>
