<?xml version="1.0" encoding="iso-8859-1"?>
<!-- Generator: Adobe Illustrator 19.0.0, SVG Export Plug-In . SVG Version: 6.00 Build 0)  -->
<svg version="1.1" id="Capa_1" xmlns="http://www.w3.org/2000/svg" xmlns:xlink="http://www.w3.org/1999/xlink" x="0px" y="0px"
	 viewBox="0 0 512 512" style="enable-background:new 0 0 512 512;" xml:space="preserve">
<g>
	<g>
		<path d="M265.995,255.873c0-16.331-7.874-30.855-20.025-39.98c12.15-9.125,20.025-23.649,20.025-39.98
			c0-27.556-22.419-49.975-49.975-49.975H50.102c-27.556,0-49.975,22.419-49.975,49.975c0,16.331,7.874,30.855,20.025,39.98
			c-12.15,9.125-20.025,23.649-20.025,39.98s7.874,30.855,20.025,39.98c-12.15,9.125-20.025,23.649-20.025,39.98
			c0,27.556,22.419,49.975,49.975,49.975H216.02c27.556,0,49.975-22.419,49.975-49.975c0-16.331-7.874-30.855-20.025-39.98
			C258.12,286.728,265.995,272.204,265.995,255.873z M20.117,175.913c0-16.534,13.451-29.985,29.985-29.985H216.02
			c16.534,0,29.985,13.451,29.985,29.985s-13.451,29.985-29.985,29.985H50.102C33.568,205.898,20.117,192.447,20.117,175.913z
			 M246.005,335.833c0,16.534-13.451,29.985-29.985,29.985H50.102c-16.534,0-29.985-13.451-29.985-29.985
			s13.451-29.985,29.985-29.985H216.02C232.554,305.848,246.005,319.3,246.005,335.833z M216.02,285.858H50.102
			c-16.534,0-29.985-13.451-29.985-29.985s13.451-29.985,29.985-29.985H216.02c16.534,0,29.985,13.451,29.985,29.985
			S232.554,285.858,216.02,285.858z"/>
	</g>
</g>
<g>
	<g>
		<path d="M133.888,164.489h-77.46c-5.52,0-9.995,4.476-9.995,9.995c0,5.519,4.475,9.995,9.995,9.995h77.461
			c5.52,0,9.995-4.476,9.995-9.995C143.884,168.965,139.408,164.489,133.888,164.489z"/>
	</g>
</g>
<g>
	<g>
		<path d="M217.679,167.414c-1.859-1.859-4.438-2.93-7.067-2.93c-2.629,0-5.207,1.069-7.066,2.93
			c-1.859,1.858-2.929,4.437-2.929,7.065c0,2.64,1.07,5.207,2.929,7.066c1.859,1.869,4.438,2.929,7.066,2.929
			c2.629,0,5.207-1.06,7.067-2.929c1.859-1.859,2.929-4.428,2.929-7.066C220.608,171.851,219.538,169.272,217.679,167.414z"/>
	</g>
</g>
<g>
	<g>
		<path d="M180.767,167.414c-1.869-1.859-4.438-2.93-7.067-2.93c-2.629,0-5.207,1.069-7.076,2.93
			c-1.859,1.858-2.919,4.437-2.919,7.065c0,2.64,1.06,5.207,2.919,7.066c1.869,1.869,4.448,2.929,7.076,2.929
			c2.629,0,5.197-1.06,7.067-2.929c1.859-1.859,2.929-4.428,2.929-7.066C183.696,171.851,182.626,169.272,180.767,167.414z"/>
	</g>
</g>
<g>
	<g>
		<path d="M133.889,244.45H56.428c-5.52,0-9.995,4.476-9.995,9.995c0,5.519,4.475,9.995,9.995,9.995h77.461
			c5.52,0,9.995-4.476,9.995-9.995C143.884,248.925,139.409,244.45,133.889,244.45z"/>
	</g>
</g>
<g>
	<g>
		<path d="M217.679,247.374c-1.859-1.859-4.438-2.93-7.067-2.93c-2.629,0-5.207,1.069-7.066,2.93
			c-1.859,1.858-2.929,4.437-2.929,7.065c0,2.64,1.07,5.207,2.929,7.076c1.859,1.86,4.438,2.919,7.066,2.919
			c2.629,0,5.207-1.059,7.067-2.919c1.859-1.869,2.929-4.437,2.929-7.076C220.608,251.811,219.538,249.232,217.679,247.374z"/>
	</g>
</g>
<g>
	<g>
		<path d="M180.767,247.374c-1.859-1.859-4.438-2.93-7.067-2.93c-2.639,0-5.207,1.069-7.066,2.93
			c-1.869,1.858-2.929,4.437-2.929,7.065c0,2.64,1.06,5.207,2.929,7.076c1.859,1.86,4.438,2.919,7.066,2.919
			c2.629,0,5.207-1.059,7.067-2.919c1.859-1.869,2.929-4.437,2.929-7.076C183.696,251.811,182.626,249.232,180.767,247.374z"/>
	</g>
</g>
<g>
	<g>
		<path d="M133.889,324.41H56.428c-5.52,0-9.995,4.476-9.995,9.995s4.475,9.995,9.995,9.995h77.461c5.52,0,9.995-4.476,9.995-9.995
			S139.409,324.41,133.889,324.41z"/>
	</g>
</g>
<g>
	<g>
		<path d="M217.679,327.335c-1.859-1.859-4.438-2.93-7.067-2.93c-2.629,0-5.207,1.07-7.066,2.93
			c-1.859,1.858-2.929,4.437-2.929,7.076c0,2.629,1.07,5.196,2.929,7.065c1.859,1.86,4.438,2.919,7.066,2.919
			c2.629,0,5.207-1.059,7.067-2.919c1.859-1.869,2.929-4.437,2.929-7.065C220.608,331.771,219.538,329.193,217.679,327.335z"/>
	</g>
</g>
<g>
	<g>
		<path d="M180.767,327.335c-1.859-1.859-4.438-2.93-7.067-2.93c-2.639,0-5.207,1.07-7.066,2.93
			c-1.869,1.869-2.929,4.437-2.929,7.076c0,2.629,1.06,5.196,2.929,7.065c1.859,1.86,4.428,2.919,7.066,2.919
			c2.629,0,5.207-1.059,7.067-2.919c1.859-1.869,2.929-4.437,2.929-7.065C183.696,331.771,182.626,329.204,180.767,327.335z"/>
	</g>
</g>
<g>
	<g>
		<path d="M350.928,437.783h-30.139V265.868h30.152c5.52,0,9.995-4.476,9.995-9.995s-4.475-9.995-9.995-9.995h-30.152V73.963h24.276
			c5.52,0,9.995-4.476,9.995-9.995s-4.475-9.995-9.995-9.995h-34.271c-5.52,0-9.995,4.476-9.995,9.995v182.037h-5.105
			c-5.52,0-9.995,4.476-9.995,9.995s4.475,9.995,9.995,9.995h5.105v181.783c0,5.519,4.475,9.995,9.995,9.995h40.134
			c5.52,0,9.995-4.476,9.995-9.995S356.448,437.783,350.928,437.783z"/>
	</g>
</g>
<g>
	<g>
		<path d="M501.878,0h-119.94c-5.52,0-9.995,4.476-9.995,9.995v127.937c0,5.519,4.475,9.995,9.995,9.995h119.94
			c5.52,0,9.995-4.476,9.995-9.995V9.995C511.873,4.476,507.398,0,501.878,0z M491.883,127.937h-99.95V73.963h99.95V127.937z
			 M491.883,53.973h-99.95V19.99h99.95V53.973z"/>
	</g>
</g>
<g>
	<g>
		<path d="M418.24,29.412c-1.859-1.859-4.438-2.929-7.066-2.929c-2.629,0-5.207,1.068-7.067,2.929
			c-1.859,1.859-2.929,4.438-2.929,7.066c0,2.639,1.069,5.207,2.929,7.065c1.859,1.87,4.438,2.93,7.067,2.93
			c2.629,0,5.207-1.06,7.066-2.93c1.859-1.858,2.929-4.428,2.929-7.065C421.168,33.85,420.099,31.271,418.24,29.412z"/>
	</g>
</g>
<g>
	<g>
		<path d="M476.224,26.487h-31.318c-5.52,0-9.995,4.476-9.995,9.995c0,5.519,4.475,9.995,9.995,9.995h31.318
			c5.52,0,9.995-4.476,9.995-9.995C486.219,30.963,481.744,26.487,476.224,26.487z"/>
	</g>
</g>
<g>
	<g>
		<path d="M501.878,182.037h-119.94c-5.52,0-9.995,4.476-9.995,9.995v127.937c0,5.519,4.475,9.995,9.995,9.995h119.94
			c5.52,0,9.995-4.476,9.995-9.995V192.032C511.873,186.511,507.398,182.037,501.878,182.037z M491.883,309.973h-99.95V256h99.95
			V309.973z M491.883,236.01h-99.95v-33.983h99.95V236.01z"/>
	</g>
</g>
<g>
	<g>
		<path d="M418.24,211.452c-1.859-1.859-4.438-2.929-7.066-2.929c-2.629,0-5.207,1.068-7.067,2.929
			c-1.859,1.859-2.929,4.438-2.929,7.066c0,2.629,1.069,5.207,2.929,7.065c1.859,1.86,4.438,2.93,7.067,2.93
			c2.629,0,5.207-1.069,7.066-2.93c1.859-1.858,2.929-4.437,2.929-7.065C421.168,215.89,420.099,213.311,418.24,211.452z"/>
	</g>
</g>
<g>
	<g>
		<path d="M476.224,208.524h-31.318c-5.52,0-9.995,4.476-9.995,9.995c0,5.519,4.475,9.995,9.995,9.995h31.318
			c5.52,0,9.995-4.476,9.995-9.995C486.219,212.999,481.744,208.524,476.224,208.524z"/>
	</g>
</g>
<g>
	<g>
		<path d="M501.878,364.073h-119.94c-5.52,0-9.995,4.476-9.995,9.995v127.937c0,5.519,4.475,9.995,9.995,9.995h119.94
			c5.52,0,9.995-4.476,9.995-9.995V374.068C511.873,368.548,507.398,364.073,501.878,364.073z M491.883,492.01h-99.95v-53.973h99.95
			V492.01z M491.883,418.047h-99.95v-33.983h99.95V418.047z"/>
	</g>
</g>
<g>
	<g>
		<path d="M418.24,393.492c-1.859-1.869-4.438-2.929-7.066-2.929c-2.629,0-5.207,1.059-7.067,2.929
			c-1.859,1.859-2.929,4.429-2.929,7.066c0,2.629,1.069,5.207,2.929,7.067s4.438,2.929,7.067,2.929c2.629,0,5.207-1.069,7.066-2.929
			s2.929-4.438,2.929-7.067C421.168,397.93,420.099,395.351,418.24,393.492z"/>
	</g>
</g>
<g>
	<g>
		<path d="M476.224,390.56h-31.318c-5.52,0-9.995,4.476-9.995,9.995c0,5.519,4.475,9.995,9.995,9.995h31.318
			c5.52,0,9.995-4.476,9.995-9.995C486.219,395.036,481.744,390.56,476.224,390.56z"/>
	</g>
</g>
<g>
	<g>
		<path d="M256,471.773h-62.469c-5.52,0-9.995,4.476-9.995,9.995c0,5.519,4.475,9.995,9.995,9.995H256
			c5.52,0,9.995-4.476,9.995-9.995C265.995,476.249,261.52,471.773,256,471.773z"/>
	</g>
</g>
<g>
	<g>
		<path d="M67.094,471.773H10.122c-5.52,0-9.995,4.476-9.995,9.995c0,5.519,4.475,9.995,9.995,9.995h56.972
			c5.52,0,9.995-4.476,9.995-9.995C77.089,476.249,72.614,471.773,67.094,471.773z"/>
	</g>
</g>
<g>
	<g>
		<path d="M143.883,453.502V416.3c0-5.519-4.475-9.995-9.995-9.995s-9.995,4.476-9.995,9.995v37.202
			c-11.633,4.126-19.99,15.235-19.99,28.266c0,16.534,13.451,29.985,29.985,29.985s29.985-13.451,29.985-29.985
			C163.873,468.737,155.516,457.628,143.883,453.502z M133.888,491.763c-5.511,0-9.995-4.484-9.995-9.995s4.484-9.995,9.995-9.995
			c5.511,0,9.995,4.484,9.995,9.995S139.399,491.763,133.888,491.763z"/>
	</g>
</g>
<g>
</g>
<g>
</g>
<g>
</g>
<g>
</g>
<g>
</g>
<g>
</g>
<g>
</g>
<g>
</g>
<g>
</g>
<g>
</g>
<g>
</g>
<g>
</g>
<g>
</g>
<g>
</g>
<g>
</g>
</svg>
