<?xml version="1.0" encoding="iso-8859-1"?>
<!-- Generator: Adobe Illustrator 19.0.0, SVG Export Plug-In . SVG Version: 6.00 Build 0)  -->
<svg version="1.1" id="Capa_1" xmlns="http://www.w3.org/2000/svg" xmlns:xlink="http://www.w3.org/1999/xlink" x="0px" y="0px"
	 viewBox="0 0 512 512" style="enable-background:new 0 0 512 512;" xml:space="preserve">
<g>
	<g>
		<path d="M266.999,463.517H246.39c-3.652-12.696-13.751-22.682-26.516-26.169v-43.345c0-5.522-4.477-10-10-10
			c-5.523,0-10,4.478-10,10v43.345c-16.115,4.402-27.999,19.162-27.999,36.653c0,20.952,17.046,37.998,37.998,37.998
			c17.668,0,32.557-12.121,36.791-28.484h20.333c5.523,0,10-4.478,10-10S272.522,463.517,266.999,463.517z M209.875,492.001
			c-9.924,0-17.999-8.075-17.999-17.999s8.075-17.999,17.999-17.999s17.999,8.075,17.999,17.999S219.8,492.001,209.875,492.001z"/>
	</g>
</g>
<g>
	<g>
		<path d="M137.006,463.517H10.012c-5.523,0-10,4.478-10,10s4.477,10,10,10h126.994c5.523,0,10-4.478,10-10
			S142.529,463.517,137.006,463.517z"/>
	</g>
</g>
<g>
	<g>
		<path d="M337.869,33.998c-16.541,0-29.999,13.457-29.999,29.999s13.457,29.999,29.999,29.999
			c16.541,0,29.999-13.457,29.999-29.999S354.41,33.998,337.869,33.998z M337.869,73.996c-5.514,0-10-4.486-10-10s4.486-10,10-10
			c5.514,0,10,4.486,10,10S343.383,73.996,337.869,73.996z"/>
	</g>
</g>
<g>
	<g>
		<path d="M190.209,53.997H64.202c-5.523,0-10,4.478-10,10s4.477,10,10,10h126.007c5.523,0,10-4.478,10-10
			S195.732,53.997,190.209,53.997z"/>
	</g>
</g>
<g>
	<g>
		<path d="M281.438,56.93c-1.859-1.861-4.43-2.93-7.07-2.93c-2.63,0-5.21,1.069-7.07,2.93s-2.93,4.43-2.93,7.07
			c0,2.63,1.07,5.21,2.93,7.069c1.86,1.86,4.44,2.931,7.07,2.931c2.64,0,5.21-1.07,7.07-2.931c1.87-1.859,2.93-4.439,2.93-7.069
			C284.368,61.359,283.308,58.779,281.438,56.93z"/>
	</g>
</g>
<g>
	<g>
		<path d="M239.281,56.93c-1.871-1.861-4.44-2.93-7.07-2.93c-2.63,0-5.21,1.069-7.08,2.93c-1.86,1.86-2.92,4.43-2.92,7.07
			c0,2.63,1.06,5.21,2.92,7.069c1.87,1.86,4.45,2.931,7.08,2.931s5.2-1.07,7.07-2.931c1.86-1.859,2.93-4.439,2.93-7.069
			C242.211,61.369,241.141,58.79,239.281,56.93z"/>
	</g>
</g>
<g>
	<g>
		<path d="M337.869,145.993c-16.541,0-29.999,13.457-29.999,29.999s13.457,29.999,29.999,29.999
			c16.541,0,29.999-13.457,29.999-29.999S354.41,145.993,337.869,145.993z M337.869,185.991c-5.514,0-10-4.486-10-10s4.486-10,10-10
			c5.514,0,10,4.486,10,10S343.383,185.991,337.869,185.991z"/>
	</g>
</g>
<g>
	<g>
		<path d="M190.209,165.992H64.202c-5.523,0-10,4.478-10,10s4.477,10,10,10h126.007c5.523,0,10-4.478,10-10
			S195.732,165.992,190.209,165.992z"/>
	</g>
</g>
<g>
	<g>
		<path d="M281.438,168.915c-1.859-1.86-4.43-2.92-7.07-2.92c-2.63,0-5.21,1.06-7.07,2.92c-1.86,1.87-2.93,4.449-2.93,7.08
			c0,2.63,1.07,5.199,2.93,7.069c1.86,1.86,4.44,2.931,7.07,2.931s5.21-1.07,7.07-2.931c1.87-1.87,2.93-4.439,2.93-7.069
			C284.368,173.364,283.308,170.785,281.438,168.915z"/>
	</g>
</g>
<g>
	<g>
		<path d="M239.281,168.915c-1.86-1.86-4.44-2.92-7.07-2.92c-2.64,0-5.21,1.06-7.08,2.92c-1.86,1.87-2.92,4.449-2.92,7.08
			c0,2.63,1.06,5.21,2.92,7.069c1.87,1.86,4.44,2.931,7.08,2.931c2.63,0,5.21-1.07,7.07-2.931c1.86-1.87,2.93-4.439,2.93-7.069
			C242.211,173.364,241.141,170.785,239.281,168.915z"/>
	</g>
</g>
<g>
	<g>
		<path d="M419.992,177.991c0-23.596-12.455-44.328-31.128-55.997c18.673-11.669,31.128-32.401,31.128-55.997
			C419.992,29.606,390.386,0,353.995,0H66.009C29.619,0,0.013,29.606,0.013,65.997c0,23.596,12.455,44.328,31.128,55.997
			c-18.673,11.669-31.128,32.401-31.128,55.997c0,23.596,12.455,44.328,31.128,55.997C12.468,245.658,0.013,266.39,0.013,289.986
			c0,36.391,29.606,65.997,65.997,65.997H256c5.523,0,10-4.478,10-10s-4.477-10-10-10H66.009c-25.363,0-45.998-20.635-45.998-45.998
			c0-25.363,20.634-45.998,45.998-45.998h287.986c11.429,0,22.386,4.219,30.851,11.88c4.096,3.705,10.419,3.389,14.124-0.705
			c3.706-4.095,3.39-10.418-0.705-14.124c-2.93-2.651-6.071-5.007-9.375-7.069C407.55,222.298,419.992,201.575,419.992,177.991z
			 M20.012,65.997c0-25.363,20.634-45.998,45.998-45.998h287.986c25.363,0,45.998,20.635,45.998,45.998
			c0,25.363-20.635,45.998-45.998,45.998H66.009C40.646,111.995,20.012,91.36,20.012,65.997z M353.995,223.989H66.009
			c-25.364,0-45.998-20.635-45.998-45.998c0-25.363,20.634-45.998,45.998-45.998h287.986c25.363,0,45.998,20.635,45.998,45.998
			C399.993,203.354,379.358,223.989,353.995,223.989z"/>
	</g>
</g>
<g>
	<g>
		<path d="M190.209,277.986H64.202c-5.523,0-10,4.478-10,10s4.477,10,10,10h126.007c5.523,0,10-4.478,10-10
			S195.732,277.986,190.209,277.986z"/>
	</g>
</g>
<g>
	<g>
		<path d="M281.439,280.919c-1.86-1.86-4.43-2.93-7.07-2.93c-2.631,0-5.211,1.069-7.07,2.93c-1.86,1.86-2.93,4.439-2.93,7.07
			c0,2.63,1.07,5.21,2.93,7.069c1.86,1.86,4.44,2.931,7.07,2.931s5.21-1.07,7.07-2.931c1.87-1.859,2.93-4.439,2.93-7.069
			C284.369,285.358,283.309,282.779,281.439,280.919z"/>
	</g>
</g>
<g>
	<g>
		<path d="M239.281,280.919c-1.86-1.86-4.44-2.93-7.07-2.93c-2.64,0-5.21,1.069-7.08,2.93c-1.86,1.86-2.92,4.439-2.92,7.07
			c0,2.63,1.06,5.21,2.92,7.069c1.87,1.86,4.44,2.931,7.08,2.931c2.63,0,5.2-1.07,7.07-2.931c1.86-1.859,2.93-4.439,2.93-7.069
			C242.211,285.358,241.141,282.779,239.281,280.919z"/>
	</g>
</g>
<g>
	<g>
		<path d="M393.063,335.927c-1.86-1.86-4.44-2.93-7.07-2.93s-5.21,1.069-7.07,2.93c-1.86,1.86-2.93,4.44-2.93,7.07
			c0,2.64,1.07,5.21,2.93,7.069c1.86,1.87,4.439,2.931,7.07,2.931c2.63,0,5.21-1.061,7.07-2.931c1.86-1.859,2.93-4.43,2.93-7.069
			C395.993,340.366,394.923,337.796,393.063,335.927z"/>
	</g>
</g>
<g>
	<g>
		<path d="M421.992,409.404c-5.523,0-10,4.478-10,10v7.605c0,4.411-3.589,8-8,8c-4.411,0-8-3.589-8-8v-50.744
			c0-5.522-4.477-10-10-10c-5.523,0-10,4.478-10,10v50.744c0,15.438,12.56,27.999,27.999,27.999
			c15.438,0,27.999-12.56,27.999-27.999v-7.605C431.991,413.881,427.515,409.404,421.992,409.404z"/>
	</g>
</g>
<g>
	<g>
		<path d="M393.993,276.01c-65.062,0-117.994,52.932-117.994,117.994s52.932,117.994,117.994,117.994
			s117.994-52.932,117.994-117.994S459.055,276.01,393.993,276.01z M393.993,491.999c-54.035,0-97.995-43.961-97.995-97.995
			c0-54.034,43.96-97.995,97.995-97.995c54.035,0,97.995,43.961,97.995,97.995C491.988,448.038,448.028,491.999,393.993,491.999z"/>
	</g>
</g>
<g>
</g>
<g>
</g>
<g>
</g>
<g>
</g>
<g>
</g>
<g>
</g>
<g>
</g>
<g>
</g>
<g>
</g>
<g>
</g>
<g>
</g>
<g>
</g>
<g>
</g>
<g>
</g>
<g>
</g>
</svg>
