<?xml version="1.0" encoding="iso-8859-1"?>
<!-- Generator: Adobe Illustrator 19.0.0, SVG Export Plug-In . SVG Version: 6.00 Build 0)  -->
<svg version="1.1" id="Capa_1" xmlns="http://www.w3.org/2000/svg" xmlns:xlink="http://www.w3.org/1999/xlink" x="0px" y="0px"
	 viewBox="0 0 512 512" style="enable-background:new 0 0 512 512;" xml:space="preserve">
<g>
	<g>
		<path d="M317.871,427.777H160.708v-53.215c0-5.522-4.478-10-10-10c-5.522,0-10,4.478-10,10v63.215c0,5.522,4.478,10,10,10h167.163
			c5.522,0,10-4.477,10-10C327.871,432.255,323.393,427.777,317.871,427.777z"/>
	</g>
</g>
<g>
	<g>
		<path d="M157.781,327.998c-1.859-1.86-4.439-2.931-7.069-2.931c-2.641,0-5.21,1.071-7.07,2.931c-1.87,1.859-2.93,4.439-2.93,7.08
			c0,2.63,1.06,5.21,2.93,7.069c1.86,1.86,4.44,2.931,7.07,2.931s5.2-1.07,7.069-2.931c1.86-1.869,2.931-4.439,2.931-7.069
			S159.642,329.868,157.781,327.998z"/>
	</g>
</g>
<g>
	<g>
		<path d="M415.996,453.721v-7.232c0-5.522-4.478-10-10-10c-5.522,0-10,4.478-10,10v7.232c-8.509,3.018-15.262,9.771-18.28,18.28
			h-67.718c-5.522,0-10,4.478-10,10s4.478,10,10,10h67.718c4.128,11.639,15.244,20,28.279,20c16.542,0,29.999-13.458,29.999-29.999
			C435.996,468.964,427.635,457.849,415.996,453.721z M405.996,492c-5.514,0-10-4.486-10-10s4.486-10,10-10c5.514,0,10,4.486,10,10
			S411.51,492,405.996,492z"/>
	</g>
</g>
<g>
	<g>
		<path d="M433.996,205.995h-55.999c-5.522,0-10,4.478-10,10s4.478,10,10,10h55.999c5.522,0,10-4.478,10-10
			S439.518,205.995,433.996,205.995z"/>
	</g>
</g>
<g>
	<g>
		<path d="M433.996,285.993h-55.999c-5.522,0-10,4.478-10,10s4.478,10,10,10h55.999c5.522,0,10-4.478,10-10
			S439.518,285.993,433.996,285.993z"/>
	</g>
</g>
<g>
	<g>
		<path d="M433.996,245.994h-55.999c-5.522,0-10,4.478-10,10c0,5.522,4.478,10,10,10h55.999c5.522,0,10-4.478,10-10
			C443.996,250.472,439.518,245.994,433.996,245.994z"/>
	</g>
</g>
<g>
	<g>
		<path d="M433.996,325.992h-55.999c-5.522,0-10,4.478-10,10c0,5.522,4.478,10,10,10h55.999c5.522,0,10-4.478,10-10
			C443.996,330.47,439.518,325.992,433.996,325.992z"/>
	</g>
</g>
<g>
	<g>
		<path d="M445.663,165.996H366.33c-21.136,0-38.332,17.196-38.332,38.332v183.33c0,21.136,17.196,38.332,38.332,38.332h79.332
			c21.136,0,38.332-17.196,38.332-38.332v-183.33C483.995,183.192,466.799,165.996,445.663,165.996z M445.663,405.99H366.33
			c-10.108,0-18.333-8.225-18.333-18.333v-183.33c0-10.108,8.225-18.333,18.333-18.333h79.332c10.108,0,18.333,8.225,18.333,18.333
			v183.33h0C463.995,397.766,455.77,405.99,445.663,405.99z"/>
	</g>
</g>
<g>
	<g>
		<path d="M413.065,367.487c-1.859-1.86-4.439-2.931-7.069-2.931s-5.21,1.07-7.07,2.931c-1.86,1.869-2.93,4.449-2.93,7.069
			c0,2.641,1.069,5.21,2.93,7.07c1.86,1.87,4.44,2.939,7.07,2.939s5.21-1.069,7.069-2.939c1.86-1.86,2.931-4.43,2.931-7.07
			C415.996,371.936,414.926,369.356,413.065,367.487z"/>
	</g>
</g>
<g>
	<g>
		<path d="M501.994,472.001h-36.999c-5.522,0-10,4.478-10,10s4.478,10,10,10h36.999c5.522,0,10-4.478,10-10
			S507.516,472.001,501.994,472.001z"/>
	</g>
</g>
<g>
	<g>
		<path d="M67.495,56.925c-1.86-1.86-4.44-2.93-7.061-2.93c-2.64,0-5.22,1.069-7.08,2.93c-1.859,1.86-2.93,4.439-2.93,7.07
			c0,2.64,1.07,5.21,2.93,7.069c1.86,1.871,4.44,2.931,7.08,2.931c2.62,0,5.2-1.061,7.061-2.931c1.869-1.85,2.93-4.43,2.93-7.069
			C70.425,61.364,69.364,58.785,67.495,56.925z"/>
	</g>
</g>
<g>
	<g>
		<path d="M244.011,89.956H56.005c-5.522,0-10,4.478-10,10v76.04c0,5.522,4.478,10,10,10h188.007c5.522,0,10-4.478,10-10v-76.04
			C254.011,94.434,249.533,89.956,244.011,89.956z M234.011,165.996H66.004v-56.041h168.007V165.996z"/>
	</g>
</g>
<g>
	<g>
		<path d="M289.999,0H10.006c-5.522,0-10,4.478-10,10v289.743c0,5.522,4.478,10,10,10h279.993c5.522,0,10-4.478,10-10V10
			C299.999,4.478,295.521,0,289.999,0z M279.999,53.999H100.004c-5.522,0-10,4.478-10,10c0,5.522,4.478,10,10,10h179.996v215.745
			H20.006V20h259.994V53.999z"/>
	</g>
</g>
<g>
	<g>
		<path d="M161.002,205.995H56.005c-5.522,0-10,4.478-10,10s4.478,10,10,10h104.997c5.522,0,10-4.478,10-10
			S166.524,205.995,161.002,205.995z"/>
	</g>
</g>
<g>
	<g>
		<path d="M244.011,205.995h-44.343c-5.522,0-10,4.478-10,10s4.478,10,10,10h44.343c5.522,0,10-4.478,10-10
			S249.533,205.995,244.011,205.995z"/>
	</g>
</g>
<g>
	<g>
		<path d="M161.002,246.025H56.005c-5.522,0-10,4.478-10,10c0,5.522,4.478,10,10,10h104.997c5.522,0,10-4.478,10-10
			C171.002,250.503,166.524,246.025,161.002,246.025z"/>
	</g>
</g>
<g>
	<g>
		<path d="M244.011,246.025h-44.343c-5.522,0-10,4.478-10,10c0,5.522,4.478,10,10,10h44.343c5.522,0,10-4.478,10-10
			C254.011,250.503,249.533,246.025,244.011,246.025z"/>
	</g>
</g>
<g>
</g>
<g>
</g>
<g>
</g>
<g>
</g>
<g>
</g>
<g>
</g>
<g>
</g>
<g>
</g>
<g>
</g>
<g>
</g>
<g>
</g>
<g>
</g>
<g>
</g>
<g>
</g>
<g>
</g>
</svg>
