<?xml version="1.0" encoding="iso-8859-1"?>
<!-- Generator: Adobe Illustrator 19.0.0, SVG Export Plug-In . SVG Version: 6.00 Build 0)  -->
<svg version="1.1" id="Capa_1" xmlns="http://www.w3.org/2000/svg" xmlns:xlink="http://www.w3.org/1999/xlink" x="0px" y="0px"
	 viewBox="0 0 512.001 512.001" style="enable-background:new 0 0 512.001 512.001;" xml:space="preserve">
<g>
	<g>
		<path d="M386.001,257.429c0-16.339-7.878-30.87-20.035-40c12.156-9.129,20.035-23.661,20.035-40c0-27.57-22.43-50-50-50h-160
			c-27.57,0-50,22.43-50,50c0,16.339,7.878,30.87,20.035,40c-12.156,9.13-20.035,23.661-20.035,40c0,16.339,7.878,30.87,20.035,40
			c-12.156,9.13-20.035,23.661-20.035,40c0,27.57,22.43,50,50,50h160c27.57,0,50-22.43,50-50c0-16.339-7.878-30.87-20.035-40
			C378.122,288.299,386.001,273.768,386.001,257.429z M146.001,177.429c0-16.542,13.458-30,30-30h160c16.542,0,30,13.458,30,30
			c0,16.542-13.458,30-30,30h-160C159.459,207.429,146.001,193.971,146.001,177.429z M366.001,337.428c0,16.542-13.458,30-30,30
			h-160c-16.542,0-30-13.458-30-30s13.458-30,30-30h160C352.543,307.428,366.001,320.887,366.001,337.428z M336.001,287.428h-160
			c-16.542,0-30-13.458-30-30s13.458-30,30-30h160c16.542,0,30,13.458,30,30S352.543,287.428,336.001,287.428z"/>
	</g>
</g>
<g>
	<g>
		<path d="M259.828,166.001h-77.499c-5.523,0-10,4.477-10,10c0,5.523,4.477,10,10,10h77.499c5.523,0,10-4.477,10-10
			C269.828,170.478,265.351,166.001,259.828,166.001z"/>
	</g>
</g>
<g>
	<g>
		<path d="M337.66,168.931c-1.86-1.861-4.44-2.93-7.07-2.93s-5.21,1.07-7.07,2.93c-1.86,1.86-2.93,4.44-2.93,7.07
			s1.07,5.21,2.93,7.07c1.86,1.86,4.44,2.93,7.07,2.93s5.21-1.07,7.07-2.93c1.86-1.86,2.93-4.44,2.93-7.07
			S339.52,170.791,337.66,168.931z"/>
	</g>
</g>
<g>
	<g>
		<path d="M302.73,168.931c-1.86-1.861-4.439-2.93-7.07-2.93c-2.64,0-5.21,1.07-7.07,2.93c-1.87,1.86-2.93,4.44-2.93,7.07
			s1.06,5.21,2.93,7.07c1.86,1.86,4.43,2.93,7.07,2.93c2.63,0,5.21-1.07,7.07-2.93c1.86-1.86,2.93-4.44,2.93-7.07
			S304.59,170.791,302.73,168.931z"/>
	</g>
</g>
<g>
	<g>
		<path d="M259.828,246.001h-77.499c-5.523,0-10,4.477-10,10c0,5.523,4.477,10,10,10h77.499c5.523,0,10-4.477,10-10
			C269.828,250.478,265.351,246.001,259.828,246.001z"/>
	</g>
</g>
<g>
	<g>
		<path d="M337.66,248.931c-1.86-1.86-4.44-2.93-7.07-2.93s-5.21,1.07-7.07,2.93c-1.86,1.86-2.93,4.44-2.93,7.07
			c0,2.63,1.07,5.21,2.93,7.07c1.86,1.859,4.44,2.93,7.07,2.93s5.21-1.07,7.07-2.93c1.86-1.86,2.93-4.44,2.93-7.07
			C340.59,253.371,339.52,250.791,337.66,248.931z"/>
	</g>
</g>
<g>
	<g>
		<path d="M302.73,248.931c-1.86-1.86-4.44-2.93-7.07-2.93s-5.21,1.07-7.07,2.93c-1.86,1.86-2.93,4.44-2.93,7.07
			c0,2.63,1.07,5.21,2.93,7.07c1.86,1.86,4.44,2.93,7.07,2.93s5.21-1.07,7.07-2.93c1.86-1.86,2.93-4.44,2.93-7.07
			C305.66,253.371,304.59,250.791,302.73,248.931z"/>
	</g>
</g>
<g>
	<g>
		<path d="M259.828,326.001h-77.499c-5.523,0-10,4.477-10,10s4.477,10,10,10h77.499c5.523,0,10-4.477,10-10
			S265.351,326.001,259.828,326.001z"/>
	</g>
</g>
<g>
	<g>
		<path d="M337.66,328.931c-1.86-1.86-4.44-2.93-7.07-2.93s-5.21,1.07-7.07,2.93s-2.93,4.44-2.93,7.07s1.07,5.21,2.93,7.07
			c1.86,1.859,4.44,2.93,7.07,2.93s5.21-1.07,7.07-2.93c1.86-1.86,2.93-4.44,2.93-7.07S339.52,330.791,337.66,328.931z"/>
	</g>
</g>
<g>
	<g>
		<path d="M302.73,328.931c-1.86-1.86-4.44-2.93-7.07-2.93s-5.21,1.07-7.07,2.93c-1.87,1.86-2.93,4.44-2.93,7.07
			s1.06,5.21,2.93,7.07c1.86,1.859,4.431,2.93,7.07,2.93c2.63,0,5.21-1.07,7.07-2.93c1.86-1.86,2.93-4.44,2.93-7.07
			S304.59,330.791,302.73,328.931z"/>
	</g>
</g>
<g>
	<g>
		<path d="M298.166,459.835l-35.094-35.094c-2.86-2.86-7.162-3.714-10.898-2.167c-3.737,1.548-6.173,5.194-6.173,9.239v5.973
			C150.54,432.579,74.48,353.273,74.48,256.536c0-5.523-4.477-10-10-10H27.291c-5.523,0-10,4.477-10,10
			c0,63.762,24.83,123.707,69.917,168.793c42.722,42.723,98.782,67.257,158.793,69.712V502c0,4.044,2.437,7.691,6.173,9.239
			c1.237,0.513,2.536,0.762,3.824,0.762c2.603,0,5.161-1.017,7.074-2.929l35.094-35.094
			C302.071,470.073,302.071,463.741,298.166,459.835z M264.257,479.602c-1.801-2.63-4.828-4.356-8.256-4.356
			c-117.248,0-213.243-92.732-218.484-208.709h17.208c5.226,106.496,93.507,191.521,201.276,191.521
			c3.298,0,6.223-1.597,8.044-4.059l12.908,12.908L264.257,479.602z"/>
	</g>
</g>
<g>
	<g>
		<path d="M424.793,86.672C382.071,43.949,326.011,19.415,266,16.96v-6.959c0-4.044-2.437-7.691-6.173-9.239
			c-3.737-1.548-8.038-0.692-10.898,2.167l-35.094,35.094c-3.905,3.905-3.905,10.237,0,14.143l35.094,35.094
			c2.861,2.86,7.162,3.715,10.898,2.167c3.737-1.548,6.173-5.194,6.173-9.239v-5.973c95.46,5.207,171.521,84.512,171.521,181.249
			c0,5.523,4.477,10,10,10h37.188c5.523,0,10-4.477,10-10C494.71,191.703,469.88,131.758,424.793,86.672z M457.276,245.464
			L457.276,245.464C452.05,138.969,363.769,53.944,256,53.944c-3.298,0-6.223,1.597-8.044,4.059l-12.908-12.908l12.696-12.696
			c1.801,2.63,4.828,4.356,8.256,4.356c117.248,0,213.243,92.732,218.484,208.709H457.276z"/>
	</g>
</g>
<g>
</g>
<g>
</g>
<g>
</g>
<g>
</g>
<g>
</g>
<g>
</g>
<g>
</g>
<g>
</g>
<g>
</g>
<g>
</g>
<g>
</g>
<g>
</g>
<g>
</g>
<g>
</g>
<g>
</g>
</svg>
