<?xml version="1.0" encoding="iso-8859-1"?>
<!-- Generator: Adobe Illustrator 19.0.0, SVG Export Plug-In . SVG Version: 6.00 Build 0)  -->
<svg version="1.1" id="Capa_1" xmlns="http://www.w3.org/2000/svg" xmlns:xlink="http://www.w3.org/1999/xlink" x="0px" y="0px"
	 viewBox="0 0 512 512" style="enable-background:new 0 0 512 512;" xml:space="preserve">
<g>
	<g>
		<path d="M256.827,65.571h-77.498c-5.522,0-10,4.478-10,10c0,5.522,4.478,10,10,10h77.498c5.522,0,10-4.478,10-10
			C266.827,70.049,262.35,65.571,256.827,65.571z"/>
	</g>
</g>
<g>
	<g>
		<path d="M340.66,68.5c-1.86-1.86-4.44-2.931-7.07-2.931s-5.21,1.07-7.07,2.931c-1.859,1.859-2.93,4.439-2.93,7.069
			c0,2.631,1.07,5.211,2.93,7.07c1.86,1.86,4.44,2.93,7.07,2.93s5.21-1.069,7.07-2.93c1.86-1.859,2.93-4.439,2.93-7.07
			C343.59,72.939,342.52,70.359,340.66,68.5z"/>
	</g>
</g>
<g>
	<g>
		<path d="M303.729,68.5c-1.859-1.86-4.439-2.931-7.069-2.931c-2.641,0-5.21,1.07-7.07,2.931c-1.86,1.859-2.93,4.439-2.93,7.069
			c0,2.631,1.069,5.211,2.93,7.07c1.86,1.86,4.439,2.93,7.07,2.93c2.63,0,5.199-1.069,7.069-2.93c1.86-1.859,2.931-4.439,2.931-7.07
			C306.66,72.939,305.59,70.359,303.729,68.5z"/>
	</g>
</g>
<g>
	<g>
		<path d="M256.827,145.571h-77.498c-5.522,0-10,4.478-10,10c0,5.522,4.478,10,10,10h77.498c5.522,0,10-4.478,10-10
			C266.827,150.049,262.349,145.571,256.827,145.571z"/>
	</g>
</g>
<g>
	<g>
		<path d="M340.66,148.5c-1.86-1.86-4.44-2.931-7.07-2.931s-5.21,1.07-7.07,2.931c-1.859,1.859-2.93,4.439-2.93,7.069
			c0,2.631,1.07,5.211,2.93,7.07c1.86,1.861,4.44,2.93,7.07,2.93s5.21-1.069,7.07-2.93c1.859-1.859,2.93-4.439,2.93-7.07
			C343.59,152.939,342.52,150.359,340.66,148.5z"/>
	</g>
</g>
<g>
	<g>
		<path d="M303.729,148.5c-1.859-1.86-4.439-2.931-7.069-2.931c-2.641,0-5.21,1.07-7.07,2.931c-1.86,1.859-2.93,4.439-2.93,7.069
			c0,2.631,1.069,5.211,2.93,7.07c1.86,1.861,4.43,2.93,7.07,2.93c2.63,0,5.21-1.069,7.069-2.93c1.86-1.859,2.931-4.439,2.931-7.07
			C306.66,152.939,305.59,150.359,303.729,148.5z"/>
	</g>
</g>
<g>
	<g>
		<path d="M256.827,225.571h-77.498c-5.522,0-10,4.478-10,10c0,5.522,4.478,10,10,10h77.498c5.522,0,10-4.478,10-10
			C266.827,230.049,262.349,225.571,256.827,225.571z"/>
	</g>
</g>
<g>
	<g>
		<path d="M340.66,228.5c-1.86-1.86-4.44-2.931-7.07-2.931s-5.21,1.07-7.07,2.931c-1.859,1.859-2.93,4.439-2.93,7.069
			c0,2.631,1.07,5.211,2.93,7.07c1.86,1.861,4.44,2.93,7.07,2.93s5.21-1.069,7.07-2.93c1.859-1.859,2.93-4.439,2.93-7.07
			C343.59,232.939,342.52,230.359,340.66,228.5z"/>
	</g>
</g>
<g>
	<g>
		<path d="M303.729,228.5c-1.859-1.86-4.439-2.931-7.069-2.931c-2.641,0-5.21,1.07-7.07,2.931c-1.86,1.859-2.93,4.439-2.93,7.069
			c0,2.631,1.069,5.211,2.93,7.07c1.86,1.861,4.43,2.93,7.07,2.93c2.63,0,5.21-1.069,7.069-2.93c1.86-1.859,2.931-4.439,2.931-7.07
			C306.66,232.939,305.59,230.359,303.729,228.5z"/>
	</g>
</g>
<g>
	<g>
		<path d="M194,325.076h-61c-5.522,0-10,4.478-10,10c0,5.522,4.478,10,10,10h61c5.522,0,10-4.477,10-10
			C204,329.554,199.522,325.076,194,325.076z"/>
	</g>
</g>
<g>
	<g>
		<path d="M502,411h-16V141.012c0-5.522-4.478-10-10-10h-94.301c-3.323-5.439-7.654-10.197-12.734-14.012
			C381.122,107.87,389,93.339,389,77c0-27.57-22.43-50-50-50H173c-27.57,0-50,22.43-50,50c0,16.339,7.878,30.87,20.035,40
			C130.878,126.13,123,140.661,123,157c0,4.864,0.711,9.563,2.013,14.012h-51.07c-5.522,0-10,4.478-10,10V411H46V151.012h45
			c5.522,0,10-4.478,10-10c0-5.522-4.478-10-10-10H36c-5.522,0-10,4.478-10,10V411H10c-5.522,0-10,4.478-10,10v8.25
			C0,459.99,25.01,485,55.75,485h400.5c30.74,0,55.75-25.01,55.75-55.75V421C512,415.478,507.522,411,502,411z M143,77
			c0-16.542,13.458-30,30-30h166c16.542,0,30,13.458,30,30s-13.458,30-30,30H173C156.458,107,143,93.542,143,77z M173,127h166
			c16.542,0,30,13.458,30,30s-13.458,30-30,30H173c-16.542,0-30-13.458-30-30S156.458,127,173,127z M173,267
			c-16.542,0-30-13.458-30-30s13.458-30,30-30h166c16.542,0,30,13.458,30,30s-13.458,30-30,30H173z M266.827,335.076
			c0,5.514-4.486,10-10,10c-5.514,0-10-4.486-10-10c0-5.514,4.486-10,10-10C262.341,325.076,266.827,329.562,266.827,335.076z
			 M83.943,191.012h52.452c2.032,2.185,4.25,4.194,6.639,5.988C130.878,206.13,123,220.661,123,237c0,27.57,22.43,50,50,50h73.827
			v19.796c-11.639,4.128-20,15.243-20,28.28c0,16.542,13.458,30,30,30c13.036,0,24.152-8.361,28.28-20H379c5.522,0,10-4.478,10-10
			c0-5.522-4.478-10-10-10h-93.893c-3.018-8.509-9.771-15.262-18.28-18.28V287H339c27.57,0,50-22.43,50-50
			c0-16.339-7.878-30.87-20.035-40C381.122,187.87,389,173.339,389,157c0-2.028-0.135-4.023-0.371-5.988H466V411h-17.943V181.012
			c0-5.522-4.478-10-10-10h-16.861c-5.522,0-10,4.478-10,10c0,5.522,4.478,10,10,10h6.861V411H323.079
			c-4.092,0-7.771,2.493-9.288,6.293C311.195,423.798,304.997,428,298,428h-84c-6.997,0-13.195-4.202-15.791-10.707
			c-1.518-3.8-5.196-6.293-9.288-6.293H83.943V191.012z M456.25,465H55.75c-19.126,0-34.791-15.098-35.708-34h162.817
			c6.711,10.508,18.309,17,31.141,17h84c12.832,0,24.43-6.492,31.141-17h162.817C491.041,449.902,475.376,465,456.25,465z"/>
	</g>
</g>
<g>
</g>
<g>
</g>
<g>
</g>
<g>
</g>
<g>
</g>
<g>
</g>
<g>
</g>
<g>
</g>
<g>
</g>
<g>
</g>
<g>
</g>
<g>
</g>
<g>
</g>
<g>
</g>
<g>
</g>
</svg>
