<?xml version="1.0" encoding="iso-8859-1"?>
<!-- Generator: Adobe Illustrator 19.0.0, SVG Export Plug-In . SVG Version: 6.00 Build 0)  -->
<svg version="1.1" id="Capa_1" xmlns="http://www.w3.org/2000/svg" xmlns:xlink="http://www.w3.org/1999/xlink" x="0px" y="0px"
	 viewBox="0 0 512 512" style="enable-background:new 0 0 512 512;" xml:space="preserve">
<g>
	<g>
		<path d="M106.333,54.001H51.556C23.128,54.001,0,77.129,0,105.556v268.889c0,19.999,11.726,38.362,29.871,46.784
			c1.362,0.633,2.794,0.932,4.203,0.932c3.772,0,7.385-2.145,9.077-5.792c2.325-5.01,0.149-10.956-4.86-13.28
			C27.18,397.931,20,386.689,20,374.444V105.556c0-17.4,14.156-31.556,31.556-31.556h54.777c5.522,0,10-4.478,10-10
			C116.333,58.478,111.855,54.001,106.333,54.001z"/>
	</g>
</g>
<g>
	<g>
		<path d="M460.444,54.001h-85.678c-0.713-29.896-25.236-54-55.299-54H192.533c-30.511,0-55.333,24.822-55.333,55.333v57.334H68.667
			c-5.522,0-10,4.478-10,10s4.478,10,10,10H137.2v32H68.667c-5.522,0-10,4.478-10,10c0,5.522,4.478,10,10,10H137.2v32H68.667
			c-5.522,0-10,4.478-10,10c0,5.522,4.478,10,10,10H137.2v32H68.667c-5.522,0-10,4.478-10,10c0,5.522,4.478,10,10,10H137.2v54.112
			c-28.886,3.048-51.471,27.536-51.471,57.2c0,1.565,0.065,3.135,0.195,4.702c-17.673,10.181-28.72,28.965-28.72,49.794
			c0,31.719,25.819,57.524,57.555,57.524h263.674c42.105,0,76.361-34.236,76.361-76.319s-34.256-76.319-76.361-76.319
			c-4.22,0-8.409,0.343-12.534,1.024c-9.252-29.551-30.752-54.468-59.021-67.841c-4.995-2.363-10.954-0.229-13.316,4.764
			c-2.361,4.992-0.229,10.954,4.764,13.316c23.189,10.97,40.827,31.39,48.44,55.606c-6.65,3.038-12.883,7.03-18.406,11.828
			c-6.801,5.908-12.453,12.891-16.801,20.753c-2.672,4.834-0.92,10.918,3.913,13.591c1.534,0.848,3.193,1.25,4.83,1.25
			c3.521,0,6.937-1.864,8.761-5.163c3.21-5.807,7.387-10.965,12.413-15.332c6.416-5.573,14.119-9.677,22.277-11.869
			c4.761-1.279,9.689-1.927,14.68-1.927c31.078,0,56.361,25.265,56.361,56.319s-25.282,56.32-56.36,56.32H114.76
			c-20.708,0-37.555-16.833-37.555-37.524c0-15.351,9.204-29.002,23.45-34.777c4.533-1.839,7.071-6.687,5.999-11.46
			c-0.613-2.73-0.925-5.51-0.925-8.259c0-20.691,16.847-37.524,37.555-37.524c5.717,0,11.203,1.248,16.306,3.711
			c2.518,1.215,5.429,1.319,8.027,0.291c2.6-1.029,4.648-3.1,5.652-5.709c8.725-22.688,26.504-41.33,48.778-51.144
			c5.054-2.227,7.346-8.129,5.119-13.184c-2.227-5.053-8.127-7.346-13.184-5.119c-24.084,10.611-43.853,29.703-55.415,53.199
			c-0.454-0.125-0.911-0.238-1.368-0.352V55.334c0.001-19.482,15.852-35.333,35.334-35.333h126.934
			c19.482,0,35.333,15.851,35.333,35.333v245.679c0,5.522,4.478,10,10,10c5.522,0,10-4.478,10-10v-12.345h68.533
			c5.522,0,10-4.478,10-10c0-5.522-4.478-10-10-10H374.8v-32h68.533c5.522,0,10-4.478,10-10c0-5.522-4.478-10-10-10H374.8v-32
			h68.533c5.522,0,10-4.478,10-10c0-5.522-4.478-10-10-10H374.8v-32h68.533c5.522,0,10-4.478,10-10c0-5.522-4.478-10-10-10H374.8
			V74.001h85.645c17.399,0,31.555,14.156,31.555,31.556v268.889c0,7.704-2.806,15.121-7.9,20.886
			c-3.657,4.138-3.268,10.458,0.871,14.115c1.902,1.681,4.265,2.507,6.618,2.507c2.767,0,5.521-1.142,7.497-3.378
			c8.328-9.423,12.914-21.544,12.914-34.13V105.556C512,77.129,488.872,54.001,460.444,54.001z"/>
	</g>
</g>
<g>
	<g>
		<path d="M300,64.001h-88c-5.522,0-10,4.478-10,10c0,5.522,4.478,10,10,10h88c5.522,0,10-4.478,10-10
			C310,68.478,305.522,64.001,300,64.001z"/>
	</g>
</g>
<g>
	<g>
		<path d="M300,168.001h-88c-5.522,0-10,4.478-10,10c0,5.522,4.478,10,10,10h88c5.522,0,10-4.478,10-10
			C310,172.478,305.522,168.001,300,168.001z"/>
	</g>
</g>
<g>
	<g>
		<path d="M300,116.001h-88c-5.522,0-10,4.478-10,10c0,5.522,4.478,10,10,10h88c5.522,0,10-4.478,10-10
			C310,120.478,305.522,116.001,300,116.001z"/>
	</g>
</g>
<g>
	<g>
		<path d="M300,220.001h-88c-5.522,0-10,4.478-10,10c0,5.522,4.478,10,10,10h88c5.522,0,10-4.478,10-10
			C310,224.478,305.522,220.001,300,220.001z"/>
	</g>
</g>
<g>
	<g>
		<path d="M259.443,281.848c-0.099,0-0.2,0.001-0.298,0.003l-0.075-0.002c-5.522,0-10,4.478-10,10c0,5.522,4.478,10,10,10
			c0.048,0,0.096,0,0.143-0.001l0.106,0.001c0.021,0,0.042,0,0.063,0c5.493,0,9.964-4.436,9.999-9.938
			C269.415,286.389,264.967,281.884,259.443,281.848z"/>
	</g>
</g>
<g>
	<g>
		<path d="M308.363,432.845c-5.522,0-10,4.478-10,10v0.156c0,5.522,4.478,10,10,10c5.522,0,10-4.478,10-10v-0.156
			C318.363,437.322,313.885,432.845,308.363,432.845z"/>
	</g>
</g>
<g>
	<g>
		<path d="M109.465,311.628c-15.603,0-28.296,12.693-28.296,28.296c0,5.522,4.478,10,10,10c5.522,0,10-4.478,10-10
			c0-4.574,3.722-8.296,8.296-8.296c5.522,0,10-4.478,10-10C119.465,316.105,114.987,311.628,109.465,311.628z"/>
	</g>
</g>
<g>
	<g>
		<path d="M402.114,311.628c-5.522,0-10,4.477-10,10c0,5.522,4.478,10,10,10c4.574,0,8.296,3.722,8.296,8.296
			c0,5.522,4.478,10,10,10c5.522,0,10-4.478,10-10C430.41,324.321,417.717,311.628,402.114,311.628z"/>
	</g>
</g>
<g>
</g>
<g>
</g>
<g>
</g>
<g>
</g>
<g>
</g>
<g>
</g>
<g>
</g>
<g>
</g>
<g>
</g>
<g>
</g>
<g>
</g>
<g>
</g>
<g>
</g>
<g>
</g>
<g>
</g>
</svg>
