<?xml version="1.0" encoding="iso-8859-1"?>
<!-- Generator: Adobe Illustrator 19.0.0, SVG Export Plug-In . SVG Version: 6.00 Build 0)  -->
<svg version="1.1" id="Capa_1" xmlns="http://www.w3.org/2000/svg" xmlns:xlink="http://www.w3.org/1999/xlink" x="0px" y="0px"
	 viewBox="0 0 512 512" style="enable-background:new 0 0 512 512;" xml:space="preserve">
<g>
	<g>
		<path d="M501.948,0H10.052C4.532,0,0.055,4.477,0.055,9.998v437.907c0,5.521,4.477,9.998,9.998,9.998h93.965
			c5.521,0,9.998-4.477,9.998-9.998c0-5.521-4.477-9.998-9.998-9.998H20.05V91.929c0.33,0.033,0.665,0.051,1.004,0.051H491.95
			v345.926h-76.927c-5.521,0-9.998,4.477-9.998,9.998c0,5.521,4.477,9.998,9.998,9.998h86.924c5.521,0,9.998-4.477,9.998-9.998
			V9.998C511.945,4.477,507.468,0,501.948,0z M491.95,71.985H21.054c-0.339,0-0.674,0.018-1.004,0.051v-52.04h471.9V71.985z"/>
	</g>
</g>
<g>
	<g>
		<path d="M447.959,35.992H222.072c-5.521,0-9.998,4.477-9.998,9.998c0,5.521,4.477,9.998,9.998,9.998h225.887
			c5.521,0,9.998-4.477,9.998-9.998C457.957,40.469,453.48,35.992,447.959,35.992z"/>
	</g>
</g>
<g>
	<g>
		<path d="M111.1,38.917c-1.859-1.861-4.438-2.93-7.068-2.93c-2.629,0-5.209,1.07-7.068,2.93c-1.86,1.859-2.929,4.438-2.929,7.078
			c0,2.629,1.069,5.209,2.929,7.068c1.86,1.86,4.439,2.919,7.068,2.919c2.629,0,5.209-1.06,7.068-2.919
			c1.86-1.859,2.93-4.438,2.93-7.068C114.03,43.355,112.96,40.775,111.1,38.917z"/>
	</g>
</g>
<g>
	<g>
		<path d="M71.108,38.917c-1.859-1.861-4.438-2.93-7.068-2.93c-2.629,0-5.209,1.07-7.068,2.93c-1.86,1.859-2.929,4.438-2.929,7.078
			c0,2.629,1.069,5.198,2.929,7.068c1.86,1.86,4.439,2.93,7.068,2.93c2.629,0,5.209-1.07,7.068-2.93
			c1.86-1.87,2.93-4.438,2.93-7.068C74.039,43.355,72.969,40.786,71.108,38.917z"/>
	</g>
</g>
<g>
	<g>
		<path d="M151.091,38.917c-1.859-1.861-4.438-2.93-7.067-2.93c-2.629,0-5.209,1.07-7.069,2.93c-1.86,1.859-2.929,4.438-2.929,7.078
			c0,2.629,1.069,5.198,2.929,7.068c1.86,1.86,4.439,2.919,7.069,2.919c2.629,0,5.209-1.06,7.067-2.919
			c1.86-1.87,2.93-4.438,2.93-7.068C154.022,43.355,152.952,40.775,151.091,38.917z"/>
	</g>
</g>
<g>
	<g>
		<path d="M447.959,117.975H64.041c-5.521,0-9.998,4.477-9.998,9.998v120.539c0,5.521,4.477,9.998,9.998,9.998h27.994
			c5.521,0,9.998-4.477,9.998-9.998s-4.477-9.998-9.998-9.998H74.039V137.971h363.922v100.544h-11.997
			c-5.521,0-9.998,4.477-9.998,9.998s4.477,9.998,9.998,9.998h21.995c5.521,0,9.998-4.477,9.998-9.998V127.973
			C457.957,122.452,453.48,117.975,447.959,117.975z"/>
	</g>
</g>
<g>
	<g>
		<path d="M388.145,303.968c0-16.336-7.876-30.863-20.031-39.992c12.153-9.127,20.031-23.656,20.031-39.992
			c0-27.564-22.425-49.989-49.989-49.989H172.191c-27.564,0-49.989,22.425-49.989,49.989c0,16.336,7.876,30.863,20.031,39.992
			c-12.153,9.128-20.031,23.656-20.031,39.992s7.876,30.863,20.031,39.991c-12.153,9.128-20.031,23.656-20.031,39.992
			c0,27.564,22.425,49.989,49.989,49.989h73.811v19.792c-8.507,3.017-15.259,9.769-18.276,18.276h-95.527
			c-5.521,0-9.998,4.477-9.998,9.998c0,5.521,4.477,9.998,9.998,9.998h95.527C231.853,503.641,242.966,512,256,512
			c13.034,0,24.147-8.359,28.274-19.996h93.873c5.521,0,9.998-4.477,9.998-9.998c0-5.521-4.477-9.998-9.998-9.998h-93.873
			c-3.017-8.507-9.769-15.259-18.276-18.276v-19.792h72.158c27.564,0,49.989-22.425,49.989-49.989
			c0-16.336-7.876-30.863-20.031-39.992C380.268,334.832,388.145,320.304,388.145,303.968z M142.197,223.985
			c0-16.538,13.455-29.994,29.994-29.994h165.965c16.538,0,29.994,13.455,29.994,29.994c0,16.539-13.455,29.994-29.994,29.994
			H172.191C155.652,253.979,142.197,240.524,142.197,223.985z M256,492.004c-5.513,0-9.998-4.485-9.998-9.998
			c0-5.513,4.485-9.998,9.998-9.998c5.513,0,9.998,4.485,9.998,9.998C265.998,487.519,261.512,492.004,256,492.004z
			 M368.149,383.951c0,16.539-13.455,29.994-29.994,29.994H172.191c-16.538,0-29.994-13.455-29.994-29.994
			c0-16.538,13.455-29.994,29.994-29.994h165.965C354.694,353.958,368.149,367.413,368.149,383.951z M338.156,333.962H172.191
			c-16.538,0-29.994-13.455-29.994-29.994c0-16.538,13.455-29.994,29.994-29.994h165.965c16.538,0,29.994,13.455,29.994,29.994
			C368.149,320.507,354.694,333.962,338.156,333.962z"/>
	</g>
</g>
<g>
	<g>
		<path d="M256,212.559h-77.481c-5.521,0-9.998,4.477-9.998,9.998c0,5.521,4.477,9.998,9.998,9.998H256
			c5.521,0,9.998-4.477,9.998-9.998C265.998,217.036,261.521,212.559,256,212.559z"/>
	</g>
</g>
<g>
	<g>
		<path d="M339.811,215.488c-1.86-1.859-4.439-2.929-7.068-2.929s-5.209,1.07-7.068,2.929c-1.859,1.86-2.929,4.439-2.929,7.069
			s1.07,5.209,2.929,7.068c1.86,1.859,4.439,2.929,7.068,2.929s5.209-1.07,7.068-2.929c1.87-1.86,2.929-4.439,2.929-7.068
			S341.681,217.348,339.811,215.488z"/>
	</g>
</g>
<g>
	<g>
		<path d="M302.889,215.488c-1.859-1.859-4.438-2.929-7.068-2.929c-2.64,0-5.209,1.07-7.068,2.929
			c-1.86,1.86-2.929,4.439-2.929,7.069s1.069,5.209,2.929,7.068c1.86,1.859,4.439,2.929,7.068,2.929s5.209-1.07,7.068-2.929
			c1.86-1.86,2.93-4.439,2.93-7.068C305.819,219.917,304.75,217.348,302.889,215.488z"/>
	</g>
</g>
<g>
	<g>
		<path d="M256,292.542h-77.481c-5.522,0-9.998,4.477-9.998,9.998c0,5.521,4.477,9.998,9.998,9.998H256
			c5.521,0,9.998-4.477,9.998-9.998C265.998,297.019,261.521,292.542,256,292.542z"/>
	</g>
</g>
<g>
	<g>
		<path d="M339.811,295.471c-1.86-1.859-4.439-2.929-7.068-2.929s-5.209,1.07-7.068,2.929c-1.859,1.86-2.929,4.439-2.929,7.069
			s1.07,5.209,2.929,7.068s4.44,2.929,7.068,2.929c2.629,0,5.209-1.07,7.068-2.929c1.87-1.86,2.929-4.439,2.929-7.068
			S341.681,297.331,339.811,295.471z"/>
	</g>
</g>
<g>
	<g>
		<path d="M302.889,295.471c-1.859-1.859-4.438-2.929-7.068-2.929s-5.209,1.07-7.068,2.929c-1.86,1.86-2.929,4.439-2.929,7.069
			s1.069,5.209,2.929,7.068c1.86,1.86,4.439,2.929,7.068,2.929s5.209-1.07,7.068-2.929c1.86-1.86,2.93-4.439,2.93-7.068
			C305.819,299.9,304.75,297.331,302.889,295.471z"/>
	</g>
</g>
<g>
	<g>
		<path d="M256,372.525h-77.481c-5.522,0-9.998,4.477-9.998,9.998s4.477,9.998,9.998,9.998H256c5.521,0,9.998-4.477,9.998-9.998
			S261.521,372.525,256,372.525z"/>
	</g>
</g>
<g>
	<g>
		<path d="M339.811,375.454c-1.86-1.859-4.439-2.929-7.068-2.929s-5.209,1.07-7.068,2.929c-1.859,1.86-2.929,4.439-2.929,7.069
			s1.07,5.209,2.929,7.068s4.44,2.929,7.068,2.929c2.629,0,5.209-1.07,7.068-2.929c1.87-1.86,2.929-4.439,2.929-7.068
			S341.681,377.314,339.811,375.454z"/>
	</g>
</g>
<g>
	<g>
		<path d="M302.889,375.454c-1.859-1.859-4.438-2.929-7.068-2.929c-2.64,0-5.209,1.07-7.068,2.929
			c-1.86,1.86-2.929,4.439-2.929,7.069s1.069,5.209,2.929,7.068c1.86,1.86,4.439,2.929,7.068,2.929s5.209-1.07,7.068-2.929
			c1.86-1.86,2.93-4.439,2.93-7.068S304.75,377.314,302.889,375.454z"/>
	</g>
</g>
<g>
</g>
<g>
</g>
<g>
</g>
<g>
</g>
<g>
</g>
<g>
</g>
<g>
</g>
<g>
</g>
<g>
</g>
<g>
</g>
<g>
</g>
<g>
</g>
<g>
</g>
<g>
</g>
<g>
</g>
</svg>
