<?xml version="1.0" encoding="iso-8859-1"?>
<!-- Generator: Adobe Illustrator 19.0.0, SVG Export Plug-In . SVG Version: 6.00 Build 0)  -->
<svg version="1.1" id="Capa_1" xmlns="http://www.w3.org/2000/svg" xmlns:xlink="http://www.w3.org/1999/xlink" x="0px" y="0px"
	 viewBox="0 0 512.001 512.001" style="enable-background:new 0 0 512.001 512.001;" xml:space="preserve">
<g>
	<g>
		<path d="M379.993,206.008h-55.997c-5.522,0-9.999,4.478-9.999,9.999s4.478,9.999,9.999,9.999h55.997
			c5.522,0,9.999-4.478,9.999-9.999S385.515,206.008,379.993,206.008z"/>
	</g>
</g>
<g>
	<g>
		<path d="M379.993,286.003h-55.997c-5.522,0-9.999,4.478-9.999,9.999s4.478,9.999,9.999,9.999h55.997
			c5.522,0,9.999-4.478,9.999-9.999S385.515,286.003,379.993,286.003z"/>
	</g>
</g>
<g>
	<g>
		<path d="M379.993,246.005h-55.997c-5.522,0-9.999,4.478-9.999,9.999c0,5.522,4.478,9.999,9.999,9.999h55.997
			c5.522,0,9.999-4.478,9.999-9.999S385.515,246.005,379.993,246.005z"/>
	</g>
</g>
<g>
	<g>
		<path d="M379.993,326h-55.997c-5.522,0-9.999,4.478-9.999,9.999s4.478,9.999,9.999,9.999h55.997c5.522,0,9.999-4.478,9.999-9.999
			S385.515,326,379.993,326z"/>
	</g>
</g>
<g>
	<g>
		<path d="M391.66,166.01h-79.329c-21.136,0-38.331,17.195-38.331,38.331v183.323c0,21.136,17.195,38.331,38.331,38.331h29.665
			v27.73c-8.508,3.018-15.261,9.77-18.279,18.279h-67.716c-5.522,0-9.999,4.478-9.999,9.999s4.478,9.999,9.999,9.999h67.716
			c4.128,11.638,15.242,19.999,28.278,19.999c16.541,0,29.998-13.457,29.998-29.998c0-13.035-8.36-24.151-19.999-28.278v-27.73
			h29.665c21.136,0,38.331-17.195,38.331-38.331V204.341C429.99,183.205,412.795,166.01,391.66,166.01z M351.995,492.001
			c-5.514,0-9.999-4.486-9.999-9.999s4.486-9.999,9.999-9.999s9.999,4.486,9.999,9.999S357.508,492.001,351.995,492.001z
			 M409.992,387.664c0,10.107-8.224,18.332-18.332,18.332h-79.329c-10.108,0-18.332-8.224-18.332-18.332V204.341
			c0-10.107,8.225-18.332,18.332-18.332h79.329c10.107,0,18.332,8.224,18.332,18.332V387.664z"/>
	</g>
</g>
<g>
	<g>
		<path d="M359.064,367.494c-1.859-1.861-4.439-2.931-7.069-2.931c-2.63,0-5.21,1.07-7.07,2.931c-1.86,1.859-2.93,4.439-2.93,7.069
			c0,2.641,1.069,5.221,2.93,7.08c1.86,1.86,4.44,2.931,7.07,2.931c2.63,0,5.21-1.07,7.069-2.931c1.86-1.869,2.931-4.439,2.931-7.08
			C361.995,371.932,360.925,369.353,359.064,367.494z"/>
	</g>
</g>
<g>
	<g>
		<path d="M188.005,206.008h-55.997c-5.522,0-9.999,4.478-9.999,9.999s4.478,9.999,9.999,9.999h55.997
			c5.522,0,9.999-4.478,9.999-9.999S193.527,206.008,188.005,206.008z"/>
	</g>
</g>
<g>
	<g>
		<path d="M188.005,286.003h-55.997c-5.522,0-9.999,4.478-9.999,9.999s4.478,9.999,9.999,9.999h55.997
			c5.522,0,9.999-4.478,9.999-9.999S193.527,286.003,188.005,286.003z"/>
	</g>
</g>
<g>
	<g>
		<path d="M188.005,246.005h-55.997c-5.522,0-9.999,4.478-9.999,9.999c0,5.522,4.478,9.999,9.999,9.999h55.997
			c5.522,0,9.999-4.478,9.999-9.999S193.527,246.005,188.005,246.005z"/>
	</g>
</g>
<g>
	<g>
		<path d="M188.005,326h-55.997c-5.522,0-9.999,4.478-9.999,9.999s4.478,9.999,9.999,9.999h55.997c5.522,0,9.999-4.478,9.999-9.999
			S193.527,326,188.005,326z"/>
	</g>
</g>
<g>
	<g>
		<path d="M199.671,166.01h-79.329c-21.136,0-38.331,17.195-38.331,38.331v183.323c0,21.136,17.195,38.331,38.331,38.331h29.665
			v27.73c-11.638,4.128-19.999,15.242-19.999,28.278c0,16.541,13.457,29.998,29.998,29.998c16.541,0,29.998-13.457,29.998-29.998
			c0-13.035-8.36-24.151-19.999-28.278v-27.73h29.665c21.136,0,38.331-17.195,38.331-38.331V204.341
			C238.002,183.205,220.806,166.01,199.671,166.01z M170.006,482.002c0,5.514-4.487,9.999-9.999,9.999
			c-5.514,0-9.999-4.486-9.999-9.999s4.486-9.999,9.999-9.999C165.52,472.002,170.006,476.488,170.006,482.002z M218.003,387.664
			c0,10.107-8.224,18.332-18.332,18.332h-79.329c-10.107,0-18.332-8.224-18.332-18.332V204.341c0-10.107,8.224-18.332,18.332-18.332
			h79.329c10.107,0,18.332,8.224,18.332,18.332V387.664z"/>
	</g>
</g>
<g>
	<g>
		<path d="M167.075,367.494c-1.859-1.861-4.439-2.931-7.069-2.931c-2.63,0-5.21,1.07-7.07,2.931c-1.86,1.859-2.93,4.439-2.93,7.069
			c0,2.641,1.069,5.211,2.93,7.08c1.86,1.86,4.44,2.931,7.07,2.931c2.63,0,5.21-1.07,7.069-2.931c1.86-1.869,2.931-4.439,2.931-7.08
			C170.006,371.932,168.936,369.353,167.075,367.494z"/>
	</g>
</g>
<g>
	<g>
		<path d="M501.986,472.002h-90.995c-5.522,0-9.999,4.478-9.999,9.999s4.478,9.999,9.999,9.999h90.995
			c5.522,0,9.999-4.478,9.999-9.999S507.508,472.002,501.986,472.002z"/>
	</g>
</g>
<g>
	<g>
		<path d="M97.011,472.002H10.016c-5.522,0-9.999,4.478-9.999,9.999s4.478,9.999,9.999,9.999h86.995
			c5.522,0,9.999-4.478,9.999-9.999S102.532,472.002,97.011,472.002z"/>
	</g>
</g>
<g>
	<g>
		<path d="M350.349,16.046C327.452,5.398,302.941,0,277.501,0c-56.299,0-108.414,27.012-140.908,72.644
			c-6.693-1.761-13.587-2.649-20.583-2.649c-44.6,0-80.885,36.285-80.885,80.885c0,4.577,0.385,9.139,1.147,13.629
			c-23.121,19.615-36.256,47.86-36.256,78.456c0.001,33.906,16.695,65.641,44.659,84.891c1.731,1.192,3.706,1.764,5.661,1.764
			c3.18,0,6.307-1.514,8.245-4.331c3.131-4.549,1.982-10.774-2.567-13.906c-22.542-15.518-35.999-41.095-35.999-68.418
			c0-26.402,12.14-50.635,33.306-66.483c3.238-2.425,4.697-6.561,3.695-10.478c-1.256-4.918-1.893-10.006-1.893-15.123
			c0-33.572,27.313-60.886,60.886-60.886c7.282,0,14.411,1.276,21.19,3.793c4.393,1.629,9.321-0.006,11.869-3.934
			c28.371-43.741,76.383-69.855,128.432-69.855c22.507,0,44.18,4.771,64.418,14.181c5.009,2.329,10.955,0.155,13.282-4.852
			C357.53,24.32,355.358,18.374,350.349,16.046z"/>
	</g>
</g>
<g>
	<g>
		<path d="M386.403,38.58l-0.108-0.088c-4.288-3.478-10.585-2.821-14.064,1.47c-3.479,4.29-2.82,10.586,1.47,14.064l0.108,0.088
			c1.853,1.502,4.079,2.232,6.292,2.232c2.91,0,5.797-1.265,7.773-3.702C391.352,48.354,390.693,42.057,386.403,38.58z"/>
	</g>
</g>
<g>
	<g>
		<path d="M490.515,154.837c-12.84-18.637-30.376-33.203-50.91-42.343c-6.163-16.515-14.8-31.941-25.712-45.912
			c-3.4-4.352-9.682-5.124-14.036-1.725c-4.352,3.399-5.124,9.684-1.725,14.036c10.476,13.41,18.579,28.33,24.085,44.35
			c0.944,2.748,3.037,4.949,5.733,6.031c38.901,15.608,64.037,52.778,64.037,94.692c0,28.176-11.237,54.402-31.642,73.847
			c-3.998,3.811-4.151,10.139-0.341,14.137c1.965,2.063,4.601,3.102,7.241,3.102c2.478,0,4.961-0.916,6.896-2.761
			c24.404-23.257,37.845-54.624,37.845-88.325C511.983,199.126,504.56,175.221,490.515,154.837z"/>
	</g>
</g>
<g>
	<g>
		<path d="M226.572,474.926c-1.859-1.859-4.439-2.92-7.069-2.92c-2.63,0-5.21,1.061-7.07,2.92c-1.86,1.87-2.93,4.44-2.93,7.08
			c0,2.63,1.069,5.2,2.93,7.07c1.86,1.86,4.44,2.93,7.07,2.93c2.63,0,5.21-1.069,7.069-2.93c1.86-1.86,2.931-4.44,2.931-7.07
			C229.503,479.366,228.433,476.786,226.572,474.926z"/>
	</g>
</g>
<g>
</g>
<g>
</g>
<g>
</g>
<g>
</g>
<g>
</g>
<g>
</g>
<g>
</g>
<g>
</g>
<g>
</g>
<g>
</g>
<g>
</g>
<g>
</g>
<g>
</g>
<g>
</g>
<g>
</g>
</svg>
