<?xml version="1.0" encoding="iso-8859-1"?>
<!-- Generator: Adobe Illustrator 19.0.0, SVG Export Plug-In . SVG Version: 6.00 Build 0)  -->
<svg version="1.1" id="Capa_1" xmlns="http://www.w3.org/2000/svg" xmlns:xlink="http://www.w3.org/1999/xlink" x="0px" y="0px"
	 viewBox="0 0 512 512" style="enable-background:new 0 0 512 512;" xml:space="preserve">
<g>
	<g>
		<path d="M266,130c0-16.339-7.878-30.87-20.035-40C258.122,80.87,266,66.339,266,50c0-27.57-22.43-50-50-50H50
			C22.43,0,0,22.43,0,50c0,16.339,7.878,30.87,20.035,40C7.878,99.13,0,113.661,0,130s7.878,30.87,20.035,40
			C7.878,179.13,0,193.661,0,210c0,27.57,22.43,50,50,50h166c27.57,0,50-22.43,50-50c0-16.339-7.878-30.87-20.035-40
			C258.122,160.87,266,146.339,266,130z M20,50c0-16.542,13.458-30,30-30h166c16.542,0,30,13.458,30,30s-13.458,30-30,30H50
			C33.458,80,20,66.542,20,50z M246,210c0,16.542-13.458,30-30,30H50c-16.542,0-30-13.458-30-30s13.458-30,30-30h166
			C232.542,180,246,193.458,246,210z M216,160H50c-16.542,0-30-13.458-30-30s13.458-30,30-30h166c16.542,0,30,13.458,30,30
			S232.542,160,216,160z"/>
	</g>
</g>
<g>
	<g>
		<path d="M133.827,38.571H56.329c-5.523,0-10,4.478-10,10c0,5.522,4.477,10,10,10h77.499c5.523,0,10-4.478,10-10
			C143.828,43.049,139.35,38.571,133.827,38.571z"/>
	</g>
</g>
<g>
	<g>
		<path d="M217.66,41.5c-1.86-1.86-4.44-2.931-7.07-2.931s-5.21,1.07-7.07,2.931c-1.86,1.859-2.93,4.439-2.93,7.069
			c0,2.641,1.07,5.211,2.93,7.07c1.86,1.86,4.44,2.93,7.07,2.93s5.21-1.069,7.07-2.93c1.86-1.859,2.93-4.439,2.93-7.07
			C220.59,45.939,219.52,43.359,217.66,41.5z"/>
	</g>
</g>
<g>
	<g>
		<path d="M180.73,41.5c-1.86-1.86-4.44-2.931-7.07-2.931c-2.64,0-5.21,1.07-7.07,2.931c-1.87,1.859-2.93,4.439-2.93,7.069
			c0,2.631,1.06,5.211,2.93,7.07c1.86,1.86,4.43,2.93,7.07,2.93c2.63,0,5.21-1.069,7.07-2.93c1.86-1.859,2.93-4.439,2.93-7.07
			C183.66,45.939,182.59,43.359,180.73,41.5z"/>
	</g>
</g>
<g>
	<g>
		<path d="M133.827,118.571H56.329c-5.523,0-10,4.478-10,10c0,5.522,4.477,10,10,10h77.499c5.523,0,10-4.478,10-10
			C143.828,123.049,139.35,118.571,133.827,118.571z"/>
	</g>
</g>
<g>
	<g>
		<path d="M217.66,121.5c-1.86-1.86-4.44-2.931-7.07-2.931s-5.21,1.07-7.07,2.931c-1.86,1.859-2.93,4.439-2.93,7.069
			c0,2.631,1.07,5.211,2.93,7.07c1.86,1.86,4.44,2.93,7.07,2.93s5.21-1.069,7.07-2.93c1.86-1.859,2.93-4.439,2.93-7.07
			C220.59,125.939,219.52,123.359,217.66,121.5z"/>
	</g>
</g>
<g>
	<g>
		<path d="M180.73,121.5c-1.86-1.86-4.44-2.931-7.07-2.931c-2.64,0-5.21,1.07-7.07,2.931c-1.87,1.859-2.93,4.439-2.93,7.069
			c0,2.631,1.06,5.211,2.93,7.07c1.86,1.86,4.44,2.93,7.07,2.93s5.2-1.069,7.07-2.93c1.86-1.859,2.93-4.439,2.93-7.07
			C183.66,125.939,182.59,123.359,180.73,121.5z"/>
	</g>
</g>
<g>
	<g>
		<path d="M133.827,198.571H56.329c-5.523,0-10,4.478-10,10c0,5.522,4.477,10,10,10h77.499c5.523,0,10-4.478,10-10
			C143.828,203.049,139.35,198.571,133.827,198.571z"/>
	</g>
</g>
<g>
	<g>
		<path d="M217.66,201.5c-1.86-1.86-4.44-2.931-7.07-2.931s-5.21,1.07-7.07,2.931c-1.86,1.859-2.93,4.439-2.93,7.069
			c0,2.631,1.07,5.211,2.93,7.07c1.86,1.86,4.44,2.93,7.07,2.93s5.21-1.069,7.07-2.93c1.86-1.859,2.93-4.439,2.93-7.07
			C220.59,205.939,219.52,203.359,217.66,201.5z"/>
	</g>
</g>
<g>
	<g>
		<path d="M180.73,201.5c-1.86-1.86-4.44-2.931-7.07-2.931c-2.64,0-5.21,1.07-7.08,2.931c-1.86,1.859-2.92,4.439-2.92,7.069
			c0,2.631,1.06,5.211,2.92,7.07c1.87,1.86,4.45,2.93,7.08,2.93s5.21-1.069,7.07-2.93c1.86-1.859,2.93-4.439,2.93-7.07
			C183.66,205.939,182.59,203.359,180.73,201.5z"/>
	</g>
</g>
<g>
	<g>
		<path d="M227,325.326h-64.893c-3.018-8.509-9.771-15.262-18.28-18.28v-16.379c0-5.522-4.477-10-10-10c-5.523,0-10,4.478-10,10
			v16.379c-11.639,4.128-20,15.243-20,28.28c0,16.542,13.458,30,30,30c13.036,0,24.152-8.361,28.28-20H227c5.523,0,10-4.478,10-10
			C237,329.804,232.523,325.326,227,325.326z M133.827,345.326c-5.514,0-10-4.486-10-10c0-5.514,4.486-10,10-10
			c5.514,0,10,4.486,10,10C143.827,340.84,139.341,345.326,133.827,345.326z"/>
	</g>
</g>
<g>
	<g>
		<path d="M73.667,325.326H10c-5.523,0-10,4.478-10,10c0,5.522,4.477,10,10,10h63.667c5.523,0,10-4.478,10-10
			C83.667,329.804,79.189,325.326,73.667,325.326z"/>
	</g>
</g>
<g>
	<g>
		<path d="M389,120h-40.333c-5.523,0-10,4.478-10,10c0,5.522,4.477,10,10,10H379v26c0,5.522,4.477,10,10,10s10-4.478,10-10v-36
			C399,124.478,394.523,120,389,120z"/>
	</g>
</g>
<g>
	<g>
		<path d="M310.666,120h-20.333c-5.523,0-10,4.478-10,10c0,5.522,4.478,10,10,10h20.333c5.523,0,10-4.478,10-10
			C320.666,124.478,316.189,120,310.666,120z"/>
	</g>
</g>
<g>
	<g>
		<path d="M315.57,296.93c-1.86-1.86-4.44-2.93-7.07-2.93s-5.21,1.069-7.07,2.93c-1.86,1.86-2.93,4.44-2.93,7.07
			s1.07,5.21,2.93,7.069c1.86,1.861,4.44,2.931,7.07,2.931s5.21-1.07,7.07-2.931c1.86-1.859,2.93-4.439,2.93-7.069
			S317.43,298.79,315.57,296.93z"/>
	</g>
</g>
<g>
	<g>
		<path d="M463.156,333.031h-158c-5.523,0-10,4.478-10,10v64c0,5.522,4.477,10,10,10h158c5.523,0,10-4.478,10-10v-64
			C473.156,337.509,468.679,333.031,463.156,333.031z M453.156,397.031h-138v-44h138V397.031z"/>
	</g>
</g>
<g>
	<g>
		<path d="M502,256H266c-5.523,0-10,4.478-10,10v236c0,5.522,4.477,10,10,10h236c5.523,0,10-4.478,10-10V266
			C512,260.478,507.523,256,502,256z M492,294H350.5c-5.523,0-10,4.478-10,10c0,5.522,4.477,10,10,10H492v178H276V276h216V294z"/>
	</g>
</g>
<g>
	<g>
		<path d="M463.156,438.013h-158c-5.523,0-10,4.478-10,10c0,5.522,4.477,10,10,10h158c5.523,0,10-4.478,10-10
			C473.156,442.491,468.679,438.013,463.156,438.013z"/>
	</g>
</g>
<g>
	<g>
		<path d="M389,196.837c-5.523,0-10,4.478-10,10v18.334c0,5.522,4.477,10,10,10s10-4.478,10-10v-18.334
			C399,201.315,394.523,196.837,389,196.837z"/>
	</g>
</g>
<g>
</g>
<g>
</g>
<g>
</g>
<g>
</g>
<g>
</g>
<g>
</g>
<g>
</g>
<g>
</g>
<g>
</g>
<g>
</g>
<g>
</g>
<g>
</g>
<g>
</g>
<g>
</g>
<g>
</g>
</svg>
