<?xml version="1.0" encoding="iso-8859-1"?>
<!-- Generator: Adobe Illustrator 19.0.0, SVG Export Plug-In . SVG Version: 6.00 Build 0)  -->
<svg version="1.1" id="Capa_1" xmlns="http://www.w3.org/2000/svg" xmlns:xlink="http://www.w3.org/1999/xlink" x="0px" y="0px"
	 viewBox="0 0 512 512" style="enable-background:new 0 0 512 512;" xml:space="preserve">
<g>
	<g>
		<path d="M243.994,361H104.006c-5.523,0-10,4.478-10,10c0,5.522,4.477,10,10,10h139.988c5.523,0,10-4.478,10-10
			C253.994,365.478,249.517,361,243.994,361z"/>
	</g>
</g>
<g>
	<g>
		<path d="M243.994,323H104.006c-5.523,0-10,4.478-10,10c0,5.522,4.477,10,10,10h139.988c5.523,0,10-4.478,10-10
			C253.994,327.478,249.517,323,243.994,323z"/>
	</g>
</g>
<g>
	<g>
		<path d="M243.994,399H104.006c-5.523,0-10,4.478-10,10c0,5.522,4.477,10,10,10h139.988c5.523,0,10-4.478,10-10
			C253.994,403.478,249.517,399,243.994,399z"/>
	</g>
</g>
<g>
	<g>
		<path d="M502,27H10C4.477,27,0,31.478,0,37v438c0,5.522,4.477,10,10,10h492c5.523,0,10-4.478,10-10V37
			C512,31.478,507.523,27,502,27z M492,465h-33.873V283c0-5.522-4.477-10-10-10h-120c-5.523,0-10,4.478-10,10v107.5
			c0,5.522,4.477,10,10,10s10-4.478,10-10V293h100v172H294V283c0-5.522-4.477-10-10-10H64c-5.523,0-10,4.478-10,10v144
			c0,5.522,4.477,10,10,10s10-4.478,10-10V293h200v172H20V118.949c0.33,0.033,0.665,0.051,1.004,0.051h463.999
			c2.726,0,5.193-1.094,6.997-2.862V465z M492,101.862c-1.804-1.768-4.271-2.862-6.997-2.862H21.004
			c-0.339,0-0.674,0.018-1.004,0.051V47h472V101.862z"/>
	</g>
</g>
<g>
	<g>
		<path d="M448,63H222.065c-5.523,0-10,4.478-10,10c0,5.522,4.477,10,10,10H448c5.523,0,10-4.478,10-10
			C458,67.478,453.523,63,448,63z"/>
	</g>
</g>
<g>
	<g>
		<path d="M111.07,65.93C109.21,64.07,106.63,63,104,63s-5.21,1.069-7.07,2.93C95.07,67.79,94,70.37,94,73s1.07,5.21,2.93,7.069
			C98.79,81.93,101.37,83,104,83s5.21-1.07,7.07-2.931C112.93,78.21,114,75.63,114,73S112.93,67.79,111.07,65.93z"/>
	</g>
</g>
<g>
	<g>
		<path d="M71.07,65.93C69.21,64.07,66.63,63,64,63s-5.21,1.069-7.07,2.93C55.07,67.79,54,70.37,54,73s1.07,5.21,2.93,7.069
			C58.79,81.93,61.37,83,64,83s5.21-1.07,7.07-2.931C72.93,78.21,74,75.63,74,73S72.93,67.79,71.07,65.93z"/>
	</g>
</g>
<g>
	<g>
		<path d="M151.07,65.93C149.21,64.07,146.63,63,144,63s-5.21,1.069-7.07,2.93C135.07,67.79,134,70.37,134,73s1.07,5.21,2.93,7.069
			C138.79,81.93,141.37,83,144,83s5.21-1.07,7.07-2.931C152.93,78.21,154,75.63,154,73S152.93,67.79,151.07,65.93z"/>
	</g>
</g>
<g>
	<g>
		<path d="M448,145H64c-5.523,0-10,4.478-10,10v88c0,5.522,4.477,10,10,10h384c5.523,0,10-4.478,10-10v-88
			C458,149.478,453.523,145,448,145z M438,233H74v-68h364V233z"/>
	</g>
</g>
<g>
	<g>
		<path d="M335.2,419.93c-1.86-1.86-4.44-2.93-7.07-2.93s-5.21,1.069-7.07,2.93c-1.87,1.86-2.93,4.44-2.93,7.07
			s1.06,5.21,2.93,7.069c1.86,1.861,4.44,2.931,7.07,2.931s5.2-1.07,7.07-2.931c1.86-1.859,2.93-4.439,2.93-7.069
			S337.06,421.79,335.2,419.93z"/>
	</g>
</g>
<g>
</g>
<g>
</g>
<g>
</g>
<g>
</g>
<g>
</g>
<g>
</g>
<g>
</g>
<g>
</g>
<g>
</g>
<g>
</g>
<g>
</g>
<g>
</g>
<g>
</g>
<g>
</g>
<g>
</g>
</svg>
