<?xml version="1.0" encoding="iso-8859-1"?>
<!-- Generator: Adobe Illustrator 19.0.0, SVG Export Plug-In . SVG Version: 6.00 Build 0)  -->
<svg version="1.1" id="Capa_1" xmlns="http://www.w3.org/2000/svg" xmlns:xlink="http://www.w3.org/1999/xlink" x="0px" y="0px"
	 viewBox="0 0 512 512" style="enable-background:new 0 0 512 512;" xml:space="preserve">
<g>
	<g>
		<path d="M502,436.5H323.333c-5.523,0-10,4.478-10,10c0,5.522,4.477,10,10,10H502c5.523,0,10-4.478,10-10
			C512,440.978,507.523,436.5,502,436.5z"/>
	</g>
</g>
<g>
	<g>
		<path d="M192.32,436.5H10c-5.523,0-10,4.478-10,10c0,5.522,4.477,10,10,10h182.32c5.523,0,10-4.478,10-10
			C202.32,440.978,197.843,436.5,192.32,436.5z"/>
	</g>
</g>
<g>
	<g>
		<path d="M351.985,299.448h-0.158c-5.523,0-10,4.478-10,10c0,5.522,4.477,10,10,10h0.158c5.523,0,10-4.478,10-10
			C361.985,303.926,357.508,299.448,351.985,299.448z"/>
	</g>
</g>
<g>
	<g>
		<path d="M266.819,141.355h-77.498c-5.523,0-10,4.478-10,10c0,5.522,4.477,10,10,10h77.498c5.523,0,10-4.478,10-10
			C276.819,145.833,272.342,141.355,266.819,141.355z"/>
	</g>
</g>
<g>
	<g>
		<path d="M119.63,144.281c-1.86-1.86-4.44-2.921-7.07-2.921s-5.21,1.061-7.07,2.921c-1.86,1.869-2.93,4.439-2.93,7.069
			c0,2.641,1.07,5.21,2.93,7.08c1.86,1.86,4.44,2.92,7.07,2.92s5.21-1.06,7.07-2.92c1.86-1.87,2.93-4.439,2.93-7.08
			C122.56,148.72,121.49,146.15,119.63,144.281z"/>
	</g>
</g>
<g>
	<g>
		<path d="M156.56,144.281c-1.86-1.86-4.44-2.921-7.07-2.921s-5.21,1.061-7.07,2.921c-1.86,1.859-2.93,4.439-2.93,7.069
			c0,2.641,1.07,5.21,2.93,7.08c1.86,1.86,4.44,2.92,7.07,2.92s5.21-1.06,7.07-2.92c1.86-1.87,2.93-4.439,2.93-7.08
			C159.49,148.72,158.42,146.14,156.56,144.281z"/>
	</g>
</g>
<g>
	<g>
		<path d="M266.819,181.355h-77.498c-5.523,0-10,4.478-10,10c0,5.522,4.477,10,10,10h77.498c5.523,0,10-4.478,10-10
			C276.819,185.833,272.342,181.355,266.819,181.355z"/>
	</g>
</g>
<g>
	<g>
		<path d="M119.63,184.28c-1.86-1.861-4.44-2.931-7.07-2.931s-5.21,1.071-7.07,2.931c-1.86,1.859-2.93,4.439-2.93,7.079
			c0,2.631,1.07,5.2,2.93,7.07c1.86,1.861,4.44,2.93,7.07,2.93s5.21-1.069,7.07-2.93c1.86-1.87,2.93-4.439,2.93-7.07
			C122.56,188.719,121.49,186.139,119.63,184.28z"/>
	</g>
</g>
<g>
	<g>
		<path d="M156.56,184.28c-1.86-1.861-4.44-2.931-7.07-2.931s-5.21,1.071-7.07,2.931c-1.86,1.869-2.93,4.439-2.93,7.079
			c0,2.631,1.07,5.2,2.93,7.07c1.86,1.861,4.44,2.93,7.07,2.93s5.21-1.069,7.07-2.93c1.86-1.87,2.93-4.439,2.93-7.07
			C159.49,188.719,158.42,186.139,156.56,184.28z"/>
	</g>
</g>
<g>
	<g>
		<path d="M266,418.22v-21.732c0-5.522-4.477-10-10-10s-10,4.478-10,10v21.732c-11.639,4.128-20,15.243-20,28.28
			c0,16.542,13.458,30,30,30s30-13.458,30-30C286,433.464,277.639,422.348,266,418.22z M256,456.5c-5.514,0-10-4.486-10-10
			c0-5.514,4.486-10,10-10c5.514,0,10,4.486,10,10C266,452.014,261.514,456.5,256,456.5z"/>
	</g>
</g>
<g>
	<g>
		<path d="M480,62.502H261.682l-13.185-22.121c-1.803-3.027-5.067-4.881-8.59-4.881H109.93c-5.523,0-10,4.478-10,10v31.667
			c0,5.522,4.477,10,10,10s10-4.478,10-10V55.5h114.296l13.185,22.121c1.803,3.027,5.067,4.881,8.59,4.881h214V328
			c0,10.752-8.748,19.5-19.5,19.5S431,338.752,431,328V110.5c0-5.522-4.477-10-10-10H64c-5.523,0-10,4.478-10,10v213.25
			c0,24.124,19.626,43.75,43.75,43.75H448c0.282,0,0.561-0.012,0.837-0.034c0.552,0.022,1.106,0.034,1.663,0.034
			c21.78,0,39.5-17.72,39.5-39.5V72.502C490,66.979,485.523,62.502,480,62.502z M97.75,347.5C84.654,347.5,74,336.846,74,323.75
			v-4.248l238.715-0.054c5.522-0.001,9.999-4.479,9.998-10.002c-0.001-5.523-4.478-9.998-10-9.998c0,0-0.001,0-0.002,0L74,299.502
			V120.5h337V328c0,7.087,1.876,13.743,5.157,19.5H97.75z"/>
	</g>
</g>
<g>
</g>
<g>
</g>
<g>
</g>
<g>
</g>
<g>
</g>
<g>
</g>
<g>
</g>
<g>
</g>
<g>
</g>
<g>
</g>
<g>
</g>
<g>
</g>
<g>
</g>
<g>
</g>
<g>
</g>
</svg>
