<?xml version="1.0" encoding="iso-8859-1"?>
<!-- Generator: Adobe Illustrator 19.0.0, SVG Export Plug-In . SVG Version: 6.00 Build 0)  -->
<svg version="1.1" id="Capa_1" xmlns="http://www.w3.org/2000/svg" xmlns:xlink="http://www.w3.org/1999/xlink" x="0px" y="0px"
	 viewBox="0 0 512 512" style="enable-background:new 0 0 512 512;" xml:space="preserve">
<g>
	<g>
		<path d="M502,455H316.333c-5.523,0-10,4.478-10,10c0,5.522,4.477,10,10,10H502c5.523,0,10-4.478,10-10
			C512,459.478,507.523,455,502,455z"/>
	</g>
</g>
<g>
	<g>
		<path d="M196.32,455H10c-5.523,0-10,4.478-10,10c0,5.522,4.477,10,10,10h186.32c5.523,0,10-4.478,10-10
			C206.32,459.478,201.843,455,196.32,455z"/>
	</g>
</g>
<g>
	<g>
		<path d="M266,436.72v-28.732c0-5.522-4.477-10-10-10s-10,4.478-10,10v28.732c-11.639,4.128-20,15.243-20,28.28
			c0,16.542,13.458,30,30,30s30-13.458,30-30C286,451.964,277.639,440.848,266,436.72z M256,475c-5.514,0-10-4.486-10-10
			c0-5.514,4.486-10,10-10c5.514,0,10,4.486,10,10C266,470.514,261.514,475,256,475z"/>
	</g>
</g>
<g>
	<g>
		<path d="M502,296.988h-16V27c0-5.522-4.477-10-10-10H36c-5.523,0-10,4.478-10,10v269.988H10c-5.523,0-10,4.478-10,10v8.25
			c0,30.74,25.009,55.75,55.75,55.75h400.5c30.741,0,55.75-25.01,55.75-55.75v-8.25C512,301.466,507.523,296.988,502,296.988z
			 M46,37h420v259.988h-17.943V67c0-5.522-4.477-10-10-10H289.714c-5.523,0-10,4.478-10,10s4.477,10,10,10h138.343v219.988H323.079
			c-4.092,0-7.771,2.493-9.288,6.293c-2.596,6.505-8.794,10.707-15.792,10.707h-84c-6.997,0-13.195-4.203-15.792-10.707
			c-1.517-3.8-5.196-6.293-9.288-6.293H83.943V77H223.73c5.523,0,10-4.478,10-10c0-5.522-4.477-10-10-10H73.943
			c-5.523,0-10,4.478-10,10v229.988H46V37z M456.25,350.988H55.75c-19.125,0-34.792-15.098-35.708-34h162.816
			c6.712,10.508,18.309,17,31.141,17h84c12.833,0,24.43-6.492,31.141-17h162.816C491.042,335.891,475.375,350.988,456.25,350.988z"
			/>
	</g>
</g>
<g>
	<g>
		<path d="M256.16,57h-0.401c-5.523,0-10,4.478-10,10s4.477,10,10,10h0.401c5.523,0,10-4.478,10-10
			C266.16,61.478,261.683,57,256.16,57z"/>
	</g>
</g>
<g>
	<g>
		<path d="M396,107.125H116c-5.523,0-10,4.478-10,10V187c0,5.522,4.477,10,10,10h280c5.523,0,10-4.478,10-10v-69.875
			C406,111.603,401.523,107.125,396,107.125z M386,177H126v-49.875h260V177z"/>
	</g>
</g>
<g>
	<g>
		<path d="M356.17,213h-77.498c-5.523,0-10,4.478-10,10c0,5.522,4.477,10,10,10h77.498c5.523,0,10-4.478,10-10
			C366.17,217.478,361.693,213,356.17,213z"/>
	</g>
</g>
<g>
	<g>
		<path d="M403.07,215.93c-1.86-1.86-4.44-2.93-7.07-2.93s-5.21,1.069-7.07,2.93c-1.86,1.86-2.93,4.44-2.93,7.07
			s1.07,5.21,2.93,7.069c1.86,1.86,4.44,2.931,7.07,2.931s5.21-1.07,7.07-2.931c1.86-1.859,2.93-4.439,2.93-7.069
			S404.93,217.79,403.07,215.93z"/>
	</g>
</g>
<g>
	<g>
		<path d="M356.17,253.25h-77.498c-5.523,0-10,4.478-10,10c0,5.522,4.477,10,10,10h77.498c5.523,0,10-4.478,10-10
			C366.17,257.728,361.693,253.25,356.17,253.25z"/>
	</g>
</g>
<g>
	<g>
		<path d="M403.07,256.18c-1.86-1.86-4.44-2.93-7.07-2.93s-5.21,1.069-7.07,2.93c-1.86,1.86-2.93,4.44-2.93,7.07
			s1.07,5.21,2.93,7.069c1.86,1.86,4.44,2.931,7.07,2.931s5.21-1.07,7.07-2.931c1.86-1.859,2.93-4.439,2.93-7.069
			S404.93,258.04,403.07,256.18z"/>
	</g>
</g>
<g>
	<g>
		<path d="M233.328,213H116c-5.523,0-10,4.478-10,10v40.25c0,5.522,4.477,10,10,10s10-4.478,10-10V233h97.328v30.25
			c0,5.522,4.477,10,10,10s10-4.478,10-10V223C243.328,217.478,238.851,213,233.328,213z"/>
	</g>
</g>
<g>
</g>
<g>
</g>
<g>
</g>
<g>
</g>
<g>
</g>
<g>
</g>
<g>
</g>
<g>
</g>
<g>
</g>
<g>
</g>
<g>
</g>
<g>
</g>
<g>
</g>
<g>
</g>
<g>
</g>
</svg>
