<?xml version="1.0" encoding="iso-8859-1"?>
<!-- Generator: Adobe Illustrator 19.0.0, SVG Export Plug-In . SVG Version: 6.00 Build 0)  -->
<svg version="1.1" id="Capa_1" xmlns="http://www.w3.org/2000/svg" xmlns:xlink="http://www.w3.org/1999/xlink" x="0px" y="0px"
	 viewBox="0 0 512 512" style="enable-background:new 0 0 512 512;" xml:space="preserve">
<g>
	<g>
		<path d="M329.839,463.426h-37.465c-3.65-12.691-13.745-22.672-26.504-26.157v-47.68c0-5.519-4.475-9.995-9.995-9.995
			s-9.995,4.476-9.995,9.995v47.68c-16.108,4.4-27.986,19.154-27.986,36.637c0,20.943,17.039,37.981,37.981,37.981
			c17.66,0,32.543-12.116,36.775-28.471h37.189c5.52,0,9.995-4.476,9.995-9.995C339.834,467.902,335.359,463.426,329.839,463.426z
			 M255.875,491.898c-9.92,0-17.991-8.071-17.991-17.991c0-9.92,8.071-17.991,17.991-17.991s17.991,8.071,17.991,17.991
			C273.866,483.827,265.795,491.898,255.875,491.898z"/>
	</g>
</g>
<g>
	<g>
		<path d="M180.912,463.426H9.995c-5.52,0-9.995,4.476-9.995,9.995s4.475,9.995,9.995,9.995h170.917c5.52,0,9.995-4.476,9.995-9.995
			S186.432,463.426,180.912,463.426z"/>
	</g>
</g>
<g>
	<g>
		<path d="M383.813,34.096c-16.534,0-29.985,13.451-29.985,29.985c0,16.534,13.451,29.985,29.985,29.985
			c16.534,0,29.985-13.451,29.985-29.985C413.798,47.547,400.346,34.096,383.813,34.096z M383.813,74.076
			c-5.511,0-9.995-4.484-9.995-9.995c0-5.511,4.484-9.995,9.995-9.995c5.511,0,9.995,4.484,9.995,9.995
			C393.808,69.593,389.324,74.076,383.813,74.076z"/>
	</g>
</g>
<g>
	<g>
		<path d="M236.218,54.086H110.266c-5.52,0-9.995,4.476-9.995,9.995c0,5.519,4.475,9.995,9.995,9.995h125.951
			c5.52,0,9.995-4.476,9.995-9.995C246.213,58.562,241.738,54.086,236.218,54.086z"/>
	</g>
</g>
<g>
	<g>
		<path d="M327.41,57.018c-1.859-1.859-4.438-2.929-7.067-2.929s-5.207,1.068-7.067,2.929c-1.859,1.859-2.929,4.437-2.929,7.067
			c0,2.629,1.07,5.207,2.929,7.066c1.859,1.859,4.438,2.93,7.067,2.93s5.207-1.07,7.067-2.93c1.859-1.858,2.929-4.437,2.929-7.066
			C330.339,61.445,329.269,58.877,327.41,57.018z"/>
	</g>
</g>
<g>
	<g>
		<path d="M285.261,57.018c-1.859-1.859-4.428-2.929-7.067-2.929c-2.629,0-5.207,1.068-7.067,2.929
			c-1.859,1.86-2.929,4.437-2.929,7.067c0,2.629,1.069,5.207,2.929,7.066c1.859,1.859,4.438,2.93,7.067,2.93s5.207-1.07,7.067-2.93
			c1.869-1.858,2.929-4.437,2.929-7.066C288.189,61.454,287.13,58.877,285.261,57.018z"/>
	</g>
</g>
<g>
	<g>
		<path d="M383.813,146.041c-16.534,0-29.985,13.451-29.985,29.985s13.451,29.985,29.985,29.985
			c16.534,0,29.985-13.451,29.985-29.985S400.346,146.041,383.813,146.041z M383.813,186.022c-5.511,0-9.995-4.484-9.995-9.995
			c0-5.511,4.484-9.995,9.995-9.995c5.511,0,9.995,4.484,9.995,9.995C393.808,181.538,389.324,186.022,383.813,186.022z"/>
	</g>
</g>
<g>
	<g>
		<path d="M236.218,166.031H110.266c-5.52,0-9.995,4.476-9.995,9.995c0,5.519,4.475,9.995,9.995,9.995h125.951
			c5.52,0,9.995-4.476,9.995-9.995C246.213,170.507,241.738,166.031,236.218,166.031z"/>
	</g>
</g>
<g>
	<g>
		<path d="M327.41,168.963c-1.859-1.869-4.438-2.929-7.067-2.929s-5.207,1.06-7.067,2.929c-1.859,1.859-2.929,4.437-2.929,7.067
			c0,2.629,1.07,5.196,2.929,7.066c1.859,1.859,4.438,2.93,7.067,2.93s5.207-1.069,7.067-2.93c1.859-1.858,2.929-4.437,2.929-7.066
			C330.339,173.39,329.269,170.822,327.41,168.963z"/>
	</g>
</g>
<g>
	<g>
		<path d="M285.271,168.963c-1.869-1.869-4.438-2.929-7.077-2.929c-2.629,0-5.207,1.06-7.067,2.929
			c-1.859,1.859-2.929,4.428-2.929,7.067c0,2.629,1.069,5.207,2.929,7.066c1.859,1.859,4.438,2.93,7.067,2.93
			s5.207-1.069,7.077-2.93c1.859-1.858,2.919-4.437,2.919-7.066C288.189,173.39,287.13,170.822,285.271,168.963z"/>
	</g>
</g>
<g>
	<g>
		<path d="M465.9,178.026c0-23.586-12.45-44.308-31.115-55.973C453.45,110.389,465.9,89.666,465.9,66.08
			c0-36.375-29.593-65.968-65.968-65.968H112.072c-36.375,0-65.968,29.593-65.968,65.968c0,23.586,12.45,44.308,31.115,55.973
			c-18.665,11.664-31.115,32.387-31.115,55.973c0,23.585,12.45,44.308,31.115,55.973c-18.665,11.664-31.115,32.387-31.115,55.973
			c0,36.375,29.593,65.968,65.968,65.968h287.859c36.375,0,65.968-29.593,65.968-65.968c0-23.585-12.45-44.308-31.115-55.973
			C453.45,222.334,465.9,201.611,465.9,178.026z M66.095,66.08c0-25.352,20.626-45.978,45.978-45.978h287.859
			c25.352,0,45.978,20.626,45.978,45.978s-20.626,45.978-45.978,45.978H112.072C86.721,112.058,66.095,91.433,66.095,66.08z
			 M445.909,289.971c0,25.352-20.626,45.978-45.978,45.978H112.072c-25.352,0-45.978-20.626-45.978-45.978
			s20.626-45.978,45.978-45.978h287.859C425.283,243.993,445.909,264.619,445.909,289.971z M399.932,224.003H112.072
			c-25.352,0-45.978-20.625-45.978-45.978c0-25.352,20.626-45.978,45.978-45.978h287.859c25.352,0,45.978,20.626,45.978,45.978
			S425.283,224.003,399.932,224.003z"/>
	</g>
</g>
<g>
	<g>
		<path d="M383.813,257.987c-16.534,0-29.985,13.451-29.985,29.985c0,16.534,13.451,29.985,29.985,29.985
			c16.534,0,29.985-13.451,29.985-29.985C413.798,271.438,400.346,257.987,383.813,257.987z M383.813,297.967
			c-5.511,0-9.995-4.484-9.995-9.995c0-5.511,4.484-9.995,9.995-9.995c5.511,0,9.995,4.484,9.995,9.995
			C393.808,293.483,389.324,297.967,383.813,297.967z"/>
	</g>
</g>
<g>
	<g>
		<path d="M236.218,277.977H110.266c-5.52,0-9.995,4.476-9.995,9.995c0,5.519,4.475,9.995,9.995,9.995h125.951
			c5.52,0,9.995-4.476,9.995-9.995C246.213,282.453,241.738,277.977,236.218,277.977z"/>
	</g>
</g>
<g>
	<g>
		<path d="M327.41,280.908c-1.859-1.869-4.438-2.929-7.067-2.929s-5.207,1.06-7.067,2.929c-1.859,1.859-2.929,4.428-2.929,7.067
			c0,2.629,1.07,5.207,2.929,7.066c1.859,1.86,4.438,2.93,7.067,2.93s5.207-1.069,7.067-2.93c1.859-1.858,2.929-4.437,2.929-7.066
			C330.339,285.335,329.269,282.767,327.41,280.908z"/>
	</g>
</g>
<g>
	<g>
		<path d="M285.271,280.908c-1.869-1.869-4.438-2.929-7.077-2.929c-2.629,0-5.207,1.06-7.067,2.929
			c-1.859,1.859-2.929,4.428-2.929,7.067c0,2.629,1.069,5.196,2.929,7.066c1.859,1.86,4.438,2.93,7.067,2.93
			c2.639,0,5.207-1.069,7.077-2.93c1.859-1.869,2.919-4.437,2.919-7.066C288.189,285.335,287.13,282.767,285.271,280.908z"/>
	</g>
</g>
<g>
	<g>
		<path d="M502.005,427.904H382.313c-5.473,0-9.918,4.399-9.994,9.854l-19.849-19.849l19.849-19.849
			c0.076,5.455,4.521,9.854,9.994,9.854h119.692c5.52,0,9.995-4.476,9.995-9.995c0-5.519-4.475-9.995-9.995-9.995H392.308V373.93
			c0-4.043-2.436-7.687-6.17-9.235c-3.733-1.544-8.033-0.692-10.893,2.167l-43.979,43.979c-3.903,3.903-3.903,10.232,0,14.136
			l43.979,43.979c1.913,1.912,4.469,2.928,7.07,2.928c1.287,0,2.587-0.249,3.823-0.761c3.735-1.547,6.17-5.191,6.17-9.234v-13.993
			h109.696c5.52,0,9.995-4.476,9.995-9.995C512,432.38,507.525,427.904,502.005,427.904z"/>
	</g>
</g>
<g>
</g>
<g>
</g>
<g>
</g>
<g>
</g>
<g>
</g>
<g>
</g>
<g>
</g>
<g>
</g>
<g>
</g>
<g>
</g>
<g>
</g>
<g>
</g>
<g>
</g>
<g>
</g>
<g>
</g>
</svg>
