<?xml version="1.0" encoding="iso-8859-1"?>
<!-- Generator: Adobe Illustrator 19.0.0, SVG Export Plug-In . SVG Version: 6.00 Build 0)  -->
<svg version="1.1" id="Capa_1" xmlns="http://www.w3.org/2000/svg" xmlns:xlink="http://www.w3.org/1999/xlink" x="0px" y="0px"
	 viewBox="0 0 512 512" style="enable-background:new 0 0 512 512;" xml:space="preserve">
<g>
	<g>
		<path d="M363.822,463.426h-71.448c-3.65-12.691-13.745-22.672-26.504-26.157v-58.341c0-5.52-4.476-9.995-9.995-9.995
			s-9.995,4.475-9.995,9.995v58.341c-16.108,4.4-27.986,19.154-27.986,36.637c0,20.943,17.039,37.981,37.981,37.981
			c17.659,0,32.543-12.116,36.775-28.471h71.172c5.519,0,9.995-4.475,9.995-9.995C373.817,467.901,369.342,463.426,363.822,463.426z
			 M255.875,491.899c-9.92,0-17.991-8.071-17.991-17.991c0-9.92,8.071-17.991,17.991-17.991s17.991,8.071,17.991,17.991
			C273.866,483.827,265.795,491.899,255.875,491.899z"/>
	</g>
</g>
<g>
	<g>
		<path d="M175.914,463.426H9.995c-5.519,0-9.995,4.475-9.995,9.995s4.476,9.995,9.995,9.995h165.919
			c5.519,0,9.995-4.475,9.995-9.995S181.433,463.426,175.914,463.426z"/>
	</g>
</g>
<g>
	<g>
		<path d="M383.813,34.096c-16.534,0-29.985,13.451-29.985,29.985c0,16.534,13.451,29.985,29.985,29.985
			c16.534,0,29.985-13.451,29.985-29.985C413.798,47.548,400.346,34.096,383.813,34.096z M383.813,74.077
			c-5.511,0-9.995-4.484-9.995-9.995c0-5.511,4.484-9.995,9.995-9.995c5.511,0,9.995,4.484,9.995,9.995
			C393.808,69.593,389.324,74.077,383.813,74.077z"/>
	</g>
</g>
<g>
	<g>
		<path d="M236.218,54.086H110.266c-5.519,0-9.995,4.475-9.995,9.995c0,5.52,4.476,9.995,9.995,9.995h125.951
			c5.519,0,9.995-4.475,9.995-9.995C246.213,58.561,241.737,54.086,236.218,54.086z"/>
	</g>
</g>
<g>
	<g>
		<path d="M327.409,57.018c-1.858-1.869-4.437-2.929-7.066-2.929s-5.207,1.06-7.067,2.929c-1.859,1.859-2.929,4.438-2.929,7.067
			s1.068,5.207,2.929,7.067c1.859,1.859,4.438,2.929,7.067,2.929s5.207-1.07,7.066-2.929c1.859-1.869,2.93-4.438,2.93-7.067
			C330.339,61.456,329.269,58.877,327.409,57.018z"/>
	</g>
</g>
<g>
	<g>
		<path d="M285.271,57.018c-1.869-1.869-4.448-2.929-7.077-2.929s-5.207,1.06-7.067,2.929c-1.859,1.859-2.929,4.428-2.929,7.067
			c0,2.629,1.068,5.197,2.929,7.067c1.859,1.859,4.438,2.929,7.067,2.929s5.207-1.07,7.077-2.929
			c1.858-1.869,2.919-4.438,2.919-7.067C288.189,61.446,287.129,58.877,285.271,57.018z"/>
	</g>
</g>
<g>
	<g>
		<path d="M383.813,146.041c-16.534,0-29.985,13.451-29.985,29.985s13.451,29.985,29.985,29.985
			c16.534,0,29.985-13.451,29.985-29.985S400.346,146.041,383.813,146.041z M383.813,186.022c-5.511,0-9.995-4.484-9.995-9.995
			c0-5.511,4.484-9.995,9.995-9.995c5.511,0,9.995,4.484,9.995,9.995C393.808,181.538,389.324,186.022,383.813,186.022z"/>
	</g>
</g>
<g>
	<g>
		<path d="M236.218,166.032H110.266c-5.519,0-9.995,4.475-9.995,9.995c0,5.52,4.476,9.995,9.995,9.995h125.951
			c5.519,0,9.995-4.475,9.995-9.995C246.213,170.507,241.737,166.032,236.218,166.032z"/>
	</g>
</g>
<g>
	<g>
		<path d="M327.409,168.963c-1.858-1.869-4.437-2.929-7.066-2.929s-5.207,1.06-7.067,2.929c-1.859,1.859-2.929,4.428-2.929,7.067
			c0,2.629,1.068,5.207,2.929,7.067c1.859,1.859,4.438,2.929,7.067,2.929s5.207-1.069,7.066-2.929
			c1.859-1.869,2.93-4.438,2.93-7.067S329.269,170.822,327.409,168.963z"/>
	</g>
</g>
<g>
	<g>
		<path d="M285.271,168.963c-1.869-1.869-4.448-2.929-7.077-2.929s-5.207,1.06-7.067,2.929c-1.859,1.859-2.929,4.438-2.929,7.067
			s1.068,5.207,2.929,7.067c1.859,1.859,4.438,2.929,7.067,2.929s5.207-1.069,7.077-2.929c1.858-1.859,2.919-4.438,2.919-7.067
			S287.129,170.822,285.271,168.963z"/>
	</g>
</g>
<g>
	<g>
		<path d="M465.9,178.026c0-23.586-12.45-44.308-31.115-55.973C453.45,110.389,465.9,89.666,465.9,66.08
			c0-36.375-29.593-65.968-65.968-65.968H112.072c-36.375,0-65.968,29.593-65.968,65.968c0,23.586,12.45,44.308,31.115,55.973
			c-18.665,11.664-31.115,32.387-31.115,55.973c0,23.585,12.45,44.308,31.115,55.973c-18.665,11.665-31.115,32.387-31.115,55.973
			c0,36.375,29.593,65.968,65.968,65.968h287.859c36.375,0,65.968-29.593,65.968-65.968c0-23.585-12.45-44.308-31.115-55.973
			C453.45,222.334,465.9,201.611,465.9,178.026z M66.095,66.08c0-25.352,20.626-45.978,45.978-45.978h287.859
			c25.352,0,45.978,20.626,45.978,45.978s-20.626,45.978-45.978,45.978H112.072C86.721,112.058,66.095,91.433,66.095,66.08z
			 M445.909,289.971c0,25.352-20.626,45.978-45.978,45.978H112.072c-25.352,0-45.978-20.626-45.978-45.978
			s20.626-45.978,45.978-45.978h287.859C425.283,243.994,445.909,264.62,445.909,289.971z M399.932,224.003H112.072
			c-25.352,0-45.978-20.625-45.978-45.978c0-25.352,20.626-45.978,45.978-45.978h287.859c25.352,0,45.978,20.626,45.978,45.978
			S425.283,224.003,399.932,224.003z"/>
	</g>
</g>
<g>
	<g>
		<path d="M383.813,257.987c-16.534,0-29.985,13.451-29.985,29.985c0,16.534,13.451,29.985,29.985,29.985
			c16.534,0,29.985-13.451,29.985-29.985C413.798,271.438,400.346,257.987,383.813,257.987z M383.813,297.967
			c-5.511,0-9.995-4.484-9.995-9.995c0-5.511,4.484-9.995,9.995-9.995c5.511,0,9.995,4.484,9.995,9.995
			C393.808,293.483,389.324,297.967,383.813,297.967z"/>
	</g>
</g>
<g>
	<g>
		<path d="M236.218,277.977H110.266c-5.519,0-9.995,4.475-9.995,9.995s4.476,9.995,9.995,9.995h125.951
			c5.519,0,9.995-4.475,9.995-9.995S241.737,277.977,236.218,277.977z"/>
	</g>
</g>
<g>
	<g>
		<path d="M327.409,280.909c-1.858-1.859-4.437-2.929-7.066-2.929s-5.207,1.07-7.067,2.929c-1.859,1.859-2.929,4.438-2.929,7.067
			s1.068,5.207,2.929,7.067c1.859,1.859,4.438,2.929,7.067,2.929s5.207-1.069,7.066-2.929c1.859-1.869,2.93-4.438,2.93-7.067
			S329.269,282.768,327.409,280.909z"/>
	</g>
</g>
<g>
	<g>
		<path d="M285.271,280.909c-1.869-1.869-4.448-2.929-7.077-2.929c-2.629,0-5.207,1.06-7.067,2.929
			c-1.859,1.859-2.929,4.438-2.929,7.067s1.068,5.207,2.929,7.067c1.859,1.859,4.438,2.929,7.067,2.929s5.207-1.069,7.077-2.929
			c1.858-1.859,2.919-4.438,2.919-7.067S287.129,282.768,285.271,280.909z"/>
	</g>
</g>
<g>
	<g>
		<path d="M509.072,410.841l-43.979-43.979c-2.859-2.859-7.158-3.713-10.893-2.166c-3.734,1.547-6.17,5.191-6.17,9.234v13.993
			H338.335c-5.519,0-9.995,4.475-9.995,9.995s4.476,9.995,9.995,9.995h119.692c5.473,0,9.919-4.399,9.994-9.854l19.848,19.849
			l-19.848,19.849c-0.075-5.455-4.521-9.854-9.994-9.854H338.335c-5.519,0-9.995,4.475-9.995,9.995s4.476,9.995,9.995,9.995h109.696
			v13.993c0,4.042,2.436,7.687,6.17,9.235c1.236,0.513,2.536,0.762,3.823,0.762c2.602,0,5.158-1.016,7.07-2.928l43.979-43.979
			C512.977,421.073,512.977,414.744,509.072,410.841z"/>
	</g>
</g>
<g>
</g>
<g>
</g>
<g>
</g>
<g>
</g>
<g>
</g>
<g>
</g>
<g>
</g>
<g>
</g>
<g>
</g>
<g>
</g>
<g>
</g>
<g>
</g>
<g>
</g>
<g>
</g>
<g>
</g>
</svg>
