<?xml version="1.0" encoding="iso-8859-1"?>
<!-- Generator: Adobe Illustrator 19.0.0, SVG Export Plug-In . SVG Version: 6.00 Build 0)  -->
<svg version="1.1" id="Capa_1" xmlns="http://www.w3.org/2000/svg" xmlns:xlink="http://www.w3.org/1999/xlink" x="0px" y="0px"
	 viewBox="0 0 512 512" style="enable-background:new 0 0 512 512;" xml:space="preserve">
<g>
	<g>
		<path d="M501.981,472.003H322.995c-5.523,0-9.999,4.477-9.999,9.999s4.477,9.999,9.999,9.999h178.986
			c5.523,0,9.999-4.477,9.999-9.999S507.503,472.003,501.981,472.003z"/>
	</g>
</g>
<g>
	<g>
		<path d="M188.005,472.003H10.019c-5.523,0-9.999,4.477-9.999,9.999s4.477,9.999,9.999,9.999h177.986
			c5.523,0,9.999-4.477,9.999-9.999S193.527,472.003,188.005,472.003z"/>
	</g>
</g>
<g>
	<g>
		<path d="M259.953,204.555h-77.492c-5.523,0-9.999,4.477-9.999,9.999c0,5.523,4.477,9.999,9.999,9.999h77.492
			c5.523,0,9.999-4.477,9.999-9.999C269.952,209.032,265.475,204.555,259.953,204.555z"/>
	</g>
</g>
<g>
	<g>
		<path d="M337.783,207.483c-1.86-1.86-4.44-2.93-7.069-2.93c-2.64,0-5.22,1.07-7.069,2.93c-1.87,1.86-2.93,4.44-2.93,7.069
			c0,2.63,1.06,5.21,2.93,7.069c1.86,1.86,4.43,2.93,7.069,2.93c2.63,0,5.21-1.07,7.069-2.93s2.93-4.44,2.93-7.069
			C340.713,211.923,339.643,209.343,337.783,207.483z"/>
	</g>
</g>
<g>
	<g>
		<path d="M302.855,207.483c-1.87-1.86-4.44-2.93-7.079-2.93c-2.63,0-5.21,1.07-7.069,2.93c-1.86,1.86-2.93,4.44-2.93,7.069
			c0,2.64,1.07,5.21,2.93,7.069c1.87,1.86,4.44,2.93,7.069,2.93s5.21-1.07,7.079-2.93c1.86-1.86,2.92-4.44,2.92-7.069
			C305.775,211.923,304.715,209.343,302.855,207.483z"/>
	</g>
</g>
<g>
	<g>
		<path d="M259.953,284.549h-77.492c-5.523,0-9.999,4.477-9.999,9.999s4.477,9.999,9.999,9.999h77.492
			c5.523,0,9.999-4.477,9.999-9.999S265.475,284.549,259.953,284.549z"/>
	</g>
</g>
<g>
	<g>
		<path d="M337.783,287.477c-1.86-1.86-4.44-2.93-7.069-2.93c-2.64,0-5.21,1.07-7.069,2.93c-1.87,1.86-2.93,4.44-2.93,7.069
			c0,2.64,1.06,5.21,2.93,7.069c1.86,1.86,4.43,2.93,7.069,2.93c2.63,0,5.21-1.07,7.069-2.93s2.93-4.44,2.93-7.069
			S339.643,289.337,337.783,287.477z"/>
	</g>
</g>
<g>
	<g>
		<path d="M302.855,287.477c-1.87-1.86-4.44-2.93-7.079-2.93c-2.63,0-5.21,1.07-7.069,2.93c-1.86,1.86-2.93,4.44-2.93,7.069
			s1.07,5.21,2.93,7.069c1.86,1.86,4.44,2.93,7.069,2.93c2.64,0,5.21-1.07,7.079-2.93c1.86-1.86,2.92-4.44,2.92-7.069
			S304.715,289.337,302.855,287.477z"/>
	</g>
</g>
<g>
	<g>
		<path d="M259.953,364.543h-77.492c-5.523,0-9.999,4.477-9.999,9.999s4.477,9.999,9.999,9.999h77.492
			c5.523,0,9.999-4.477,9.999-9.999S265.475,364.543,259.953,364.543z"/>
	</g>
</g>
<g>
	<g>
		<path d="M337.783,367.471c-1.87-1.86-4.44-2.93-7.069-2.93c-2.64,0-5.21,1.07-7.079,2.93c-1.86,1.86-2.92,4.44-2.92,7.069
			s1.06,5.21,2.92,7.069c1.87,1.86,4.44,2.93,7.079,2.93c2.63,0,5.21-1.07,7.069-2.93s2.93-4.44,2.93-7.069
			S339.643,369.331,337.783,367.471z"/>
	</g>
</g>
<g>
	<g>
		<path d="M302.845,367.471c-1.86-1.86-4.43-2.93-7.069-2.93c-2.63,0-5.21,1.07-7.069,2.93s-2.93,4.44-2.93,7.069
			s1.07,5.21,2.93,7.069c1.86,1.86,4.44,2.93,7.069,2.93c2.64,0,5.21-1.07,7.069-2.93c1.87-1.86,2.93-4.44,2.93-7.069
			S304.715,369.331,302.845,367.471z"/>
	</g>
</g>
<g>
	<g>
		<path d="M386.117,295.977c0-16.338-7.877-30.868-20.033-39.997c12.155-9.129,20.033-23.659,20.033-39.997
			c0-27.568-22.428-49.996-49.996-49.996H176.133c-27.568,0-49.996,22.428-49.996,49.996c0,16.338,7.877,30.868,20.033,39.997
			c-12.155,9.129-20.033,23.659-20.033,39.997c0,16.338,7.877,30.868,20.033,39.997c-12.155,9.129-20.033,23.659-20.033,39.997
			c0,27.568,22.428,49.996,49.996,49.996h69.868v27.757c-11.638,4.128-19.998,15.242-19.998,28.278
			C226.002,498.543,239.459,512,256,512c16.541,0,29.998-13.457,29.998-29.998c0-13.035-8.36-24.15-19.998-28.278v-27.757h70.122
			c27.568,0,49.996-22.428,49.996-49.996c0-16.338-7.877-30.868-20.033-39.997C378.239,326.845,386.117,312.315,386.117,295.977z
			 M146.134,215.984c0-16.541,13.457-29.998,29.998-29.998H336.12c16.541,0,29.998,13.457,29.998,29.998
			c0,16.541-13.457,29.998-29.998,29.998H176.132C159.591,245.981,146.134,232.524,146.134,215.984z M256,492.002
			c-5.514,0-9.999-4.486-9.999-9.999c0-5.514,4.486-9.999,9.999-9.999s9.999,4.486,9.999,9.999
			C265.999,487.516,261.514,492.002,256,492.002z M366.118,375.971c0,16.541-13.457,29.998-29.998,29.998H176.132
			c-16.541,0-29.998-13.457-29.998-29.998c0-16.541,13.457-29.998,29.998-29.998H336.12
			C352.661,345.974,366.118,359.431,366.118,375.971z M336.12,325.975H176.132c-16.541,0-29.998-13.457-29.998-29.998
			c0-16.541,13.457-29.998,29.998-29.998H336.12c16.541,0,29.998,13.457,29.998,29.998
			C366.118,312.518,352.661,325.975,336.12,325.975z"/>
	</g>
</g>
<g>
	<g>
		<path d="M490.513,154.835c-12.84-18.637-30.375-33.202-50.909-42.343C414.437,45.021,349.86,0,277.499,0
			c-42.105,0-82.68,15.307-114.248,43.1c-28.864,25.411-48.374,59.558-55.596,96.975c-1.552-0.07-3.101-0.105-4.644-0.105
			c-56.79,0-102.992,46.202-102.992,102.992c0,24.713,8.886,48.612,25.021,67.293c15.965,18.483,37.981,30.723,61.994,34.466
			c0.522,0.081,1.04,0.121,1.552,0.121c4.843,0,9.098-3.526,9.868-8.46c0.851-5.457-2.884-10.569-8.34-11.42
			c-40.617-6.331-70.097-40.816-70.097-81.999c0-45.763,37.23-82.994,82.994-82.994c3.853,0,7.76,0.273,11.614,0.813
			c2.636,0.368,5.306-0.328,7.424-1.934c2.12-1.606,3.512-3.99,3.869-6.624c10.224-75.381,75.39-132.225,151.58-132.225
			c65.334,0,123.49,41.49,144.714,103.242c0.944,2.748,3.037,4.948,5.733,6.03c38.9,15.609,64.036,52.778,64.036,94.692
			c0,48.243-34.245,90.265-81.427,99.92c-5.411,1.107-8.898,6.391-7.791,11.801c1.107,5.411,6.389,8.897,11.801,7.791
			c56.447-11.55,97.416-61.812,97.416-119.512C511.98,199.123,504.557,175.219,490.513,154.835z"/>
	</g>
</g>
<g>
</g>
<g>
</g>
<g>
</g>
<g>
</g>
<g>
</g>
<g>
</g>
<g>
</g>
<g>
</g>
<g>
</g>
<g>
</g>
<g>
</g>
<g>
</g>
<g>
</g>
<g>
</g>
<g>
</g>
</svg>
