<?xml version="1.0" encoding="iso-8859-1"?>
<!-- Generator: Adobe Illustrator 19.0.0, SVG Export Plug-In . SVG Version: 6.00 Build 0)  -->
<svg version="1.1" id="Capa_1" xmlns="http://www.w3.org/2000/svg" xmlns:xlink="http://www.w3.org/1999/xlink" x="0px" y="0px"
	 viewBox="0 0 511.998 511.998" style="enable-background:new 0 0 511.998 511.998;" xml:space="preserve">
<g>
	<g>
		<path d="M444.988,243.899c-5.522,0-10,4.477-10,10v0.925c0,5.523,4.478,10,10,10s10-4.477,10-10v-0.925
			C454.987,248.376,450.51,243.899,444.988,243.899z"/>
	</g>
</g>
<g>
	<g>
		<path d="M67.006,244.457c-5.522,0-10,4.477-10,10v0.183c0,5.523,4.478,10,10,10s10-4.477,10-10v-0.183
			C77.005,248.934,72.528,244.457,67.006,244.457z"/>
	</g>
</g>
<g>
	<g>
		<path d="M454.987,328.383v-32.719c0-5.523-4.478-10-10-10s-10,4.477-10,10v32.719c-6.434,1.757-12.193,5.16-16.79,9.734
			l-27.618-15.963c9.859-19.97,15.409-42.432,15.409-66.168c0-23.737-5.552-46.199-15.41-66.169l27.63-15.97
			c4.595,4.57,10.35,7.968,16.778,9.724v28.765c0,5.523,4.478,10,10,10s10-4.477,10-10v-28.764c16.115-4.402,28-19.162,28-36.653
			c0-20.952-17.046-37.998-37.998-37.998c-20.952,0-37.998,17.046-37.998,37.998c0,3.317,0.43,6.535,1.232,9.604l-27.667,15.992
			c-25.206-37.489-66.872-63.023-114.559-66.178V74.65c6.417-1.753,12.164-5.143,16.756-9.702l84.849,48.988
			c1.575,0.909,3.294,1.341,4.99,1.341c3.456,0,6.818-1.793,8.67-5.001c2.762-4.783,1.123-10.898-3.66-13.659l-84.846-48.986
			c0.807-3.078,1.241-6.306,1.241-9.634C293.995,17.046,276.949,0,255.997,0c-20.952,0-37.998,17.046-37.998,37.998
			c0,17.491,11.883,32.251,27.999,36.653v31.685c-47.667,3.154-89.319,28.666-114.527,66.129l-27.669-15.953
			c1.449-5.537,1.633-11.372,0.462-17.146c-0.136-0.672-0.292-1.336-0.462-1.992l88.543-51.119c4.783-2.761,6.422-8.877,3.66-13.659
			c-2.761-4.782-8.878-6.421-13.659-3.66l-88.5,51.092c-8.715-8.665-21.458-12.969-34.376-10.349
			c-9.947,2.018-18.513,7.789-24.12,16.248c-5.607,8.461-7.584,18.598-5.566,28.545c2.944,14.509,13.84,25.41,27.225,29.092v28.406
			c0,5.523,4.478,10,10,10s10-4.477,10-10v-28.395c6.425-1.74,12.188-5.079,16.832-9.721l27.602,15.914
			c-9.875,19.983-15.436,42.463-15.436,66.22c0,23.757,5.561,46.237,15.435,66.22l-27.616,15.922
			c-4.603-4.585-10.373-7.993-16.818-9.75v-31.973c0-5.523-4.478-10-10-10s-10,4.477-10,10v31.982
			c-16.106,4.408-27.982,19.163-27.982,36.648c0,20.952,17.046,37.998,37.998,37.998s37.998-17.046,37.998-37.998
			c0-3.306-0.426-6.514-1.224-9.574l27.672-15.955c25.209,37.463,66.861,62.976,114.528,66.13v31.71
			c-6.41,1.751-12.15,5.136-16.739,9.686l-91.25-52.682c-4.784-2.762-10.899-1.122-13.659,3.66
			c-2.762,4.783-1.123,10.898,3.66,13.659l91.237,52.675c-0.811,3.085-1.247,6.32-1.247,9.656c0,20.952,17.046,37.998,37.998,37.998
			s37.998-17.046,37.998-37.998c0-17.491-11.883-32.251-27.999-36.653v-31.71c47.688-3.155,89.355-28.689,114.559-66.178
			l27.662,15.989c-0.799,3.064-1.228,6.277-1.228,9.588c0,3.299,0.424,6.501,1.218,9.556l-88.561,51.13
			c-4.783,2.761-6.422,8.877-3.66,13.659c1.853,3.208,5.213,5.001,8.67,5.001c1.696,0,3.416-0.432,4.99-1.341l88.526-51.11
			c6.878,6.858,16.359,11.103,26.816,11.103c20.952,0,37.998-17.046,37.998-37.998C482.987,347.545,471.102,332.784,454.987,328.383
			z M444.989,128.919c9.924,0,17.999,8.075,17.999,17.999s-8.075,17.999-17.999,17.999s-17.999-8.075-17.999-17.999
			S435.064,128.919,444.989,128.919z M70.602,164.558c-9.72,1.972-19.246-4.335-21.219-14.062
			c-1.974-9.727,4.335-19.245,14.061-21.218c1.203-0.244,2.401-0.361,3.584-0.361c8.381,0,15.906,5.899,17.635,14.423
			C86.636,153.066,80.327,162.585,70.602,164.558z M67.023,383.035c-9.925,0-17.999-8.075-17.999-17.999s8.075-17.999,17.999-17.999
			c9.924,0,17.999,8.075,17.999,17.999S76.948,383.035,67.023,383.035z M237.998,37.997c0-9.925,8.075-17.999,17.999-17.999
			s17.999,8.075,17.999,17.999c0,9.924-8.075,17.999-17.999,17.999S237.998,47.922,237.998,37.997z M245.997,126.861v46.547h-51.111
			C201.088,149.364,221.145,130.836,245.997,126.861z M192.896,193.407h53.101v52.58h-53.101V193.407z M148.587,182.848
			c7.609,4.269,15.789,7.289,24.311,8.974v54.165h-46.514C128.164,222.698,136.113,201.11,148.587,182.848z M148.586,329.124
			c-12.474-18.262-20.422-39.85-22.202-63.138h46.514v54.164C164.375,321.835,156.196,324.855,148.586,329.124z M161.351,344.998
			c4.271-2.101,8.752-3.706,13.378-4.784c1.815,8.514,4.945,16.54,9.154,23.876C175.665,358.589,168.107,352.176,161.351,344.998z
			 M174.745,171.761c-4.632-1.078-9.118-2.684-13.392-4.787c6.771-7.195,14.348-13.62,22.591-19.129
			C179.714,155.19,176.57,163.231,174.745,171.761z M192.896,265.986h53.101v52.58h-53.101V265.986z M194.873,338.565h51.125v46.611
			C221.123,381.198,201.055,362.64,194.873,338.565z M273.996,474.001c0,9.924-8.075,17.999-17.999,17.999
			s-17.999-8.075-17.999-17.999c0-9.786,7.855-17.757,17.589-17.978c0.137,0.006,0.271,0.021,0.41,0.021s0.273-0.015,0.41-0.021
			C266.141,456.244,273.996,464.215,273.996,474.001z M363.407,182.849c12.474,18.262,20.422,39.85,22.202,63.138h-46.514v-54.165
			C347.618,190.138,355.799,187.118,363.407,182.849z M265.996,126.86c24.852,3.975,44.909,22.503,51.111,46.547h-51.111V126.86z
			 M265.996,385.176v-46.611h51.125C310.938,362.64,290.869,381.197,265.996,385.176z M319.098,318.566h-53.101v-52.58h53.101
			V318.566z M319.098,245.987h-53.101v-52.58h53.101V245.987z M350.642,166.975c-4.275,2.103-8.761,3.708-13.393,4.786
			c-1.825-8.531-4.97-16.571-9.199-23.917C336.293,153.355,343.871,159.78,350.642,166.975z M328.109,364.09
			c4.209-7.336,7.339-15.362,9.154-23.875c4.627,1.078,9.108,2.683,13.377,4.784C343.886,352.177,336.329,358.589,328.109,364.09z
			 M363.407,329.125c-7.609-4.269-15.789-7.289-24.311-8.974v-54.165h46.514C383.831,289.275,375.882,310.863,363.407,329.125z
			 M444.989,383.035c-9.924,0-17.999-8.075-17.999-17.999s8.075-17.999,17.999-17.999s17.999,8.075,17.999,17.999
			S454.913,383.035,444.989,383.035z"/>
	</g>
</g>
<g>
</g>
<g>
</g>
<g>
</g>
<g>
</g>
<g>
</g>
<g>
</g>
<g>
</g>
<g>
</g>
<g>
</g>
<g>
</g>
<g>
</g>
<g>
</g>
<g>
</g>
<g>
</g>
<g>
</g>
</svg>
