<?xml version="1.0" encoding="iso-8859-1"?>
<!-- Generator: Adobe Illustrator 19.0.0, SVG Export Plug-In . SVG Version: 6.00 Build 0)  -->
<svg version="1.1" id="Capa_1" xmlns="http://www.w3.org/2000/svg" xmlns:xlink="http://www.w3.org/1999/xlink" x="0px" y="0px"
	 viewBox="0 0 512 512" style="enable-background:new 0 0 512 512;" xml:space="preserve">
<g>
	<g>
		<path d="M266,130c0-16.339-7.878-30.87-20.035-40C258.122,80.87,266,66.339,266,50c0-27.57-22.43-50-50-50H50
			C22.43,0,0,22.43,0,50c0,16.339,7.878,30.87,20.035,40C7.878,99.13,0,113.661,0,130s7.878,30.87,20.035,40
			C7.878,179.13,0,193.661,0,210c0,27.57,22.43,50,50,50h166c27.57,0,50-22.43,50-50c0-16.339-7.878-30.87-20.035-40
			C258.122,160.87,266,146.339,266,130z M20,50c0-16.542,13.458-30,30-30h166c16.542,0,30,13.458,30,30s-13.458,30-30,30H50
			C33.458,80,20,66.542,20,50z M246,210c0,16.542-13.458,30-30,30H50c-16.542,0-30-13.458-30-30s13.458-30,30-30h166
			C232.542,180,246,193.458,246,210z M216,160H50c-16.542,0-30-13.458-30-30s13.458-30,30-30h166c16.542,0,30,13.458,30,30
			S232.542,160,216,160z"/>
	</g>
</g>
<g>
	<g>
		<path d="M133.827,38.571H56.329c-5.522,0-10,4.477-10,10s4.478,10,10,10h77.498c5.522,0,10-4.477,10-10
			S139.35,38.571,133.827,38.571z"/>
	</g>
</g>
<g>
	<g>
		<path d="M217.66,41.5c-1.86-1.86-4.44-2.93-7.07-2.93s-5.21,1.07-7.07,2.93c-1.859,1.86-2.93,4.44-2.93,7.07s1.07,5.21,2.93,7.07
			c1.86,1.86,4.44,2.93,7.07,2.93s5.21-1.07,7.07-2.93c1.86-1.86,2.93-4.44,2.93-7.07S219.52,43.36,217.66,41.5z"/>
	</g>
</g>
<g>
	<g>
		<path d="M180.729,41.5c-1.859-1.86-4.439-2.93-7.069-2.93c-2.641,0-5.21,1.07-7.07,2.93c-1.86,1.86-2.93,4.44-2.93,7.07
			s1.069,5.21,2.93,7.07c1.86,1.86,4.44,2.93,7.07,2.93s5.199-1.07,7.069-2.93c1.86-1.86,2.931-4.44,2.931-7.07
			S182.59,43.36,180.729,41.5z"/>
	</g>
</g>
<g>
	<g>
		<path d="M133.827,118.571H56.329c-5.522,0-10,4.477-10,10s4.478,10,10,10h77.498c5.522,0,10-4.477,10-10
			S139.35,118.571,133.827,118.571z"/>
	</g>
</g>
<g>
	<g>
		<path d="M217.66,121.5c-1.86-1.86-4.44-2.93-7.07-2.93s-5.21,1.07-7.07,2.93c-1.859,1.86-2.93,4.44-2.93,7.07s1.07,5.21,2.93,7.07
			s4.44,2.93,7.07,2.93s5.21-1.07,7.07-2.93c1.86-1.86,2.93-4.44,2.93-7.07S219.52,123.36,217.66,121.5z"/>
	</g>
</g>
<g>
	<g>
		<path d="M180.729,121.5c-1.87-1.86-4.439-2.93-7.069-2.93c-2.63,0-5.21,1.07-7.07,2.93c-1.86,1.86-2.93,4.44-2.93,7.07
			s1.069,5.21,2.93,7.07c1.86,1.86,4.44,2.93,7.07,2.93s5.21-1.07,7.069-2.93c1.86-1.86,2.931-4.44,2.931-7.07
			S182.59,123.36,180.729,121.5z"/>
	</g>
</g>
<g>
	<g>
		<path d="M133.827,198.571H56.329c-5.522,0-10,4.477-10,10s4.478,10,10,10h77.498c5.522,0,10-4.477,10-10
			S139.349,198.571,133.827,198.571z"/>
	</g>
</g>
<g>
	<g>
		<path d="M217.66,201.5c-1.86-1.86-4.44-2.93-7.07-2.93s-5.21,1.07-7.07,2.93c-1.859,1.86-2.93,4.44-2.93,7.07s1.07,5.21,2.93,7.07
			s4.44,2.93,7.07,2.93s5.21-1.07,7.07-2.93c1.859-1.86,2.93-4.44,2.93-7.07S219.52,203.36,217.66,201.5z"/>
	</g>
</g>
<g>
	<g>
		<path d="M180.729,201.5c-1.87-1.86-4.439-2.93-7.069-2.93s-5.21,1.07-7.07,2.93c-1.86,1.86-2.93,4.44-2.93,7.07
			s1.069,5.21,2.93,7.07c1.86,1.86,4.43,2.93,7.07,2.93c2.63,0,5.21-1.07,7.069-2.93c1.86-1.86,2.931-4.44,2.931-7.07
			S182.59,203.36,180.729,201.5z"/>
	</g>
</g>
<g>
	<g>
		<path d="M68.667,325.327H10c-5.522,0-10,4.477-10,10s4.478,10,10,10h58.667c5.522,0,10-4.477,10-10S74.189,325.327,68.667,325.327
			z"/>
	</g>
</g>
<g>
	<g>
		<path d="M143.827,307.047V288c0-5.523-4.478-10-10-10c-5.522,0-10,4.477-10,10v19.047c-11.639,4.128-20,15.243-20,28.28
			c0,16.542,13.458,30,30,30c16.542,0,30-13.458,30-30C163.827,322.29,155.466,311.175,143.827,307.047z M133.827,345.327
			c-5.514,0-10-4.486-10-10c0-5.514,4.486-10,10-10c5.514,0,10,4.486,10,10C143.827,340.841,139.341,345.327,133.827,345.327z"/>
	</g>
</g>
<g>
	<g>
		<path d="M379,246c-54.283,0-101.066,32.693-121.716,79.418c-0.421-0.054-0.848-0.092-1.284-0.092h-63c-5.522,0-10,4.477-10,10
			s4.478,10,10,10h57.323C247.505,356.086,246,367.37,246,379c0,73.336,59.663,133,133,133s133-59.664,133-133S452.337,246,379,246z
			 M285.013,316.338c6.223,3.37,12.863,5.805,19.76,7.266V369h-38.325C268.153,349.643,274.756,331.672,285.013,316.338z
			 M266.447,389h38.325v45.395c-6.897,1.461-13.536,3.896-19.76,7.266C274.756,426.328,268.153,408.357,266.447,389z
			 M297.879,457.58c2.844-1.291,5.792-2.32,8.814-3.097c1.258,5.443,3.098,10.665,5.483,15.58
			C307.067,466.305,302.285,462.127,297.879,457.58z M306.706,303.519c-3.026-0.777-5.979-1.807-8.826-3.1
			c4.418-4.56,9.215-8.748,14.342-12.516C309.824,292.828,307.972,298.062,306.706,303.519z M369,491.057
			c-20.199-3.783-36.479-18.793-42.101-38.287H369V491.057z M369,432.77h-44.228V389H369V432.77z M369,369h-44.228v-43.77H369V369z
			 M369,305.23h-42.085c5.637-19.468,21.905-34.453,42.085-38.232V305.23z M491.552,369.001h-38.324V369v-45.395
			c6.897-1.461,13.537-3.896,19.76-7.265C483.244,331.673,489.847,349.644,491.552,369.001z M389,266.998
			c20.18,3.779,36.448,18.764,42.085,38.232H389V266.998z M389,491.057V452.77h42.101C425.479,472.265,409.2,487.275,389,491.057z
			 M433.228,432.77H389V389h44.228V432.77z M433.228,369H389v-43.77h44.228V369z M460.121,300.42c-2.848,1.293-5.8,2.323-8.826,3.1
			c-1.266-5.457-3.118-10.691-5.516-15.616C450.905,291.671,455.702,295.86,460.121,300.42z M445.824,470.064
			c2.385-4.915,4.225-10.137,5.482-15.58c3.022,0.777,5.97,1.806,8.814,3.097C455.715,462.127,450.933,466.305,445.824,470.064z
			 M472.987,441.662c-6.224-3.37-12.863-5.805-19.76-7.266V389h38.325C489.847,408.357,483.244,426.328,472.987,441.662z"/>
	</g>
</g>
<g>
	<g>
		<path d="M379,120h-36.245c-5.522,0-10,4.477-10,10s4.477,10,10,10H369v19.75c0,5.523,4.478,10,10,10c5.522,0,10-4.477,10-10V130
			C389,124.477,384.522,120,379,120z"/>
	</g>
</g>
<g>
	<g>
		<path d="M308.605,120H296.5c-5.522,0-10,4.477-10,10s4.478,10,10,10h12.105c5.522,0,10-4.477,10-10S314.127,120,308.605,120z"/>
	</g>
</g>
<g>
	<g>
		<path d="M379,189.75c-5.522,0-10,4.477-10,10v12.5c0,5.523,4.478,10,10,10c5.522,0,10-4.477,10-10v-12.5
			C389,194.227,384.522,189.75,379,189.75z"/>
	</g>
</g>
<g>
</g>
<g>
</g>
<g>
</g>
<g>
</g>
<g>
</g>
<g>
</g>
<g>
</g>
<g>
</g>
<g>
</g>
<g>
</g>
<g>
</g>
<g>
</g>
<g>
</g>
<g>
</g>
<g>
</g>
</svg>
