<?xml version="1.0" encoding="iso-8859-1"?>
<!-- Generator: Adobe Illustrator 19.0.0, SVG Export Plug-In . SVG Version: 6.00 Build 0)  -->
<svg version="1.1" id="Capa_1" xmlns="http://www.w3.org/2000/svg" xmlns:xlink="http://www.w3.org/1999/xlink" x="0px" y="0px"
	 viewBox="0 0 512 512" style="enable-background:new 0 0 512 512;" xml:space="preserve">
<g>
	<g>
		<path d="M258.441,0.031C257.63,0.01,256.816,0,256,0c-0.816,0-1.63,0.01-2.441,0.031C159.7,1.343,83.748,78.088,83.748,172.252
			c0,94.98,77.272,172.252,172.252,172.252s172.252-77.272,172.252-172.252C428.252,78.088,352.3,1.343,258.441,0.031z
			 M177.413,41.895c-6.941,10.292-11.91,22.016-14.375,34.626c-6.735-1.415-13.224-3.757-19.326-6.979
			C153.545,58.802,164.891,49.472,177.413,41.895z M131.04,85.378c9.4,5.464,19.593,9.229,30.236,11.181v65.694h-57.191
			C105.939,133.804,115.638,107.464,131.04,85.378z M131.038,259.125c-15.4-22.087-25.099-48.425-26.953-76.873h57.191v65.693
			C150.633,249.896,140.439,253.661,131.038,259.125z M143.712,274.961c6.102-3.222,12.591-5.564,19.327-6.979
			c2.465,12.611,7.436,24.337,14.378,34.63C164.894,295.034,153.545,285.703,143.712,274.961z M246,323.811
			c-30.984-4.165-55.996-27.377-62.843-57.439H246V323.811z M246,246.372h-64.724v-64.12H246V246.372z M246,162.252h-64.724v-64.12
			H246V162.252z M246,78.132h-62.844c6.845-30.064,31.859-53.279,62.844-57.444V78.132z M380.961,85.379
			c15.401,22.086,25.1,48.425,26.954,76.873h-57.191V96.559C361.367,94.608,371.561,90.843,380.961,85.379z M368.288,69.543
			c-6.102,3.222-12.591,5.564-19.326,6.979c-2.465-12.61-7.434-24.335-14.375-34.627C347.109,49.472,358.456,58.803,368.288,69.543z
			 M266,78.132V20.689c30.985,4.165,55.999,27.379,62.844,57.444L266,78.132L266,78.132z M266,323.811v-57.439h62.843
			C321.996,296.434,296.984,319.647,266,323.811z M330.724,246.372H266v-64.12h64.724V246.372z M330.724,162.252H266v-64.12h64.724
			V162.252z M334.583,302.612c6.943-10.293,11.913-22.018,14.378-34.629c6.735,1.415,13.225,3.757,19.326,6.979
			C358.454,285.703,347.106,295.034,334.583,302.612z M380.96,259.127c-9.4-5.464-19.593-9.229-30.236-11.181v-65.694h57.191
			C406.061,210.7,396.362,237.04,380.96,259.127z"/>
	</g>
</g>
<g>
	<g>
		<path d="M119.333,460h-0.667c-5.522,0-10,4.477-10,10s4.478,10,10,10h0.667c5.522,0,10-4.477,10-10S124.855,460,119.333,460z"/>
	</g>
</g>
<g>
	<g>
		<path d="M403.069,462.93C401.21,461.07,398.63,460,396,460s-5.21,1.07-7.07,2.93c-1.86,1.86-2.93,4.44-2.93,7.07
			s1.069,5.21,2.93,7.07c1.861,1.86,4.44,2.93,7.07,2.93s5.21-1.07,7.069-2.93c1.86-1.86,2.931-4.44,2.931-7.07
			S404.93,464.79,403.069,462.93z"/>
	</g>
</g>
<g>
	<g>
		<path d="M502,460h-8v-74c0-16.542-13.458-30-30-30H324c-16.542,0-30,13.458-30,30v22h-28v-35.014c0-5.523-4.478-10-10-10
			c-5.522,0-10,4.477-10,10V408h-28v-22c0-16.542-13.458-30-30-30H48c-16.542,0-30,13.458-30,30v74h-8c-5.522,0-10,4.477-10,10v12
			c0,16.542,13.458,30,30,30h176c16.542,0,30-13.458,30-30v-12c0-5.523-4.478-10-10-10h-8v-32h76v32h-8c-5.522,0-10,4.477-10,10v12
			c0,16.542,13.458,30,30,30h176c16.542,0,30-13.458,30-30v-12C512,464.477,507.522,460,502,460z M216,482c0,5.514-4.486,10-10,10
			H30c-5.514,0-10-4.486-10-10v-2h59.75c5.522,0,10-4.477,10-10s-4.478-10-10-10H38v-74c0-5.514,4.486-10,10-10h140
			c5.514,0,10,4.486,10,10v74h-35.25c-5.522,0-10,4.477-10,10s4.478,10,10,10H216V482z M492,482c0,5.514-4.486,10-10,10H306
			c-5.514,0-10-4.486-10-10v-2h56.667c5.522,0,10-4.477,10-10s-4.478-10-10-10H314v-74c0-5.514,4.486-10,10-10h140
			c5.514,0,10,4.486,10,10v74h-34.667c-5.522,0-10,4.477-10,10s4.478,10,10,10H492V482z"/>
	</g>
</g>
<g>
</g>
<g>
</g>
<g>
</g>
<g>
</g>
<g>
</g>
<g>
</g>
<g>
</g>
<g>
</g>
<g>
</g>
<g>
</g>
<g>
</g>
<g>
</g>
<g>
</g>
<g>
</g>
<g>
</g>
</svg>
