<?xml version="1.0" encoding="iso-8859-1"?>
<!-- Generator: Adobe Illustrator 19.0.0, SVG Export Plug-In . SVG Version: 6.00 Build 0)  -->
<svg version="1.1" id="Capa_1" xmlns="http://www.w3.org/2000/svg" xmlns:xlink="http://www.w3.org/1999/xlink" x="0px" y="0px"
	 viewBox="0 0 512.004 512.004" style="enable-background:new 0 0 512.004 512.004;" xml:space="preserve">
<g>
	<g>
		<path d="M256.127,428.002H193c-5.522,0-10,4.477-10,10s4.478,10,10,10h63.127c5.522,0,10-4.477,10-10
			S261.649,428.002,256.127,428.002z"/>
	</g>
</g>
<g>
	<g>
		<path d="M75,428.002H10c-5.522,0-10,4.477-10,10s4.478,10,10,10h65c5.522,0,10-4.477,10-10S80.522,428.002,75,428.002z"/>
	</g>
</g>
<g>
	<g>
		<path d="M143.827,409.722v-72.72c0-5.523-4.478-10-10-10c-5.522,0-10,4.477-10,10v72.72c-11.639,4.128-20,15.243-20,28.28
			c0,16.542,13.458,30,30,30c16.542,0,30-13.458,30-30C163.827,424.966,155.466,413.85,143.827,409.722z M133.827,448.002
			c-5.514,0-10-4.486-10-10c0-5.514,4.486-10,10-10c5.514,0,10,4.486,10,10C143.827,443.516,139.341,448.002,133.827,448.002z"/>
	</g>
</g>
<g>
	<g>
		<path d="M266,174.002c0-16.339-7.878-30.87-20.035-40c12.156-9.13,20.035-23.661,20.035-40c0-27.57-22.43-50-50-50H50
			c-27.57,0-50,22.43-50,50c0,16.339,7.878,30.87,20.035,40C7.878,143.132,0,157.663,0,174.002c0,16.339,7.878,30.87,20.035,40
			C7.878,223.132,0,237.663,0,254.002c0,27.57,22.43,50,50,50h166c27.57,0,50-22.43,50-50c0-16.339-7.878-30.87-20.035-40
			C258.121,204.872,266,190.341,266,174.002z M20,94.002c0-16.542,13.458-30,30-30h166c16.542,0,30,13.458,30,30s-13.458,30-30,30
			H50C33.458,124.002,20,110.544,20,94.002z M246,254.002c0,16.542-13.458,30-30,30H50c-16.542,0-30-13.458-30-30s13.458-30,30-30
			h166C232.542,224.002,246,237.46,246,254.002z M216,204.002H50c-16.542,0-30-13.458-30-30s13.458-30,30-30h166
			c16.542,0,30,13.458,30,30S232.542,204.002,216,204.002z"/>
	</g>
</g>
<g>
	<g>
		<path d="M133.827,82.573H56.329c-5.522,0-10,4.477-10,10c0,5.523,4.478,10,10,10h77.498c5.522,0,10-4.477,10-10
			C143.827,87.05,139.35,82.573,133.827,82.573z"/>
	</g>
</g>
<g>
	<g>
		<path d="M217.66,85.502c-1.86-1.86-4.44-2.93-7.07-2.93s-5.21,1.07-7.07,2.93c-1.859,1.86-2.93,4.44-2.93,7.07
			s1.07,5.21,2.93,7.07s4.44,2.93,7.07,2.93s5.21-1.07,7.07-2.93c1.86-1.86,2.93-4.44,2.93-7.07S219.52,87.362,217.66,85.502z"/>
	</g>
</g>
<g>
	<g>
		<path d="M180.729,85.502c-1.859-1.86-4.439-2.93-7.069-2.93c-2.641,0-5.21,1.07-7.07,2.93c-1.87,1.86-2.93,4.44-2.93,7.07
			s1.06,5.21,2.93,7.07c1.86,1.86,4.44,2.93,7.07,2.93s5.199-1.07,7.069-2.93c1.86-1.86,2.931-4.44,2.931-7.07
			S182.59,87.362,180.729,85.502z"/>
	</g>
</g>
<g>
	<g>
		<path d="M133.827,162.573H56.329c-5.522,0-10,4.477-10,10c0,5.523,4.478,10,10,10h77.498c5.522,0,10-4.477,10-10
			C143.827,167.05,139.35,162.573,133.827,162.573z"/>
	</g>
</g>
<g>
	<g>
		<path d="M217.66,165.502c-1.86-1.86-4.44-2.93-7.07-2.93s-5.21,1.07-7.07,2.93c-1.859,1.86-2.93,4.44-2.93,7.07
			s1.07,5.21,2.93,7.07s4.44,2.93,7.07,2.93s5.21-1.07,7.07-2.93c1.86-1.86,2.93-4.44,2.93-7.07S219.52,167.362,217.66,165.502z"/>
	</g>
</g>
<g>
	<g>
		<path d="M180.729,165.502c-1.859-1.86-4.439-2.93-7.069-2.93c-2.641,0-5.21,1.07-7.07,2.93c-1.87,1.86-2.93,4.44-2.93,7.07
			s1.06,5.21,2.93,7.07c1.86,1.86,4.44,2.93,7.07,2.93s5.199-1.07,7.069-2.93c1.86-1.86,2.931-4.44,2.931-7.07
			S182.59,167.362,180.729,165.502z"/>
	</g>
</g>
<g>
	<g>
		<path d="M133.827,242.573H56.329c-5.522,0-10,4.477-10,10c0,5.523,4.478,10,10,10h77.498c5.522,0,10-4.477,10-10
			S139.349,242.573,133.827,242.573z"/>
	</g>
</g>
<g>
	<g>
		<path d="M217.66,245.502c-1.86-1.86-4.44-2.93-7.07-2.93s-5.21,1.07-7.07,2.93c-1.859,1.86-2.93,4.44-2.93,7.07
			s1.07,5.21,2.93,7.07s4.44,2.93,7.07,2.93s5.21-1.07,7.07-2.93c1.859-1.86,2.93-4.44,2.93-7.07S219.52,247.362,217.66,245.502z"/>
	</g>
</g>
<g>
	<g>
		<path d="M180.729,245.502c-1.859-1.86-4.439-2.93-7.069-2.93c-2.641,0-5.21,1.07-7.07,2.93c-1.87,1.86-2.93,4.44-2.93,7.07
			s1.06,5.21,2.93,7.07c1.86,1.86,4.44,2.93,7.07,2.93s5.199-1.07,7.069-2.93c1.86-1.86,2.931-4.44,2.931-7.07
			S182.59,247.362,180.729,245.502z"/>
	</g>
</g>
<g>
	<g>
		<path d="M411.967,384.708c-0.946-19.751-11.501-37.929-27.967-48.774V156.103c17.413-11.402,28-30.748,28-51.844
			c0-28.084-18.943-52.726-46.066-59.922c-2.999-0.797-6.2-0.153-8.662,1.739c-2.46,1.893-3.902,4.822-3.902,7.926v44h-6.847V54.033
			c0-3.108-1.445-6.04-3.911-7.933c-2.467-1.894-5.672-2.531-8.675-1.727c-13.429,3.595-25.409,11.747-33.736,22.955
			c-8.507,11.451-12.813,25.645-12.127,39.968c0.945,19.731,11.485,37.899,27.927,48.748v179.883
			c-17.389,11.406-27.961,30.743-27.961,51.818c0,28.084,18.943,52.725,46.066,59.922c0.846,0.225,1.707,0.334,2.563,0.334
			c2.183,0,4.331-0.714,6.099-2.074c2.46-1.893,3.902-4.822,3.902-7.926v-44h6.848v43.969c0,3.108,1.445,6.04,3.911,7.933
			c2.467,1.893,5.671,2.532,8.675,1.727c13.428-3.595,25.409-11.747,33.735-22.955C408.347,413.225,412.653,399.031,411.967,384.708
			z M373.518,422.539v-38.537c0-5.523-4.478-10-10-10H336.67c-5.522,0-10,4.477-10,10v38.651
			c-11.391-7.638-18.631-20.614-18.631-34.908c0-15.692,8.656-29.963,22.592-37.244c3.3-1.725,5.369-5.14,5.369-8.863v-191.29
			c0-3.718-2.063-7.128-5.354-8.855c-13.23-6.94-21.889-20.411-22.596-35.154c-0.714-14.894,6.626-28.808,18.473-36.874v38.537
			c0,5.523,4.478,10,10,10h26.847c5.522,0,10-4.477,10-10V69.351C384.76,76.988,392,89.965,392,104.259
			c0,15.708-8.669,29.985-22.623,37.261c-3.305,1.723-5.377,5.141-5.377,8.867v191.248c0,3.721,2.065,7.134,5.362,8.859
			c13.25,6.936,21.92,20.413,22.628,35.172C392.704,400.559,385.364,414.473,373.518,422.539z"/>
	</g>
</g>
<g>
	<g>
		<path d="M500.002,277.684v-23.682c0-5.523-4.478-10-10-10h-10V119.971c3.829-0.163,7.25-2.484,8.77-6.03l9-21
			c0.941-2.196,1.065-4.657,0.349-6.937l-11-35c-1.31-4.167-5.172-7.002-9.54-7.002h-15.156c-4.368,0-8.23,2.835-9.54,7.002l-11,35
			c-0.717,2.28-0.593,4.741,0.349,6.937l9,21c1.52,3.546,4.941,5.867,8.77,6.03v124.031h-10c-5.522,0-10,4.477-10,10v23.682
			c-7.055,3.093-12,10.135-12,18.318v132c0,11.028,8.972,20,20,20h44c11.028,0,20-8.972,20-20v-132
			C512.002,287.819,507.057,280.777,500.002,277.684z M469.764,64.002h0.477l7.689,24.465l-4.943,11.535h-5.969l-4.943-11.535
			L469.764,64.002z M460.002,264.002h20v12h-20V264.002z M492.002,428.002h-44l-0.013-132c0,0,0.004,0,0.013,0h2h40h2V428.002z"/>
	</g>
</g>
<g>
</g>
<g>
</g>
<g>
</g>
<g>
</g>
<g>
</g>
<g>
</g>
<g>
</g>
<g>
</g>
<g>
</g>
<g>
</g>
<g>
</g>
<g>
</g>
<g>
</g>
<g>
</g>
<g>
</g>
</svg>
