<?xml version="1.0" encoding="iso-8859-1"?>
<!-- Generator: Adobe Illustrator 19.0.0, SVG Export Plug-In . SVG Version: 6.00 Build 0)  -->
<svg version="1.1" id="Capa_1" xmlns="http://www.w3.org/2000/svg" xmlns:xlink="http://www.w3.org/1999/xlink" x="0px" y="0px"
	 viewBox="0 0 512 512" style="enable-background:new 0 0 512 512;" xml:space="preserve">
<g>
	<g>
		<path d="M334.111,457H177.89c-5.523,0-10,4.477-10,10s4.477,10,10,10h156.221c5.523,0,10-4.477,10-10S339.634,457,334.111,457z"/>
	</g>
</g>
<g>
	<g>
		<path d="M502,457h-79.72c-3.018-8.509-9.771-15.262-18.28-18.28v-26.597c0-5.523-4.477-10-10-10s-10,4.477-10,10v26.597
			c-11.639,4.128-20,15.243-20,28.28c0,16.542,13.458,30,30,30c13.036,0,24.152-8.361,28.28-20H502c5.523,0,10-4.477,10-10
			S507.523,457,502,457z M394,477c-5.514,0-10-4.486-10-10c0-5.514,4.486-10,10-10c5.514,0,10,4.486,10,10
			C404,472.514,399.514,477,394,477z"/>
	</g>
</g>
<g>
	<g>
		<path d="M128,438.72v-26.597c0-5.523-4.477-10-10-10s-10,4.477-10,10v26.597c-8.509,3.018-15.262,9.771-18.28,18.28H10
			c-5.523,0-10,4.477-10,10s4.477,10,10,10h79.72c4.128,11.639,15.243,20,28.28,20c16.542,0,30-13.458,30-30
			C148,453.964,139.639,442.848,128,438.72z M118,477c-5.514,0-10-4.486-10-10c0-5.514,4.486-10,10-10s10,4.486,10,10
			C128,472.514,123.514,477,118,477z"/>
	</g>
</g>
<g>
	<g>
		<path d="M121.031,159H51.283c-5.523,0-10,4.477-10,10s4.477,10,10,10h69.748c5.523,0,10-4.477,10-10S126.554,159,121.031,159z"/>
	</g>
</g>
<g>
	<g>
		<path d="M191.79,161.93c-1.86-1.86-4.44-2.93-7.07-2.93c-2.64,0-5.21,1.07-7.07,2.93c-1.87,1.86-2.93,4.44-2.93,7.07
			s1.06,5.21,2.93,7.07c1.86,1.86,4.43,2.93,7.07,2.93c2.63,0,5.21-1.07,7.07-2.93c1.86-1.86,2.93-4.44,2.93-7.07
			S193.65,163.79,191.79,161.93z"/>
	</g>
</g>
<g>
	<g>
		<path d="M160.35,161.93c-1.86-1.86-4.44-2.93-7.07-2.93s-5.21,1.07-7.07,2.93c-1.86,1.86-2.93,4.44-2.93,7.07s1.07,5.21,2.93,7.07
			s4.44,2.93,7.07,2.93s5.21-1.07,7.07-2.93c1.86-1.86,2.93-4.44,2.93-7.07S162.21,163.79,160.35,161.93z"/>
	</g>
</g>
<g>
	<g>
		<path d="M121.031,239H51.283c-5.523,0-10,4.477-10,10s4.477,10,10,10h69.748c5.523,0,10-4.477,10-10S126.554,239,121.031,239z"/>
	</g>
</g>
<g>
	<g>
		<path d="M191.79,241.93c-1.86-1.86-4.44-2.93-7.07-2.93c-2.64,0-5.21,1.07-7.07,2.93c-1.87,1.86-2.93,4.44-2.93,7.07
			s1.06,5.21,2.93,7.07c1.86,1.86,4.43,2.93,7.07,2.93c2.63,0,5.21-1.07,7.07-2.93c1.86-1.86,2.93-4.44,2.93-7.07
			S193.65,243.79,191.79,241.93z"/>
	</g>
</g>
<g>
	<g>
		<path d="M160.35,241.93c-1.86-1.86-4.44-2.93-7.07-2.93c-2.64,0-5.21,1.07-7.07,2.93c-1.86,1.86-2.93,4.44-2.93,7.07
			s1.07,5.21,2.93,7.07s4.44,2.93,7.07,2.93s5.21-1.07,7.07-2.93c1.86-1.86,2.93-4.44,2.93-7.07S162.21,243.79,160.35,241.93z"/>
	</g>
</g>
<g>
	<g>
		<path d="M121.031,319H51.283c-5.523,0-10,4.477-10,10s4.477,10,10,10h69.748c5.523,0,10-4.477,10-10S126.554,319,121.031,319z"/>
	</g>
</g>
<g>
	<g>
		<path d="M191.79,321.93c-1.86-1.86-4.44-2.93-7.07-2.93c-2.64,0-5.21,1.07-7.07,2.93c-1.86,1.86-2.93,4.44-2.93,7.07
			s1.07,5.21,2.93,7.07c1.86,1.86,4.44,2.93,7.07,2.93s5.2-1.07,7.07-2.93c1.86-1.86,2.93-4.44,2.93-7.07
			S193.65,323.79,191.79,321.93z"/>
	</g>
</g>
<g>
	<g>
		<path d="M160.35,321.93c-1.86-1.86-4.44-2.93-7.07-2.93c-2.64,0-5.21,1.07-7.07,2.93c-1.86,1.86-2.93,4.44-2.93,7.07
			s1.07,5.21,2.93,7.07c1.86,1.86,4.44,2.93,7.07,2.93s5.21-1.07,7.07-2.93c1.86-1.86,2.93-4.44,2.93-7.07
			S162.21,323.79,160.35,321.93z"/>
	</g>
</g>
<g>
	<g>
		<path d="M236,249c0-16.339-7.878-30.87-20.035-40C228.122,199.87,236,185.339,236,169c0-27.57-22.43-50-50-50H50
			c-27.57,0-50,22.43-50,50c0,16.339,7.878,30.87,20.035,40C7.878,218.13,0,232.661,0,249s7.878,30.87,20.035,40
			C7.878,298.13,0,312.661,0,329c0,27.57,22.43,50,50,50h136c27.57,0,50-22.43,50-50c0-16.339-7.878-30.87-20.035-40
			C228.122,279.87,236,265.339,236,249z M20,169c0-16.542,13.458-30,30-30h136c16.542,0,30,13.458,30,30s-13.458,30-30,30H50
			C33.458,199,20,185.542,20,169z M216,329c0,16.542-13.458,30-30,30H50c-16.542,0-30-13.458-30-30s13.458-30,30-30h136
			C202.542,299,216,312.458,216,329z M186,279H50c-16.542,0-30-13.458-30-30s13.458-30,30-30h136c16.542,0,30,13.458,30,30
			S202.542,279,186,279z"/>
	</g>
</g>
<g>
	<g>
		<path d="M397.031,159h-69.749c-5.523,0-10,4.477-10,10s4.477,10,10,10h69.749c5.523,0,10-4.477,10-10S402.554,159,397.031,159z"/>
	</g>
</g>
<g>
	<g>
		<path d="M467.79,161.93c-1.86-1.86-4.44-2.93-7.07-2.93s-5.21,1.07-7.07,2.93c-1.87,1.86-2.93,4.44-2.93,7.07s1.06,5.21,2.93,7.07
			c1.86,1.86,4.43,2.93,7.07,2.93c2.63,0,5.21-1.07,7.07-2.93c1.86-1.86,2.93-4.44,2.93-7.07S469.65,163.79,467.79,161.93z"/>
	</g>
</g>
<g>
	<g>
		<path d="M436.35,161.93c-1.86-1.86-4.44-2.93-7.07-2.93s-5.21,1.07-7.07,2.93s-2.93,4.44-2.93,7.07s1.07,5.21,2.93,7.07
			s4.44,2.93,7.07,2.93s5.21-1.07,7.07-2.93c1.86-1.86,2.93-4.44,2.93-7.07S438.21,163.79,436.35,161.93z"/>
	</g>
</g>
<g>
	<g>
		<path d="M397.031,239h-69.749c-5.523,0-10,4.477-10,10s4.477,10,10,10h69.749c5.523,0,10-4.477,10-10S402.554,239,397.031,239z"/>
	</g>
</g>
<g>
	<g>
		<path d="M467.79,241.93c-1.86-1.86-4.44-2.93-7.07-2.93c-2.64,0-5.21,1.07-7.07,2.93c-1.87,1.86-2.93,4.44-2.93,7.07
			s1.06,5.21,2.93,7.07c1.86,1.86,4.44,2.93,7.07,2.93s5.21-1.07,7.07-2.93c1.86-1.86,2.93-4.44,2.93-7.07
			S469.65,243.79,467.79,241.93z"/>
	</g>
</g>
<g>
	<g>
		<path d="M436.35,241.93c-1.86-1.86-4.44-2.93-7.07-2.93s-5.21,1.07-7.07,2.93s-2.93,4.44-2.93,7.07s1.07,5.21,2.93,7.07
			s4.44,2.93,7.07,2.93s5.21-1.07,7.07-2.93c1.86-1.86,2.93-4.44,2.93-7.07S438.21,243.79,436.35,241.93z"/>
	</g>
</g>
<g>
	<g>
		<path d="M397.032,319h-69.749c-5.523,0-10,4.477-10,10s4.477,10,10,10h69.749c5.523,0,10-4.477,10-10S402.555,319,397.032,319z"/>
	</g>
</g>
<g>
	<g>
		<path d="M467.79,321.93c-1.86-1.86-4.44-2.93-7.07-2.93c-2.64,0-5.21,1.07-7.07,2.93c-1.87,1.86-2.93,4.44-2.93,7.07
			s1.06,5.21,2.93,7.07c1.86,1.86,4.44,2.93,7.07,2.93s5.21-1.07,7.07-2.93c1.86-1.86,2.93-4.44,2.93-7.07
			S469.65,323.79,467.79,321.93z"/>
	</g>
</g>
<g>
	<g>
		<path d="M436.35,321.93c-1.86-1.86-4.44-2.93-7.07-2.93s-5.21,1.07-7.07,2.93s-2.93,4.44-2.93,7.07s1.07,5.21,2.93,7.07
			c1.86,1.86,4.44,2.93,7.07,2.93s5.21-1.07,7.07-2.93c1.86-1.86,2.93-4.44,2.93-7.07S438.21,323.79,436.35,321.93z"/>
	</g>
</g>
<g>
	<g>
		<path d="M512,249c0-16.339-7.878-30.87-20.035-40C504.122,199.87,512,185.339,512,169c0-27.57-22.43-50-50-50H326
			c-27.57,0-50,22.43-50,50c0,16.339,7.878,30.87,20.035,40C283.878,218.13,276,232.661,276,249s7.878,30.87,20.035,40
			C283.878,298.13,276,312.661,276,329c0,27.57,22.43,50,50,50h136c27.57,0,50-22.43,50-50c0-16.339-7.878-30.87-20.035-40
			C504.122,279.87,512,265.339,512,249z M296,169c0-16.542,13.458-30,30-30h136c16.542,0,30,13.458,30,30s-13.458,30-30,30H326
			C309.458,199,296,185.542,296,169z M492,329c0,16.542-13.458,30-30,30H326c-16.542,0-30-13.458-30-30s13.458-30,30-30h136
			C478.542,299,492,312.458,492,329z M462,279H326c-16.542,0-30-13.458-30-30s13.458-30,30-30h136c16.542,0,30,13.458,30,30
			S478.542,279,462,279z"/>
	</g>
</g>
<g>
	<g>
		<path d="M448,39h-26.347c-5.523,0-10,4.477-10,10s4.477,10,10,10H438v19.487c0,5.523,4.477,10,10,10s10-4.477,10-10V49
			C458,43.477,453.523,39,448,39z"/>
	</g>
</g>
<g>
	<g>
		<path d="M96.32,39H64c-5.523,0-10,4.477-10,10v29.487c0,5.523,4.477,10,10,10s10-4.477,10-10V59h22.32c5.523,0,10-4.477,10-10
			S101.843,39,96.32,39z"/>
	</g>
</g>
<g>
	<g>
		<path d="M375.383,41.929l-24-24c-3.905-3.905-10.237-3.905-14.143,0c-3.905,3.905-3.905,10.237,0,14.143L344.17,39H168.781
			l6.929-6.929c3.905-3.905,3.905-10.237,0-14.143c-3.905-3.905-10.237-3.905-14.143,0l-24,24c-3.905,3.905-3.905,10.237,0,14.143
			l24.001,24c1.953,1.953,4.512,2.929,7.071,2.929c2.559,0,5.119-0.976,7.071-2.929c3.905-3.905,3.905-10.237,0-14.143L168.781,59
			H344.17l-6.929,6.929c-3.905,3.905-3.905,10.237,0,14.143c1.953,1.953,4.512,2.929,7.071,2.929s5.119-0.976,7.071-2.929l24-24
			C379.288,52.167,379.288,45.835,375.383,41.929z"/>
	</g>
</g>
<g>
</g>
<g>
</g>
<g>
</g>
<g>
</g>
<g>
</g>
<g>
</g>
<g>
</g>
<g>
</g>
<g>
</g>
<g>
</g>
<g>
</g>
<g>
</g>
<g>
</g>
<g>
</g>
<g>
</g>
</svg>
