<?xml version="1.0" encoding="iso-8859-1"?>
<!-- Generator: Adobe Illustrator 19.0.0, SVG Export Plug-In . SVG Version: 6.00 Build 0)  -->
<svg version="1.1" id="Capa_1" xmlns="http://www.w3.org/2000/svg" xmlns:xlink="http://www.w3.org/1999/xlink" x="0px" y="0px"
	 viewBox="0 0 512.001 512.001" style="enable-background:new 0 0 512.001 512.001;" xml:space="preserve">
<g>
	<g>
		<path d="M174.664,140.547c-0.811-0.021-1.625-0.031-2.442-0.031c-0.816,0-1.63,0.01-2.441,0.031
			C75.94,141.859,0,218.591,0,312.739c0,94.964,77.259,172.222,172.222,172.222s172.222-77.259,172.222-172.222
			C344.445,218.591,268.506,141.859,174.664,140.547z M93.649,182.404c-6.94,10.29-11.908,22.012-14.373,34.62
			c-6.734-1.415-13.222-3.756-19.323-6.978C69.785,199.308,81.129,189.98,93.649,182.404z M47.284,225.88
			c9.398,5.463,19.591,9.227,30.232,11.179v65.683H20.333C22.187,274.297,31.885,247.963,47.284,225.88z M47.283,399.597
			c-15.398-22.082-25.096-48.417-26.949-76.86h57.182v65.682C66.873,390.369,56.681,394.134,47.283,399.597z M59.954,415.43
			c6.101-3.221,12.59-5.563,19.325-6.978c2.465,12.61,7.435,24.333,14.377,34.624C81.132,435.501,69.785,426.17,59.954,415.43z
			 M162.224,464.272c-30.978-4.164-55.986-27.372-62.832-57.429h62.832V464.272z M162.224,386.846H97.512v-64.109h64.712V386.846z
			 M162.224,302.74H97.512v-64.109h64.712V302.74z M162.224,218.635H99.391c6.844-30.059,31.854-53.27,62.833-57.434V218.635z
			 M297.163,225.881c15.398,22.083,25.096,48.417,26.949,76.86H266.93v-65.682C277.571,235.108,287.764,231.344,297.163,225.881z
			 M284.491,210.047c-6.101,3.221-12.589,5.563-19.324,6.977c-2.464-12.608-7.432-24.33-14.372-34.621
			C263.317,189.98,274.661,199.309,284.491,210.047z M245.054,218.635h-62.833v-57.434
			C213.2,165.365,238.21,188.575,245.054,218.635z M182.221,464.272v-57.429h62.832
			C238.207,436.899,213.198,460.108,182.221,464.272z M246.934,386.846h-64.713v-64.109h64.713V386.846z M246.934,302.74h-64.713
			v-64.109h64.713V302.74z M250.791,443.076c6.942-10.291,11.911-22.014,14.376-34.623c6.735,1.415,13.223,3.756,19.324,6.978
			C274.659,426.17,263.313,435.5,250.791,443.076z M297.161,399.599c-9.398-5.463-19.591-9.227-30.232-11.179v-65.683h57.182
			C322.259,351.18,312.56,377.516,297.161,399.599z"/>
	</g>
</g>
<g>
	<g>
		<path d="M277.04,27.04H137.951c-5.522,0-9.998,4.476-9.998,9.998V110.9c0,5.522,4.476,9.998,9.998,9.998
			c5.522,0,9.998-4.476,9.998-9.998V47.036H277.04c5.522,0,9.998-4.476,9.998-9.998C287.039,31.516,282.562,27.04,277.04,27.04z"/>
	</g>
</g>
<g>
	<g>
		<path d="M502.002,27.04H360.36c-5.522,0-9.998,4.476-9.998,9.998c0,5.522,4.476,9.998,9.998,9.998h131.644v363.937H352.227
			c-5.522,0-9.998,4.476-9.998,9.998c0,5.522,4.476,9.998,9.998,9.998h149.775c5.522,0,9.998-4.476,9.998-9.998V37.038
			C512,31.516,507.524,27.04,502.002,27.04z"/>
	</g>
</g>
<g>
	<g>
		<path d="M320.217,27.04h-0.401c-5.522,0-9.998,4.476-9.998,9.998c0,5.522,4.476,9.998,9.998,9.998h0.401
			c5.522,0,9.998-4.476,9.998-9.998C330.215,31.516,325.739,27.04,320.217,27.04z"/>
	</g>
</g>
<g>
	<g>
		<path d="M459.953,77.156H180.001c-5.522,0-9.998,4.476-9.998,9.998c0,5.522,4.476,9.998,9.998,9.998h269.954v95.859H347.028
			c-5.522,0-9.998,4.476-9.998,9.998s4.476,9.998,9.998,9.998h112.924c5.522,0,9.998-4.476,9.998-9.998V87.154h0.001
			C469.951,81.632,465.475,77.156,459.953,77.156z"/>
	</g>
</g>
<g>
	<g>
		<path d="M420.129,243.003h-42.106c-5.522,0-9.998,4.476-9.998,9.998c0,5.522,4.476,9.998,9.998,9.998h42.106
			c5.522,0,9.998-4.476,9.998-9.998C430.127,247.479,425.651,243.003,420.129,243.003z"/>
	</g>
</g>
<g>
	<g>
		<path d="M467.018,245.932c-1.86-1.86-4.439-2.93-7.069-2.93c-2.63,0-5.199,1.07-7.069,2.93c-1.86,1.86-2.93,4.439-2.93,7.069
			c0,2.63,1.07,5.209,2.93,7.069s4.439,2.93,7.069,2.93c2.64,0,5.209-1.07,7.069-2.93c1.87-1.86,2.93-4.439,2.93-7.069
			C469.947,250.371,468.887,247.792,467.018,245.932z"/>
	</g>
</g>
<g>
	<g>
		<path d="M459.953,283.246h-81.929c-5.522,0-9.998,4.476-9.998,9.998s4.476,9.998,9.998,9.998h81.929
			c5.522,0,9.998-4.476,9.998-9.998S465.475,283.246,459.953,283.246z"/>
	</g>
</g>
<g>
	<g>
		<path d="M459.953,323.489h-81.929c-5.522,0-9.998,4.476-9.998,9.998c0,5.522,4.476,9.998,9.998,9.998h81.929
			c5.522,0,9.998-4.476,9.998-9.998C469.951,327.965,465.475,323.489,459.953,323.489z"/>
	</g>
</g>
<g>
</g>
<g>
</g>
<g>
</g>
<g>
</g>
<g>
</g>
<g>
</g>
<g>
</g>
<g>
</g>
<g>
</g>
<g>
</g>
<g>
</g>
<g>
</g>
<g>
</g>
<g>
</g>
<g>
</g>
</svg>
