<?xml version="1.0" encoding="iso-8859-1"?>
<!-- Generator: Adobe Illustrator 19.0.0, SVG Export Plug-In . SVG Version: 6.00 Build 0)  -->
<svg version="1.1" id="Capa_1" xmlns="http://www.w3.org/2000/svg" xmlns:xlink="http://www.w3.org/1999/xlink" x="0px" y="0px"
	 viewBox="0 0 512 512" style="enable-background:new 0 0 512 512;" xml:space="preserve">
<g>
	<g>
		<path d="M139.339,463.517H17.885c-5.523,0-10,4.477-10,10c0,5.523,4.477,10,10,10h121.454c5.523,0,10-4.477,10-10
			C149.338,467.994,144.861,463.517,139.339,463.517z"/>
	</g>
</g>
<g>
	<g>
		<path d="M337.869,33.998c-16.541,0-29.999,13.457-29.999,29.999s13.457,29.999,29.999,29.999
			c16.541,0,29.999-13.457,29.999-29.999S354.41,33.998,337.869,33.998z M337.869,73.996c-5.514,0-10-4.486-10-10s4.486-10,10-10
			c5.514,0,10,4.486,10,10S343.383,73.996,337.869,73.996z"/>
	</g>
</g>
<g>
	<g>
		<path d="M190.209,53.997H64.202c-5.523,0-10,4.477-10,10c0,5.523,4.477,10,10,10h126.007c5.523,0,10-4.477,10-10
			C200.209,58.474,195.732,53.997,190.209,53.997z"/>
	</g>
</g>
<g>
	<g>
		<path d="M281.438,56.929c-1.859-1.859-4.43-2.93-7.07-2.93c-2.63,0-5.21,1.07-7.07,2.93c-1.86,1.86-2.93,4.43-2.93,7.07
			c0,2.63,1.07,5.21,2.93,7.07c1.86,1.86,4.44,2.93,7.07,2.93c2.64,0,5.21-1.07,7.07-2.93c1.87-1.86,2.93-4.44,2.93-7.07
			C284.368,61.359,283.308,58.789,281.438,56.929z"/>
	</g>
</g>
<g>
	<g>
		<path d="M239.281,56.929c-1.86-1.86-4.44-2.93-7.07-2.93c-2.64,0-5.21,1.07-7.08,2.93c-1.86,1.86-2.92,4.43-2.92,7.07
			c0,2.63,1.06,5.21,2.92,7.07c1.87,1.86,4.44,2.93,7.08,2.93c2.63,0,5.21-1.07,7.07-2.93c1.86-1.86,2.93-4.44,2.93-7.07
			C242.211,61.359,241.141,58.789,239.281,56.929z"/>
	</g>
</g>
<g>
	<g>
		<path d="M337.869,145.993c-16.541,0-29.999,13.457-29.999,29.999s13.457,29.999,29.999,29.999
			c16.541,0,29.999-13.457,29.999-29.999S354.41,145.993,337.869,145.993z M337.869,185.991c-5.514,0-10-4.486-10-10s4.486-10,10-10
			c5.514,0,10,4.486,10,10S343.383,185.991,337.869,185.991z"/>
	</g>
</g>
<g>
	<g>
		<path d="M190.209,165.992H64.202c-5.523,0-10,4.477-10,10s4.477,10,10,10h126.007c5.523,0,10-4.477,10-10
			S195.732,165.992,190.209,165.992z"/>
	</g>
</g>
<g>
	<g>
		<path d="M281.438,168.924c-1.859-1.869-4.439-2.93-7.07-2.93c-2.63,0-5.2,1.06-7.07,2.93c-1.86,1.86-2.93,4.44-2.93,7.07
			s1.07,5.21,2.93,7.07c1.87,1.86,4.44,2.93,7.07,2.93s5.21-1.07,7.07-2.93c1.87-1.86,2.93-4.44,2.93-7.07
			S283.308,170.784,281.438,168.924z"/>
	</g>
</g>
<g>
	<g>
		<path d="M239.281,168.924c-1.86-1.869-4.44-2.93-7.07-2.93c-2.64,0-5.21,1.06-7.07,2.93c-1.87,1.86-2.93,4.44-2.93,7.07
			s1.06,5.21,2.93,7.07c1.86,1.86,4.43,2.93,7.07,2.93c2.63,0,5.21-1.07,7.07-2.93s2.93-4.44,2.93-7.07
			C242.211,173.354,241.141,170.784,239.281,168.924z"/>
	</g>
</g>
<g>
	<g>
		<path d="M388.864,121.994c18.673-11.669,31.128-32.401,31.128-55.997C419.992,29.606,390.386,0,353.995,0H66.009
			C29.618,0,0.013,29.606,0.013,65.997c0,23.596,12.455,44.328,31.128,55.997c-18.673,11.669-31.128,32.401-31.128,55.997
			c0,23.596,12.455,44.328,31.128,55.997C12.468,245.658,0.013,266.39,0.013,289.986c0,36.391,29.606,65.997,65.997,65.997H256
			c5.523,0,10-4.477,10-10s-4.477-10-10-10H66.009c-25.363,0-45.998-20.635-45.998-45.998c0-25.363,20.635-45.998,45.998-45.998
			h287.986c36.391,0,65.997-29.606,65.997-65.997C419.992,154.395,407.537,133.663,388.864,121.994z M20.012,65.997
			c0-25.363,20.635-45.998,45.998-45.998h287.986c25.363,0,45.998,20.635,45.998,45.998c0,25.363-20.635,45.998-45.998,45.998
			H66.009C40.646,111.995,20.012,91.36,20.012,65.997z M353.995,223.989H66.009c-25.364,0-45.998-20.635-45.998-45.998
			c0-25.363,20.635-45.998,45.998-45.998h287.986c25.363,0,45.998,20.635,45.998,45.998
			C399.993,203.354,379.358,223.989,353.995,223.989z"/>
	</g>
</g>
<g>
	<g>
		<path d="M190.209,277.986H64.202c-5.523,0-10,4.477-10,10c0,5.523,4.477,10,10,10h126.007c5.523,0,10-4.477,10-10
			C200.209,282.463,195.732,277.986,190.209,277.986z"/>
	</g>
</g>
<g>
	<g>
		<path d="M281.439,280.919c-1.86-1.86-4.43-2.93-7.07-2.93c-2.631-0.001-5.211,1.07-7.07,2.93c-1.86,1.86-2.93,4.43-2.93,7.07
			c0,2.63,1.07,5.21,2.93,7.07c1.86,1.86,4.44,2.93,7.07,2.93s5.21-1.07,7.07-2.93c1.87-1.86,2.93-4.44,2.93-7.07
			S283.309,282.779,281.439,280.919z"/>
	</g>
</g>
<g>
	<g>
		<path d="M239.28,280.919c-1.86-1.86-4.44-2.93-7.07-2.93c-2.639-0.001-5.209,1.07-7.07,2.93c-1.87,1.86-2.93,4.43-2.93,7.07
			c0,2.63,1.06,5.21,2.93,7.07c1.86,1.86,4.43,2.93,7.07,2.93c2.63,0,5.2-1.07,7.07-2.93c1.86-1.86,2.93-4.44,2.93-7.07
			S241.14,282.779,239.28,280.919z"/>
	</g>
</g>
<g>
	<g>
		<path d="M425.512,433.175c6.655-6.344,10.479-15.129,10.479-24.561c0-18.745-15.252-33.997-33.998-33.997
			c-18.747,0-33.998,15.251-33.998,33.998c0,9.539,4.076,18.609,10.958,24.983l-4.491,28.197c-0.46,2.891,0.369,5.837,2.269,8.064
			c1.9,2.227,4.68,3.509,7.607,3.509h35.844c2.926,0,5.706-1.282,7.605-3.507c1.9-2.226,2.729-5.171,2.271-8.062L425.512,433.175z
			 M409.406,420.487c-3.397,2.129-5.194,6.082-4.565,10.042l3.627,22.839h-12.414l3.588-22.53c0.645-4.049-1.247-8.081-4.773-10.172
			c-4.306-2.555-6.876-7.06-6.876-12.05c0-7.72,6.28-13.999,13.999-13.999s13.999,6.28,13.999,13.999
			C415.992,413.465,413.53,417.903,409.406,420.487z"/>
	</g>
</g>
<g>
	<g>
		<path d="M491.571,335.997h-27.074v-21.554c0-34.982-28.461-63.443-63.443-63.443c-34.983,0-63.444,28.461-63.444,63.443v21.554
			h-25.198c-11.257,0-20.416,9.169-20.416,20.438v107.083h-45.608c-3.652-12.696-13.751-22.682-26.516-26.169v-50.356
			c0-5.523-4.477-10-10-10c-5.523,0-10,4.477-10,10v50.356c-16.115,4.402-27.999,19.162-27.999,36.653
			c0,20.952,17.046,37.998,37.998,37.998c17.668,0,32.557-12.121,36.791-28.484h45.332v8.033c0,11.27,9.159,20.438,20.416,20.438
			h179.158c11.257,0,20.416-9.169,20.416-20.438V356.435C511.987,345.165,502.829,335.997,491.571,335.997z M209.875,492.001
			c-9.924,0-17.999-8.075-17.999-17.999s8.075-17.999,17.999-17.999s17.999,8.075,17.999,17.999S219.8,492.001,209.875,492.001z
			 M357.61,314.443c0-23.956,19.489-43.444,43.445-43.444c23.956,0,43.444,19.489,43.444,43.444v21.554H357.61V314.443z
			 M491.988,491.549c0,0.242-0.187,0.439-0.417,0.439H312.413c-0.229,0-0.417-0.197-0.417-0.439V356.435
			c0-0.242,0.187-0.439,0.417-0.439h179.158c0.229,0,0.417,0.197,0.417,0.439V491.549z"/>
	</g>
</g>
<g>
</g>
<g>
</g>
<g>
</g>
<g>
</g>
<g>
</g>
<g>
</g>
<g>
</g>
<g>
</g>
<g>
</g>
<g>
</g>
<g>
</g>
<g>
</g>
<g>
</g>
<g>
</g>
<g>
</g>
</svg>
