<?xml version="1.0" encoding="iso-8859-1"?>
<!-- Generator: Adobe Illustrator 19.0.0, SVG Export Plug-In . SVG Version: 6.00 Build 0)  -->
<svg version="1.1" id="Capa_1" xmlns="http://www.w3.org/2000/svg" xmlns:xlink="http://www.w3.org/1999/xlink" x="0px" y="0px"
	 viewBox="0 0 511.999 511.999" style="enable-background:new 0 0 511.999 511.999;" xml:space="preserve">
<g>
	<g>
		<path d="M501.99,472.002H325.418c-5.523,0-10,4.477-10,10c0,5.523,4.477,10,10,10H501.99c5.523,0,10-4.477,10-10
			C511.989,476.478,507.513,472.002,501.99,472.002z"/>
	</g>
</g>
<g>
	<g>
		<path d="M186.002,472.002H10.009c-5.523,0-10,4.477-10,10c0,5.523,4.477,10,10,10h175.993c5.523,0,10-4.477,10-10
			C196.002,476.478,191.525,472.002,186.002,472.002z"/>
	</g>
</g>
<g>
	<g>
		<path d="M263.068,300.788c-1.86-1.86-4.44-2.93-7.07-2.93c-2.63,0-5.209,1.069-7.07,2.93c-1.86,1.86-2.93,4.44-2.93,7.07
			c0,2.63,1.07,5.21,2.93,7.07s4.44,2.93,7.07,2.93c2.63,0,5.21-1.07,7.07-2.93s2.93-4.44,2.93-7.07
			C265.998,305.228,264.928,302.648,263.068,300.788z"/>
	</g>
</g>
<g>
	<g>
		<path d="M260.335,43.998h-85.245c-5.523,0-10,4.477-10,10c0,5.523,4.477,10,10,10h85.245c5.523,0,10-4.477,10-10
			C270.335,48.475,265.858,43.998,260.335,43.998z"/>
	</g>
</g>
<g>
	<g>
		<path d="M345.245,45.358c-1.86-1.86-4.44-2.93-7.07-2.93c-2.64,0-5.22,1.07-7.08,2.93s-2.92,4.44-2.92,7.07
			c0,2.63,1.06,5.21,2.92,7.07s4.44,2.93,7.08,2.93c2.63,0,5.21-1.07,7.07-2.93c1.861-1.86,2.93-4.44,2.93-7.07
			C348.175,49.798,347.105,47.218,345.245,45.358z"/>
	</g>
</g>
<g>
	<g>
		<path d="M306.817,46.928c-1.86-1.86-4.44-2.93-7.07-2.93s-5.21,1.07-7.07,2.93c-1.86,1.86-2.93,4.44-2.93,7.07
			c0,2.63,1.07,5.21,2.93,7.07c1.86,1.86,4.44,2.93,7.07,2.93s5.21-1.07,7.07-2.93s2.93-4.44,2.93-7.07
			C309.747,51.368,308.677,48.788,306.817,46.928z"/>
	</g>
</g>
<g>
	<g>
		<path d="M272.772,447.065c25.575,0,50.4-10.079,68.77-28.449c22.467-22.468,32.533-54.592,26.925-85.933
			c-0.737-4.12-3.962-7.345-8.082-8.083c-31.34-5.607-63.465,4.457-85.934,26.925c-3.052,3.052-5.867,6.289-8.454,9.671v-15.213
			c0-5.523-4.477-10-10-10c-5.523,0-10,4.477-10,10v15.21c-2.586-3.382-5.4-6.617-8.452-9.669
			c-22.468-22.468-54.593-32.535-85.934-26.925c-4.12,0.737-7.345,3.962-8.082,8.083c-5.608,31.341,4.458,63.465,26.925,85.933
			c18.371,18.371,43.194,28.449,68.77,28.449c2.252,0,4.511-0.101,6.771-0.259v6.917c-11.639,4.128-19.999,15.242-19.999,28.279
			c0,16.541,13.458,29.999,29.999,29.999s29.999-13.457,29.999-29.999c0.002-13.035-8.359-24.15-19.997-28.278v-6.917
			C268.26,446.964,270.519,447.065,272.772,447.065z M288.594,365.668c16.14-16.141,38.559-24.219,61.125-22.318
			c1.902,22.564-6.178,44.984-22.318,61.125c-16.14,16.14-38.555,24.217-61.125,22.318
			C264.373,404.228,272.453,381.808,288.594,365.668z M245.725,426.792c-22.567,1.901-44.985-6.179-61.125-22.318
			c-16.14-16.14-24.221-38.56-22.318-61.125c22.565-1.905,44.985,6.179,61.125,22.318
			C239.547,381.808,247.628,404.228,245.725,426.792z M255.999,492.001c-5.514,0-10-4.486-10-10s4.486-10,10-10s10,4.486,10,10
			S261.513,492.001,255.999,492.001z"/>
	</g>
</g>
<g>
	<g>
		<path d="M260.335,131.995h-85.245c-5.523,0-10,4.477-10,10s4.477,10,10,10h85.245c5.523,0,10-4.477,10-10
			S265.858,131.995,260.335,131.995z"/>
	</g>
</g>
<g>
	<g>
		<path d="M345.246,133.355c-1.86-1.86-4.44-2.93-7.07-2.93c-2.64,0-5.21,1.07-7.08,2.93c-1.86,1.86-2.93,4.44-2.93,7.07
			s1.07,5.21,2.93,7.07c1.87,1.86,4.44,2.93,7.08,2.93c2.63,0,5.21-1.07,7.07-2.93c1.86-1.86,2.92-4.44,2.92-7.07
			S347.106,135.215,345.246,133.355z"/>
	</g>
</g>
<g>
	<g>
		<path d="M306.817,134.925c-1.86-1.86-4.44-2.93-7.07-2.93s-5.21,1.07-7.07,2.93c-1.86,1.86-2.93,4.44-2.93,7.07
			s1.07,5.21,2.93,7.07c1.86,1.86,4.44,2.93,7.07,2.93s5.21-1.07,7.07-2.93c1.86-1.86,2.93-4.44,2.93-7.07
			S308.677,136.785,306.817,134.925z"/>
	</g>
</g>
<g>
	<g>
		<path d="M260.335,219.991h-85.245c-5.523,0-10,4.477-10,10c0,5.523,4.477,10,10,10h85.245c5.523,0,10-4.477,10-10
			C270.335,224.468,265.858,219.991,260.335,219.991z"/>
	</g>
</g>
<g>
	<g>
		<path d="M345.245,221.351c-1.87-1.86-4.44-2.93-7.07-2.93c-2.64,0-5.21,1.07-7.08,2.93c-1.86,1.86-2.92,4.44-2.92,7.07
			c0,2.63,1.06,5.21,2.92,7.07c1.87,1.859,4.451,2.93,7.08,2.93c2.63,0,5.2-1.07,7.07-2.93c1.86-1.86,2.92-4.44,2.92-7.07
			C348.165,225.791,347.105,223.211,345.245,221.351z"/>
	</g>
</g>
<g>
	<g>
		<path d="M306.817,222.921c-1.86-1.86-4.44-2.93-7.07-2.93s-5.21,1.07-7.07,2.93c-1.86,1.86-2.93,4.44-2.93,7.07
			c0,2.63,1.07,5.21,2.93,7.07c1.86,1.86,4.439,2.93,7.07,2.93c2.63,0,5.21-1.07,7.07-2.93s2.93-4.44,2.93-7.07
			C309.747,227.361,308.677,224.781,306.817,222.921z"/>
	</g>
</g>
<g>
	<g>
		<path d="M398.121,141.994c0-18.136-8.998-34.202-22.753-43.998c13.755-9.797,22.753-25.862,22.753-43.998
			C398.121,24.223,373.898,0,344.123,0H168.13c-29.775,0-53.998,24.223-53.998,53.998c0,18.136,8.998,34.202,22.753,43.998
			c-13.755,9.797-22.753,25.862-22.753,43.998s8.998,34.202,22.753,43.998c-13.756,9.797-22.753,25.862-22.753,43.998
			c0,29.775,24.223,53.998,53.998,53.998h175.993c29.775,0,53.998-24.223,53.998-53.998c0-18.136-8.998-34.202-22.753-43.998
			C389.123,176.196,398.121,160.131,398.121,141.994z M134.131,53.998c0-18.747,15.251-33.999,33.999-33.999h175.993
			c18.747,0,33.999,15.251,33.999,33.999c0,18.747-15.251,33.999-33.999,33.999H168.13
			C149.383,87.997,134.131,72.745,134.131,53.998z M378.122,229.991c0,18.747-15.251,33.999-33.999,33.999H168.13
			c-18.747,0-33.999-15.251-33.999-33.999c0-18.747,15.251-33.999,33.999-33.999h175.993
			C362.87,195.992,378.122,211.244,378.122,229.991z M344.123,175.993H168.13c-18.747,0-33.999-15.251-33.999-33.999
			s15.251-33.999,33.999-33.999h175.993c18.747,0,33.999,15.251,33.999,33.999S362.87,175.993,344.123,175.993z"/>
	</g>
</g>
<g>
</g>
<g>
</g>
<g>
</g>
<g>
</g>
<g>
</g>
<g>
</g>
<g>
</g>
<g>
</g>
<g>
</g>
<g>
</g>
<g>
</g>
<g>
</g>
<g>
</g>
<g>
</g>
<g>
</g>
</svg>
