<?xml version="1.0" encoding="iso-8859-1"?>
<!-- Generator: Adobe Illustrator 19.0.0, SVG Export Plug-In . SVG Version: 6.00 Build 0)  -->
<svg version="1.1" id="Capa_1" xmlns="http://www.w3.org/2000/svg" xmlns:xlink="http://www.w3.org/1999/xlink" x="0px" y="0px"
	 viewBox="0 0 512 512" style="enable-background:new 0 0 512 512;" xml:space="preserve">
<g>
	<g>
		<path d="M328.07,447.95c-1.86-1.86-4.44-2.93-7.07-2.93s-5.21,1.07-7.07,2.93c-1.86,1.86-2.93,4.44-2.93,7.07s1.07,5.21,2.93,7.07
			s4.44,2.93,7.07,2.93s5.21-1.07,7.07-2.93c1.86-1.86,2.93-4.44,2.93-7.07S329.93,449.81,328.07,447.95z"/>
	</g>
</g>
<g>
	<g>
		<path d="M192,445.02H10c-5.523,0-10,4.477-10,10s4.477,10,10,10h182c5.523,0,10-4.477,10-10S197.523,445.02,192,445.02z"/>
	</g>
</g>
<g>
	<g>
		<path d="M266,426.74V404.5c0-5.523-4.477-10-10-10s-10,4.477-10,10v22.24c-11.639,4.128-20,15.243-20,28.28
			c0,16.542,13.458,30,30,30s30-13.458,30-30C286,441.983,277.639,430.868,266,426.74z M256,465.02c-5.514,0-10-4.486-10-10
			c0-5.514,4.486-10,10-10c5.514,0,10,4.486,10,10C266,460.534,261.514,465.02,256,465.02z"/>
	</g>
</g>
<g>
	<g>
		<path d="M490.531,181.826c-12.841-18.637-30.377-33.205-50.913-42.346c-25.168-67.476-89.75-112.5-162.116-112.5
			c-42.108,0-82.686,15.308-114.257,43.103c-28.866,25.413-48.378,59.563-55.6,96.982c-0.12-0.005-0.239-0.003-0.359-0.008
			c-1.425-0.059-2.854-0.097-4.285-0.097c-56.794,0-103,46.206-103,103c0,56.794,46.205,103,102.999,103h287
			c67.271,0,122-54.729,122-122C512,226.118,504.576,202.212,490.531,181.826z M390,352.96H103
			c-42.906,0-78.312-32.725-82.571-74.526C20.145,275.647,20,272.82,20,269.96c0-45.766,37.234-83,83-83
			c3.853,0,7.761,0.273,11.615,0.813c0.088,0.012,0.176,0.014,0.264,0.024c26.963,3.822,50.319,20.546,62.631,45.548
			c1.74,3.534,5.289,5.584,8.979,5.584c1.483,0,2.99-0.332,4.411-1.031c4.955-2.44,6.993-8.435,4.553-13.389
			c-8.374-17.003-21.271-31.371-37.297-41.55c-9.495-6.031-19.855-10.413-30.678-13.053C141.586,99.199,204.476,46.98,277.501,46.98
			c65.339,0,123.499,41.493,144.725,103.25c0.944,2.747,3.037,4.948,5.733,6.03C466.862,171.871,492,209.042,492,250.96
			C492,307.203,446.243,352.96,390,352.96z"/>
	</g>
</g>
<g>
	<g>
		<path d="M196,259.781c-5.523,0-10,4.477-10,10v0.179c0,5.523,4.477,10,10,10s10-4.477,10-10v-0.179
			C206,264.258,201.523,259.781,196,259.781z"/>
	</g>
</g>
<g>
	<g>
		<path d="M502,445.02H361.5c-5.523,0-10,4.477-10,10s4.477,10,10,10H502c5.523,0,10-4.477,10-10S507.523,445.02,502,445.02z"/>
	</g>
</g>
<g>
</g>
<g>
</g>
<g>
</g>
<g>
</g>
<g>
</g>
<g>
</g>
<g>
</g>
<g>
</g>
<g>
</g>
<g>
</g>
<g>
</g>
<g>
</g>
<g>
</g>
<g>
</g>
<g>
</g>
</svg>
