<?xml version="1.0" encoding="iso-8859-1"?>
<!-- Generator: Adobe Illustrator 19.0.0, SVG Export Plug-In . SVG Version: 6.00 Build 0)  -->
<svg version="1.1" id="Capa_1" xmlns="http://www.w3.org/2000/svg" xmlns:xlink="http://www.w3.org/1999/xlink" x="0px" y="0px"
	 viewBox="0 0 512 512" style="enable-background:new 0 0 512 512;" xml:space="preserve">
<g>
	<g>
		<path d="M263.667,463.517H246.39c-3.652-12.696-13.751-22.682-26.516-26.169v-50.356c0-5.523-4.478-10-10-10s-10,4.477-10,10
			v50.356c-16.115,4.402-27.999,19.162-27.999,36.653c0,20.952,17.046,37.998,37.998,37.998c17.667,0,32.557-12.121,36.791-28.484
			h16.999c5.522,0,10-4.477,10-10C273.665,467.994,269.188,463.517,263.667,463.517z M209.875,492.001
			c-9.924,0-17.999-8.075-17.999-17.999s8.075-17.999,17.999-17.999s17.999,8.075,17.999,17.999S219.8,492.001,209.875,492.001z"/>
	</g>
</g>
<g>
	<g>
		<path d="M141.339,463.517H10.012c-5.522,0-10,4.477-10,10c0,5.523,4.478,10,10,10h131.327c5.522,0,10-4.477,10-10
			C151.338,467.994,146.86,463.517,141.339,463.517z"/>
	</g>
</g>
<g>
	<g>
		<path d="M337.869,33.998c-16.541,0-29.999,13.457-29.999,29.999s13.457,29.999,29.999,29.999
			c16.541,0,29.999-13.457,29.999-29.999S354.41,33.998,337.869,33.998z M337.869,73.996c-5.514,0-10-4.486-10-10s4.486-10,10-10
			c5.514,0,10,4.486,10,10S343.382,73.996,337.869,73.996z"/>
	</g>
</g>
<g>
	<g>
		<path d="M190.209,53.997H64.202c-5.522,0-10,4.477-10,10c0,5.523,4.478,10,10,10h126.007c5.522,0,10-4.477,10-10
			C200.209,58.474,195.731,53.997,190.209,53.997z"/>
	</g>
</g>
<g>
	<g>
		<path d="M281.438,56.929c-1.859-1.859-4.43-2.93-7.069-2.93c-2.63,0-5.21,1.07-7.07,2.93c-1.86,1.86-2.93,4.43-2.93,7.07
			c0,2.63,1.069,5.21,2.93,7.07c1.86,1.86,4.44,2.93,7.07,2.93s5.21-1.07,7.069-2.93c1.86-1.86,2.931-4.44,2.931-7.07
			C284.369,61.359,283.299,58.779,281.438,56.929z"/>
	</g>
</g>
<g>
	<g>
		<path d="M239.28,56.929c-1.869-1.869-4.449-2.93-7.069-2.93c-2.63,0-5.21,1.06-7.07,2.93c-1.87,1.86-2.93,4.43-2.93,7.07
			c0,2.63,1.06,5.21,2.93,7.07c1.86,1.86,4.43,2.93,7.07,2.93c2.63,0,5.2-1.07,7.069-2.93c1.86-1.86,2.921-4.44,2.921-7.07
			C242.201,61.359,241.14,58.789,239.28,56.929z"/>
	</g>
</g>
<g>
	<g>
		<path d="M337.869,145.993c-16.541,0-29.999,13.457-29.999,29.999s13.457,29.999,29.999,29.999
			c16.541,0,29.999-13.457,29.999-29.999S354.41,145.993,337.869,145.993z M337.869,185.991c-5.514,0-10-4.486-10-10s4.486-10,10-10
			c5.514,0,10,4.486,10,10S343.382,185.991,337.869,185.991z"/>
	</g>
</g>
<g>
	<g>
		<path d="M190.209,165.992H64.202c-5.522,0-10,4.477-10,10s4.478,10,10,10h126.007c5.522,0,10-4.477,10-10
			S195.731,165.992,190.209,165.992z"/>
	</g>
</g>
<g>
	<g>
		<path d="M281.438,168.924c-1.859-1.859-4.43-2.93-7.069-2.93c-2.63,0-5.21,1.07-7.07,2.93c-1.86,1.86-2.93,4.44-2.93,7.07
			s1.069,5.21,2.93,7.07c1.87,1.86,4.44,2.93,7.07,2.93s5.21-1.07,7.069-2.93c1.86-1.86,2.931-4.44,2.931-7.07
			C284.369,173.354,283.299,170.784,281.438,168.924z"/>
	</g>
</g>
<g>
	<g>
		<path d="M239.28,168.924c-1.869-1.869-4.439-2.93-7.069-2.93c-2.641,0-5.21,1.06-7.07,2.93c-1.87,1.86-2.93,4.43-2.93,7.07
			c0,2.63,1.06,5.21,2.93,7.07c1.86,1.86,4.43,2.93,7.07,2.93c2.63,0,5.2-1.07,7.069-2.93c1.86-1.86,2.921-4.44,2.921-7.07
			C242.201,173.354,241.14,170.784,239.28,168.924z"/>
	</g>
</g>
<g>
	<g>
		<path d="M419.993,177.991c0-23.596-12.455-44.328-31.128-55.997c18.673-11.669,31.128-32.401,31.128-55.997
			C419.993,29.606,390.387,0,353.996,0H66.01C29.619,0,0.013,29.606,0.013,65.997c0,23.596,12.455,44.328,31.128,55.997
			c-18.673,11.669-31.128,32.401-31.128,55.997c0,23.596,12.455,44.328,31.128,55.997C12.469,245.658,0.013,266.39,0.013,289.986
			c0,36.391,29.606,65.997,65.997,65.997h197.656c5.522,0,10-4.477,10-10s-4.478-10-10-10H66.009
			c-25.363,0-45.998-20.635-45.998-45.998c0-25.363,20.635-45.998,45.998-45.998h287.986c11.43,0,22.387,4.219,30.852,11.88
			c4.094,3.705,10.417,3.391,14.123-0.705c3.706-4.095,3.391-10.417-0.704-14.124c-2.93-2.651-6.071-5.008-9.376-7.069
			C407.55,222.298,419.993,201.575,419.993,177.991z M20.012,65.997c0-25.363,20.635-45.998,45.998-45.998h287.986
			c25.363,0,45.998,20.635,45.998,45.998c0,25.363-20.635,45.998-45.998,45.998H66.009C40.646,111.995,20.012,91.36,20.012,65.997z
			 M353.995,223.989H66.009c-25.364,0-45.998-20.635-45.998-45.998c0-25.363,20.635-45.998,45.998-45.998h287.986
			c25.363,0,45.998,20.635,45.998,45.998C399.993,203.354,379.358,223.989,353.995,223.989z"/>
	</g>
</g>
<g>
	<g>
		<path d="M190.209,277.986H64.202c-5.522,0-10,4.477-10,10c0,5.523,4.478,10,10,10h126.007c5.522,0,10-4.477,10-10
			C200.209,282.463,195.731,277.986,190.209,277.986z"/>
	</g>
</g>
<g>
	<g>
		<path d="M281.438,280.918c-1.859-1.87-4.439-2.93-7.069-2.93s-5.21,1.06-7.07,2.93c-1.86,1.86-2.93,4.44-2.93,7.07
			s1.069,5.2,2.93,7.07c1.86,1.86,4.44,2.93,7.07,2.93s5.21-1.07,7.069-2.93c1.861-1.86,2.931-4.44,2.931-7.07
			C284.369,285.348,283.299,282.778,281.438,280.918z"/>
	</g>
</g>
<g>
	<g>
		<path d="M239.279,280.919c-1.869-1.87-4.439-2.93-7.069-2.93c-2.64-0.001-5.209,1.06-7.07,2.93c-1.87,1.86-2.93,4.43-2.93,7.07
			c0,2.63,1.06,5.21,2.93,7.07c1.86,1.86,4.44,2.93,7.07,2.93c2.62,0,5.2-1.07,7.069-2.93c1.86-1.86,2.921-4.44,2.921-7.07
			C242.2,285.349,241.139,282.779,239.279,280.919z"/>
	</g>
</g>
<g>
	<g>
		<path d="M393.993,331.997c-34.185,0-61.997,27.812-61.997,61.997c0,34.185,27.812,61.997,61.997,61.997
			c34.185,0,61.997-27.812,61.997-61.997C455.99,359.808,428.178,331.997,393.993,331.997z M393.993,435.992
			c-23.158,0-41.998-18.84-41.998-41.998c0-23.158,18.84-41.998,41.998-41.998c23.158,0,41.998,18.84,41.998,41.998
			C435.991,417.152,417.151,435.992,393.993,435.992z"/>
	</g>
</g>
<g>
	<g>
		<path d="M504.405,367.814l-14.516-3.616l-7.021-16.939l7.703-12.814c2.365-3.936,1.746-8.976-1.5-12.222l-23.307-23.306
			c-3.248-3.247-8.288-3.865-12.223-1.5l-12.812,7.703l-16.939-7.021l-3.617-14.517c-1.109-4.456-5.111-7.583-9.703-7.583h-32.953
			c-4.592,0-8.594,3.127-9.703,7.583l-3.617,14.517l-16.939,7.021l-12.812-7.703c-3.934-2.365-8.976-1.748-12.223,1.5
			l-23.307,23.306c-3.246,3.247-3.865,8.288-1.5,12.222l7.703,12.814l-7.021,16.939l-14.516,3.616
			c-4.456,1.11-7.583,5.112-7.583,9.704v32.953c0,4.592,3.127,8.593,7.583,9.704l14.516,3.616l7.021,16.939l-7.703,12.814
			c-2.365,3.936-1.746,8.976,1.5,12.222l23.307,23.306c3.248,3.248,8.289,3.864,12.223,1.5l12.812-7.703l16.939,7.021l3.617,14.517
			c1.109,4.456,5.111,7.583,9.703,7.583h32.953c4.592,0,8.594-3.127,9.703-7.583l3.617-14.517l16.939-7.021l12.812,7.703
			c3.935,2.365,8.977,1.748,12.223-1.5l23.307-23.306c3.246-3.247,3.865-8.288,1.5-12.222l-7.703-12.814l7.021-16.939l14.516-3.616
			c4.456-1.11,7.583-5.112,7.583-9.704v-32.953C511.987,372.925,508.861,368.924,504.405,367.814z M480.164,405.602
			c-3.076,0.767-5.607,2.946-6.821,5.875l-10.88,26.254c-1.214,2.93-0.967,6.262,0.668,8.98l6.274,10.438l-12.255,12.255
			l-10.438-6.275c-2.717-1.633-6.051-1.881-8.98-0.667l-26.255,10.879c-2.929,1.214-5.109,3.745-5.875,6.821l-2.946,11.825h-17.326
			l-2.946-11.825c-0.766-3.076-2.946-5.607-5.875-6.821l-26.255-10.879c-2.933-1.215-6.264-0.966-8.98,0.667l-10.438,6.275
			l-12.255-12.255l6.274-10.438c1.635-2.718,1.882-6.05,0.668-8.98l-10.88-26.254c-1.214-2.929-3.745-5.108-6.821-5.875
			l-11.824-2.946v-17.325l11.824-2.946c3.076-0.767,5.607-2.946,6.821-5.875l10.88-26.254c1.214-2.93,0.967-6.262-0.668-8.98
			l-6.274-10.438l12.255-12.255l10.438,6.275c2.718,1.633,6.052,1.882,8.98,0.667l26.255-10.879
			c2.929-1.214,5.109-3.745,5.875-6.821l2.946-11.825h17.325l2.946,11.825c0.766,3.076,2.946,5.607,5.875,6.821l26.255,10.879
			c2.932,1.214,6.263,0.965,8.98-0.667l10.438-6.275l12.255,12.255l-6.274,10.438c-1.635,2.718-1.882,6.05-0.668,8.98l10.88,26.254
			c1.214,2.929,3.745,5.108,6.821,5.875l11.824,2.946v17.325h0.001L480.164,405.602z"/>
	</g>
</g>
<g>
</g>
<g>
</g>
<g>
</g>
<g>
</g>
<g>
</g>
<g>
</g>
<g>
</g>
<g>
</g>
<g>
</g>
<g>
</g>
<g>
</g>
<g>
</g>
<g>
</g>
<g>
</g>
<g>
</g>
</svg>
