<?xml version="1.0" encoding="iso-8859-1"?>
<!-- Generator: Adobe Illustrator 19.0.0, SVG Export Plug-In . SVG Version: 6.00 Build 0)  -->
<svg version="1.1" id="Capa_1" xmlns="http://www.w3.org/2000/svg" xmlns:xlink="http://www.w3.org/1999/xlink" x="0px" y="0px"
	 viewBox="0 0 512 512" style="enable-background:new 0 0 512 512;" xml:space="preserve">
<g>
	<g>
		<path d="M266,437.349v-49.368c0-5.523-4.477-10-10-10s-10,4.477-10,10v49.368c-16.115,4.402-27.999,19.162-27.999,36.653
			C218.002,494.954,235.048,512,256,512s37.998-17.046,37.998-37.998C293.998,456.511,282.114,441.75,266,437.349z M256,492.001
			c-9.924,0-17.999-8.075-17.999-17.999s8.075-17.999,17.999-17.999s17.999,8.075,17.999,17.999S265.924,492.001,256,492.001z"/>
	</g>
</g>
<g>
	<g>
		<path d="M501.988,463.517H331.996c-5.523,0-10,4.477-10,10c0,5.523,4.477,10,10,10h169.992c5.523,0,10-4.477,10-10
			C511.987,467.994,507.511,463.517,501.988,463.517z"/>
	</g>
</g>
<g>
	<g>
		<path d="M183.004,463.517H10.012c-5.523,0-10,4.477-10,10c0,5.523,4.477,10,10,10h172.992c5.523,0,10-4.477,10-10
			C193.003,467.994,188.526,463.517,183.004,463.517z"/>
	</g>
</g>
<g>
	<g>
		<path d="M383.994,33.998c-16.541,0-29.998,13.457-29.998,29.999s13.457,29.999,29.998,29.999
			c16.541,0,29.999-13.457,29.999-29.999S400.535,33.998,383.994,33.998z M383.994,73.996c-5.514,0-10-4.486-10-10s4.486-10,10-10
			c5.514,0,10,4.486,10,10S389.508,73.996,383.994,73.996z"/>
	</g>
</g>
<g>
	<g>
		<path d="M236.334,53.997H110.327c-5.523,0-10,4.477-10,10c0,5.523,4.477,10,10,10h126.007c5.523,0,10-4.477,10-10
			C246.333,58.474,241.857,53.997,236.334,53.997z"/>
	</g>
</g>
<g>
	<g>
		<path d="M327.567,56.929c-1.86-1.869-4.44-2.93-7.07-2.93s-5.21,1.06-7.07,2.93c-1.86,1.86-2.93,4.43-2.93,7.07
			c0,2.63,1.07,5.21,2.93,7.07c1.86,1.86,4.44,2.93,7.07,2.93s5.21-1.07,7.07-2.93c1.86-1.86,2.93-4.44,2.93-7.07
			C330.496,61.359,329.426,58.789,327.567,56.929z"/>
	</g>
</g>
<g>
	<g>
		<path d="M285.399,56.929c-1.86-1.869-4.431-2.93-7.07-2.93c-2.63,0-5.21,1.06-7.07,2.93c-1.86,1.86-2.93,4.44-2.93,7.07
			c0,2.63,1.07,5.21,2.93,7.07c1.86,1.86,4.44,2.93,7.07,2.93c2.64,0,5.21-1.07,7.07-2.93c1.87-1.86,2.93-4.44,2.93-7.07
			C288.328,61.369,287.268,58.789,285.399,56.929z"/>
	</g>
</g>
<g>
	<g>
		<path d="M383.994,145.993c-16.541,0-29.998,13.457-29.998,29.999s13.457,29.999,29.998,29.999
			c16.541,0,29.999-13.457,29.999-29.999S400.535,145.993,383.994,145.993z M383.994,185.991c-5.514,0-10-4.486-10-10
			s4.486-10,10-10c5.514,0,10,4.486,10,10S389.508,185.991,383.994,185.991z"/>
	</g>
</g>
<g>
	<g>
		<path d="M236.334,165.992H110.327c-5.523,0-10,4.477-10,10s4.477,10,10,10h126.007c5.523,0,10-4.477,10-10
			S241.857,165.992,236.334,165.992z"/>
	</g>
</g>
<g>
	<g>
		<path d="M327.567,168.924c-1.86-1.86-4.44-2.93-7.07-2.93s-5.21,1.07-7.07,2.93c-1.86,1.86-2.93,4.44-2.93,7.07
			s1.07,5.21,2.93,7.07s4.44,2.93,7.07,2.93s5.21-1.07,7.07-2.93c1.86-1.86,2.93-4.44,2.93-7.07S329.426,170.784,327.567,168.924z"
			/>
	</g>
</g>
<g>
	<g>
		<path d="M285.399,168.924c-1.86-1.859-4.431-2.93-7.07-2.93c-2.63,0-5.21,1.07-7.07,2.93c-1.86,1.86-2.93,4.43-2.93,7.07
			c0,2.63,1.07,5.21,2.93,7.07c1.87,1.86,4.44,2.93,7.07,2.93s5.21-1.07,7.07-2.93c1.87-1.86,2.93-4.44,2.93-7.07
			S287.268,170.784,285.399,168.924z"/>
	</g>
</g>
<g>
	<g>
		<path d="M466.117,177.991c0-23.596-12.455-44.328-31.128-55.997c18.673-11.669,31.128-32.401,31.128-55.997
			C466.117,29.606,436.511,0,400.12,0H112.134C75.743,0,46.137,29.606,46.137,65.997c0,23.596,12.455,44.328,31.128,55.997
			c-18.673,11.669-31.128,32.401-31.128,55.997c0,23.596,12.455,44.328,31.128,55.997c-18.673,11.669-31.128,32.401-31.128,55.997
			c0,36.391,29.606,65.997,65.997,65.997H400.12c36.391,0,65.997-29.606,65.997-65.997c0-23.596-12.455-44.328-31.128-55.997
			C453.661,222.319,466.117,201.587,466.117,177.991z M66.136,65.997c0-25.363,20.635-45.998,45.998-45.998H400.12
			c25.363,0,45.998,20.635,45.998,45.998c0,25.363-20.635,45.998-45.998,45.998H112.134C86.77,111.995,66.136,91.36,66.136,65.997z
			 M446.118,289.986c0,25.363-20.635,45.998-45.998,45.998H112.134c-25.363,0-45.998-20.635-45.998-45.998
			c0-25.363,20.634-45.998,45.998-45.998H400.12C425.483,243.988,446.118,264.623,446.118,289.986z M400.12,223.989H112.134
			c-25.364,0-45.998-20.635-45.998-45.998c0-25.363,20.635-45.998,45.998-45.998H400.12c25.363,0,45.998,20.635,45.998,45.998
			C446.118,203.354,425.483,223.989,400.12,223.989z"/>
	</g>
</g>
<g>
	<g>
		<path d="M383.994,257.987c-16.541,0-29.998,13.457-29.998,29.999c0,16.541,13.457,29.999,29.998,29.999
			c16.541,0,29.999-13.457,29.999-29.999C413.992,271.445,400.535,257.987,383.994,257.987z M383.994,297.985
			c-5.514,0-10-4.486-10-10s4.486-10,10-10c5.514,0,10,4.486,10,10S389.508,297.985,383.994,297.985z"/>
	</g>
</g>
<g>
	<g>
		<path d="M236.334,277.986H110.327c-5.523,0-10,4.477-10,10c0,5.523,4.477,10,10,10h126.007c5.523,0,10-4.477,10-10
			C246.333,282.463,241.857,277.986,236.334,277.986z"/>
	</g>
</g>
<g>
	<g>
		<path d="M327.567,280.918c-1.86-1.87-4.44-2.93-7.07-2.93s-5.21,1.06-7.07,2.93c-1.86,1.86-2.93,4.43-2.93,7.07
			c0,2.63,1.07,5.21,2.93,7.07c1.86,1.861,4.439,2.93,7.07,2.93c2.63,0,5.21-1.07,7.07-2.93c1.86-1.86,2.93-4.44,2.93-7.07
			S329.426,282.778,327.567,280.918z"/>
	</g>
</g>
<g>
	<g>
		<path d="M285.399,280.918c-1.86-1.87-4.44-2.93-7.07-2.93s-5.2,1.06-7.07,2.93c-1.86,1.86-2.93,4.44-2.93,7.07
			s1.07,5.21,2.93,7.07c1.859,1.861,4.439,2.93,7.07,2.93c2.64,0,5.21-1.07,7.07-2.93c1.87-1.86,2.93-4.44,2.93-7.07
			S287.268,282.778,285.399,280.918z"/>
	</g>
</g>
<g>
</g>
<g>
</g>
<g>
</g>
<g>
</g>
<g>
</g>
<g>
</g>
<g>
</g>
<g>
</g>
<g>
</g>
<g>
</g>
<g>
</g>
<g>
</g>
<g>
</g>
<g>
</g>
<g>
</g>
</svg>
