<?xml version="1.0" encoding="iso-8859-1"?>
<!-- Generator: Adobe Illustrator 18.0.0, SVG Export Plug-In . SVG Version: 6.00 Build 0)  -->
<!DOCTYPE svg PUBLIC "-//W3C//DTD SVG 1.1//EN" "http://www.w3.org/Graphics/SVG/1.1/DTD/svg11.dtd">
<svg version="1.1" id="Capa_1" xmlns="http://www.w3.org/2000/svg" xmlns:xlink="http://www.w3.org/1999/xlink" x="0px" y="0px"
	 viewBox="0 0 333.383 333.383" style="enable-background:new 0 0 333.383 333.383;" xml:space="preserve">
<g>
	<path d="M112.385,116.086c8.318,10.242,15.783,21.443,15.783,45.695c0,25.899-8.881,37.496-15.367,45.965
		c-4.738,6.189-12.473,16.285-14.715,65.316h42.26c-0.482-3.572-0.754-7.21-0.754-10.912c0-20.993,8.004-40.15,21.121-54.583
		c-6.472-8.452-15.228-20.065-15.228-45.786c0-24.252,7.463-35.452,15.779-45.692L112.385,116.086z"/>
	<path d="M142.192,282.563H77.733c1.797-64.254,12.135-77.763,19.189-86.976c5.528-7.219,11.245-14.684,11.245-33.805
		c0-17.788-4.686-24.933-11.306-33.085C89.81,120.012,79.467,107.276,77.717,41h118.218c-1.75,66.276-12.092,79.012-19.145,87.696
		c-6.62,8.152-11.306,15.297-11.306,33.085c0,18.174,5.164,25.817,10.422,32.728c5.626-3.748,11.745-6.803,18.235-9.067
		c-0.519-0.689-1.031-1.359-1.534-2.015c-4.593-5.999-7.123-9.302-7.123-21.646c0-12.064,2.283-14.876,6.831-20.477
		c9.29-11.438,21.743-26.774,23.631-100.719c9.347-1.907,16.379-10.174,16.379-20.085c0-11.321-9.178-20.5-20.5-20.5h-150
		c-11.322,0-20.5,9.179-20.5,20.5c0,9.911,7.032,18.178,16.379,20.085c1.888,73.945,14.342,89.281,23.631,100.719
		c4.548,5.601,6.832,8.413,6.832,20.477c0,12.343-2.53,15.647-7.124,21.646c-9.152,11.951-21.414,27.97-23.327,99.549
		c-9.353,1.903-16.392,10.173-16.392,20.087c0,11.322,9.178,20.5,20.5,20.5h105.917
		C155.472,312.942,146.392,298.731,142.192,282.563z"/>
	<path d="M220.824,190.918c-39.34,0-71.232,31.891-71.232,71.232c0,39.34,31.893,71.232,71.232,71.232
		c39.342,0,71.232-31.893,71.232-71.232C292.057,222.809,260.166,190.918,220.824,190.918z M205.049,278.691
		c0,1.744-1.414,3.156-3.156,3.156h-21.584c-1.742,0-3.154-1.412-3.154-3.156v-1.324c0-0.78,0.289-1.531,0.811-2.111l12.779-14.199
		c0.023-0.025,0.045-0.049,0.068-0.074c3.104-3.233,4.518-6.236,4.518-7.658c0-2.986-2.84-3.613-5.223-3.613
		c-2.391,0-5,1.17-6.813,3.055c-0.588,0.611-1.396,0.959-2.244,0.969c-0.834,0.012-1.662-0.326-2.262-0.925l-0.662-0.663
		c-1.217-1.217-1.234-3.184-0.041-4.422c3.188-3.301,7.68-5.271,12.022-5.271c7.465,0,12.48,4.368,12.48,10.871
		c0,3.719-2.377,8.328-6.523,12.652l-7.734,8.613h13.563c1.742,0,3.156,1.414,3.156,3.156V278.691z M231.885,268.848
		c0,1.742-1.412,3.155-3.154,3.155h-2.145v6.689c0,1.744-1.414,3.156-3.156,3.156h-0.947c-1.742,0-3.156-1.412-3.156-3.156v-6.689
		h-12.842c-1.742,0-3.156-1.413-3.156-3.155v-1.184c0-0.552,0.145-1.094,0.42-1.572l12.686-22.057
		c0.563-0.979,1.605-1.582,2.736-1.582h1.088c1.125,0,2.168,0.6,2.73,1.576c0.564,0.975,0.566,2.176,0.004,3.152l-10.105,17.564
		h6.439v-7.4c0-1.742,1.414-3.154,3.156-3.154h0.947c1.742,0,3.156,1.412,3.156,3.154v7.4h2.145c1.742,0,3.154,1.412,3.154,3.154
		V268.848z M264.496,279.709c0,1.961-1.59,3.551-3.551,3.551h-0.947c-1.959,0-3.549-1.59-3.549-3.551v-14.815
		c0-3.52-1.625-5.158-5.111-5.158c-4.498,0.099-6.816,2.79-6.816,7.998v11.975c0,1.961-1.59,3.551-3.551,3.551h-0.945
		c-1.961,0-3.551-1.59-3.551-3.551v-35.118c0-1.961,1.59-3.55,3.551-3.55h0.945c1.961,0,3.551,1.589,3.551,3.55v8.626
		c1.969-0.955,4.244-1.48,6.752-1.526c8.057-0.001,13.223,5.183,13.223,13.204V279.709z"/>
</g>
<g>
</g>
<g>
</g>
<g>
</g>
<g>
</g>
<g>
</g>
<g>
</g>
<g>
</g>
<g>
</g>
<g>
</g>
<g>
</g>
<g>
</g>
<g>
</g>
<g>
</g>
<g>
</g>
<g>
</g>
</svg>
