<?xml version="1.0" encoding="iso-8859-1"?>
<!-- Generator: Adobe Illustrator 18.0.0, SVG Export Plug-In . SVG Version: 6.00 Build 0)  -->
<!DOCTYPE svg PUBLIC "-//W3C//DTD SVG 1.1//EN" "http://www.w3.org/Graphics/SVG/1.1/DTD/svg11.dtd">
<svg version="1.1" id="Capa_1" xmlns="http://www.w3.org/2000/svg" xmlns:xlink="http://www.w3.org/1999/xlink" x="0px" y="0px"
	 viewBox="0 0 412 412" style="enable-background:new 0 0 412 412;" xml:space="preserve">
<g>
	<path d="M386.447,189.295h-6.794l-0.539-4.39c-3.966-32.244-11.767-56.893-24.549-77.573C327.4,63.366,278.804,41.993,206,41.993
		S84.599,63.365,57.432,107.331c-12.78,20.682-20.58,45.331-24.545,77.574l-0.54,4.39h-6.792C11.464,189.295,0,200.757,0,214.846
		v87.061c0,14.09,11.464,25.554,25.555,25.554h30.141c14.089,0,25.552-11.463,25.552-25.554v-87.061
		c0-7.019-2.962-13.819-8.128-18.657l-1.831-1.715l0.28-2.493c4.131-36.777,13.652-60.975,30.872-78.46
		C123.724,91.909,157.599,81.403,206,81.403c58.825,0,95.379,14.822,115.039,46.647c9.695,15.686,15.972,36.654,19.189,64.101
		l0.291,2.477l-1.804,1.722c-5.06,4.83-7.961,11.572-7.961,18.496v87.061c0,5.628,1.761,10.946,5.092,15.377l4.146,5.516
		l-6.532,2.222c-18.494,6.291-45.216,9.481-79.427,9.482c-2.979,0-6.082-0.025-9.222-0.076l-2.251-0.036l-1.465-1.709
		c-4.278-4.989-10.517-7.851-17.119-7.851H198.85c-12.455,0-22.588,10.133-22.588,22.588c0,12.455,10.133,22.587,22.588,22.587
		h25.125c5.614,0,11.01-2.097,15.196-5.904l1.473-1.34l1.991,0.039c4.022,0.08,7.64,0.119,11.062,0.119
		c65.701-0.002,106.482-10.992,124.674-33.597l1.501-1.865h6.577c14.09,0,25.553-11.463,25.553-25.554v-87.061
		C412,200.757,400.537,189.295,386.447,189.295z"/>
	<path d="M198.85,309.832h25.125c6.921,0,13.525,1.885,19.227,5.281c32.467-10.577,58.847-34.619,72.551-65.535v-34.732
		c0-9.342,3.286-18.314,9.016-25.434c-1.57-11.742-3.757-22.059-6.583-31.076c-5.636-14.813-14.12-28.221-24.786-39.555
		C278.72,106.797,253.368,96.403,206,96.403c-40.936,0-70.017,7.771-88.64,23.712c-11.343,12.423-20.104,27.241-25.447,43.605
		c-2.061,7.582-3.679,16.013-4.895,25.421c5.863,7.155,9.229,16.226,9.229,25.705v34.73c14.756,33.289,44.206,58.612,80.126,67.734
		C182.646,312.615,190.429,309.832,198.85,309.832z M232.364,171.42c0-3.303,2.677-5.982,5.98-5.982h1.593
		c3.305,0,5.98,2.68,5.98,5.982v14.531c3.32-1.611,7.152-2.494,11.375-2.572c13.572-0.001,22.276,8.73,22.276,22.246v24.955
		c0,3.304-2.68,5.982-5.979,5.982h-1.6c-3.298,0-5.978-2.679-5.978-5.982v-24.955c0-5.929-2.735-8.691-8.611-8.691
		c-7.575,0.166-11.483,4.7-11.483,13.476v20.171c0,3.304-2.676,5.982-5.98,5.982h-1.593c-3.304,0-5.98-2.679-5.98-5.982V171.42z
		 M176.525,210.291c0-0.932,0.24-1.846,0.705-2.65l21.372-37.156c0.948-1.65,2.702-2.668,4.608-2.668h1.832
		c1.896,0,3.652,1.014,4.602,2.656c0.949,1.642,0.953,3.667,0.008,5.311l-17.025,29.589h10.85v-12.466
		c0-2.934,2.381-5.313,5.314-5.313h1.596c2.936,0,5.317,2.38,5.317,5.313v12.466h3.612c2.936,0,5.315,2.38,5.315,5.317v1.594
		c0,2.935-2.379,5.314-5.315,5.314h-3.612v11.27c0,2.938-2.381,5.318-5.317,5.318h-1.596c-2.934,0-5.314-2.381-5.314-5.318v-11.27
		H181.84c-2.934,0-5.314-2.38-5.314-5.314V210.291z M137.746,234.186c-2.938,0-5.315-2.381-5.315-5.318v-2.234
		c0-1.313,0.488-2.579,1.366-3.555l21.529-23.918c0.037-0.045,0.073-0.084,0.115-0.127c5.227-5.448,7.609-10.506,7.609-12.902
		c0-5.03-4.783-6.086-8.799-6.086c-4.025,0-8.424,1.971-11.476,5.146c-0.992,1.029-2.354,1.616-3.782,1.63
		c-1.405,0.022-2.8-0.548-3.809-1.558l-1.114-1.115c-2.051-2.05-2.082-5.364-0.07-7.451c5.369-5.559,12.938-8.881,20.252-8.881
		c12.574,0,21.023,7.359,21.023,18.314c0,6.266-4.002,14.033-10.986,21.316l-13.03,14.51h22.846c2.936,0,5.317,2.383,5.317,5.316
		v1.594c0,2.938-2.381,5.318-5.317,5.318H137.746z"/>
</g>
<g>
</g>
<g>
</g>
<g>
</g>
<g>
</g>
<g>
</g>
<g>
</g>
<g>
</g>
<g>
</g>
<g>
</g>
<g>
</g>
<g>
</g>
<g>
</g>
<g>
</g>
<g>
</g>
<g>
</g>
</svg>
