<?xml version="1.0" encoding="iso-8859-1"?>
<!-- Generator: Adobe Illustrator 18.0.0, SVG Export Plug-In . SVG Version: 6.00 Build 0)  -->
<!DOCTYPE svg PUBLIC "-//W3C//DTD SVG 1.1//EN" "http://www.w3.org/Graphics/SVG/1.1/DTD/svg11.dtd">
<svg version="1.1" id="Capa_1" xmlns="http://www.w3.org/2000/svg" xmlns:xlink="http://www.w3.org/1999/xlink" x="0px" y="0px"
	 viewBox="0 0 388.738 388.738" style="enable-background:new 0 0 388.738 388.738;" xml:space="preserve">
<g>
	<path d="M194.369,197.203c24.125,0,80.846-29.033,80.846-98.603c0-9.704-0.236-19.078-1.036-27.936
		c-1.313-17.432-4.883-32.88-13.773-44.72C249.005,9.836,229.056,0,194.369,0c-34.68,0-54.628,9.832-66.03,25.937
		c-8.895,11.841-12.467,27.295-13.78,44.732c-0.799,8.856-1.036,18.229-1.036,27.932
		C113.523,168.17,170.244,197.203,194.369,197.203z M220.759,36.123c-2.354,5.951-3.534,8.926-5.89,14.877
		c-15.209-4.297-25.791-4.297-41,0c-2.356-5.951-3.534-8.926-5.891-14.877C186.998,30.365,201.74,30.365,220.759,36.123z
		 M125.551,83.517c0.931,2.037,4.888,9.869,11.013,10.604c7.041,0.844,18.728-24.936,57.805-24.998
		c39.076,0.063,50.764,25.842,57.805,24.998c6.125-0.735,10.082-8.567,11.013-10.604c0.19,4.992,0.259,10.045,0.259,15.084
		c0,34.006-15.015,55.075-27.612,66.763c-15.871,14.726-33.493,20.071-41.465,20.071c-7.972,0-25.594-5.346-41.465-20.071
		c-12.597-11.688-27.612-32.757-27.612-66.763C125.292,93.562,125.361,88.509,125.551,83.517z"/>
	<path d="M344.462,298.326c-4.127-25.664-12.624-58.723-29.668-70.473c-11.634-8.021-52.229-29.71-69.563-38.972l-0.318-0.169
		c-1.982-1.06-4.402-0.847-6.17,0.541c-9.084,7.131-19.034,11.936-29.574,14.283c-1.862,0.414-3.39,1.737-4.067,3.521
		l-10.733,28.291l-10.733-28.291c-0.677-1.783-2.205-3.107-4.067-3.521c-10.54-2.347-20.49-7.152-29.574-14.283
		c-1.768-1.388-4.188-1.601-6.17-0.541c-17.134,9.155-58.238,31.294-69.831,39.105c-19.62,13.219-28.198,61.054-29.718,70.508
		c-0.151,0.938-0.064,1.897,0.253,2.793c0.446,1.26,7.892,20.518,46.895,34.395l-0.138-12.555c-0.052-4.414,1.697-8.75,4.783-11.881
		c3.097-3.152,7.408-4.969,11.822-4.983c13.011-0.051,25.709-1.129,38.008-2.174c13.276-1.126,27.004-2.29,41.92-2.291
		c15.116,0,29.446,1.222,43.802,3.733c2.576,0.449,4.957,1.498,6.991,2.997c0.51-0.02,1.015-0.036,1.515-0.052
		c0.83-1.462,1.865-2.8,3.069-3.97c0.188-1.43,0.308-2.874,0.363-4.353l0.004-0.104l0.006-0.104
		c0.263-4.845-1.268-10.269-4.096-14.514c-1.158-1.738-2.498-3.263-3.99-4.537l-0.029-0.018c-1.501-0.979-5.015-3.269-6.669-7.791
		c-1.599-4.344-0.97-9.208,1.684-13.012c2.67-3.828,7.034-6.113,11.674-6.113c1.217,0,2.42,0.155,3.592,0.464
		c9.72,2.051,17.502,7.29,22.354,11.366c13.733,11.535,19.914,26.958,22.674,39.276c2.828,3.113,4.493,7.208,4.541,11.633
		l0.217,19.608c40.57-13.916,48.234-33.742,48.687-35.02C344.526,300.224,344.613,299.264,344.462,298.326z"/>
	<path d="M281.785,358.978c-0.68-0.664-1.435-1.217-2.239-1.674c-0.148-2.79-0.175-5.584-0.077-8.375
		c2.245-0.646,3.878-2.721,3.851-5.168l-0.3-27.094c-0.024-2.251-1.445-4.154-3.428-4.911c-2.342-13.927-8.443-27.521-19.404-36.728
		c-4.925-4.137-11.03-7.586-17.4-8.836c-0.217-0.079-0.434-0.116-0.645-0.116c-1.259,0-2.305,1.3-1.828,2.595
		c0.369,1.01,1.909,1.686,2.717,2.352c2.575,2.122,4.821,4.658,6.668,7.432c4.239,6.361,6.554,14.321,6.138,21.988
		c-0.14,3.755-0.625,7.43-1.478,11.09c-0.018,0.08-0.043,0.16-0.061,0.24c-2.414,0.526-4.209,2.689-4.181,5.258l0.039,3.535
		c-1.477-0.042-2.933-0.062-4.372-0.062c-4.383,0-8.603,0.18-12.723,0.444c-0.341-1.758-1.733-3.166-3.549-3.482
		c-15.108-2.644-28.814-3.551-41.697-3.551c-14.398,0-27.768,1.135-40.896,2.248c-12.529,1.064-25.484,2.164-38.979,2.217
		c-1.168,0.004-2.287,0.475-3.105,1.308c-0.821,0.833-1.276,1.96-1.263,3.127l0.207,18.759c0.014,1.164,0.488,2.273,1.319,3.088
		c0.004,0.004,0.007,0.006,0.011,0.01c0.818,0.794,1.912,1.239,3.049,1.239c0.029,0,0.058-0.001,0.087-0.001
		c1.661-0.03,3.313-0.044,4.959-0.044c11.721,0,23.055,0.711,34.06,1.4c11.199,0.701,22.567,1.414,34.586,1.414
		c14.721,0,30.416-1.069,47.956-4.538c1.809-0.357,3.169-1.795,3.472-3.559c2.933,0.123,5.914,0.202,8.968,0.202
		c2.651,0,5.357-0.06,8.131-0.2l0.039,3.539c0.023,2.215,1.4,4.098,3.337,4.877c0.178,2.988,0.213,5.982,0.107,8.973
		c-0.56,0.391-1.089,0.832-1.577,1.33c-2.023,2.07-3.121,4.805-3.09,7.7l0.123,11.014c0.031,2.895,1.188,5.604,3.259,7.629
		c2.04,1.996,4.727,3.091,7.579,3.091c0.04,0,0.08,0,0.121,0l14.171-0.156c2.896-0.032,5.606-1.19,7.631-3.26
		c2.024-2.07,3.122-4.805,3.09-7.699l-0.121-11.014C285.013,363.714,283.854,361.004,281.785,358.978z"/>
</g>
<g>
</g>
<g>
</g>
<g>
</g>
<g>
</g>
<g>
</g>
<g>
</g>
<g>
</g>
<g>
</g>
<g>
</g>
<g>
</g>
<g>
</g>
<g>
</g>
<g>
</g>
<g>
</g>
<g>
</g>
</svg>
