<?xml version="1.0" encoding="iso-8859-1"?>
<!-- Generator: Adobe Illustrator 18.0.0, SVG Export Plug-In . SVG Version: 6.00 Build 0)  -->
<!DOCTYPE svg PUBLIC "-//W3C//DTD SVG 1.1//EN" "http://www.w3.org/Graphics/SVG/1.1/DTD/svg11.dtd">
<svg version="1.1" id="Capa_1" xmlns="http://www.w3.org/2000/svg" xmlns:xlink="http://www.w3.org/1999/xlink" x="0px" y="0px"
	 viewBox="0 0 349 349" style="enable-background:new 0 0 349 349;" xml:space="preserve">
<g>
	<path d="M227.825,255.211V289h-162.5V58.966h162.5v34.823c2.984-0.334,6.013-0.521,9.084-0.521c5.259,0,10.398,0.521,15.384,1.48
		v-80.74C252.293,6.272,246.02,0,238.283,0H54.866C47.13,0,40.858,6.272,40.858,14.008v320.984c0,7.736,6.272,14.008,14.008,14.008
		h183.417c7.737,0,14.01-6.272,14.01-14.008v-80.74c-4.985,0.96-10.125,1.48-15.384,1.48
		C233.838,255.732,230.81,255.545,227.825,255.211z M123.575,25.5h46V34h-46V25.5z M146.575,322.184
		c-12.497,0-22.852-9.17-24.704-21.149h49.408C169.428,313.014,159.072,322.184,146.575,322.184z"/>
	<path d="M236.909,103.268c-39.341,0-71.232,31.892-71.232,71.232s31.892,71.232,71.232,71.232
		c39.343,0,71.232-31.892,71.232-71.232S276.252,103.268,236.909,103.268z M221.133,191.042c0,1.743-1.414,3.156-3.156,3.156
		h-21.584c-1.742,0-3.154-1.413-3.154-3.156v-1.325c0-0.779,0.289-1.531,0.811-2.111l12.779-14.198
		c0.023-0.025,0.045-0.05,0.068-0.074c3.104-3.233,4.518-6.237,4.518-7.659c0-2.986-2.84-3.613-5.223-3.613
		c-2.391,0-5,1.171-6.813,3.056c-0.588,0.61-1.396,0.959-2.244,0.968c-0.834,0.012-1.662-0.325-2.262-0.924l-0.662-0.663
		c-1.217-1.217-1.234-3.185-0.041-4.423c3.188-3.301,7.68-5.271,12.021-5.271c7.465,0,12.48,4.369,12.48,10.871
		c0,3.719-2.377,8.329-6.523,12.653l-7.734,8.613h13.563c1.742,0,3.156,1.413,3.156,3.155V191.042z M247.969,181.197
		c0,1.743-1.412,3.156-3.154,3.156h-2.145v6.689c0,1.743-1.414,3.156-3.156,3.156h-0.947c-1.742,0-3.156-1.413-3.156-3.156v-6.689
		h-12.842c-1.742,0-3.156-1.413-3.156-3.156v-1.183c0-0.552,0.145-1.095,0.42-1.573l12.686-22.057
		c0.563-0.979,1.605-1.582,2.736-1.582h1.088c1.125,0,2.168,0.601,2.73,1.576c0.564,0.975,0.566,2.176,0.004,3.152l-10.105,17.564
		h6.439v-7.399c0-1.742,1.414-3.155,3.156-3.155h0.947c1.742,0,3.156,1.413,3.156,3.155v7.399h2.145
		c1.742,0,3.154,1.413,3.154,3.155V181.197z M280.58,192.06c0,1.961-1.59,3.55-3.551,3.55h-0.947c-1.959,0-3.549-1.589-3.549-3.55
		v-14.814c0-3.52-1.625-5.159-5.111-5.159c-4.498,0.1-6.816,2.791-6.816,7.999v11.975c0,1.961-1.59,3.55-3.551,3.55h-0.945
		c-1.961,0-3.551-1.589-3.551-3.55v-35.118c0-1.961,1.59-3.551,3.551-3.551h0.945c1.961,0,3.551,1.59,3.551,3.551v8.625
		c1.969-0.955,4.244-1.48,6.752-1.525c8.057-0.001,13.223,5.183,13.223,13.204V192.06z"/>
</g>
<g>
</g>
<g>
</g>
<g>
</g>
<g>
</g>
<g>
</g>
<g>
</g>
<g>
</g>
<g>
</g>
<g>
</g>
<g>
</g>
<g>
</g>
<g>
</g>
<g>
</g>
<g>
</g>
<g>
</g>
</svg>
