<?xml version="1.0" encoding="iso-8859-1"?>
<!-- Generator: Adobe Illustrator 18.0.0, SVG Export Plug-In . SVG Version: 6.00 Build 0)  -->
<!DOCTYPE svg PUBLIC "-//W3C//DTD SVG 1.1//EN" "http://www.w3.org/Graphics/SVG/1.1/DTD/svg11.dtd">
<svg version="1.1" id="Capa_1" xmlns="http://www.w3.org/2000/svg" xmlns:xlink="http://www.w3.org/1999/xlink" x="0px" y="0px"
	 viewBox="0 0 370.194 370.194" style="enable-background:new 0 0 370.194 370.194;" xml:space="preserve">
<g>
	<path d="M277.213,234.933c-4.221,9.76-10.564,19.016-18.935,27.48l-3.072,3.107l-10.332,68.728l-53.27-36.62l-5.466,1.021
		c-10.138,1.896-20.589,2.856-31.063,2.856c-70.736,0-128.284-42.995-128.284-95.844c0-51.217,54.05-93.179,121.772-95.721
		c-5.644-8.223-10.63-16.215-14.77-23.764c-0.348-0.628-0.674-1.263-1-1.898c-32.376,3.652-62.353,15.239-86.079,33.533
		C16.59,141.037,0,172.236,0,205.662c0,33.425,16.59,64.624,46.713,87.85c29.091,22.43,67.574,34.783,108.36,34.783
		c10.219,0,20.426-0.792,30.422-2.357l50.092,34.434c3.738,2.566,8.109,3.923,12.64,3.923c3.075,0,6.066-0.622,8.889-1.847
		c7.1-3.081,12.029-9.491,13.188-17.158l10.112-67.271c8.827-9.545,15.756-19.889,20.7-30.801
		c-3.779-1.276-7.448-2.868-10.953-4.779C285.78,240.063,281.462,237.548,277.213,234.933z"/>
	<path d="M365.339,172.611l-33.094-33.091c-3.131-3.13-7.293-4.854-11.721-4.854c-0.561,0-1.116,0.028-1.65,0.083
		c-9.134,0.923-17.692,4.434-24.755,10.156c-1.096,0.89-2.494,1.383-3.932,1.383c-1.411,0-2.791-0.48-3.885-1.351
		c-20.286-16.33-38.823-34.878-55.116-55.146c-1.827-2.274-1.82-5.567,0.014-7.834c5.719-7.063,9.227-15.615,10.145-24.731
		c0.499-4.971-1.239-9.848-4.771-13.381L203.48,10.752C200.35,7.623,196.189,5.9,191.769,5.9c-0.537,0-1.08,0.027-1.615,0.08
		c-10.707,1.047-20.811,5.832-28.453,13.473c-14.684,14.686-17.931,37.581-7.895,55.677c25.839,47.144,87.986,115.09,147.28,147.228
		c6.814,3.718,14.541,5.68,22.36,5.68c12.426,0,24.524-4.973,33.194-13.644c7.64-7.639,12.425-17.743,13.474-28.451
		C370.602,180.994,368.861,176.136,365.339,172.611z"/>
	<path d="M90.636,207.316l-18.161,20.18c-0.74,0.823-1.152,1.892-1.152,3v1.883c0,2.477,2.008,4.485,4.484,4.485h30.674
		c2.477,0,4.484-2.009,4.484-4.485v-1.344c0-2.477-2.008-4.484-4.484-4.484H87.206l10.992-12.241
		c5.891-6.146,9.269-12.698,9.269-17.983c0-9.24-7.128-15.449-17.736-15.449c-6.171,0-12.556,2.801-17.084,7.492
		c-1.697,1.76-1.673,4.556,0.057,6.285l0.941,0.941c0.852,0.852,2.03,1.331,3.215,1.313c1.204-0.013,2.354-0.508,3.188-1.376
		c2.577-2.678,6.286-4.342,9.683-4.342c3.385,0,7.421,0.891,7.421,5.135c0,2.021-2.008,6.289-6.418,10.886
		C90.699,207.245,90.668,207.281,90.636,207.316z"/>
	<path d="M135.741,236.864h1.347c2.476,0,4.484-2.009,4.484-4.485v-9.506h3.048c2.477,0,4.484-2.008,4.484-4.484v-1.346
		c0-2.477-2.008-4.484-4.484-4.484h-3.048v-10.516c0-2.477-2.009-4.484-4.484-4.484h-1.347c-2.477,0-4.485,2.008-4.485,4.484v10.516
		h-9.15l14.36-24.961c0.799-1.388,0.797-3.096-0.005-4.48c-0.801-1.387-2.281-2.24-3.882-2.24h-1.546
		c-1.605,0-3.088,0.857-3.889,2.249l-18.026,31.345c-0.392,0.681-0.598,1.451-0.598,2.236v1.682c0,2.477,2.008,4.484,4.484,4.484
		h18.251v9.506C131.256,234.855,133.265,236.864,135.741,236.864z"/>
	<path d="M162.018,178.87h-1.345c-2.787,0-5.046,2.259-5.046,5.046v49.909c0,2.786,2.259,5.045,5.046,5.045h1.345
		c2.787,0,5.046-2.259,5.046-5.045v-17.018c0-7.402,3.295-11.228,9.686-11.368c4.956,0,7.265,2.33,7.265,7.332v21.054
		c0,2.786,2.259,5.045,5.045,5.045h1.346c2.786,0,5.045-2.259,5.045-5.045v-21.054c0-11.4-7.34-18.767-18.792-18.766
		c-3.564,0.065-6.796,0.811-9.594,2.169v-12.259C167.064,181.128,164.805,178.87,162.018,178.87z"/>
</g>
<g>
</g>
<g>
</g>
<g>
</g>
<g>
</g>
<g>
</g>
<g>
</g>
<g>
</g>
<g>
</g>
<g>
</g>
<g>
</g>
<g>
</g>
<g>
</g>
<g>
</g>
<g>
</g>
<g>
</g>
</svg>
