<?xml version="1.0" encoding="iso-8859-1"?>
<!-- Generator: Adobe Illustrator 18.0.0, SVG Export Plug-In . SVG Version: 6.00 Build 0)  -->
<!DOCTYPE svg PUBLIC "-//W3C//DTD SVG 1.1//EN" "http://www.w3.org/Graphics/SVG/1.1/DTD/svg11.dtd">
<svg version="1.1" id="Capa_1" xmlns="http://www.w3.org/2000/svg" xmlns:xlink="http://www.w3.org/1999/xlink" x="0px" y="0px"
	 viewBox="0 0 351.621 351.621" style="enable-background:new 0 0 351.621 351.621;" xml:space="preserve">
<g>
	<path d="M241.854,234.511c4.241-0.885,8.633-1.354,13.133-1.354c5.638,0,11.106,0.736,16.32,2.107V29.241
		c0-3.86-3.131-6.991-6.992-6.991h-58.709v17.399h36.248V234.511z"/>
	<path d="M71.854,316.331V39.649h36.25V22.25H49.393c-3.86,0-6.99,3.131-6.99,6.991v302.497c0,3.861,3.13,6.991,6.99,6.991h156.486
		c-5.479-6.498-9.701-14.087-12.271-22.398H71.854z"/>
	<path d="M121.107,45.13h71.494c1.658,0,3.004-1.345,3.004-3.004V12.374c0-1.659-1.346-3.004-3.004-3.004h-11.31
		c-1.788-5.439-6.9-9.37-12.938-9.37h-23c-6.037,0-11.149,3.931-12.938,9.37h-11.309c-1.66,0-3.004,1.345-3.004,3.004v29.752
		C118.104,43.785,119.447,45.13,121.107,45.13z"/>
	<path d="M93.521,76.156v16c0,1.381,1.119,2.5,2.5,2.5h16c1.381,0,2.5-1.119,2.5-2.5v-16c0-1.381-1.119-2.5-2.5-2.5h-16
		C94.641,73.656,93.521,74.775,93.521,76.156z"/>
	<path d="M220.188,76.156c0-1.381-1.119-2.5-2.5-2.5h-80.334c-1.381,0-2.5,1.119-2.5,2.5v16c0,1.381,1.119,2.5,2.5,2.5h80.334
		c1.381,0,2.5-1.119,2.5-2.5V76.156z"/>
	<path d="M114.521,126.156c0-1.381-1.119-2.5-2.5-2.5h-16c-1.381,0-2.5,1.119-2.5,2.5v16c0,1.381,1.119,2.5,2.5,2.5h16
		c1.381,0,2.5-1.119,2.5-2.5V126.156z"/>
	<path d="M220.188,126.156c0-1.381-1.119-2.5-2.5-2.5h-80.334c-1.381,0-2.5,1.119-2.5,2.5v16c0,1.381,1.119,2.5,2.5,2.5h80.334
		c1.381,0,2.5-1.119,2.5-2.5V126.156z"/>
	<path d="M114.521,176.156c0-1.381-1.119-2.5-2.5-2.5h-16c-1.381,0-2.5,1.119-2.5,2.5v16c0,1.381,1.119,2.5,2.5,2.5h16
		c1.381,0,2.5-1.119,2.5-2.5V176.156z"/>
	<path d="M220.188,176.156c0-1.381-1.119-2.5-2.5-2.5h-80.334c-1.381,0-2.5,1.119-2.5,2.5v16c0,1.381,1.119,2.5,2.5,2.5h80.334
		c1.381,0,2.5-1.119,2.5-2.5V176.156z"/>
	<path d="M112.021,223.656h-16c-1.381,0-2.5,1.119-2.5,2.5v16c0,1.381,1.119,2.5,2.5,2.5h16c1.381,0,2.5-1.119,2.5-2.5v-16
		C114.521,224.775,113.402,223.656,112.021,223.656z"/>
	<path d="M217.688,223.656h-80.334c-1.381,0-2.5,1.119-2.5,2.5v16c0,1.381,1.119,2.5,2.5,2.5h80.334c1.644,0,2.5-1.564,2.5-2.5v-16
		C220.188,224.775,219.068,223.656,217.688,223.656z"/>
	<path d="M254.986,243.156c-29.951,0-54.232,24.281-54.232,54.232c0,29.952,24.281,54.232,54.232,54.232
		c29.953,0,54.232-24.28,54.232-54.232C309.219,267.438,284.939,243.156,254.986,243.156z M280.29,290.198l-24.988,24.988
		c-1.464,1.464-3.384,2.197-5.303,2.197s-3.839-0.732-5.303-2.196l-15.012-15.011c-2.929-2.929-2.929-7.678-0.001-10.607
		c2.93-2.929,7.677-2.929,10.607,0l9.708,9.708l19.685-19.685c2.929-2.929,7.678-2.929,10.606,0
		C283.219,282.52,283.219,287.269,280.29,290.198z"/>
</g>
<g>
</g>
<g>
</g>
<g>
</g>
<g>
</g>
<g>
</g>
<g>
</g>
<g>
</g>
<g>
</g>
<g>
</g>
<g>
</g>
<g>
</g>
<g>
</g>
<g>
</g>
<g>
</g>
<g>
</g>
</svg>
