<?xml version="1.0" encoding="iso-8859-1"?>
<!-- Generator: Adobe Illustrator 18.0.0, SVG Export Plug-In . SVG Version: 6.00 Build 0)  -->
<!DOCTYPE svg PUBLIC "-//W3C//DTD SVG 1.1//EN" "http://www.w3.org/Graphics/SVG/1.1/DTD/svg11.dtd">
<svg version="1.1" id="Capa_1" xmlns="http://www.w3.org/2000/svg" xmlns:xlink="http://www.w3.org/1999/xlink" x="0px" y="0px"
	 viewBox="0 0 372.653 372.653" style="enable-background:new 0 0 372.653 372.653;" xml:space="preserve">
<g>
	<path d="M186.327,166.247c20.339,0,68.156-24.476,68.156-83.123C254.483,37.215,248.284,0,186.327,0s-68.156,37.215-68.156,83.124
		C118.171,141.771,165.988,166.247,186.327,166.247z"/>
	<path d="M334.993,333.653h-79.444c-4.083-11.078-14.744-19-27.222-19h-29.498v-20.058c99.192-2.833,113.246-39.139,113.815-40.745
		c0.268-0.754,0.341-1.564,0.214-2.354c-3.478-21.636-10.64-49.506-25.012-59.412c-9.808-6.762-44.034-25.049-58.649-32.857
		l-0.262-0.14c-1.672-0.893-3.712-0.713-5.201,0.456c-7.658,6.013-16.046,10.065-24.93,12.043c-1.569,0.35-2.858,1.465-3.429,2.968
		l-9.049,23.85l-9.049-23.85c-0.57-1.503-1.859-2.619-3.429-2.968c-8.882-1.978-17.27-6.029-24.93-12.043
		c-1.491-1.169-3.53-1.349-5.201-0.456c-14.445,7.718-49.098,26.381-58.869,32.968c-16.544,11.145-23.772,51.471-25.054,59.441
		c-0.127,0.79-0.054,1.599,0.213,2.354c0.57,1.605,14.624,37.911,113.816,40.745v20.058h-29.498c-12.478,0-23.139,7.922-27.222,19
		H37.661c-5.523,0-10,4.477-10,10c0,5.523,4.477,10,10,10h79.444c4.083,11.078,14.744,19,27.222,19h84
		c12.477,0,23.139-7.922,27.222-19h79.444c5.522,0,10-4.477,10-10C344.993,338.13,340.515,333.653,334.993,333.653z"/>
</g>
<g>
</g>
<g>
</g>
<g>
</g>
<g>
</g>
<g>
</g>
<g>
</g>
<g>
</g>
<g>
</g>
<g>
</g>
<g>
</g>
<g>
</g>
<g>
</g>
<g>
</g>
<g>
</g>
<g>
</g>
</svg>
