<?xml version="1.0" encoding="iso-8859-1"?>
<!-- Generator: Adobe Illustrator 18.0.0, SVG Export Plug-In . SVG Version: 6.00 Build 0)  -->
<!DOCTYPE svg PUBLIC "-//W3C//DTD SVG 1.1//EN" "http://www.w3.org/Graphics/SVG/1.1/DTD/svg11.dtd">
<svg version="1.1" id="Capa_1" xmlns="http://www.w3.org/2000/svg" xmlns:xlink="http://www.w3.org/1999/xlink" x="0px" y="0px"
	 viewBox="0 0 338.591 338.591" style="enable-background:new 0 0 338.591 338.591;" xml:space="preserve">
<g>
	<path d="M186.155,0c-48.783,0-93.93,23.535-122.076,61.896c7.08,2.082,13.572,5.908,18.943,11.274l0.543,0.543
		c24.002-31.67,61.799-51.032,102.59-51.032c70.928,0,128.633,57.706,128.633,128.636c0,40.993-19.313,78.662-51.008,102.611
		l2.811,2.81c4.551,4.555,7.984,9.944,10.197,15.785c37.685-28.144,60.682-72.694,60.682-121.206C337.469,67.881,269.59,0,186.155,0
		z"/>
	<path d="M248.725,274.588l-37.531-37.528c-4.13-4.131-9.782-6.201-15.714-5.604c-10.477,1.059-20.305,5.092-28.421,11.665
		c-1.113,0.91-2.552,1.418-4.033,1.418c-1.45,0-2.867-0.493-3.99-1.387c-22.968-18.488-43.955-39.489-62.399-62.435
		c-1.884-2.326-1.878-5.72,0.027-8.056c6.555-8.095,10.583-17.917,11.638-28.388c0.586-5.837-1.457-11.566-5.604-15.717
		L65.166,91.029c-3.678-3.674-8.564-5.699-13.756-5.699c-0.626,0-1.269,0.031-1.908,0.093c-12.29,1.205-23.893,6.7-32.663,15.472
		c-16.863,16.866-20.593,43.159-9.069,63.942c29.353,53.547,99.945,130.727,167.293,167.23c7.827,4.27,16.702,6.523,25.678,6.523
		c14.268,0,28.162-5.711,38.121-15.67c8.771-8.774,14.268-20.377,15.473-32.673C254.907,284.435,252.862,278.728,248.725,274.588z"
		/>
	<path d="M154.448,131.393l-21.961,24.399c-0.307,0.341-0.547,0.726-0.756,1.127c-0.402,0.769-0.635,1.619-0.635,2.5v0.017v2.258
		c0,2.996,2.426,5.424,5.42,5.424h37.088c2.994,0,5.424-2.428,5.424-5.424v-1.625c0-2.992-2.43-5.422-5.424-5.422h-23.305
		l13.291-14.801c7.123-7.431,11.209-15.353,11.209-21.742c0-11.174-8.617-18.68-21.445-18.68c-7.461,0-15.18,3.387-20.656,9.059
		c-2.051,2.128-2.021,5.508,0.07,7.599l1.137,1.139c1.031,1.03,2.451,1.609,3.887,1.589c1.457-0.015,2.846-0.613,3.854-1.664
		c3.117-3.239,7.602-5.249,11.709-5.249c4.096,0,8.975,1.077,8.975,6.208c0,2.443-2.43,7.604-7.766,13.162
		C154.524,131.308,154.489,131.349,154.448,131.393z"/>
	<path d="M209.854,102.133c-0.967-1.676-2.76-2.708-4.693-2.708h-1.869c-1.941,0-3.734,1.036-4.697,2.718l-21.801,37.901
		c-0.475,0.821-0.721,1.754-0.721,2.703v2.031c0,2.995,2.43,5.424,5.422,5.424h22.068v11.492c0,2.996,2.43,5.424,5.422,5.424h1.629
		c2.99,0,5.422-2.428,5.422-5.424v-11.492h3.684c2.996,0,5.42-2.429,5.42-5.424v-1.626c0-2.993-2.424-5.421-5.42-5.421h-3.684
		v-12.715c0-2.994-2.432-5.424-5.422-5.424h-1.629c-2.992,0-5.422,2.43-5.422,5.424v12.715h-11.068l17.367-30.182
		C210.827,105.872,210.825,103.808,209.854,102.133z"/>
	<path d="M240.754,96.998h-1.625c-3.369,0-6.102,2.73-6.102,6.101v60.346c0,3.369,2.732,6.1,6.102,6.1h1.625
		c3.367,0,6.102-2.73,6.102-6.1v-20.576c0-8.951,3.984-13.575,11.715-13.744c5.988,0,8.779,2.816,8.779,8.864v25.456
		c0,3.369,2.732,6.1,6.098,6.1h1.629c3.369,0,6.102-2.73,6.102-6.1v-25.456c0-13.784-8.875-22.69-22.721-22.69
		c-4.311,0.078-8.219,0.98-11.602,2.623v-14.822C246.856,99.729,244.122,96.998,240.754,96.998z"/>
</g>
<g>
</g>
<g>
</g>
<g>
</g>
<g>
</g>
<g>
</g>
<g>
</g>
<g>
</g>
<g>
</g>
<g>
</g>
<g>
</g>
<g>
</g>
<g>
</g>
<g>
</g>
<g>
</g>
<g>
</g>
</svg>
