<?xml version="1.0" encoding="iso-8859-1"?>
<!-- Generator: Adobe Illustrator 18.0.0, SVG Export Plug-In . SVG Version: 6.00 Build 0)  -->
<!DOCTYPE svg PUBLIC "-//W3C//DTD SVG 1.1//EN" "http://www.w3.org/Graphics/SVG/1.1/DTD/svg11.dtd">
<svg version="1.1" id="Capa_1" xmlns="http://www.w3.org/2000/svg" xmlns:xlink="http://www.w3.org/1999/xlink" x="0px" y="0px"
	 viewBox="0 0 346.633 346.633" style="enable-background:new 0 0 346.633 346.633;" xml:space="preserve">
<g>
	<path d="M186.076,217.89c-1.945,1.5-4.358,2.346-6.867,2.346h-8.24c-6.205,0-11.253-5.048-11.253-11.254
		c0-6.209,5.048-11.26,11.253-11.26h8.24c2.975,0,5.756,1.159,7.82,3.159c0.689,0.007,1.367,0.011,2.033,0.011
		c10.632,0,17.637-0.973,22.218-2.148c-0.597-1.448-0.921-3.032-0.921-4.686v-28.54c0-2.966,1.102-5.813,3.01-8.013
		c-1.021-7.925-2.865-13.97-5.61-18.418c-5.679-9.187-16.623-13.466-34.441-13.466c-29.577,0-37.703,12.088-40.122,31.803
		c1.947,2.208,3.074,5.083,3.074,8.094v28.54c0,2.372-0.689,4.581-1.863,6.458c2.868,6.333,6.755,11.546,11.041,15.741
		c9.545,9.34,21.083,13.588,27.87,13.588c6.465,0,17.244-3.853,26.503-12.292c-3.388,0.236-7,0.361-10.869,0.361
		C188.031,217.913,187.078,217.905,186.076,217.89z"/>
	<path d="M114.155,200.797h9.883c3.727,0,6.74-3.018,6.74-6.739v-28.54c0-2.487-1.352-4.652-3.351-5.82
		c2.202-23.369,11.221-39.567,45.89-39.567c19.905,0,32.335,5.106,39.112,16.069c3.938,6.38,5.829,14.623,6.72,23.532
		c-1.967,1.177-3.299,3.326-3.299,5.786v28.54c0,3.212,2.248,5.888,5.249,6.571c-4.352,2.847-13.367,5.754-32.037,5.754
		c-1.516,0-3.093-0.019-4.738-0.059c-0.961-1.846-2.889-3.111-5.115-3.111h-8.24c-3.182,0-5.762,2.584-5.762,5.768
		c0,3.185,2.58,5.763,5.762,5.763h8.24c1.922,0,3.627-0.947,4.666-2.393c1.735,0.045,3.438,0.071,5.076,0.071
		c21.045,0,34.433-3.591,39.852-10.722c0.224-0.3,0.432-0.602,0.635-0.903h3.041c3.716,0,6.732-3.018,6.732-6.739v-28.54
		c0-3.72-3.017-6.736-6.732-6.736h-3.724c-1.039-10.768-3.362-19.936-8.131-27.65c-8.581-13.889-24.056-20.642-47.307-20.642
		c-23.253,0-38.726,6.753-47.309,20.642c-4.768,7.715-7.09,16.882-8.13,27.65h-3.724c-3.715,0-6.733,3.017-6.733,6.736v28.54
		C107.422,197.779,110.44,200.797,114.155,200.797z"/>
	<path d="M264.403,0H82.229c-7.685,0-13.913,6.228-13.913,13.912v318.809c0,7.684,6.229,13.912,13.913,13.912h182.174
		c7.685,0,13.913-6.229,13.913-13.912V13.912C278.316,6.228,272.088,0,264.403,0z M150.473,25.326h45.688v8.443h-45.688V25.326z
		 M254.016,280.351c-2.469-13.099-7.032-28.148-15.338-33.872c-6.311-4.351-28.324-16.111-37.73-21.14l-0.202-0.104
		c-0.454-0.243-0.952-0.363-1.448-0.363c-0.676,0-1.349,0.223-1.9,0.658c-4.935,3.868-10.336,6.477-16.055,7.75
		c-1.004,0.226-1.829,0.944-2.195,1.912l-4.709,12.403c24.888,0.597,44.879,20.941,44.879,45.972c0,25.406-20.593,46-46,46
		s-46-20.594-46-46c0-25.031,19.992-45.376,44.881-45.972l-4.711-12.403c-0.364-0.968-1.189-1.687-2.197-1.912
		c-5.718-1.273-11.12-3.882-16.054-7.75c-0.554-0.436-1.227-0.658-1.901-0.658c-0.497,0-0.994,0.12-1.448,0.363
		c-9.303,4.968-31.605,16.98-37.902,21.227c-8.844,5.958-13.551,24.857-15.366,34.041V58.565h161.398V280.351z"/>
	<path d="M133.976,293.956c0,21.815,17.686,39.5,39.5,39.5c21.814,0,39.5-17.685,39.5-39.5c0-21.814-17.686-39.5-39.5-39.5
		C151.661,254.456,133.976,272.142,133.976,293.956z M164.458,302.745c0,0.979-0.794,1.772-1.772,1.772h-12.122
		c-0.978,0-1.77-0.793-1.77-1.772v-0.744c0-0.439,0.161-0.859,0.456-1.185l7.175-7.975c0.013-0.013,0.025-0.028,0.037-0.041
		c1.743-1.816,2.538-3.504,2.538-4.301c0-1.678-1.594-2.029-2.933-2.029c-1.342,0-2.81,0.658-3.825,1.717
		c-0.33,0.342-0.784,0.537-1.26,0.543c-0.469,0.006-0.936-0.184-1.271-0.519l-0.372-0.373c-0.683-0.683-0.691-1.787-0.022-2.482
		c1.791-1.855,4.313-2.961,6.751-2.961c4.19,0,7.009,2.453,7.009,6.104c0,2.088-1.335,4.677-3.662,7.105l-4.344,4.837h7.615
		c0.979,0,1.772,0.793,1.772,1.77V302.745z M182.104,283.596c0-1.102,0.895-1.993,1.994-1.993h0.531
		c1.101,0,1.994,0.892,1.994,1.993v4.844c1.104-0.536,2.385-0.831,3.791-0.856c4.523,0,7.425,2.91,7.425,7.414v8.32
		c0,1.101-0.894,1.992-1.995,1.992h-0.531c-1.1,0-1.992-0.892-1.992-1.992v-8.32c0-1.976-0.913-2.896-2.87-2.896
		c-2.526,0.055-3.827,1.566-3.827,4.49v6.726c0,1.101-0.893,1.992-1.994,1.992h-0.531c-1.1,0-1.994-0.892-1.994-1.992V283.596z
		 M174.531,283.28c0.317,0.548,0.319,1.222,0.001,1.771l-5.673,9.863h3.616v-4.155c0-0.978,0.793-1.772,1.772-1.772h0.531
		c0.979,0,1.773,0.794,1.773,1.772v4.155h1.204c0.979,0,1.77,0.794,1.77,1.771v0.532c0,0.979-0.792,1.772-1.77,1.772h-1.204v3.756
		c0,0.979-0.794,1.772-1.773,1.772h-0.531c-0.98,0-1.772-0.793-1.772-1.772v-3.756h-7.211c-0.979,0-1.772-0.793-1.772-1.772v-0.664
		c0-0.31,0.079-0.614,0.234-0.884l7.125-12.385c0.314-0.55,0.899-0.889,1.535-0.889h0.612
		C173.63,282.396,174.216,282.732,174.531,283.28z"/>
</g>
<g>
</g>
<g>
</g>
<g>
</g>
<g>
</g>
<g>
</g>
<g>
</g>
<g>
</g>
<g>
</g>
<g>
</g>
<g>
</g>
<g>
</g>
<g>
</g>
<g>
</g>
<g>
</g>
<g>
</g>
</svg>
