<?xml version="1.0" encoding="iso-8859-1"?>
<!-- Generator: Adobe Illustrator 18.0.0, SVG Export Plug-In . SVG Version: 6.00 Build 0)  -->
<!DOCTYPE svg PUBLIC "-//W3C//DTD SVG 1.1//EN" "http://www.w3.org/Graphics/SVG/1.1/DTD/svg11.dtd">
<svg version="1.1" id="Capa_1" xmlns="http://www.w3.org/2000/svg" xmlns:xlink="http://www.w3.org/1999/xlink" x="0px" y="0px"
	 viewBox="0 0 412 412" style="enable-background:new 0 0 412 412;" xml:space="preserve">
<g>
	<path d="M87.019,189.141c5.863,7.155,9.229,16.226,9.229,25.705v26.239c4.008-0.853,8.616-1.716,13.82-2.508
		c2.045-9.677,10.144-17.12,20.143-18.172c3.061-8.413,5.987-17.421,8.686-27.028c1.736-6.189,3.285-12.338,4.676-18.422
		c-6.553-4.076-10.912-11.337-10.912-19.615c0-1.305,0.111-2.576,0.318-3.82c-11.059-7.092-20.146-13.501-27.171-18.73
		C96.22,146.281,90.225,164.324,87.019,189.141z"/>
	<path d="M119.473,118.378c6.568,4.825,14.845,10.618,24.75,16.956c1.941-1.123,4.063-1.967,6.309-2.488
		c1.017-10.709,1.331-20.813,0.902-30.042C138.651,106.429,128.037,111.608,119.473,118.378z"/>
	<path d="M157.844,198.701c-2.625,9.359-5.674,18.823-9.062,28.139c2.411,2.355,4.314,5.236,5.513,8.458
		c22.949-0.062,52.624,2.243,87.533,10.181c-5.188-11.05-9.352-21.877-12.711-32.34c-9.92-1.891-17.591-10.118-18.627-20.313
		c-14.975-6.53-28.45-13.178-40.279-19.493c-2.055,1.651-4.406,2.965-6.957,3.837C161.66,184.359,159.854,191.561,157.844,198.701z"
		/>
	<path d="M178.84,155.34c0,0.09-0.011,0.186-0.011,0.281c11.216,6.009,24.019,12.344,38.229,18.59
		c0.744-0.746,1.528-1.439,2.36-2.076c-1.332-8.643-2.152-16.771-2.602-24.254c-1.219-20.297,0.032-37.793,1.867-51.213
		c-4.043-0.174-8.267-0.265-12.684-0.265c-12.827,0-24.483,0.768-35.027,2.306c0.752,11.712,0.339,24.71-1.084,38.383
		C175.334,141.314,178.84,147.917,178.84,155.34z"/>
	<path d="M302.901,284.957c-6.607-2.58-13.111-4.982-19.482-7.17c3.77,5.265,7.784,10.44,11.995,15.553
		C298.03,290.657,300.531,287.863,302.901,284.957z"/>
	<path d="M223.975,309.832c9.483,0,18.378,3.525,25.16,9.649c1.654,0.015,3.288,0.022,4.896,0.022c1.497,0,2.952-0.011,4.401-0.023
		c7.855-3.636,15.279-8.046,22.151-13.162c-10.336-12.511-19.056-25.076-26.413-37.513c-40.2-10.866-74.538-14.015-101.59-13.769
		c-4.015,6.832-11.435,11.416-19.921,11.416c-0.365,0-0.723-0.008-1.088-0.027c-4.945,9.557-10.24,18.393-15.781,26.098
		c14.369,14.978,32.428,26.377,52.715,32.749c6.844-9.352,17.893-15.44,30.344-15.44H223.975z"/>
	<path d="M96.247,265.848c2.003,3.671,4.181,7.235,6.532,10.669c3.624-5.405,7.324-11.593,10.996-18.561
		c-7.084,1.051-12.948,2.243-17.528,3.32V265.848z"/>
	<path d="M315.753,265.823v-39.001c-24.121-5.166-46.589-11.734-67.114-18.971c-0.193,0.164-0.38,0.332-0.574,0.49
		c4.873,15.018,11.211,29.581,19.021,43.654c15.012,4.332,30.809,9.703,47.298,16.321
		C314.856,267.497,315.298,266.656,315.753,265.823z"/>
	<path d="M324.769,189.412c-3.073-22.983-8.495-40.54-16.493-53.48c-8.652-14.007-25.161-31.821-69.91-37.614
		c-1.792,12.653-3.092,29.577-1.846,49.235c0.439,6.883,1.157,13.684,2.134,20.411c10.032,2.308,17.558,11.144,17.874,21.791
		c18.473,6.459,38.573,12.334,60.045,17.081C317.876,200.449,320.703,194.463,324.769,189.412z"/>
	<path d="M386.447,189.295h-6.795l-0.54-4.39c-3.966-32.243-11.766-56.893-24.548-77.573C327.4,63.366,278.804,41.993,206,41.993
		S84.599,63.365,57.432,107.331c-12.781,20.683-20.58,45.332-24.545,77.574l-0.54,4.39h-6.792C11.464,189.295,0,200.757,0,214.846
		v87.061c0,14.09,11.464,25.554,25.555,25.554h30.141c14.089,0,25.552-11.463,25.552-25.554v-87.061
		c0-7.019-2.962-13.819-8.128-18.657l-1.831-1.715l0.28-2.493c4.131-36.777,13.652-60.975,30.872-78.46
		C123.724,91.909,157.599,81.403,206,81.403c58.825,0,95.379,14.822,115.039,46.647c9.694,15.685,15.971,36.653,19.189,64.101
		l0.291,2.477l-1.804,1.722c-5.06,4.83-7.961,11.571-7.961,18.496v87.061c0,5.628,1.761,10.946,5.092,15.377l4.146,5.516
		l-6.532,2.222c-18.494,6.291-45.216,9.481-79.427,9.482c-2.979,0-6.082-0.025-9.222-0.076l-2.251-0.036l-1.465-1.709
		c-4.278-4.989-10.517-7.851-17.119-7.851H198.85c-12.455,0-22.588,10.133-22.588,22.588c0,12.455,10.133,22.587,22.588,22.587
		h25.125c5.613,0,11.01-2.097,15.196-5.904l1.473-1.34l1.991,0.039c4.022,0.08,7.64,0.119,11.062,0.119
		c65.701-0.002,106.482-10.992,124.674-33.597l1.501-1.865h6.577c14.09,0,25.553-11.463,25.553-25.554v-87.061
		C412,200.757,400.537,189.295,386.447,189.295z"/>
</g>
<g>
</g>
<g>
</g>
<g>
</g>
<g>
</g>
<g>
</g>
<g>
</g>
<g>
</g>
<g>
</g>
<g>
</g>
<g>
</g>
<g>
</g>
<g>
</g>
<g>
</g>
<g>
</g>
<g>
</g>
</svg>
