<?xml version="1.0" encoding="iso-8859-1"?>
<!-- Generator: Adobe Illustrator 18.0.0, SVG Export Plug-In . SVG Version: 6.00 Build 0)  -->
<!DOCTYPE svg PUBLIC "-//W3C//DTD SVG 1.1//EN" "http://www.w3.org/Graphics/SVG/1.1/DTD/svg11.dtd">
<svg version="1.1" id="Capa_1" xmlns="http://www.w3.org/2000/svg" xmlns:xlink="http://www.w3.org/1999/xlink" x="0px" y="0px"
	 viewBox="0 0 397.295 397.295" style="enable-background:new 0 0 397.295 397.295;" xml:space="preserve">
<g>
	<path d="M394.725,283.512c-1.41-1.951-3.671-3.106-6.078-3.106h-11.855V77.893c0-7.869-6.402-14.272-14.271-14.272H34.776
		c-7.869,0-14.271,6.402-14.271,14.272v202.513H8.647c-2.406,0-4.668,1.155-6.078,3.106c-2.408,3.332-4.022,9.573-0.637,16.197
		c5.107,9.994,19.935,17.543,45.332,23.076c33.148,7.225,84.082,10.887,151.383,10.887s118.233-3.662,151.383-10.887
		c25.397-5.533,40.225-13.082,45.332-23.076C398.747,293.086,397.134,286.845,394.725,283.512z M84.118,268.966
		c-14.203,0-25.715-11.514-25.715-25.717c0-14.201,11.512-25.715,25.715-25.715c14.202,0,25.716,11.514,25.716,25.715
		C109.834,257.452,98.32,268.966,84.118,268.966z M259.647,316.313c-4.971,0-9-4.029-9-9s4.029-9,9-9c4.971,0,9,4.029,9,9
		S264.618,316.313,259.647,316.313z M292.278,316.313c-4.971,0-9-4.029-9-9s4.029-9,9-9s9,4.029,9,9
		S297.249,316.313,292.278,316.313z M322.804,316.313c-4.971,0-9-4.029-9-9s4.029-9,9-9s9,4.029,9,9
		S327.775,316.313,322.804,316.313z M348.648,277.278H127.623l10.022-17.361c0.791-1.369,1.002-2.965,0.592-4.492
		c-0.408-1.529-1.389-2.807-2.758-3.598l-6.412-3.702c0.172-1.602,0.267-3.229,0.267-4.876c0-1.647-0.094-3.273-0.267-4.875
		l6.412-3.702c1.369-0.79,2.35-2.067,2.758-3.595c0.41-1.529,0.199-3.125-0.592-4.494l-12.328-21.355
		c-1.055-1.827-3.021-2.963-5.135-2.963c-1.033,0-2.055,0.275-2.955,0.795l-6.432,3.713c-2.61-1.915-5.434-3.552-8.426-4.878v-7.414
		c0-3.266-2.656-5.922-5.922-5.922h-24.66c-3.266,0-5.922,2.656-5.922,5.922v7.414c-2.992,1.326-5.816,2.963-8.426,4.878
		l-6.432-3.713c-0.726-0.419-1.533-0.671-2.36-0.755V91.751h300V277.278z"/>
	<path d="M105.743,170.243c-0.271,1.012-0.133,2.067,0.391,2.974l8.158,14.131c0.699,1.21,2,1.96,3.398,1.96
		c0.684,0,1.359-0.182,1.955-0.525l4.255-2.456c1.728,1.267,3.597,2.351,5.577,3.228v4.904c0,1.047,0.407,2.031,1.147,2.771
		c0.741,0.74,1.724,1.146,2.771,1.146h16.317c2.161,0,3.919-1.757,3.919-3.918v-4.905c1.98-0.877,3.849-1.961,5.576-3.228
		l4.256,2.457c0.595,0.344,1.27,0.525,1.955,0.525c1.397,0,2.699-0.75,3.397-1.96l8.157-14.131c0.523-0.906,0.663-1.962,0.393-2.974
		c-0.271-1.012-0.919-1.855-1.826-2.379l-4.243-2.449c0.114-1.061,0.177-2.136,0.177-3.227s-0.063-2.166-0.177-3.227l4.243-2.45
		c0.907-0.523,1.555-1.368,1.826-2.38c0.271-1.012,0.131-2.066-0.393-2.973l-8.157-14.132c-0.698-1.21-2-1.96-3.397-1.96
		c-0.685,0-1.36,0.182-1.955,0.525l-4.258,2.458c-1.727-1.267-3.595-2.35-5.574-3.227v-4.907c0-2.16-1.758-3.919-3.919-3.919
		h-16.317c-2.16,0-3.918,1.759-3.918,3.919v4.906c-1.98,0.877-3.848,1.96-5.575,3.227l-4.257-2.457
		c-0.596-0.344-1.271-0.525-1.955-0.525c-1.398,0-2.699,0.75-3.398,1.96l-8.158,14.131c-0.523,0.907-0.662,1.962-0.391,2.974
		c0.271,1.012,0.918,1.856,1.824,2.38l4.243,2.45c-0.114,1.06-0.177,2.136-0.177,3.227c0,1.09,0.063,2.166,0.177,3.227l-4.243,2.449
		C106.661,168.387,106.013,169.231,105.743,170.243z M141.554,145.171c9.398,0,17.017,7.619,17.017,17.018
		c0,9.396-7.618,17.016-17.017,17.016c-9.397,0-17.016-7.619-17.016-17.016C124.538,152.79,132.156,145.171,141.554,145.171z"/>
</g>
<g>
</g>
<g>
</g>
<g>
</g>
<g>
</g>
<g>
</g>
<g>
</g>
<g>
</g>
<g>
</g>
<g>
</g>
<g>
</g>
<g>
</g>
<g>
</g>
<g>
</g>
<g>
</g>
<g>
</g>
</svg>
