<?xml version="1.0" encoding="iso-8859-1"?>
<!-- Generator: Adobe Illustrator 18.0.0, SVG Export Plug-In . SVG Version: 6.00 Build 0)  -->
<!DOCTYPE svg PUBLIC "-//W3C//DTD SVG 1.1//EN" "http://www.w3.org/Graphics/SVG/1.1/DTD/svg11.dtd">
<svg version="1.1" id="Capa_1" xmlns="http://www.w3.org/2000/svg" xmlns:xlink="http://www.w3.org/1999/xlink" x="0px" y="0px"
	 viewBox="0 0 397.295 397.295" style="enable-background:new 0 0 397.295 397.295;" xml:space="preserve">
<g>
	<path d="M394.725,283.512c-1.41-1.951-3.671-3.106-6.078-3.106h-11.855V77.893c0-7.869-6.402-14.272-14.271-14.272H34.776
		c-7.869,0-14.271,6.402-14.271,14.272v202.513H8.647c-2.406,0-4.668,1.155-6.078,3.106c-2.408,3.332-4.022,9.573-0.637,16.197
		c5.107,9.994,19.935,17.543,45.332,23.076c33.148,7.225,84.082,10.887,151.383,10.887s118.233-3.662,151.383-10.887
		c25.397-5.533,40.225-13.082,45.332-23.076C398.747,293.086,397.134,286.845,394.725,283.512z M259.647,316.313
		c-4.971,0-9-4.029-9-9s4.029-9,9-9c4.971,0,9,4.029,9,9S264.618,316.313,259.647,316.313z M292.278,316.313c-4.971,0-9-4.029-9-9
		s4.029-9,9-9s9,4.029,9,9S297.249,316.313,292.278,316.313z M322.804,316.313c-4.971,0-9-4.029-9-9s4.029-9,9-9s9,4.029,9,9
		S327.775,316.313,322.804,316.313z M348.648,277.278h-300V91.751h300V277.278z"/>
	<path d="M176.2,198.38h11.852l4.743,37.6c0.145,1.133,1.021,2.033,2.151,2.205c0.13,0.02,0.256,0.029,0.384,0.029
		c0.989,0,1.905-0.578,2.324-1.499l25.765-56.86c0.357-0.789,0.293-1.706-0.179-2.436c-0.47-0.729-1.278-1.172-2.148-1.172h-12.934
		l11.229-36.529c0.238-0.774,0.095-1.616-0.387-2.266c-0.48-0.652-1.244-1.037-2.055-1.037h-40.172
		c-1.401,0-2.541,1.127-2.555,2.528l-0.572,56.857c-0.008,0.683,0.259,1.338,0.737,1.821
		C174.866,198.107,175.517,198.38,176.2,198.38z"/>
</g>
<g>
</g>
<g>
</g>
<g>
</g>
<g>
</g>
<g>
</g>
<g>
</g>
<g>
</g>
<g>
</g>
<g>
</g>
<g>
</g>
<g>
</g>
<g>
</g>
<g>
</g>
<g>
</g>
<g>
</g>
</svg>
