<?xml version="1.0" encoding="iso-8859-1"?>
<!-- Generator: Adobe Illustrator 18.0.0, SVG Export Plug-In . SVG Version: 6.00 Build 0)  -->
<!DOCTYPE svg PUBLIC "-//W3C//DTD SVG 1.1//EN" "http://www.w3.org/Graphics/SVG/1.1/DTD/svg11.dtd">
<svg version="1.1" id="Capa_1" xmlns="http://www.w3.org/2000/svg" xmlns:xlink="http://www.w3.org/1999/xlink" x="0px" y="0px"
	 viewBox="0 0 397.295 397.295" style="enable-background:new 0 0 397.295 397.295;" xml:space="preserve">
<g>
	<path d="M394.725,283.512c-1.41-1.951-3.671-3.106-6.078-3.106h-11.855V77.893c0-7.869-6.402-14.272-14.271-14.272H34.776
		c-7.869,0-14.271,6.402-14.271,14.272v202.513H8.647c-2.406,0-4.668,1.155-6.078,3.106c-2.408,3.332-4.022,9.573-0.637,16.197
		c5.107,9.994,19.935,17.543,45.332,23.076c33.148,7.225,84.082,10.887,151.383,10.887s118.233-3.662,151.383-10.887
		c25.397-5.533,40.225-13.082,45.332-23.076C398.747,293.086,397.134,286.845,394.725,283.512z M259.647,316.313
		c-4.971,0-9-4.029-9-9s4.029-9,9-9c4.971,0,9,4.029,9,9S264.618,316.313,259.647,316.313z M292.278,316.313c-4.971,0-9-4.029-9-9
		s4.029-9,9-9s9,4.029,9,9S297.249,316.313,292.278,316.313z M322.804,316.313c-4.971,0-9-4.029-9-9s4.029-9,9-9s9,4.029,9,9
		S327.775,316.313,322.804,316.313z M348.648,277.278h-300V91.751h300V277.278z"/>
	<path d="M182.028,191.952v34.362c0,15.071,12.262,27.333,27.332,27.333c15.072,0,27.335-12.262,27.335-27.333v-9.059
		c5.383-2.994,8.841-8.72,8.841-15.012c0-9.467-7.701-17.171-17.17-17.171c-9.468,0-17.173,7.704-17.173,17.171
		c0,6.293,3.46,12.021,8.843,15.012v9.059c0,5.885-4.788,10.676-10.676,10.676c-5.887,0-10.676-4.791-10.676-10.676v-34.362
		c17.478-4.159,30.266-21.033,30.266-40.669c0-6.365-1.273-12.436-3.798-18.061c0.433-2.538-0.063-5.154-1.431-7.384l-4.344-7.081
		c-1.963-3.199-5.378-5.109-9.134-5.109c-1.974-0.001-3.907,0.546-5.593,1.581c-5.036,3.091-6.618,9.697-3.53,14.73l4.346,7.079
		c1.28,2.092,3.201,3.644,5.453,4.461c1.141,3.07,1.717,6.353,1.717,9.783c0,13.973-9.994,25.34-22.28,25.34
		s-22.282-11.367-22.282-25.34c0-3.428,0.577-6.71,1.72-9.784c2.249-0.816,4.168-2.369,5.451-4.461l4.344-7.077
		c3.088-5.034,1.509-11.641-3.521-14.731c-1.689-1.036-3.621-1.583-5.597-1.583c-3.757,0-7.173,1.911-9.136,5.109l-4.346,7.078
		c-1.371,2.233-1.867,4.851-1.432,7.391c-2.523,5.627-3.799,11.693-3.799,18.058C151.759,170.919,164.55,187.793,182.028,191.952z
		 M228.37,195.681c3.615,0,6.561,2.946,6.561,6.563c0,3.619-2.945,6.563-6.561,6.563c-3.625,0-6.568-2.943-6.568-6.563
		C221.802,198.628,224.745,195.681,228.37,195.681z"/>
</g>
<g>
</g>
<g>
</g>
<g>
</g>
<g>
</g>
<g>
</g>
<g>
</g>
<g>
</g>
<g>
</g>
<g>
</g>
<g>
</g>
<g>
</g>
<g>
</g>
<g>
</g>
<g>
</g>
<g>
</g>
</svg>
