<?xml version="1.0" encoding="iso-8859-1"?>
<!-- Generator: Adobe Illustrator 18.0.0, SVG Export Plug-In . SVG Version: 6.00 Build 0)  -->
<!DOCTYPE svg PUBLIC "-//W3C//DTD SVG 1.1//EN" "http://www.w3.org/Graphics/SVG/1.1/DTD/svg11.dtd">
<svg version="1.1" id="Capa_1" xmlns="http://www.w3.org/2000/svg" xmlns:xlink="http://www.w3.org/1999/xlink" x="0px" y="0px"
	 viewBox="0 0 349.464 349.464" style="enable-background:new 0 0 349.464 349.464;" xml:space="preserve">
<g>
	<path d="M219.721,5.476c-10.465,0-20.638,0.962-30.385,2.766c8.874,4.003,16.515,9.247,22.968,15.749
		c2.459-0.119,4.93-0.2,7.417-0.2c30.632,0,59.241,9.052,80.56,25.488c19.906,15.348,30.869,35.317,30.869,56.23
		c0,17.178-7.338,33.678-21.223,47.716l-4.201,4.248l-0.887,5.908l-7.428,49.413l-36.613-25.169l-6.266-4.307l-7.473,1.396
		c-8.924,1.667-18.122,2.513-27.339,2.513c-7.4,0-14.679-0.54-21.769-1.574c-0.752,0.136-1.499,0.273-2.269,0.399l-6.967,6.351
		c8.116,4.34,16.354,8.769,24.117,12.998c2.281,0.092,4.577,0.141,6.888,0.141c10.581,0,20.855-0.984,30.702-2.824l49.97,34.352
		c1.385,0.951,3.001,1.438,4.633,1.438c1.105,0,2.212-0.223,3.257-0.678c2.584-1.12,4.408-3.494,4.83-6.281l9.836-65.443
		c16.633-16.817,26.516-37.816,26.516-60.595C349.464,50.263,291.378,5.476,219.721,5.476z"/>
	<path d="M244.903,233.739c-10.519-7.253-47.238-26.872-62.919-35.25l-0.328-0.176c-0.759-0.406-1.591-0.605-2.418-0.605
		c-1.126,0-2.245,0.37-3.167,1.094c-8.227,6.456-17.232,10.806-26.766,12.929c-1.684,0.375-3.065,1.573-3.68,3.188l-9.714,25.604
		l-9.717-25.604c-0.611-1.614-1.994-2.813-3.681-3.188c-9.533-2.123-18.538-6.473-26.767-12.93c-0.922-0.723-2.04-1.093-3.166-1.093
		c-0.827,0-1.657,0.2-2.417,0.606c-15.504,8.283-52.702,28.315-63.202,35.396C9.197,245.677,1.441,288.966,0.065,297.522
		c-0.137,0.849-0.057,1.717,0.229,2.528c0.637,1.793,16.932,43.938,135.618,43.938c118.681,0,134.981-42.145,135.614-43.938
		c0.29-0.812,0.367-1.68,0.23-2.528C268.022,274.293,260.33,244.371,244.903,233.739z"/>
	<path d="M37.261,157.561H53.74c6.204,0,11.233-5.031,11.233-11.237V98.727c0-4.146-2.251-7.757-5.591-9.704
		c3.679-38.975,18.72-65.982,76.529-65.982c33.197,0,53.922,8.516,65.219,26.799c6.572,10.639,9.733,24.381,11.211,39.241
		c-3.287,1.96-5.495,5.542-5.495,9.646v47.597c0,5.352,3.745,9.819,8.753,10.953c-7.267,4.748-22.306,9.602-53.438,9.602
		c-2.524,0-5.151-0.032-7.892-0.098c-1.605-3.081-4.819-5.189-8.533-5.189h-13.734c-5.31,0-9.618,4.304-9.618,9.615
		c0,5.31,4.309,9.613,9.618,9.613h13.734c3.208,0,6.044-1.577,7.788-3.992c2.893,0.073,5.725,0.119,8.462,0.119
		c35.097,0,57.41-5.99,66.443-17.877c0.386-0.506,0.735-1.01,1.058-1.509h5.075c6.204,0,11.233-5.031,11.233-11.237V98.727
		c0-6.204-5.029-11.235-11.233-11.235h-6.199c-1.742-17.955-5.608-33.24-13.557-46.105c-14.311-23.163-40.119-34.423-78.896-34.423
		c-38.779,0-64.586,11.26-78.898,34.423c-7.949,12.864-11.813,28.148-13.558,46.105h-6.194c-6.206,0-11.238,5.031-11.238,11.235
		v47.597C26.023,152.53,31.055,157.561,37.261,157.561z"/>
	<path d="M71.025,157.091c15.43,34.075,48.482,48.907,64.887,48.907c10.782,0,28.76-6.414,44.197-20.487
		c-5.644,0.394-11.678,0.594-18.122,0.594c-1.509,0-3.097-0.013-4.797-0.041c-3.248,2.503-7.273,3.914-11.453,3.914h-13.734
		c-10.353,0-18.774-8.42-18.774-18.77c0-10.351,8.422-18.773,18.774-18.773h13.734c4.96,0,9.602,1.934,13.044,5.269
		c1.145,0.013,2.273,0.019,3.381,0.019c17.728,0,29.414-1.626,37.06-3.587c-0.992-2.413-1.532-5.054-1.532-7.811V98.727
		c0-4.952,1.837-9.698,5.015-13.364c-1.695-13.201-4.773-23.278-9.363-30.71c-9.466-15.32-27.715-22.455-57.429-22.455
		c-24.651,0-41.673,5.117-52.039,15.644c-8.036,8.16-12.693,19.805-14.868,37.39c3.247,3.681,5.126,8.475,5.126,13.496v47.597
		C74.13,150.279,72.981,153.962,71.025,157.091z"/>
</g>
<g>
</g>
<g>
</g>
<g>
</g>
<g>
</g>
<g>
</g>
<g>
</g>
<g>
</g>
<g>
</g>
<g>
</g>
<g>
</g>
<g>
</g>
<g>
</g>
<g>
</g>
<g>
</g>
<g>
</g>
</svg>
