<?xml version="1.0" encoding="iso-8859-1"?>
<!-- Generator: Adobe Illustrator 18.0.0, SVG Export Plug-In . SVG Version: 6.00 Build 0)  -->
<!DOCTYPE svg PUBLIC "-//W3C//DTD SVG 1.1//EN" "http://www.w3.org/Graphics/SVG/1.1/DTD/svg11.dtd">
<svg version="1.1" id="Capa_1" xmlns="http://www.w3.org/2000/svg" xmlns:xlink="http://www.w3.org/1999/xlink" x="0px" y="0px"
	 viewBox="0 0 326.682 326.682" style="enable-background:new 0 0 326.682 326.682;" xml:space="preserve">
<g>
	<path d="M148.616,184.241c22.54,0,75.532-27.126,75.532-92.121c0-50.878-6.869-92.12-75.532-92.12S73.084,41.242,73.084,92.12
		C73.084,157.115,126.076,184.241,148.616,184.241z"/>
	<path d="M181.615,245.774c0-24.89,12.134-46.936,30.8-60.578c-6.311-3.402-12.017-6.451-16.238-8.706l-0.34-0.182
		c-1.854-0.99-4.113-0.791-5.764,0.505c-8.49,6.664-17.786,11.154-27.629,13.345c-1.739,0.388-3.167,1.624-3.8,3.29l-10.028,26.431
		l-10.028-26.431c-0.633-1.666-2.061-2.902-3.8-3.29c-9.843-2.19-19.139-6.681-27.631-13.346c-1.65-1.295-3.91-1.494-5.764-0.504
		c-16.005,8.551-54.4,29.23-65.239,36.535C17.82,225.198,9.81,269.885,8.39,278.718c-0.141,0.876-0.059,1.772,0.237,2.608
		c0.656,1.852,17.477,45.355,139.989,45.355c37.11,0,64.51-3.995,84.713-9.611C203.312,307.272,181.615,279.064,181.615,245.774z"/>
	<path d="M231.076,260.246c11.336-0.031,25.994,1.106,43.236,5.029c-2.563-5.46-4.619-10.808-6.279-15.977
		c-4.898-0.933-8.69-4.997-9.201-10.033c-7.395-3.226-14.051-6.507-19.895-9.628c-1.016,0.817-2.176,1.464-3.436,1.896
		c-0.789,3.551-1.682,7.108-2.674,10.635c-1.297,4.622-2.801,9.298-4.477,13.899C229.545,257.232,230.485,258.655,231.076,260.246z"
		/>
	<path d="M219.18,252.89c1.512-4.157,2.955-8.605,4.289-13.352c0.859-3.057,1.623-6.093,2.311-9.1
		c-3.236-2.013-5.391-5.599-5.391-9.689c0-0.644,0.057-1.273,0.158-1.887c-5.648-3.621-10.268-6.891-13.783-9.52
		c-7.475,10.213-11.893,22.805-11.893,36.431c0,6.429,0.984,12.628,2.807,18.456c2.707-0.725,6.592-1.611,11.553-2.366
		C210.239,257.086,214.24,253.41,219.18,252.89z"/>
	<path d="M226.102,210.868c0.959-0.554,2.006-0.972,3.115-1.228c0.516-5.445,0.67-10.578,0.43-15.243
		c-0.074-1.424-0.184-2.762-0.324-4.018c-6.016,2.971-11.48,6.889-16.193,11.565C216.481,204.431,220.832,207.496,226.102,210.868z"
		/>
	<path d="M238.778,211.736c2.689,2.086,4.422,5.347,4.422,9.014c0,0.046-0.004,0.093-0.004,0.14
		c5.539,2.969,11.861,6.098,18.881,9.181c0.367-0.368,0.756-0.71,1.168-1.025c-0.658-4.269-1.064-8.283-1.285-11.98
		c-0.857-14.266,0.754-25.747,2.154-32.58c-2.459-0.298-4.959-0.455-7.498-0.455c-6.242,0-12.268,0.93-17.945,2.652
		C239.772,193.893,239.74,202.508,238.778,211.736z"/>
	<path d="M300.781,288.915c1.293-1.324,2.527-2.704,3.699-4.14c-3.264-1.276-6.477-2.462-9.623-3.543
		C296.719,283.834,298.701,286.391,300.781,288.915z"/>
	<path d="M273.658,186.414c-1.273,6.244-2.816,17.093-1.967,30.489c0.217,3.399,0.57,6.76,1.053,10.083
		c4.955,1.14,8.674,5.504,8.83,10.765c11.133,3.892,23.447,7.369,36.754,9.91c0.02-0.627,0.03-1.256,0.03-1.887
		C318.359,217.586,299.469,193.811,273.658,186.414z"/>
	<path d="M277.393,246.93c2.408,7.419,5.539,14.613,9.395,21.564c7.415,2.139,15.218,4.791,23.362,8.061
		c3.377-5.86,5.814-12.328,7.119-19.198c-14.377-2.7-27.648-6.458-39.594-10.67C277.582,246.77,277.489,246.852,277.393,246.93z"/>
	<path d="M230.229,269.996c-1.982,3.373-5.646,5.64-9.84,5.64c-0.18,0-0.357-0.006-0.537-0.014
		c-2.443,4.719-5.059,9.083-7.795,12.891c11.238,11.713,27.045,19.005,44.559,19.005c13.807,0,26.555-4.533,36.84-12.191
		c-5.104-6.18-9.413-12.389-13.045-18.53C260.553,271.429,243.592,269.874,230.229,269.996z"/>
	<path d="M205.631,280.604c1.789-2.67,3.617-5.726,5.43-9.166c-4.064,0.602-7.322,1.298-9.709,1.892
		C202.615,275.858,204.045,278.289,205.631,280.604z"/>
</g>
<g>
</g>
<g>
</g>
<g>
</g>
<g>
</g>
<g>
</g>
<g>
</g>
<g>
</g>
<g>
</g>
<g>
</g>
<g>
</g>
<g>
</g>
<g>
</g>
<g>
</g>
<g>
</g>
<g>
</g>
</svg>
