<?xml version="1.0" encoding="iso-8859-1"?>
<!-- Generator: Adobe Illustrator 18.0.0, SVG Export Plug-In . SVG Version: 6.00 Build 0)  -->
<!DOCTYPE svg PUBLIC "-//W3C//DTD SVG 1.1//EN" "http://www.w3.org/Graphics/SVG/1.1/DTD/svg11.dtd">
<svg version="1.1" id="Capa_1" xmlns="http://www.w3.org/2000/svg" xmlns:xlink="http://www.w3.org/1999/xlink" x="0px" y="0px"
	 viewBox="0 0 385.194 385.194" style="enable-background:new 0 0 385.194 385.194;" xml:space="preserve">
<g>
	<path d="M385.154,325.087c-2.852-17.734-10.668-60.521-21.637-74.756c-5.69-7.389-28.137-19.602-32.58-21.975
		c-1.076-0.574-2.393-0.46-3.357,0.295c-4.947,3.883-10.365,6.501-16.107,7.779c-1.014,0.226-1.846,0.947-2.213,1.918l-5.848,15.407
		l-5.844-15.407c-0.369-0.971-1.199-1.692-2.213-1.918c-5.742-1.277-11.158-3.896-16.107-7.779
		c-0.963-0.755-2.279-0.871-3.359-0.295c-4.441,2.375-26.891,14.588-32.58,21.975c-10.969,14.236-18.785,57.021-21.637,74.756
		c-0.143,0.893,0.111,1.805,0.699,2.49c0.584,0.689,1.445,1.086,2.35,1.086h157.387c0.904,0,1.762-0.397,2.35-1.086
		C385.043,326.892,385.299,325.98,385.154,325.087z"/>
	<path d="M259.842,167.49c-4.865,2.59-10.664,6.902-13.215,13.516c-2.482,6.434-1.434,13.584,3.104,21.27
		c-0.313,1.38-0.084,2.876,0.789,4.126l1.846,2.638c0.971,1.388,2.563,2.216,4.258,2.216c1.068,0,2.096-0.323,2.975-0.939
		c1.137-0.795,1.895-1.985,2.137-3.35c0.24-1.367-0.065-2.745-0.859-3.883l-1.848-2.64c-0.691-0.988-1.701-1.686-2.836-2.009
		c-3.293-5.591-4.156-10.532-2.555-14.701c1.115-2.912,3.297-5.247,5.695-7.063c-0.033,1.575-0.051,3.173-0.051,4.788
		c0,27.442,19.76,49.688,44.131,49.688c24.375,0,44.133-22.245,44.133-49.688c0-27.441-4.012-49.686-44.133-49.686
		C270.389,131.774,261.836,146.852,259.842,167.49z"/>
	<path d="M229.712,242.693H193.33h-64.352H28.152V77.757h266v40.32c2.461-0.173,5.003-0.27,7.648-0.27
		c7.558,0,14.39,0.76,20.512,2.243V62.384c0-4.794-3.889-8.68-8.682-8.68H8.682C3.885,53.704,0,57.59,0,62.384v195.684
		c0,4.794,3.885,8.682,8.682,8.682h107.727c-1.918,11.574-6.324,32.146-15.645,52.439c-1.234,2.685-1.016,5.815,0.582,8.307
		c1.598,2.49,4.352,3.994,7.307,3.994h97.729c-0.838-2.607-1.085-5.398-0.639-8.172c1.569-9.76,3.533-20.54,5.913-31.12
		c-2.918-10.152-4.715-19.142-5.761-25.449h12.635C221.77,256.918,225.49,248.44,229.712,242.693z"/>
	<path d="M186.758,149.204l-21.78-36.973c-1.199-2.034-3.405-3.253-5.768-3.199c-2.36,0.061-4.502,1.396-5.596,3.49l-32.715,62.663
		l-18.775-23.534c-1.233-1.546-3.104-2.446-5.081-2.446h-49c-3.59,0-6.5,2.91-6.5,6.5c0,3.59,2.91,6.5,6.5,6.5h45.87l23.049,28.89
		c1.239,1.554,3.114,2.446,5.08,2.446c0.207,0,0.416-0.01,0.625-0.03c2.188-0.211,4.12-1.514,5.138-3.462l31.915-61.13
		l17.723,30.085c1.168,1.983,3.299,3.201,5.601,3.201h53.551c3.59,0,6.5-2.91,6.5-6.5c0-3.59-2.91-6.5-6.5-6.5H186.758z"/>
</g>
<g>
</g>
<g>
</g>
<g>
</g>
<g>
</g>
<g>
</g>
<g>
</g>
<g>
</g>
<g>
</g>
<g>
</g>
<g>
</g>
<g>
</g>
<g>
</g>
<g>
</g>
<g>
</g>
<g>
</g>
</svg>
