<?xml version="1.0" encoding="iso-8859-1"?>
<!-- Generator: Adobe Illustrator 18.0.0, SVG Export Plug-In . SVG Version: 6.00 Build 0)  -->
<!DOCTYPE svg PUBLIC "-//W3C//DTD SVG 1.1//EN" "http://www.w3.org/Graphics/SVG/1.1/DTD/svg11.dtd">
<svg version="1.1" id="Capa_1" xmlns="http://www.w3.org/2000/svg" xmlns:xlink="http://www.w3.org/1999/xlink" x="0px" y="0px"
	 viewBox="0 0 270 270" style="enable-background:new 0 0 270 270;" xml:space="preserve">
<g>
	<path d="M172.611,137.904c1.178-0.611,2.371-1.189,3.576-1.74l44.773-44.774l15.092,15.094c1.512,1.511,3.729,2.069,5.775,1.459
		c2.045-0.613,3.592-2.299,4.025-4.389l18.963-91.503c0.396-1.915-0.197-3.903-1.582-5.288c-1.383-1.384-3.371-1.977-5.287-1.58
		l-91.502,18.963c-2.092,0.434-3.777,1.98-4.387,4.025c-0.613,2.046-0.053,4.263,1.457,5.773l15.094,15.094l-44.725,44.724
		c-0.557,1.223-1.141,2.434-1.76,3.627C144.612,111.848,158.17,125.414,172.611,137.904z"/>
	<path d="M262.65,195.597l-38.488-38.483c-4.736-4.738-11.041-7.35-17.74-7.35c-0.836,0-1.678,0.043-2.512,0.128
		c-11.746,1.185-22.76,5.71-31.857,13.078c-0.248,0.201-0.574,0.312-0.91,0.312c-0.193,0-0.563-0.039-0.896-0.307
		c-23.23-18.699-44.496-39.973-63.186-63.225c-0.41-0.506-0.408-1.301,0.006-1.807c7.361-9.092,11.879-20.104,13.061-31.84
		c0.756-7.523-1.877-14.904-7.219-20.253L74.418,7.367c-4.738-4.736-11.035-7.346-17.73-7.346c-0.814,0-1.639,0.041-2.449,0.119
		C40.451,1.49,27.445,7.649,17.611,17.483C-1.289,36.388-5.461,65.873,7.453,89.164c30.441,55.537,103.703,135.626,173.59,173.508
		c8.766,4.781,18.715,7.307,28.773,7.307c15.986,0,31.553-6.406,42.717-17.57c9.832-9.832,15.992-22.843,17.346-36.629
		C270.615,208.285,267.978,200.931,262.65,195.597z"/>
</g>
<g>
</g>
<g>
</g>
<g>
</g>
<g>
</g>
<g>
</g>
<g>
</g>
<g>
</g>
<g>
</g>
<g>
</g>
<g>
</g>
<g>
</g>
<g>
</g>
<g>
</g>
<g>
</g>
<g>
</g>
</svg>
