<?xml version="1.0" encoding="iso-8859-1"?>
<!-- Generator: Adobe Illustrator 18.0.0, SVG Export Plug-In . SVG Version: 6.00 Build 0)  -->
<!DOCTYPE svg PUBLIC "-//W3C//DTD SVG 1.1//EN" "http://www.w3.org/Graphics/SVG/1.1/DTD/svg11.dtd">
<svg version="1.1" id="Capa_1" xmlns="http://www.w3.org/2000/svg" xmlns:xlink="http://www.w3.org/1999/xlink" x="0px" y="0px"
	 viewBox="0 0 349.667 349.667" style="enable-background:new 0 0 349.667 349.667;" xml:space="preserve">
<g>
	<path d="M157.798,197.204c24.125,0,80.846-29.034,80.846-98.603c0-54.457-7.35-98.602-80.846-98.602
		C84.304,0,76.952,44.145,76.952,98.602C76.952,168.17,133.673,197.204,157.798,197.204z M89.034,82.145
		c5.68-10.983,17.963-23.674,44.381-23.111c0,0,15.747,38.194,93.05,21.042c0.311,6.101,0.41,12.326,0.41,18.526
		c0,34.005-15.016,55.075-27.612,66.762c-15.871,14.727-33.493,20.072-41.465,20.072c-7.972,0-25.594-5.345-41.465-20.072
		c-12.597-11.687-27.612-32.757-27.612-66.762C88.721,93.101,88.8,87.581,89.034,82.145z"/>
	<path d="M142.249,126.03c9.088-4.743,12.227-20.58,12.361-21.287c0.004-0.011,0.289-1.062,3.176-1.062l0.23-0.002
		c2.227,0,2.922,0.732,2.992,1.227c0.135,0.669,3.393,16.453,12.336,21.124c6.025,3.144,13.225,3.803,18.205,3.803
		c6.387,0,12.801-1.118,15.963-2.784c6.82-3.591,7.426-6.189,9.906-21.238c0.094-0.567,0.254-1.046,0.477-1.422
		c0.07-0.118,0.193-0.252,0.361-0.438c0.652-0.703,1.637-1.767,1.578-4.232c-0.008-0.311,0.004-0.846,0.017-1.443l0.004-0.143
		c0.023-1.048,0.047-2.222,0.01-2.893c-0.217-3.694-3.42-5.183-5.043-5.446c-6.121-1.258-13.029-1.896-20.533-1.896
		c-3.236,0-6.58,0.122-9.935,0.363l-0.588,0.042c-6.838,0.483-10.605,0.75-15.186,2.801c-0.926,0.415-1.955,0.914-3.063,1.482
		c-1.572,0.811-3.912,1.717-5.107,1.98c-2.014,0.444-3.212,0.447-5.23-0.001c-1.191-0.263-3.529-1.169-5.107-1.979
		c-1.109-0.57-2.139-1.069-3.061-1.482c-4.58-2.051-8.348-2.317-15.195-2.803l-0.576-0.04c-3.351-0.239-6.691-0.361-9.928-0.361
		c-7.514,0-14.41,0.635-20.459,1.88c-1.678,0.274-4.906,1.77-5.121,5.457c-0.043,0.678-0.016,1.908,0.008,2.891l0.008,0.432
		c0.01,0.482,0.018,0.903,0.012,1.16c-0.061,2.469,0.924,3.531,1.6,4.262c0.15,0.164,0.27,0.295,0.34,0.412
		c0.221,0.369,0.381,0.848,0.475,1.42c2.482,15.047,3.088,17.646,9.904,21.236c3.158,1.666,9.574,2.784,15.967,2.784
		C129.025,129.833,136.224,129.174,142.249,126.03z M168.39,99.607c0.164-0.402,2.072-3.951,18.895-4.931
		c2.908-0.169,5.367-0.251,7.516-0.251c9.369,0,12.289,1.592,13.967,4.158c1.002,1.535,1.707,4.911,1.715,6.982
		c0.02,4.695-0.895,13.031-7.246,16.111c-3.006,1.455-7.541,2.324-12.133,2.324c-8.734,0-15.678-2.906-18.572-7.775
		C166.286,105.736,168.372,99.656,168.39,99.607z M105.111,105.568c0.008-2.076,0.715-5.455,1.713-6.985
		c1.678-2.567,4.6-4.159,13.967-4.159c2.152,0,4.609,0.082,7.514,0.252c16.479,0.96,18.672,4.379,18.93,5.015
		c0.021,0.061,1.979,6.202-4.17,16.536c-2.896,4.869-9.84,7.775-18.57,7.775c-4.594,0-9.131-0.869-12.137-2.324
		C106.009,118.601,105.091,110.264,105.111,105.568z"/>
	<path d="M341.364,334.289l-36.244-75.098v-42.654h1.455c3.26,0,5.902-2.643,5.902-5.902v-16.666c0-3.261-2.642-5.903-5.902-5.903
		h-55.555c-3.26,0-5.902,2.643-5.902,5.903v16.666c0,3.26,2.643,5.902,5.902,5.902h1.455v42.654l-36.242,75.098
		c-1.01,2.092-0.871,4.555,0.361,6.52c1.234,1.967,3.393,3.16,5.713,3.16h112.98c2.32,0,4.478-1.193,5.715-3.16
		C342.234,338.844,342.372,336.381,341.364,334.289z M265.298,263.666c0.441-0.914,0.67-1.916,0.67-2.933v-44.196h25.66v44.196
		c0,1.017,0.229,2.019,0.67,2.933l2.688,5.566h-32.375L265.298,263.666z M274.831,313.413c-2.193,0-3.969-1.777-3.969-3.968
		c0-2.192,1.775-3.969,3.969-3.969c2.189,0,3.967,1.776,3.967,3.969C278.798,311.636,277.021,313.413,274.831,313.413z
		 M274.831,293.175c-3.07,0-5.557-2.487-5.557-5.556c0-3.068,2.486-5.556,5.557-5.556c3.066,0,5.555,2.487,5.555,5.556
		C280.386,290.688,277.898,293.175,274.831,293.175z M300.624,311.826c-3.947,0-7.143-3.199-7.143-7.144
		c0-3.946,3.195-7.143,7.143-7.143c3.945,0,7.141,3.197,7.141,7.143C307.765,308.627,304.569,311.826,300.624,311.826z"/>
	<path d="M206.327,329.508l35.148-72.832v-32.098c-4.439-3.049-7.357-8.162-7.357-13.943v-8.064
		c-9.885-5.367-19.201-10.344-25.471-13.694l-0.307-0.164c-1.981-1.059-4.402-0.847-6.169,0.541
		c-9.084,7.131-19.034,11.938-29.574,14.284c-1.807,0.402-3.304,1.662-4.009,3.374l-10.791,26.206l-10.791-26.206
		c-0.705-1.712-2.201-2.971-4.009-3.374c-10.54-2.347-20.49-7.153-29.574-14.284c-1.768-1.388-4.189-1.6-6.17-0.541
		c-17.139,9.159-58.251,31.303-69.829,39.107c-19.621,13.218-28.199,61.052-29.72,70.507c-0.15,0.938-0.063,1.897,0.253,2.792
		c0.703,1.982,18.709,48.548,149.84,48.548c18.822,0,35.304-0.963,49.748-2.612c-0.09-0.134-0.184-0.264-0.27-0.401
		C204.012,341.449,203.657,335.039,206.327,329.508z M110.22,275.666H58.886v-10.81h32.949v-10.423h1.313v-0.788
		c0-1.887,1.533-3.414,3.408-3.414c1.887,0,3.418,1.527,3.418,3.414v0.788h1.313v0.832c0.121-0.011,0.232-0.019,0.355-0.019
		c2.311,0,4.182,1.875,4.182,4.18v5.43h4.396V275.666z"/>
	<path d="M101.642,257.818c-0.123,0-0.234,0.019-0.355,0.042v6.995h1.969v-5.43C103.255,258.537,102.525,257.818,101.642,257.818z"
		/>
</g>
<g>
</g>
<g>
</g>
<g>
</g>
<g>
</g>
<g>
</g>
<g>
</g>
<g>
</g>
<g>
</g>
<g>
</g>
<g>
</g>
<g>
</g>
<g>
</g>
<g>
</g>
<g>
</g>
<g>
</g>
</svg>
