<?xml version="1.0" encoding="iso-8859-1"?>
<!-- Generator: Adobe Illustrator 18.0.0, SVG Export Plug-In . SVG Version: 6.00 Build 0)  -->
<!DOCTYPE svg PUBLIC "-//W3C//DTD SVG 1.1//EN" "http://www.w3.org/Graphics/SVG/1.1/DTD/svg11.dtd">
<svg version="1.1" id="Capa_1" xmlns="http://www.w3.org/2000/svg" xmlns:xlink="http://www.w3.org/1999/xlink" x="0px" y="0px"
	 viewBox="0 0 310 310" style="enable-background:new 0 0 310 310;" xml:space="preserve">
<path d="M300.563,179.311L282.4,168.825c0.49-4.543,0.748-9.154,0.748-13.825s-0.258-9.282-0.748-13.825l18.163-10.486
	c3.882-2.241,6.658-5.86,7.819-10.191c1.158-4.331,0.564-8.854-1.678-12.735l-34.942-60.524c-2.99-5.18-8.565-8.396-14.552-8.396
	c-2.93,0-5.825,0.778-8.374,2.251L230.621,51.61c-7.402-5.429-15.406-10.083-23.893-13.842V16.783
	C206.728,7.529,199.196,0,189.943,0h-69.887c-9.255,0-16.784,7.529-16.784,16.783v20.984c-8.486,3.759-16.49,8.414-23.894,13.843
	L61.163,41.094c-2.549-1.473-5.444-2.25-8.374-2.25c-5.986,0-11.562,3.215-14.553,8.395l-34.94,60.523
	c-2.242,3.881-2.837,8.405-1.678,12.736c1.161,4.33,3.937,7.949,7.819,10.191l18.162,10.486c-0.49,4.544-0.748,9.155-0.748,13.826
	s0.258,9.282,0.748,13.826L9.437,179.311c-3.883,2.241-6.658,5.86-7.819,10.191c-1.159,4.331-0.564,8.855,1.678,12.735l34.94,60.524
	c2.991,5.18,8.566,8.395,14.553,8.395c2.93,0,5.825-0.777,8.374-2.25l18.216-10.517c7.403,5.429,15.407,10.084,23.894,13.843v20.985
	c0,4.482,1.746,8.695,4.917,11.866c3.171,3.169,7.386,4.916,11.867,4.916h69.887c9.253,0,16.785-7.529,16.785-16.782v-20.986
	c8.486-3.759,16.49-8.413,23.893-13.842l18.216,10.517c2.549,1.473,5.444,2.25,8.374,2.25c5.986,0,11.562-3.215,14.552-8.395
	l34.942-60.523c2.241-3.881,2.836-8.405,1.678-12.736C307.222,185.172,304.445,181.553,300.563,179.311z M155,246.102
	c-17.585,0-34.002-4.987-47.926-13.617c15.875-14.423,31.365-30.339,46.245-52.034c1.186-1.729,1.148-3.979-0.009-5.654
	c4.639-4.17,9.293-8.604,13.906-13.597l2.844,2.844c1.781,1.782,4.398,2.217,6.591,1.312c2.218,2.013,4.334,4.132,6.378,6.322
	l-0.135,0.699c-0.16,0.838-0.242,1.688-0.242,2.525c0,3.56,1.387,6.907,3.904,9.426l8.859,8.857
	c2.517,2.518,5.864,3.904,9.425,3.904c3.561,0,6.908-1.386,9.426-3.904l11.398-11.398c2.517-2.519,3.904-5.866,3.904-9.425
	s-1.387-6.906-3.904-9.423l-8.858-8.859c-3.313-3.309-8.073-4.703-12.832-3.452l-0.592,0.156c-2.036-1.913-4.012-3.888-5.893-5.953
	c1.307-2.308,1.002-5.282-0.965-7.248l-21.793-21.793c-1.811-1.81-4.478-2.221-6.691-1.257
	c-12.98-9.463-28.751-15.668-44.987-14.437c-7.296,0.555-15.001,2.604-21.176,6.655c-1.665,0.755-1.694,3.194-0.04,3.982
	c1.104,0.527,2.896-0.15,4.081-0.249c3.78-0.323,7.624-0.05,11.331,0.737c8.507,1.801,16.72,6.433,22.477,12.998
	c2.874,3.164,5.4,6.537,7.621,10.191c0.049,0.08,0.093,0.163,0.141,0.244c-1.543,2.348-1.283,5.535,0.781,7.6l2.845,2.845
	c-4.992,4.612-9.425,9.266-13.596,13.904c-1.675-1.156-3.926-1.194-5.654-0.009c-21.938,15.049-37.967,30.718-52.516,46.777
	c-9.756-14.508-15.45-31.974-15.45-50.77c0-50.313,40.787-91.102,91.102-91.102c50.316,0,91.102,40.789,91.102,91.102
	S205.316,246.102,155,246.102z"/>
<g>
</g>
<g>
</g>
<g>
</g>
<g>
</g>
<g>
</g>
<g>
</g>
<g>
</g>
<g>
</g>
<g>
</g>
<g>
</g>
<g>
</g>
<g>
</g>
<g>
</g>
<g>
</g>
<g>
</g>
</svg>
