<?xml version="1.0" encoding="iso-8859-1"?>
<!-- Generator: Adobe Illustrator 18.0.0, SVG Export Plug-In . SVG Version: 6.00 Build 0)  -->
<!DOCTYPE svg PUBLIC "-//W3C//DTD SVG 1.1//EN" "http://www.w3.org/Graphics/SVG/1.1/DTD/svg11.dtd">
<svg version="1.1" id="Capa_1" xmlns="http://www.w3.org/2000/svg" xmlns:xlink="http://www.w3.org/1999/xlink" x="0px" y="0px"
	 viewBox="0 0 340.279 340.279" style="enable-background:new 0 0 340.279 340.279;" xml:space="preserve">
<g>
	<path d="M329.922,196.825l-19.937-11.511c0.538-4.986,0.821-10.048,0.821-15.175s-0.283-10.189-0.821-15.175l19.937-11.511
		c4.261-2.46,7.308-6.433,8.582-11.187c1.272-4.754,0.618-9.719-1.842-13.979l-38.354-66.436c-3.283-5.685-9.402-9.216-15.974-9.216
		c-3.216,0-6.393,0.855-9.192,2.472l-19.994,11.543c-8.126-5.959-16.912-11.068-26.227-15.195V18.423
		C226.92,8.265,218.653,0,208.497,0h-76.715c-10.158,0-18.422,8.265-18.422,18.423v23.033c-9.316,4.127-18.102,9.235-26.229,15.196
		L67.137,45.108c-2.799-1.616-5.977-2.471-9.191-2.471c-6.572,0-12.691,3.53-15.975,9.215L3.618,118.288
		c-2.461,4.26-3.115,9.226-1.842,13.979c1.274,4.754,4.321,8.727,8.582,11.187l19.937,11.511
		c-0.538,4.986-0.821,10.048-0.821,15.175s0.283,10.188,0.821,15.175l-19.937,11.511c-4.261,2.46-7.308,6.433-8.582,11.187
		c-1.273,4.754-0.619,9.72,1.842,13.979l38.353,66.436c3.283,5.685,9.402,9.215,15.975,9.215c3.215,0,6.393-0.854,9.191-2.471
		l19.994-11.543c8.127,5.96,16.913,11.069,26.229,15.196v23.034c0,4.92,1.916,9.546,5.396,13.025
		c3.481,3.479,8.106,5.396,13.025,5.396h76.715c10.156,0,18.423-8.265,18.423-18.422v-23.035
		c9.315-4.126,18.102-9.235,26.227-15.195l19.994,11.543c2.799,1.617,5.977,2.471,9.192,2.471c6.571,0,12.69-3.53,15.974-9.215
		l38.354-66.436c2.46-4.26,3.114-9.226,1.842-13.979C337.229,203.258,334.182,199.285,329.922,196.825z M170.139,270.14
		c-55.229,0-100-44.773-100-100s44.771-100,100-100c55.23,0,100,44.773,100,100S225.37,270.14,170.139,270.14z"/>
	<path d="M239.083,117.796c-0.591-0.15-1.218,0.022-1.649,0.454l-18.058,18.114c-1.083-0.44-3.814-1.939-8.868-6.976
		c-5.053-5.037-6.56-7.763-7.003-8.845l18.056-18.113c0.431-0.432,0.602-1.06,0.45-1.65c-0.152-0.591-0.605-1.058-1.191-1.228
		c-2.604-0.756-5.302-1.139-8.02-1.139c-7.674,0-14.885,2.993-20.302,8.427c-5.408,5.425-8.38,12.63-8.37,20.289
		c0.006,3.947,0.81,7.768,2.324,11.288l-21.887,21.888l-22.416-22.416c-0.02-0.038-0.034-0.079-0.056-0.117l-10.251-17.567
		c-0.177-0.303-0.417-0.563-0.706-0.764l-17.285-11.994c-0.955-0.663-2.249-0.546-3.07,0.275l-7.703,7.702
		c-0.822,0.822-0.938,2.115-0.275,3.071l11.993,17.285c0.2,0.288,0.461,0.529,0.764,0.706l17.571,10.248
		c0.034,0.02,0.071,0.026,0.105,0.044l22.428,22.427l-16.868,16.868c-3.532-1.518-7.367-2.322-11.325-2.322
		c-7.676,0-14.887,2.993-20.305,8.428c-7.398,7.418-10.158,18.279-7.202,28.343c0.172,0.585,0.64,1.037,1.232,1.187
		c0.591,0.151,1.218-0.021,1.649-0.455l18.056-18.112c1.083,0.439,3.814,1.939,8.868,6.975c5.053,5.038,6.559,7.763,7,8.845
		l-18.056,18.114c-0.431,0.432-0.602,1.06-0.449,1.65c0.152,0.591,0.605,1.058,1.191,1.228c2.603,0.755,5.301,1.138,8.018,1.138
		c7.675,0,14.886-2.993,20.305-8.428c5.408-5.424,8.379-12.629,8.368-20.288c-0.006-3.947-0.81-7.769-2.324-11.288l16.863-16.863
		l7.146,7.145l-4.872,4.872c-1.062,1.06-1.647,2.468-1.647,3.966c-0.001,1.499,0.584,2.908,1.645,3.967l34.413,34.412
		c1.057,1.06,2.464,1.643,3.963,1.643c1.498,0,2.909-0.583,3.97-1.643l18.641-18.645c1.06-1.059,1.644-2.468,1.645-3.967
		c0-1.499-0.584-2.907-1.644-3.966L199.535,177.6c-1.059-1.059-2.467-1.643-3.966-1.643c-1.499,0-2.908,0.584-3.967,1.645
		l-4.869,4.869l-7.146-7.145l21.891-21.892c3.532,1.519,7.366,2.322,11.325,2.323c0.001,0,0.001,0,0.002,0
		c7.674,0,14.885-2.994,20.302-8.43c7.397-7.415,10.158-18.275,7.206-28.342C240.143,118.398,239.675,117.946,239.083,117.796z
		 M195.188,189.842c1.226-1.228,3.215-1.228,4.443,0l22.074,22.076c1.228,1.226,1.228,3.214,0,4.441
		c-1.228,1.225-3.213,1.225-4.439,0l-22.078-22.076C193.967,193.055,193.967,191.067,195.188,189.842z M185.195,199.829
		c1.23-1.224,3.221-1.224,4.448,0.002l22.075,22.077c1.225,1.225,1.226,3.214,0,4.439c-1.23,1.227-3.219,1.227-4.442,0
		l-22.081-22.077C183.972,203.046,183.972,201.058,185.195,199.829z"/>
</g>
<g>
</g>
<g>
</g>
<g>
</g>
<g>
</g>
<g>
</g>
<g>
</g>
<g>
</g>
<g>
</g>
<g>
</g>
<g>
</g>
<g>
</g>
<g>
</g>
<g>
</g>
<g>
</g>
<g>
</g>
</svg>
