<?xml version="1.0" encoding="iso-8859-1"?>
<!-- Generator: Adobe Illustrator 18.0.0, SVG Export Plug-In . SVG Version: 6.00 Build 0)  -->
<!DOCTYPE svg PUBLIC "-//W3C//DTD SVG 1.1//EN" "http://www.w3.org/Graphics/SVG/1.1/DTD/svg11.dtd">
<svg version="1.1" id="Capa_1" xmlns="http://www.w3.org/2000/svg" xmlns:xlink="http://www.w3.org/1999/xlink" x="0px" y="0px"
	 viewBox="0 0 349.667 349.667" style="enable-background:new 0 0 349.667 349.667;" xml:space="preserve">
<g>
	<path d="M160.305,197.204c24.125,0,80.846-29.033,80.846-98.604c0-9.705-0.236-19.08-1.036-27.938
		c-1.313-17.428-4.883-32.874-13.768-44.712C214.946,9.839,194.996,0,160.305,0C125.619,0,105.67,9.836,94.27,25.944
		c-8.891,11.84-12.462,27.289-13.774,44.722c-0.8,8.857-1.036,18.231-1.036,27.934C79.459,168.171,136.18,197.204,160.305,197.204z
		 M212.572,98.585c1.002,1.533,1.708,4.91,1.715,6.982c0.021,4.695-0.894,13.031-7.246,16.109
		c-3.006,1.456-7.541,2.325-12.133,2.325c-8.734,0-15.677-2.907-18.572-7.776c-6.244-10.49-4.157-16.569-4.14-16.619
		c0.163-0.4,2.071-3.951,18.895-4.93c2.908-0.169,5.366-0.251,7.515-0.251C207.975,94.426,210.896,96.017,212.572,98.585z
		 M186.696,36.124c-2.355,5.95-3.535,8.926-5.891,14.876c-15.209-4.296-25.791-4.296-41,0c-2.355-5.95-3.534-8.926-5.891-14.876
		C152.934,30.366,167.676,30.366,186.696,36.124z M160.305,69.123c26.491,0.043,40.388,11.899,48.789,19.272
		c-3.494-0.329-7.167-0.498-10.997-0.498c-3.237,0-6.581,0.123-9.936,0.363l-0.588,0.041c-6.839,0.484-10.606,0.752-15.186,2.801
		c-0.927,0.416-1.956,0.915-3.063,1.483c-1.573,0.811-3.912,1.717-5.108,1.979c-2.006,0.448-3.22,0.446-5.23,0
		c-1.191-0.262-3.529-1.169-5.106-1.979c-1.109-0.571-2.139-1.069-3.062-1.483c-4.579-2.05-8.347-2.316-15.195-2.801l-0.576-0.041
		c-3.351-0.24-6.691-0.361-9.928-0.361c-4.952,0-9.629,0.282-13.979,0.826C119.502,81.381,133.422,69.166,160.305,69.123z
		 M110.63,98.583c1.678-2.568,4.599-4.159,13.967-4.159c2.151,0,4.609,0.082,7.514,0.251c16.478,0.961,18.672,4.379,18.93,5.016
		c0.021,0.061,1.979,6.203-4.17,16.537c-2.898,4.868-9.84,7.775-18.571,7.775c-4.594,0-9.13-0.869-12.136-2.325
		c-6.349-3.077-7.266-11.415-7.247-16.11C108.925,103.491,109.631,100.112,110.63,98.583z M91.487,83.518
		c0.795,1.739,3.795,7.697,8.465,9.864c-0.224,0.545-0.371,1.162-0.412,1.856c-0.042,0.678-0.015,1.907,0.008,2.89l0.008,0.432
		c0.01,0.483,0.018,0.903,0.012,1.161c-0.06,2.468,0.924,3.529,1.601,4.26c0.15,0.166,0.269,0.296,0.339,0.412
		c0.221,0.371,0.381,0.849,0.476,1.421c2.481,15.047,3.087,17.646,9.904,21.237c3.158,1.664,9.574,2.783,15.966,2.783
		c4.979,0,12.178-0.66,18.203-3.803c9.089-4.742,12.227-20.58,12.362-21.287c0.003-0.01,0.288-1.062,3.175-1.062l0.23-0.002
		c2.227,0,2.922,0.733,2.992,1.226c0.135,0.67,3.394,16.455,12.337,21.125c6.025,3.143,13.225,3.803,18.204,3.803
		c6.387,0,12.802-1.119,15.964-2.783c6.82-3.592,7.426-6.191,9.905-21.239c0.094-0.567,0.254-1.046,0.478-1.421
		c0.07-0.119,0.192-0.254,0.361-0.438c0.652-0.704,1.637-1.768,1.577-4.233c-0.007-0.312,0.005-0.847,0.019-1.443l0.003-0.144
		c0.024-1.047,0.048-2.221,0.01-2.893c-0.073-1.253-0.493-2.246-1.075-3.029c3.561-2.651,5.848-7.208,6.526-8.692
		c0.189,4.992,0.259,10.044,0.259,15.083c0,34.006-15.016,55.076-27.612,66.764c-15.871,14.726-33.493,20.071-41.465,20.071
		c-7.972,0-25.594-5.345-41.465-20.071c-12.597-11.688-27.612-32.757-27.612-66.764C91.228,93.562,91.297,88.509,91.487,83.518z"/>
	<path d="M241.53,225.169h8.46c3.933,0,7.059,1.323,9.315,3.346c2.257-2.022,5.382-3.346,9.314-3.346h7.973
		c-15.128-9.414-49.783-27.93-65.451-36.3l-0.293-0.156c-1.981-1.059-4.403-0.847-6.169,0.541
		c-9.084,7.131-19.034,11.937-29.574,14.284c-1.862,0.415-3.391,1.738-4.066,3.521l-10.733,28.29l-10.733-28.29
		c-0.676-1.783-2.204-3.106-4.066-3.521c-10.54-2.347-20.49-7.153-29.574-14.284c-1.769-1.388-4.188-1.601-6.17-0.541
		c-17.134,9.156-58.237,31.294-69.83,39.106c-19.62,13.219-28.198,61.054-29.719,70.509c-0.15,0.938-0.064,1.897,0.253,2.793
		c0.703,1.982,18.709,48.547,149.84,48.547c27.684,0,50.309-2.08,68.809-5.374c-2.887-3.061-4.67-7.173-4.67-11.703v-8.459
		c0-3.933,1.323-7.059,3.346-9.314c-2.022-2.258-3.346-5.383-3.346-9.315v-8.46c0-3.566,1.101-6.877,2.976-9.619
		c-1.875-2.742-2.976-6.054-2.976-9.619v-35.549C224.445,232.833,232.109,225.169,241.53,225.169z"/>
	<path d="M326.056,250.083c2.658,0,5.017,1.299,6.912,2.344c1.395,0.767,2.493,1.373,3.625,1.373c0.491,0,2.934-0.174,2.934-3.586
		v-8.459c0-3.908-3.178-7.086-7.086-7.086H296.89c-3.907,0-7.085,3.178-7.085,7.086v35.549c0,3.907,3.178,7.086,7.085,7.086h35.551
		c3.908,0,7.086-3.179,7.086-7.086v-8.46c0-3.412-2.442-3.585-2.934-3.585c-1.132,0-2.23,0.605-3.625,1.373
		c-1.895,1.045-4.254,2.344-6.912,2.344c-5.114,0-9.275-4.237-9.275-9.446C316.779,254.319,320.939,250.083,326.056,250.083z"/>
	<path d="M277.251,234.669h-8.463c-3.41,0-3.584,2.443-3.584,2.934c0,1.131,0.607,2.23,1.373,3.623
		c1.044,1.896,2.344,4.256,2.344,6.912c0,5.117-4.237,9.277-9.447,9.277c-5.208,0-9.447-4.16-9.447-9.277
		c0-2.656,1.3-5.016,2.346-6.911c0.768-1.394,1.372-2.493,1.372-3.624c0-0.49-0.175-2.934-3.586-2.934h-8.46
		c-3.905,0-7.085,3.178-7.085,7.086v35.549c0,3.907,3.18,7.086,7.085,7.086h35.553c3.904,0,7.084-3.179,7.084-7.086v-35.549
		C284.335,237.847,281.155,234.669,277.251,234.669z"/>
	<path d="M277.251,289.454h-35.553c-3.905,0-7.085,3.18-7.085,7.088v8.46c0,3.412,2.444,3.585,2.934,3.585
		c1.13,0,2.231-0.607,3.624-1.373c1.895-1.045,4.257-2.344,6.913-2.344c5.116,0,9.276,4.237,9.276,9.447
		c0,5.207-4.16,9.445-9.276,9.445c-2.656,0-5.017-1.299-6.911-2.344c-1.395-0.767-2.496-1.372-3.626-1.372
		c-0.489,0-2.934,0.172-2.934,3.585v8.459c0,3.907,3.18,7.087,7.085,7.087h35.553c3.904,0,7.084-3.18,7.084-7.087v-35.549
		C284.335,292.634,281.155,289.454,277.251,289.454z"/>
	<path d="M332.441,289.454H296.89c-3.907,0-7.085,3.18-7.085,7.088v35.549c0,3.907,3.178,7.087,7.085,7.087h8.461
		c3.412,0,3.585-2.444,3.585-2.935c0-1.131-0.605-2.231-1.374-3.623c-1.043-1.898-2.342-4.257-2.342-6.913
		c0-5.116,4.236-9.277,9.447-9.277c5.208,0,9.445,4.161,9.445,9.277c0,2.656-1.3,5.016-2.344,6.913
		c-0.768,1.392-1.373,2.492-1.373,3.623c0,0.49,0.173,2.935,3.585,2.935h8.46c3.908,0,7.086-3.18,7.086-7.087v-35.549
		C339.527,292.634,336.349,289.454,332.441,289.454z"/>
</g>
<g>
</g>
<g>
</g>
<g>
</g>
<g>
</g>
<g>
</g>
<g>
</g>
<g>
</g>
<g>
</g>
<g>
</g>
<g>
</g>
<g>
</g>
<g>
</g>
<g>
</g>
<g>
</g>
<g>
</g>
</svg>
