<?xml version="1.0" encoding="iso-8859-1"?>
<!-- Generator: Adobe Illustrator 18.0.0, SVG Export Plug-In . SVG Version: 6.00 Build 0)  -->
<!DOCTYPE svg PUBLIC "-//W3C//DTD SVG 1.1//EN" "http://www.w3.org/Graphics/SVG/1.1/DTD/svg11.dtd">
<svg version="1.1" id="Capa_1" xmlns="http://www.w3.org/2000/svg" xmlns:xlink="http://www.w3.org/1999/xlink" x="0px" y="0px"
	 viewBox="0 0 349.652 349.652" style="enable-background:new 0 0 349.652 349.652;" xml:space="preserve">
<g>
	<path d="M323.918,298.317c-4.127-25.664-12.624-58.724-29.667-70.472c-11.638-8.024-52.243-29.719-69.582-38.981l-0.3-0.16
		c-1.982-1.059-4.402-0.847-6.17,0.541c-9.083,7.131-19.033,11.937-29.573,14.284c-1.862,0.414-3.39,1.737-4.067,3.521
		l-9.733,25.655l-9.733-25.655c-0.677-1.783-2.205-3.106-4.067-3.521c-10.54-2.348-20.49-7.153-29.573-14.284
		c-1.768-1.388-4.188-1.6-6.17-0.541l-0.3,0.16c-17.339,9.263-57.944,30.957-69.582,38.981
		c-17.043,11.748-25.54,44.808-29.667,70.472c-0.151,0.938-0.063,1.897,0.253,2.793c0.7,1.977,18.626,48.304,148.839,48.542
		c130.213-0.238,148.139-46.565,148.839-48.542C323.982,300.215,324.069,299.255,323.918,298.317z M259.493,279.657h-51.334v-10.811
		h51.334V279.657z"/>
	<path d="M174.826,197.177c22.083,0,79.846-29.957,79.846-98.584c0-9.703-0.237-19.076-1.036-27.934
		c-1.313-17.434-4.884-32.884-13.776-44.725C228.571,9.983,208.89,0.19,174.826,0c-34.064,0.19-53.745,9.983-65.035,25.935
		c-8.892,11.841-12.463,27.291-13.776,44.725c-0.799,8.857-1.036,18.23-1.036,27.934C94.98,167.22,152.743,197.177,174.826,197.177z
		 M226.094,98.575c1.002,1.535,1.708,4.911,1.715,6.982c0.021,4.695-0.893,13.031-7.246,16.111
		c-3.006,1.455-7.541,2.324-12.133,2.324c-8.734,0-15.677-2.906-18.572-7.775c-6.244-10.49-4.157-16.57-4.14-16.619
		c0.163-0.402,2.071-3.951,18.895-4.931c2.908-0.169,5.366-0.251,7.515-0.251C221.496,94.417,224.417,96.009,226.094,98.575z
		 M174.826,31.817c8.109,0.109,16.256,1.532,25.39,4.297c-2.355,5.951-3.535,8.927-5.89,14.877
		c-7.212-2.038-13.382-3.097-19.5-3.202c-6.118,0.105-12.288,1.164-19.5,3.202c-2.356-5.95-3.535-8.926-5.89-14.877
		C158.57,33.35,166.717,31.927,174.826,31.817z M174.826,69.13c25.838,0.337,39.496,11.979,47.79,19.257
		c-3.494-0.33-7.167-0.498-10.998-0.498c-3.237,0-6.581,0.122-9.936,0.363l-0.588,0.042c-6.839,0.483-10.607,0.75-15.186,2.801
		c-0.927,0.415-1.956,0.914-3.063,1.482c-1.573,0.811-3.912,1.717-5.108,1.98c-0.513,0.113-1.568,0.39-2.912,0.39
		c-1.344,0-2.399-0.276-2.912-0.39c-1.196-0.264-3.535-1.17-5.108-1.98c-1.106-0.568-2.136-1.067-3.062-1.482
		c-4.579-2.051-8.347-2.317-15.186-2.801l-0.588-0.042c-3.355-0.241-6.698-0.363-9.936-0.363c-3.831,0-7.503,0.168-10.998,0.498
		C135.33,81.108,148.988,69.467,174.826,69.13z M123.559,98.575c1.677-2.566,4.598-4.158,13.967-4.158
		c2.148,0,4.606,0.082,7.515,0.251c16.823,0.979,18.731,4.528,18.895,4.931c0.018,0.049,2.104,6.129-4.14,16.619
		c-2.896,4.869-9.838,7.775-18.572,7.775c-4.592,0-9.127-0.869-12.133-2.324c-6.353-3.08-7.267-11.416-7.246-16.111
		C121.851,103.486,122.557,100.11,123.559,98.575z M107.008,83.506c0.678,1.482,2.965,6.042,6.527,8.694
		c-0.582,0.784-1.003,1.777-1.076,3.03c-0.038,0.672-0.015,1.846,0.01,2.894l0.003,0.143c0.014,0.598,0.025,1.133,0.019,1.443
		c-0.06,2.466,0.925,3.529,1.577,4.232c0.169,0.186,0.291,0.319,0.361,0.438c0.224,0.376,0.384,0.854,0.478,1.422
		c2.479,15.049,3.085,17.647,9.905,21.238c3.162,1.666,9.577,2.784,15.964,2.784c4.979,0,12.18-0.659,18.204-3.803
		c8.943-4.671,12.202-20.455,12.337-21.124c0.07-0.494,0.766-1.227,2.992-1.227h1.035c2.227,0,2.922,0.732,2.992,1.227
		c0.135,0.669,3.394,16.453,12.337,21.124c6.024,3.144,13.225,3.803,18.204,3.803c6.387,0,12.802-1.118,15.964-2.784
		c6.82-3.591,7.426-6.189,9.905-21.238c0.094-0.567,0.254-1.046,0.478-1.422c0.07-0.118,0.192-0.252,0.361-0.438
		c0.652-0.703,1.637-1.767,1.577-4.232c-0.007-0.311,0.005-0.846,0.019-1.443l0.003-0.143c0.024-1.048,0.048-2.222,0.01-2.894
		c-0.073-1.253-0.494-2.246-1.076-3.03c3.562-2.652,5.85-7.212,6.527-8.694c0.19,4.993,0.259,10.047,0.259,15.087
		c0,34.005-15.016,55.075-27.612,66.762c-15.254,14.153-34.341,20.032-40.466,20.032s-25.212-5.879-40.466-20.032
		c-12.596-11.687-27.612-32.757-27.612-66.762C106.749,93.553,106.818,88.499,107.008,83.506z"/>
</g>
<g>
</g>
<g>
</g>
<g>
</g>
<g>
</g>
<g>
</g>
<g>
</g>
<g>
</g>
<g>
</g>
<g>
</g>
<g>
</g>
<g>
</g>
<g>
</g>
<g>
</g>
<g>
</g>
<g>
</g>
</svg>
