<?xml version="1.0" encoding="iso-8859-1"?>
<!-- Generator: Adobe Illustrator 18.0.0, SVG Export Plug-In . SVG Version: 6.00 Build 0)  -->
<!DOCTYPE svg PUBLIC "-//W3C//DTD SVG 1.1//EN" "http://www.w3.org/Graphics/SVG/1.1/DTD/svg11.dtd">
<svg version="1.1" id="Capa_1" xmlns="http://www.w3.org/2000/svg" xmlns:xlink="http://www.w3.org/1999/xlink" x="0px" y="0px"
	 viewBox="0 0 326.681 326.681" style="enable-background:new 0 0 326.681 326.681;" xml:space="preserve">
<g>
	<path d="M161.248,184.241c22.54,0,75.531-27.126,75.531-92.121c0-50.878-6.868-92.12-75.531-92.12
		C92.585,0,85.716,41.242,85.716,92.12C85.716,157.115,138.708,184.241,161.248,184.241z"/>
	<path d="M251.961,259.618v-49.541c-6.44-4.636-11.411-10.918-14.465-18.129c-10.989-6.001-21.804-11.779-28.688-15.457l-0.34-0.182
		c-1.853-0.99-4.113-0.791-5.764,0.505c-8.49,6.664-17.786,11.154-27.629,13.345c-1.739,0.388-3.167,1.624-3.8,3.29l-10.028,26.431
		l-10.028-26.431c-0.633-1.667-2.061-2.902-3.8-3.29c-9.843-2.191-19.139-6.681-27.631-13.346c-1.65-1.295-3.91-1.494-5.764-0.504
		c-16.005,8.551-54.4,29.23-65.239,36.536c-18.335,12.353-26.345,57.041-27.765,65.874c-0.141,0.875-0.059,1.772,0.237,2.608
		c0.656,1.852,17.477,45.355,139.989,45.355c34.25,0,60.233-3.401,79.919-8.341c-4.525-6.905-7.08-15.071-7.092-23.622
		c-0.02-11.574,4.478-22.456,12.662-30.642C248.371,262.443,250.115,260.956,251.961,259.618z"/>
	<path d="M287.833,268.275l0.002-66.832c3.537-1.41,6.789-3.525,9.563-6.299c5.379-5.379,8.335-12.529,8.323-20.135
		c-0.017-10.383-5.692-19.928-14.814-24.909c-0.257-0.14-0.539-0.209-0.821-0.209c-0.303,0-0.605,0.08-0.874,0.24
		c-0.52,0.313-0.839,0.869-0.837,1.475l0.038,25.348c-1.067,0.449-4.03,1.313-11.101,1.324c-0.04,0-0.08,0-0.12,0
		c-6.983,0-9.924-0.846-10.987-1.291l-0.039-25.346c-0.001-0.605-0.32-1.165-0.842-1.473c-0.267-0.158-0.568-0.237-0.869-0.237
		c-0.284,0-0.568,0.07-0.825,0.211c-2.353,1.295-4.513,2.918-6.417,4.821c-5.378,5.378-8.334,12.528-8.321,20.134
		c0.02,11.934,7.438,22.142,17.893,26.329v66.831c-3.538,1.412-6.791,3.525-9.564,6.299c-5.378,5.379-8.334,12.529-8.321,20.137
		c0.015,10.382,5.691,19.926,14.813,24.907c0.256,0.14,0.538,0.21,0.82,0.21c0.304,0,0.607-0.081,0.875-0.241
		c0.521-0.311,0.839-0.87,0.837-1.474l-0.039-25.346c1.067-0.451,4.031-1.314,11.102-1.324c0.048,0,0.096,0,0.143,0
		c6.968,0,9.901,0.845,10.963,1.29l0.04,25.345c0.002,0.605,0.32,1.165,0.842,1.473c0.268,0.158,0.568,0.237,0.869,0.237
		c0.285,0,0.569-0.07,0.826-0.212c2.353-1.295,4.512-2.917,6.416-4.82c5.378-5.379,8.333-12.529,8.32-20.135
		C305.707,282.67,298.287,272.463,287.833,268.275z"/>
</g>
<g>
</g>
<g>
</g>
<g>
</g>
<g>
</g>
<g>
</g>
<g>
</g>
<g>
</g>
<g>
</g>
<g>
</g>
<g>
</g>
<g>
</g>
<g>
</g>
<g>
</g>
<g>
</g>
<g>
</g>
</svg>
