<?xml version="1.0" encoding="iso-8859-1"?>
<!-- Generator: Adobe Illustrator 18.0.0, SVG Export Plug-In . SVG Version: 6.00 Build 0)  -->
<!DOCTYPE svg PUBLIC "-//W3C//DTD SVG 1.1//EN" "http://www.w3.org/Graphics/SVG/1.1/DTD/svg11.dtd">
<svg version="1.1" id="Capa_1" xmlns="http://www.w3.org/2000/svg" xmlns:xlink="http://www.w3.org/1999/xlink" x="0px" y="0px"
	 viewBox="0 0 397.295 397.295" style="enable-background:new 0 0 397.295 397.295;" xml:space="preserve">
<g>
	<path d="M214.956,209.616c-0.93,0-1.912-0.008-2.999-0.026c-2.032,1.566-4.551,2.449-7.164,2.449h-8.591
		c-6.475,0-11.742-5.267-11.742-11.741c0-6.474,5.268-11.741,11.742-11.741h8.591c3.103,0,6.005,1.209,8.158,3.295
		c0.716,0.008,1.421,0.012,2.114,0.012c11.088,0,18.396-1.017,23.177-2.243c-0.62-1.509-0.958-3.161-0.958-4.884v-29.768
		c0-3.097,1.148-6.065,3.136-8.358c-1.061-8.254-2.984-14.558-5.855-19.206c-5.92-9.581-17.333-14.043-35.917-14.043
		c-30.842,0-39.32,12.606-41.847,33.164c2.032,2.302,3.207,5.301,3.207,8.443v29.768c0,2.472-0.719,4.773-1.94,6.73
		c2.991,6.606,7.044,12.044,11.515,16.419c9.953,9.741,21.986,14.171,29.066,14.171c6.743,0,17.984-4.018,27.639-12.818
		C222.756,209.485,218.989,209.615,214.956,209.616z"/>
	<path d="M150.785,148.899c2.302-24.374,11.708-41.266,47.863-41.266c20.762,0,33.724,5.326,40.789,16.76
		c4.108,6.654,6.086,15.248,7.01,24.542c-2.056,1.226-3.437,3.466-3.437,6.033v29.768c0,3.346,2.344,6.139,5.475,6.85
		c-4.545,2.97-13.95,6.005-33.42,6.005c-1.579,0-3.222-0.02-4.936-0.062c-1.003-1.926-3.015-3.246-5.337-3.246h-8.591
		c-3.318,0-6.015,2.691-6.015,6.014c0,3.321,2.696,6.014,6.015,6.014h8.591c2.006,0,3.78-0.988,4.871-2.497
		c1.809,0.044,3.579,0.074,5.292,0.074c21.949-0.001,35.904-3.748,41.555-11.181c0.24-0.316,0.459-0.632,0.661-0.945h3.175
		c3.879,0,7.024-3.146,7.024-7.025v-29.768c0-3.88-3.145-7.026-7.024-7.026h-3.877c-1.091-11.23-3.508-20.789-8.481-28.836
		c-8.949-14.485-25.09-21.527-49.341-21.527c-24.253,0-40.393,7.042-49.343,21.527c-4.973,8.047-7.389,17.605-8.48,28.836h-3.876
		c-3.88,0-7.027,3.146-7.027,7.026v29.768c0,3.88,3.147,7.025,7.027,7.025h10.308c3.879,0,7.024-3.146,7.024-7.025v-29.768
		C154.282,152.376,152.876,150.117,150.785,148.899z"/>
	<path d="M198.647,248.306c-24.813,0-45,20.187-45,45c0,24.813,20.188,45,45,45s45-20.187,45-45
		C243.647,268.493,223.46,248.306,198.647,248.306z M188.682,303.757c0,1.101-0.895,1.993-1.995,1.993h-13.636
		c-1.1,0-1.992-0.892-1.992-1.993v-0.837c0-0.492,0.182-0.967,0.512-1.333l8.073-8.971c0.016-0.016,0.029-0.032,0.043-0.047
		c1.96-2.042,2.855-3.94,2.855-4.838c0-1.887-1.795-2.283-3.299-2.283c-1.512,0-3.159,0.74-4.305,1.93
		c-0.371,0.386-0.882,0.606-1.417,0.612c-0.527,0.007-1.05-0.205-1.429-0.583l-0.418-0.42c-0.77-0.767-0.781-2.011-0.026-2.793
		c2.014-2.087,4.851-3.331,7.595-3.331c4.716,0,7.884,2.76,7.884,6.868c0,2.348-1.503,5.261-4.122,7.993l-4.886,5.441h8.568
		c1.101,0,1.995,0.892,1.995,1.993V303.757z M205.635,297.538c0,1.102-0.892,1.993-1.993,1.993h-1.354v4.226
		c0,1.101-0.895,1.993-1.994,1.993h-0.599c-1.101,0-1.995-0.892-1.995-1.993v-4.226h-8.112c-1.1,0-1.993-0.892-1.993-1.993v-0.748
		c0-0.348,0.091-0.69,0.266-0.994l8.013-13.934c0.355-0.617,1.015-0.999,1.729-0.999h0.687c0.712,0,1.37,0.379,1.726,0.995
		c0.356,0.617,0.357,1.375,0.002,1.992l-6.384,11.096h4.067v-4.674c0-1.102,0.895-1.994,1.995-1.994h0.599
		c1.1,0,1.994,0.892,1.994,1.994v4.674h1.354c1.102,0,1.993,0.894,1.993,1.992V297.538z M226.237,304.4
		c0,1.238-1.006,2.241-2.244,2.241h-0.598c-1.239,0-2.242-1.003-2.242-2.241v-9.36c0-2.223-1.027-3.258-3.229-3.258
		c-2.843,0.063-4.307,1.763-4.307,5.053v7.565c0,1.238-1.004,2.241-2.243,2.241h-0.597c-1.239,0-2.244-1.003-2.244-2.241v-22.187
		c0-1.238,1.005-2.242,2.244-2.242h0.597c1.239,0,2.243,1.004,2.243,2.242v5.449c1.243-0.604,2.68-0.936,4.266-0.964
		c5.089,0,8.354,3.274,8.354,8.341V304.4z"/>
	<path d="M394.725,278.878c-1.41-1.95-3.671-3.106-6.078-3.106h-11.855V73.26c0-7.869-6.402-14.271-14.271-14.271H34.776
		c-7.869,0-14.271,6.402-14.271,14.271v202.513H8.647c-2.406,0-4.668,1.155-6.078,3.106c-2.408,3.332-4.022,9.574-0.637,16.198
		c5.107,9.994,19.935,17.542,45.332,23.077c26.741,5.827,65.064,9.335,114.208,10.474c-8.753-9.208-14.143-21.643-14.143-35.321
		c0-28.087,22.685-50.965,50.694-51.302l-5.454-14.369c-0.382-1.01-1.245-1.76-2.301-1.993c-5.963-1.328-11.595-4.048-16.74-8.087
		c-0.577-0.453-1.276-0.684-1.98-0.684c-0.518,0-1.037,0.125-1.513,0.379c-9.696,5.18-32.96,17.709-39.526,22.136
		c-8.554,5.762-13.394,23.124-15.563,33.257h-66.3V87.116h300v185.527h-66.247c-2.657-13.136-7.364-27.569-15.589-33.236
		c-6.578-4.537-29.543-16.807-39.35-22.046l-0.205-0.11c-0.476-0.254-0.996-0.379-1.514-0.379c-0.703,0-1.403,0.231-1.979,0.684
		c-5.146,4.039-10.778,6.759-16.741,8.087c-1.053,0.233-1.915,0.983-2.3,1.993l-5.451,14.369
		c28.009,0.337,50.692,23.215,50.692,51.302c0,13.678-5.39,26.112-14.143,35.321c49.144-1.139,87.466-4.647,114.208-10.474
		c25.397-5.535,40.225-13.083,45.332-23.077C398.747,288.452,397.134,282.21,394.725,278.878z M259.647,311.68c-4.971,0-9-4.029-9-9
		s4.029-9,9-9c4.971,0,9,4.029,9,9S264.618,311.68,259.647,311.68z M292.278,311.68c-4.971,0-9-4.029-9-9s4.029-9,9-9s9,4.029,9,9
		S297.249,311.68,292.278,311.68z M322.804,311.68c-4.971,0-9-4.029-9-9s4.029-9,9-9s9,4.029,9,9S327.775,311.68,322.804,311.68z"/>
</g>
<g>
</g>
<g>
</g>
<g>
</g>
<g>
</g>
<g>
</g>
<g>
</g>
<g>
</g>
<g>
</g>
<g>
</g>
<g>
</g>
<g>
</g>
<g>
</g>
<g>
</g>
<g>
</g>
<g>
</g>
</svg>
